<svg width="8" height="65" viewBox="0 0 8 65" fill="none" xmlns="http://www.w3.org/2000/svg">
<path d="M4.18359 0.5L4.18359 -2.18557e-08L3.18359 2.18557e-08L3.18359 0.5L3.68359 0.5L4.18359 0.5ZM3.33004 64.8536C3.52531 65.0488 3.84189 65.0488 4.03715 64.8536L7.21913 61.6716C7.41439 61.4763 7.41439 61.1597 7.21913 60.9645C7.02387 60.7692 6.70729 60.7692 6.51202 60.9645L3.6836 63.7929L0.855169 60.9645C0.659907 60.7692 0.343325 60.7692 0.148062 60.9645C-0.0471997 61.1597 -0.0471997 61.4763 0.148063 61.6716L3.33004 64.8536ZM3.68359 0.5L3.18359 0.5L3.1836 64.5L3.6836 64.5L4.1836 64.5L4.18359 0.5L3.68359 0.5Z" fill="#1A1A1A"/>
</svg>
