<svg width="41" height="38" viewBox="0 0 41 38" fill="none" xmlns="http://www.w3.org/2000/svg">
<path d="M40.4155 20.52C40.3357 18.7056 40.2268 16.8912 40.0962 15.0769C39.9583 13.2189 39.7986 11.361 39.6027 9.50307C39.5083 8.59587 39.4067 7.69594 39.3051 6.796C39.218 6.05573 39.16 5.30821 38.9277 4.59697C38.1439 2.18746 35.9231 0.481938 33.4047 0.293242C30.1896 0.0537429 26.9382 0.0392305 23.7159 0.0102003C20.5153 -0.0188299 17.3147 0.0101977 14.1214 0.148091C11.4506 0.256954 8.76536 0.423878 6.11635 0.80127C4.73016 0.997224 3.2859 1.29479 2.15373 2.16569C1.03607 3.02208 0.44821 4.32844 0.208711 5.6856C-0.0525608 7.16614 0.00549604 8.68297 0.00549604 10.1853C0.00549604 12.065 0.00549427 13.9447 0.0127518 15.8244C0.0127518 17.6823 0.0127589 19.533 0.0200164 21.3909C0.0200164 22.9295 -0.0670776 24.5044 0.215967 26.0212C0.462723 27.3566 1.1159 28.5977 2.3134 29.3089C3.49638 30.0129 4.93337 30.1435 6.28327 30.1798C7.01628 30.1943 7.75656 30.1943 8.48957 30.1943C8.87422 32.4877 8.91776 34.8246 8.63472 37.1325C8.60569 37.3648 8.90324 37.3866 9.04839 37.3212C11.9659 35.9568 14.1577 33.286 15.0141 30.2016C18.8025 30.2088 22.591 30.2161 26.3867 30.2234C28.3607 30.2306 30.3348 30.2306 32.3088 30.2379C33.9563 30.2379 35.7271 30.3758 37.273 29.7008C38.8406 29.0113 39.8059 27.48 40.2123 25.8761C40.626 24.1198 40.4953 22.3054 40.4155 20.52ZM37.048 29.1783C35.5384 29.8169 33.7168 29.6137 32.1201 29.6137C28.4406 29.6065 24.7537 29.5992 21.0742 29.592C19.0057 29.5847 16.9374 29.5847 14.8617 29.5774C14.6875 29.5774 14.4916 29.7153 14.448 29.8895C13.7513 32.7054 11.9006 35.1803 9.34596 36.5447C9.58546 34.2731 9.49837 31.9797 9.10646 29.7226C9.08469 29.621 8.96131 29.5702 8.87422 29.5629C6.29779 29.5557 2.63999 29.9403 1.3046 27.1389C0.723995 25.9196 0.687707 24.5189 0.687707 23.198C0.680449 21.4562 0.687709 19.7144 0.680451 17.9726C0.680451 16.1873 0.680453 14.4019 0.673195 12.6238C0.673195 10.9473 0.636906 9.26357 0.680451 7.58707C0.716739 6.25169 0.847377 4.82921 1.5441 3.66074C2.26986 2.43422 3.57621 1.88264 4.91886 1.5996C6.13087 1.34559 7.37916 1.22947 8.61294 1.11335C9.92656 0.98997 11.2402 0.902877 12.561 0.830302C15.5366 0.677894 18.5122 0.619831 21.4878 0.619831C24.6086 0.619831 27.7293 0.685152 30.8501 0.80853C32.2145 0.859333 33.637 0.801273 34.9288 1.31656C36.0537 1.76653 37.0117 2.58663 37.6649 3.60268C38.4415 4.82195 38.5503 6.19363 38.71 7.59433C38.9059 9.32889 39.0801 11.0634 39.2325 12.8053C39.3849 14.5688 39.5083 16.3324 39.6172 18.096C39.7188 19.8378 39.8422 21.5941 39.8349 23.3432C39.8276 24.1923 39.7696 25.0342 39.5736 25.8616C39.2108 27.2623 38.4197 28.5977 37.048 29.1783Z" fill="black"/>
<path d="M24.3254 6.25883C23.1787 5.73629 21.9449 5.4097 20.7039 5.24277C19.1508 5.02505 17.5396 5.09036 16.03 5.53307C14.2519 6.05562 12.6988 7.11522 11.5013 8.52318C9.82481 10.5045 8.83779 13.0519 8.88859 15.6574C8.93939 18.0088 9.82481 20.3022 11.2981 22.1311C12.7859 23.9818 14.8833 25.2736 17.2348 25.68C19.666 26.101 22.2207 25.6002 24.3399 24.3374C24.8624 24.0253 25.356 23.6697 25.8132 23.2633C29.5073 19.9466 30.4943 14.1841 28.0775 9.8368C27.2139 8.30545 25.9438 6.99184 24.3254 6.25883ZM26.626 21.3981C26.2704 21.8553 25.8712 22.269 25.443 22.6536C21.9231 25.7381 16.3493 26.0139 12.7859 22.8496C11.1239 21.369 9.9627 19.3224 9.59257 17.1234C9.17889 14.6486 9.81755 12.1447 11.1892 10.069C12.198 8.54496 13.5842 7.28214 15.2752 6.5709C16.6687 5.98304 18.1928 5.77257 19.7023 5.84515C22.1409 5.96853 24.7536 6.7088 26.4518 8.54495C29.696 12.0721 29.4855 17.7258 26.626 21.3981Z" fill="black"/>
<path d="M23.6928 17.6315C22.5824 18.8943 21.0075 19.6853 19.3165 19.7797C17.5965 19.874 15.9055 19.2209 14.6426 18.0669C14.3814 17.8274 13.9677 18.4298 14.2435 18.6766C15.6079 19.9249 17.4731 20.5853 19.3165 20.4547C21.1236 20.324 22.8364 19.4386 24.0266 18.0887C24.1355 17.9653 24.2299 17.7548 24.1137 17.6097C24.0049 17.4645 23.7944 17.5153 23.6928 17.6315Z" fill="black"/>
<path d="M15.6447 14.714C15.8334 14.6994 15.8914 14.4817 15.8914 14.3293C15.8914 13.8503 15.8914 13.3713 15.8914 12.885C15.8914 12.7326 15.7608 12.5294 15.5866 12.5439C15.3979 12.5585 15.3398 12.7762 15.3398 12.9286C15.3398 13.4076 15.3398 13.8866 15.3398 14.3728C15.3471 14.5253 15.4705 14.7285 15.6447 14.714Z" fill="black"/>
<path d="M22.715 14.714C22.9037 14.6994 22.9617 14.4817 22.9617 14.3293C22.9617 13.8503 22.9617 13.3713 22.9617 12.885C22.9617 12.7326 22.8311 12.5294 22.6569 12.5439C22.4682 12.5585 22.4102 12.7762 22.4102 12.9286C22.4102 13.4076 22.4102 13.8866 22.4102 14.3728C22.4102 14.5253 22.5408 14.7285 22.715 14.714Z" fill="black"/>
</svg>
