<svg width="41" height="36" viewBox="0 0 41 36" fill="none" xmlns="http://www.w3.org/2000/svg">
<path d="M39.1319 14.8765C39.8777 12.936 40.3956 10.816 39.8777 8.75114C39.3943 6.83134 38.0891 5.30517 36.1417 4.84248C35.8793 2.77076 34.3324 1.27912 32.2952 0.837147C30.1958 0.381367 28.1241 1.141 26.4322 2.36332C25.3756 1.06504 23.8011 0.21563 22.1368 0.03608C20.4035 -0.157281 18.6909 0.436614 17.3857 1.57606C16.7296 2.14234 16.1979 2.83982 15.8043 3.61326C13.6773 2.6948 11.1291 2.59811 9.05733 3.70994C7.22731 4.69056 6.02571 6.68632 6.29503 8.75805C4.55478 8.66827 2.85596 9.22073 1.65436 10.5397C0.155808 12.1764 -0.389741 14.4622 0.287023 16.5892C0.653028 17.7355 1.29526 18.7576 2.10323 19.6415C1.01212 21.2298 1.24692 23.4466 2.33803 24.9935C3.57416 26.7475 5.70113 27.4519 7.74524 26.8649C8.35295 28.3428 9.59597 29.496 11.1912 29.8137C12.7105 30.1106 14.3264 29.6272 15.4935 28.6328C16.7158 29.4201 18.0901 29.9449 19.5196 30.1935C20.2792 30.3247 21.0595 30.38 21.833 30.3385C22.1783 30.3247 22.5235 30.2902 22.8619 30.2419C23.0484 30.2142 23.2348 30.1866 23.4213 30.1452C23.587 30.1106 23.8495 29.9932 24.0083 30.0278C24.1602 30.0554 24.319 30.228 24.4433 30.3247C24.5953 30.4421 24.7403 30.5595 24.8784 30.6838C25.1754 30.9462 25.4447 31.2432 25.6864 31.5539C26.1836 32.1893 26.5634 32.9282 26.7982 33.7016C26.9847 34.3232 27.0054 35.069 27.7167 35.3314C28.0274 35.4488 28.3175 35.3935 28.6421 35.3383C29.0426 35.2623 29.4984 35.2416 29.8575 35.0275C30.4306 34.6823 30.6447 33.9641 30.4237 33.3494C30.1544 32.6036 29.8091 31.8785 29.4224 31.1879C31.6115 30.6769 33.2206 28.8814 33.6142 26.6785C36.3143 26.2641 38.6623 24.4617 39.8294 21.9895C40.8376 19.7037 40.7893 16.824 39.1319 14.8765ZM33.3725 26.0362C33.1929 26.057 33.1101 26.2849 33.0894 26.4299C32.8338 28.6466 31.0867 30.304 28.9045 30.6079C28.6904 30.6355 28.5523 30.9739 28.6559 31.1534C29.0426 31.8095 29.381 32.4862 29.6779 33.1837C29.7953 33.4599 30.0232 33.8328 29.9127 34.1367C29.8022 34.4613 29.4569 34.5027 29.1669 34.558C28.8216 34.6201 28.3727 34.7927 28.0274 34.6961C27.6891 34.5994 27.5509 34.337 27.4819 34.0193C27.33 33.3356 27.109 32.6796 26.7844 32.0581C26.4667 31.4642 26.0662 30.9048 25.5966 30.4214C25.3618 30.1797 25.1063 29.9518 24.837 29.7446C24.6505 29.5996 24.326 29.2889 24.0843 29.3027C23.7597 29.3234 23.4144 29.4684 23.0898 29.5168C22.7376 29.572 22.3923 29.6134 22.0332 29.6341C21.3565 29.6687 20.6728 29.6341 19.996 29.5444C18.4422 29.3234 16.9575 28.7502 15.6523 27.887C15.5695 27.8317 15.4382 27.8939 15.3761 27.9491C14.3057 28.9505 12.7726 29.3924 11.3293 29.1093C9.81696 28.8124 8.67751 27.6453 8.15267 26.2296C8.11814 26.1398 8.00074 26.0915 7.91097 26.1191C6.05332 26.7199 4.07828 26.1813 2.88359 24.6206C1.827 23.2394 1.49552 21.1401 2.6626 19.7175C2.76618 19.5932 2.7869 19.3722 2.67641 19.2548C1.31598 17.8391 0.314646 15.9193 0.563253 13.9028C0.791143 12.0176 2.13776 10.2566 3.96088 9.6558C4.80338 9.37957 5.69423 9.33123 6.57126 9.42791C6.79915 9.45553 6.96489 9.14477 6.91655 8.9445C6.40552 6.9004 7.63474 4.99441 9.46476 4.13119C11.4398 3.20582 13.8016 3.41299 15.7421 4.31765C15.9009 4.39361 16.0667 4.24168 16.1219 4.11048C16.9506 2.25973 18.7323 0.885487 20.7695 0.664503C22.8205 0.443519 24.8991 1.40342 26.1353 3.03318C26.2181 3.14367 26.3839 3.07461 26.4667 3.01246C28.0274 1.83158 29.9611 1.08575 31.9292 1.44485C33.8283 1.79014 35.4442 3.19201 35.6031 5.18777C35.6169 5.32589 35.6652 5.42947 35.8033 5.4571C37.6748 5.83691 38.9247 7.32165 39.3529 9.13787C39.8087 11.0922 39.2769 13.0741 38.5518 14.8904C38.5035 15.0147 38.4897 15.1666 38.5863 15.2771C40.1816 17.0173 40.2713 19.676 39.3253 21.7547C38.2272 24.1026 35.9483 25.7186 33.3725 26.0362Z" fill="black"/>
<path d="M19.5334 16.5202C17.6688 17.0312 16.1979 18.5229 15.6454 20.346C14.941 19.2549 13.919 18.3571 12.6552 17.8047C12.2823 17.6458 12.1787 18.3088 12.4826 18.4331C13.7809 18.9924 14.8167 19.9523 15.4797 21.1194C15.4797 21.1263 15.4797 21.1401 15.4728 21.147C15.459 21.2437 15.5211 21.3059 15.5971 21.3335C16.2048 22.5282 16.4327 23.9163 16.1495 25.3181C16.115 25.477 16.1495 25.691 16.3084 25.7739C16.4534 25.8499 16.6122 25.7532 16.6467 25.6013C16.9575 24.0406 16.7365 22.4591 16.0805 21.0987C16.0943 21.0642 16.1081 21.0296 16.1081 20.9882C16.3705 19.1582 17.7517 17.5699 19.5334 17.0796C19.8717 16.9967 19.9684 16.4028 19.5334 16.5202Z" fill="black"/>
<path d="M28.957 14.1378C28.9985 14.5245 29.5371 14.6488 29.4888 14.193C29.3852 13.1986 28.9985 12.1075 28.2803 11.3755C29.2747 11.265 30.2622 10.9888 31.2014 10.5399C31.4984 10.3949 31.3119 9.73193 30.9735 9.89767C27.6933 11.486 23.7156 10.8023 21.1674 8.19885C20.8635 7.88809 20.6356 8.4958 20.8704 8.7375C22.6107 10.5123 24.9655 11.4515 27.3549 11.4377C28.0317 11.7622 28.4529 12.3975 28.7015 13.0881C28.7913 13.3367 28.8604 13.5992 28.9156 13.8616C28.9432 14.0273 28.9432 13.9997 28.957 14.1378Z" fill="black"/>
<path d="M16.2808 9.88369C16.5225 9.5246 15.8941 9.39339 15.7076 9.66962C14.5751 11.3477 12.4481 11.8656 10.6526 10.9472C10.3487 10.7953 9.89986 11.2441 10.2866 11.4375C12.3721 12.5148 14.9756 11.8242 16.2808 9.88369Z" fill="black"/>
<path d="M31.0529 16.0023C28.9466 17.494 28.1732 20.2977 29.2021 22.6664C29.3817 23.0807 29.8168 22.6802 29.6717 22.3487C28.774 20.2839 29.43 17.9221 31.267 16.6238C31.5432 16.4305 31.3775 15.7675 31.0529 16.0023Z" fill="black"/>
</svg>
