<svg width="51" height="81" viewBox="0 0 51 81" fill="none" xmlns="http://www.w3.org/2000/svg">
<path d="M15.2897 34.8483C15.2752 34.8426 15.2606 34.8372 15.2461 34.8316C15.2687 34.8425 15.2928 34.8531 15.3143 34.8612C15.3 34.8549 15.2925 34.8508 15.2897 34.8483Z" fill="#1A1A1A"/>
<path d="M46.4076 44.0677C46.3552 44.0499 46.3039 44.0398 46.2533 44.0335C46.501 39.6235 46.5126 35.1984 46.922 30.7957C47.1261 23.5865 47.5818 15.0156 44.1478 8.4842C41.1841 3.11367 35.3452 -0.714032 29.0791 0.112323C24.593 0.53255 18.4298 3.24494 16.6563 7.66114C15.1886 11.4693 16.2556 16.4317 15.3697 19.6026C15.1332 20.3442 15.1286 20.4458 14.9101 20.7985C14.8969 20.8126 14.8839 20.8261 14.8711 20.8384C13.5607 20.8181 12.0728 19.19 10.9258 17.1873C9.84194 15.4296 8.66967 13.4619 6.88378 12.3493C5.88171 11.7921 4.62014 11.4394 3.52588 11.932C1.67308 12.7745 0.443685 14.6259 0.113523 16.6048C-0.508807 20.3934 1.53216 23.833 3.6833 26.7744C4.59118 28.0221 5.70733 29.4345 7.21911 30.7993C8.43951 31.8436 9.83397 32.6722 11.3084 33.3052C11.317 33.3131 11.4872 33.3985 11.605 33.437C12.6386 33.8854 13.7181 34.2142 14.7584 34.6452C14.92 34.7109 15.0844 34.7693 15.2474 34.8315C15.1834 34.8007 15.1364 34.7717 15.2271 34.819C15.2479 34.8276 15.2689 34.8356 15.2896 34.8448C15.3127 34.8566 15.3348 34.8644 15.3564 34.873C15.3461 34.8718 15.3315 34.867 15.3156 34.8611C15.3306 34.8675 15.3505 34.8754 15.3808 34.8862C15.4579 34.9239 15.5286 34.9726 15.599 35.0214C15.6096 35.0314 15.6191 35.0428 15.6295 35.0533C16.1214 36.9603 16.3959 39.152 16.3899 41.9943C16.3981 42.4313 16.3925 42.8682 16.3839 43.305C16.3228 43.1934 16.2352 43.0969 16.1195 43.0338C15.5026 42.7512 14.8116 43.2078 14.2772 43.5058C13.3121 44.077 12.4777 45.3006 13.0858 46.4071C13.123 46.4734 13.1671 46.5335 13.2117 46.5928C14 57.0253 14.8225 67.2829 15.6451 77.5404C25.7923 81.3805 36.8917 81.0219 46.4236 76.9014C48.0269 67.105 49.2027 57.5926 49.9693 48.0486C50.0223 47.9894 50.0758 47.9308 50.1207 47.8621C51.0123 45.6635 48.1059 44.4533 46.4076 44.0677ZM16.3532 46.4154C15.7022 46.2333 15.124 46.0109 14.6348 45.6961C14.6077 45.6756 14.5917 45.6643 14.5731 45.651C14.563 45.642 14.5535 45.6334 14.5453 45.6262C14.5323 45.6051 14.5196 45.5838 14.5078 45.562C14.5076 45.5445 14.5077 45.5287 14.508 45.5132C14.5122 45.4971 14.5165 45.4809 14.5208 45.4662C14.5648 45.3777 14.6128 45.291 14.6701 45.2104C14.7477 45.097 14.9035 44.9098 15.4688 44.5961C15.9033 44.3624 15.7495 44.526 16.1943 44.2537C16.2687 44.2047 16.3228 44.1398 16.3679 44.0697C16.3553 44.5746 16.3429 45.0795 16.3439 45.5845C16.3716 45.8485 16.3324 46.1419 16.3532 46.4154ZM17.7295 46.7359C17.7584 46.6599 17.7776 46.5787 17.7747 46.4887C17.8763 42.5017 18.0035 38.2934 17.2365 34.9512C17.1633 34.1886 16.5841 33.5983 15.8896 33.3349C14.8001 32.8857 13.6882 32.4953 12.5913 32.0652C11.4022 31.612 9.00966 30.3373 7.9991 29.2782C6.0227 27.3433 5.00203 25.9138 3.50512 23.5375C1.63476 20.5612 0.908841 17.3488 2.61088 14.7707C2.66022 14.7125 2.71167 14.6511 2.76487 14.5885C2.72069 15.3247 2.80595 16.0738 2.93225 16.8022C3.18997 18.368 3.57861 19.9234 4.2908 21.349C5.68904 24.2972 8.2001 26.5744 10.8262 28.4342C12.7428 29.7937 15.7915 31.249 17.0982 32.1849C18.9052 34.4245 18.8436 39.2476 19.0302 43.3984C19.0655 44.6037 19.0708 45.8094 19.0747 47.0151C18.9276 46.9812 18.7859 46.9493 18.6328 46.9131C18.321 46.8532 18.0217 46.795 17.7295 46.7359ZM24.6116 36.4044C24.4467 39.7417 24.2596 43.0822 24.3721 46.4246C24.3861 46.9508 24.4035 47.4769 24.424 48.0028C23.2197 47.8396 22.0835 47.6543 20.7397 47.3789C20.733 46.0031 20.7313 44.6272 20.6886 43.2519C20.6363 40.9837 20.522 38.7145 20.2374 36.4624C20.0516 34.9968 19.7803 33.5119 19.0827 32.1938C18.6724 31.3733 18.0513 30.6648 17.212 30.2698C16.0298 29.6443 14.8598 28.996 13.7095 28.3133C10.3396 26.292 7.5035 24.1281 5.74633 20.778C5.17124 19.6557 4.8638 18.4431 4.53005 16.7949C4.30348 15.3911 4.10863 14.7238 4.55525 13.3711C5.07561 13.3456 4.94368 13.3597 5.67583 13.5954C6.08796 13.7801 6.64904 14.0801 7.31527 14.9135C8.76201 16.3838 9.75261 19.0195 11.611 20.8846C13.4548 22.6443 16.0744 23.6111 16.8721 20.3752C17.5767 18.1242 17.4022 15.7268 17.4467 13.3992C17.5998 10.1044 17.722 7.82054 19.9224 5.83558C22.1623 3.79281 25.0907 2.38686 28.2944 1.8917C27.0532 3.39726 26.3941 5.78294 26.0291 7.81319C25.0787 12.1436 25.1173 16.5795 25.0199 20.9877C24.9334 26.1281 24.8359 31.2678 24.6116 36.4044ZM36.1947 30.6558C35.9761 36.6295 35.684 42.6004 35.4212 48.572C35.3951 48.7363 35.4319 48.8877 35.5075 49.015C33.1069 48.9215 30.7087 48.76 28.3225 48.4783C27.5031 48.381 26.7772 48.2966 26.1007 48.2152C26.0848 47.8369 26.0646 47.4588 26.0535 47.0802C25.9841 45.0787 25.9855 43.0753 26.0548 41.0737C26.4327 33.949 26.5205 26.8169 26.6366 19.6846C26.6996 15.5109 26.7369 11.9464 27.541 8.22792C27.9124 6.11871 28.6412 3.79723 29.4481 2.88987C30.4071 1.93445 30.4248 1.90836 31.1743 1.83807C31.546 1.79541 31.9424 1.94466 32.3053 1.87423C32.355 1.93679 32.4141 1.9943 32.4946 2.03811C34.0695 2.91388 34.5354 3.65571 35.1069 5.129C35.9591 7.57138 36.1368 9.38517 36.346 11.7028C36.9548 18.0156 36.5833 24.3431 36.1947 30.6558ZM45.182 31.9306C44.7966 36.2899 44.8016 40.6676 44.5442 45.033C44.4695 46.0143 44.4052 46.9973 44.2903 47.9751C44.2396 48.2398 44.3118 48.5193 44.4981 48.7157C42.5337 49.0336 40.5619 49.0991 38.2906 49.0971C37.7686 49.0871 37.2466 49.0695 36.7246 49.0541C36.9257 48.7153 36.8239 48.2648 36.8615 47.8814C36.8844 46.4483 36.9526 45.0165 37.0084 43.5844C37.2327 39.2095 37.3544 34.8303 37.5463 30.454C37.6973 27.0799 37.997 23.7118 38.0356 20.3335C38.0506 17.1415 37.9379 13.9467 37.6532 10.767C37.3918 8.29483 37.0282 5.76509 35.9097 3.51717C35.7368 3.18209 35.5279 2.8625 35.2935 2.56184C37.1858 3.33013 39.0723 4.58181 40.5106 6.26421C41.678 7.49749 42.7183 9.1115 43.5745 11.1184C44.2929 12.9475 45.0736 16.8257 45.2101 19.1307C45.4699 23.3891 45.4699 27.6737 45.182 31.9306ZM47.1756 48.0145C47.0995 48.0592 47.0413 48.1126 46.9923 48.1692C46.6174 48.2754 46.2468 48.3685 45.878 48.4523C45.9148 48.36 45.9395 48.2612 45.9351 48.151C46.026 47.2778 46.0958 46.4034 46.1572 45.5285C46.1908 45.5352 46.2244 45.5419 46.2577 45.5488C47.2569 45.8309 47.3343 45.8447 48.1922 46.3683C48.4212 46.5553 48.681 46.7778 48.7349 47.0819C48.7375 47.1011 48.7372 47.1106 48.7377 47.1202C48.2361 47.4499 47.7142 47.7494 47.1756 48.0145Z" fill="#1A1A1A"/>
</svg>
