<svg width="60" height="242" viewBox="0 0 60 242" fill="none" xmlns="http://www.w3.org/2000/svg">
<g clip-path="url(#clip0_32170_1040)">
<path d="M37.4257 43.7884C36.2549 39.5493 34.5148 35.4167 32.6082 31.4599C30.8125 27.7345 28.7208 23.9581 25.8191 20.9639C22.8989 17.9512 17.5815 20.2373 17.5862 24.3746C17.5862 24.4487 17.5862 24.5135 17.5815 24.5736C17.6001 24.5042 17.6232 24.4302 17.6556 24.3422C17.6232 24.4348 17.6047 24.532 17.5815 24.6292C17.563 24.8976 17.5168 25.0457 17.4982 25.0411C17.4381 25.3928 17.3964 25.7491 17.327 26.0777C17.0123 27.5123 16.6375 28.9331 16.258 30.3492C15.2769 34.0237 14.2356 37.6797 13.31 41.3681C13.0416 42.4279 12.7871 43.4923 12.5464 44.5613C12.2734 45.0889 12.0096 45.6118 11.7551 46.1301C8.95061 51.827 5.71112 59.5231 8.74236 65.7522C10.5796 69.5239 14.4254 72.0183 18.6737 71.6666C22.7046 71.3334 26.194 69.1768 29.2159 66.6269C32.2426 64.0769 35.0331 60.7495 36.6575 57.1259C38.592 52.7989 38.6799 48.3237 37.4304 43.7884H37.4257Z" fill="white"/>
<path d="M17.5848 24.5735C17.4968 24.8882 17.4829 25.0316 17.4968 25.0363C17.52 24.8974 17.5477 24.7586 17.5801 24.6244C17.5801 24.6059 17.5801 24.5874 17.5801 24.5688L17.5848 24.5735Z" fill="white"/>
<path d="M52.0733 166.098C57.2149 162.548 57.5203 156.097 55.2897 150.738C52.1381 143.176 44.5993 138.71 36.695 137.396C38.9256 130.963 41.5542 124.651 42.7482 117.917C43.1879 115.442 42.1096 112.605 39.3791 111.985C29.9013 109.828 20.5716 112.781 11.0706 112.878C6.01702 112.929 3.9415 120.283 7.12546 122.625C5.86669 132.927 10.594 142.593 18.0633 149.692C14.7405 153.621 12.9264 158.675 13.565 164.011C14.1528 168.912 16.4945 173.123 20.0162 176.113C20.0162 176.145 20.0162 176.173 20.0209 176.205C15.5457 181.305 13.3845 188.636 14.3101 195.258C15.0552 200.589 18.253 205.388 23.2789 207.476C23.3575 208.734 23.5704 209.97 23.9916 211.141C21.9923 212.33 20.1181 213.691 18.577 215.412C13.7455 220.818 15.2681 228.083 21.3537 231.85C25.2041 234.234 30.2068 234.891 34.7837 234.076C42.9426 237.955 53.2534 228.074 54.9148 220.221C55.41 217.879 54.4243 215.459 52.1242 214.533C51.9761 214.473 51.8188 214.422 51.6614 214.376C52.2168 208.359 49.2411 203.616 46.0525 198.821C51.3514 194.43 54.8037 187.571 55.1925 180.773C55.4933 175.493 53.3275 171.073 50.361 167.088C50.9488 166.815 51.5272 166.491 52.0826 166.107L52.0733 166.098ZM32.2106 120.69C31.7802 122.221 31.3036 123.739 30.7945 125.248C30.415 123.716 32.678 126.766 32.2106 125.248C33.1084 125.22 31.3221 120.648 32.2106 120.685V120.69Z" fill="#ADC6FF"/>
<path d="M59.847 218.267C59.0048 211.113 56.5659 202.838 51.0032 198.326C59.2038 190.88 59.7776 178.07 52.7849 169.67C57.6071 166.047 59.1112 158.133 57.1721 151.765C55.0248 144.722 49.7259 138.095 42.8166 136.248C44.9824 132.305 46.6253 128.089 47.5647 123.665C48.5319 119.116 50.1933 111.952 46.1671 108.384C42.1779 104.848 34.0375 105.903 29.2107 106.047C29.1366 106.047 29.0672 106.056 28.9932 106.056C28.7525 96.5737 28.5119 87.0912 28.2666 77.6041C36.6384 73.5363 41.095 63.6743 40.9932 54.0299C40.7942 35.6759 25.9018 21.6304 24.7032 3.54937C24.3977 -1.0831 17.3171 -1.20343 17.3032 3.25781C17.0765 3.73911 16.9423 4.30371 16.9747 4.97012C17.7475 22.468 7.56164 37.2216 3.84548 53.7939C1.11042 65.9883 5.54852 79.9551 20.2466 79.5293C20.4733 79.5247 20.6908 79.5062 20.9083 79.4923C21.1397 88.5305 21.3711 97.564 21.5979 106.602C16.6692 107.158 11.7915 108.078 6.97853 109.319C6.91374 109.337 6.86746 109.365 6.80267 109.384C-2.17072 111.096 -0.301071 125.65 1.4899 132.898C3.21609 139.863 6.56665 147.947 12.4995 151.738C7.96426 155.972 4.896 161.697 5.55315 168.125C6.08998 173.35 9.27394 178.121 13.6843 180.671C9.00552 185.41 6.10387 191.801 7.10348 198.664C7.93649 204.398 11.4814 209.326 16.3083 212.052C10.3152 216.962 6.01131 223.756 9.28782 231.883C11.1899 236.603 15.4151 238.81 20.1864 239.778C26.8042 241.124 34.0144 242.101 40.7294 241.073C52.4193 239.292 61.2817 230.494 59.8424 218.258L59.847 218.267ZM20.2373 72.1294C3.59557 72.8513 12.4533 49.9065 15.5539 41.6828C17.9974 35.2038 20.5566 28.748 22.2967 22.1255C25.0549 28.5258 28.3823 34.7364 30.8536 41.419C34.6253 51.6234 35.7128 71.4584 20.2373 72.1294ZM9.43591 133.8C6.59442 126.044 7.7375 119.31 8.34374 116.612C9.57938 116.316 10.815 116.02 12.0553 115.724C15.5076 114.932 18.9878 114.326 22.5142 113.937C24.6199 113.724 26.7255 113.516 28.8312 113.303C32.1633 113.016 35.7683 112.878 38.4201 113.641C41.1644 114.433 41.0719 114.275 41.0904 117.07C41.1089 119.773 40.2481 122.795 39.4567 125.363C38.3507 128.964 36.7171 132.259 34.7132 135.387C32.8991 137.507 30.1687 140.223 26.3461 142.676C23.3981 144.564 20.6122 145.772 18.363 146.554C16.2388 144.759 11.9257 140.621 9.42666 133.795L9.43591 133.8ZM13.0225 165.052C13.3973 162.354 14.633 160.406 15.7668 158.971C19.6311 154.075 23.9442 154.07 30.562 149.877C32.6122 148.577 35.5323 146.466 38.6515 143.139C42.9785 142.898 46.4263 146.443 48.4718 150.109C50.7348 154.163 51.9149 160.512 48.9207 163.784C45.3202 167.718 39.0125 163.622 30.0159 166.787C24.7263 168.648 21.0796 172.119 18.8073 174.789C14.9292 173.544 12.407 169.453 13.0179 165.052H13.0225ZM14.3229 195.873C12.9161 183.545 34.255 169.282 45.8663 173.438C46.0977 173.521 46.2782 173.595 46.3707 173.632C48.9762 176.182 49.6797 178.426 49.8925 179.852C51.4105 189.94 34.977 201.181 23.0464 205.99C22.5512 206.189 22.144 206.346 21.8848 206.443C15.4151 201.839 14.508 197.53 14.3183 195.873H14.3229ZM37.638 234.011C30.2011 234.59 17.6318 234.618 15.9658 228.657C14.7441 224.279 19.6866 217.934 27.628 213.459C34.5373 211.751 41.8679 209.447 45.9542 203.444C50.1748 206.18 51.7853 214.001 52.4101 218.161C53.8586 227.824 46.5559 233.326 37.638 234.016V234.011Z" fill="#1A1A1A"/>
</g>
<defs>
<clipPath id="clip0_32170_1040">
<rect width="60" height="241.509" fill="white"/>
</clipPath>
</defs>
</svg>
