<svg width="134" height="29" viewBox="0 0 134 29" fill="none" xmlns="http://www.w3.org/2000/svg">
<path fill-rule="evenodd" clip-rule="evenodd" d="M18.9029 18.896V18.9795H9.94575C6.09129 18.9795 2.96674 15.4289 2.96674 11.0489C2.96674 6.66897 6.09129 3.11842 9.94575 3.11842H18.9029V3.27658V0.0560452H9.69916C4.34215 0.0560452 0 5.02135 0 11.1087C0 17.1961 4.34215 22.1614 9.69916 22.1614H18.9029V18.896Z" fill="black"/>
<path fill-rule="evenodd" clip-rule="evenodd" d="M31.2872 14.1923C31.2872 16.7154 29.4876 18.7603 27.2672 18.7603C25.0468 18.7603 23.2473 16.7154 23.2473 14.1923C23.2473 11.6691 25.0468 9.62423 27.2672 9.62423C29.4876 9.62423 31.2872 11.6691 31.2872 14.1923ZM31.2893 20.4851C30.1605 21.4179 28.7709 21.9684 27.2683 21.9684C23.4884 21.9684 20.4241 18.4863 20.4241 14.191C20.4241 9.89572 23.4884 6.41366 27.2683 6.41366C31.0482 6.41366 33.9953 9.76371 34.1092 13.9457H34.1147V22.0941H31.2904V20.4864L31.2893 20.4851Z" fill="black"/>
<path fill-rule="evenodd" clip-rule="evenodd" d="M44.5427 14.1512V0H47.367V8.01771C48.4958 7.08617 49.8833 6.53696 51.3847 6.53696C55.1647 6.53696 58.229 10.019 58.229 14.3143C58.229 18.6096 55.1647 22.0917 51.3847 22.0917C47.6793 22.0917 44.6611 18.7453 44.5438 14.5671H44.5416V14.4787C44.5416 14.4239 44.5405 14.3691 44.5405 14.3143C44.5405 14.2595 44.5405 14.2047 44.5416 14.1499L44.5427 14.1512ZM47.3681 14.4525C47.4306 16.9134 49.206 18.8848 51.3858 18.8848C53.5657 18.8848 55.4058 16.8399 55.4058 14.3168C55.4058 11.7937 53.6062 9.74878 51.3858 9.74878C49.1654 9.74878 47.4306 11.7214 47.3681 14.1811V14.4525Z" fill="black"/>
<path fill-rule="evenodd" clip-rule="evenodd" d="M38.4612 14.2956C38.4612 14.323 38.4612 14.3504 38.4612 14.3778H38.4579V22.0717H35.6337V13.9233H35.6446C35.8156 9.79984 38.8108 6.51704 42.4812 6.51704C42.7047 6.51704 42.9272 6.52949 43.1453 6.55315V9.78863C42.9294 9.74753 42.708 9.72636 42.4812 9.72636C40.2608 9.72636 38.4612 11.7713 38.4612 14.2944V14.2956Z" fill="black"/>
<path fill-rule="evenodd" clip-rule="evenodd" d="M90.6176 14.0079C90.6176 9.67898 87.5293 6.16828 83.7186 6.16828C79.908 6.16828 76.8196 9.67774 76.8196 14.0079V21.9882C76.8196 22.0567 76.8689 22.1128 76.9292 22.1128H79.4247V14.5036C79.4247 11.8098 81.3459 9.62668 83.7164 9.62668C86.087 9.62668 88.0082 11.8098 88.0082 14.5036V22.1128H90.508C90.5683 22.1128 90.6176 22.0567 90.6176 21.9882V14.0079Z" fill="black"/>
<path fill-rule="evenodd" clip-rule="evenodd" d="M133.31 14.496V28.641H130.486V20.6233C129.357 21.5548 127.97 22.104 126.468 22.104C122.688 22.104 119.624 18.622 119.624 14.3267C119.624 10.0314 122.688 6.54933 126.468 6.54933C130.248 6.54933 133.192 9.89564 133.309 14.0751H133.311V14.1573C133.311 14.2134 133.312 14.2706 133.312 14.3267C133.312 14.3827 133.312 14.44 133.311 14.496H133.31ZM130.486 14.1847C130.421 11.7263 128.647 9.75616 126.468 9.75616C124.29 9.75616 122.448 11.8011 122.448 14.3242C122.448 16.8473 124.248 18.8922 126.468 18.8922C128.689 18.8922 130.421 16.922 130.486 14.4637V14.1847Z" fill="black"/>
<path fill-rule="evenodd" clip-rule="evenodd" d="M98.4371 13.9669H98.4525C98.4448 14.0839 98.4404 14.201 98.4404 14.3193C98.4404 16.8424 100.24 18.8873 102.46 18.8873C102.644 18.8873 102.826 18.8736 103.004 18.8462V22.0767C102.992 22.0767 102.98 22.0792 102.967 22.0805H101.952C98.5149 21.794 95.7838 18.6245 95.6227 14.6917H95.6129V9.38388H92.1354V6.17456H95.6129V0H98.4371V6.17207H101.912V9.38139H98.4371V13.9669Z" fill="black"/>
<path fill-rule="evenodd" clip-rule="evenodd" d="M111.364 9.74505C109.518 9.74505 107.964 11.1573 107.492 13.0826H115.237C114.764 11.1573 113.209 9.74505 111.365 9.74505H111.364ZM118.208 14.3131C118.208 14.6506 118.189 14.9831 118.152 15.3106H115.287C115.287 15.3106 115.287 15.3081 115.287 15.3056H107.438C107.837 17.3518 109.442 18.8811 111.363 18.8811C112.781 18.8811 114.028 18.0455 114.744 16.7851H117.854C116.945 19.8687 114.382 22.0904 111.363 22.0904C107.583 22.0904 104.518 18.6084 104.518 14.3131C104.518 10.0178 107.583 6.53573 111.363 6.53573C115.143 6.53573 118.207 10.0178 118.207 14.3131H118.208Z" fill="black"/>
<path fill-rule="evenodd" clip-rule="evenodd" d="M70.1134 19.0044L72.6221 14.0665L70.1134 9.12855H65.0962L62.5876 14.0665L65.0962 19.0044H70.1134ZM71.548 21.8886L75.5329 14.0465L71.548 6.20442H63.5783L59.5934 14.0465L63.5783 21.8886H71.548Z" fill="#F0AD00"/>
<path d="M65.4705 9.44974L63.0868 14.1413L63.8518 14.6432L66.2355 9.95163L65.4705 9.44974Z" fill="black"/>
<path d="M71.3814 13.3299L68.9977 18.0215L69.7627 18.5234L72.1464 13.8318L71.3814 13.3299Z" fill="black"/>
</svg>
