<svg width="125" height="125" viewBox="0 0 125 125" fill="none" xmlns="http://www.w3.org/2000/svg">
<g clip-path="url(#clip0_32246_7382)">
<path d="M17.9699 112.262C23.2136 100.444 28.4573 88.6258 33.7009 76.8079C35.608 72.5099 37.5544 68.0142 37.335 63.3172C37.1978 60.3818 36.2174 57.5619 35.5628 54.697C34.9082 51.8322 34.5969 48.7346 35.7473 46.0304C36.8976 43.3263 39.9115 41.2363 42.7491 42.0004C42.2719 39.4688 43.7965 36.7047 46.1925 35.7579C48.5884 34.8111 51.5907 35.7864 52.9729 37.9604C55.5535 36.4115 59.1052 37.9736 60.7061 40.5222C62.307 43.0709 62.4472 46.2477 62.4202 49.2574C62.1995 73.89 53.9969 98.4879 57.7909 122.441C57.5204 124.188 55.4861 125.246 53.7435 124.951C52.0008 124.655 50.5874 123.357 49.5663 121.914C48.3086 123.06 46.9814 124.245 45.3343 124.672C43.6872 125.1 41.6353 124.486 41.0218 122.899C40.9459 122.703 40.8916 122.493 40.7659 122.325C40.1564 121.507 38.9436 122.37 38.1358 122.993C36.827 124 34.99 124.277 33.4425 123.699C31.895 123.121 30.6887 121.709 30.3605 120.09C28.8062 121.005 27.0226 121.826 25.2567 121.459C23.4907 121.092 22.0455 118.983 22.977 117.438C21.6288 117.062 20.2203 118.382 18.8837 117.967C18.0827 117.718 17.5766 116.885 17.4607 116.054C17.3449 115.224 17.0916 114.241 17.9699 112.262Z" fill="#1A1A1A"/>
<path d="M107.552 116.932C99.2339 102.555 92.4646 87.2826 87.3988 71.4639C86.4351 68.4545 85.5223 65.317 85.9078 62.1807C86.1866 59.9123 87.1312 57.7821 87.6291 55.5516C88.1147 53.3757 88.1693 51.1045 87.7886 48.9079C87.4679 47.057 86.7611 45.1492 85.2522 44.0303C83.7432 42.9114 81.2797 42.96 80.2428 44.5264C80.5087 41.6481 78.8128 38.5968 76.0914 37.6222C73.3701 36.6475 69.9144 38.1609 69.0805 40.9286C68.2661 38.9579 65.1287 39.13 63.7541 40.7601C62.3795 42.3902 62.2761 44.7074 62.2387 46.8394C62.1499 51.9113 62.0611 56.9833 61.9722 62.0553C61.9228 64.874 61.8736 67.6978 62.0898 70.5086C62.3867 74.3704 63.1817 78.1739 63.9281 81.9745C66.4925 95.0321 68.5032 108.198 70.5878 121.084C71.0222 122.828 72.5809 124.237 74.3608 124.492C76.1408 124.748 78.0328 123.835 78.9406 122.283C79.3672 121.553 80.0997 120.538 80.7796 121.04C80.9208 121.144 81.013 121.299 81.1096 121.446C82.0144 122.816 83.659 123.664 85.3 123.606C86.9411 123.548 88.5217 122.586 89.3274 121.155C89.6687 120.549 89.9416 119.808 90.5889 119.553C91.6312 120.958 93.4448 121.749 95.1833 121.558C96.9217 121.367 98.5201 120.2 99.2325 118.603C99.4172 118.189 99.6243 117.682 100.072 117.612C100.276 117.58 100.481 117.655 100.672 117.733C101.975 118.269 103.219 119.073 104.626 119.156C106.033 119.24 108.171 118.003 107.552 116.932Z" fill="#1A1A1A"/>
<path d="M44.6849 55.9466C45.5187 55.2713 46.3776 54.5652 46.8526 53.603C47.3097 52.6772 47.3708 51.5888 47.8676 50.6836C48.4558 49.6117 49.664 48.9105 50.8866 48.9316C52.1091 48.9527 53.2924 49.695 53.8434 50.7866C54.3592 51.8084 54.3328 53.0379 54.8491 54.0595C55.2475 54.848 55.9341 55.445 56.4828 56.1375C57.3423 57.2223 57.873 58.6276 57.6671 59.9963C57.4611 61.365 56.4082 62.6365 55.0413 62.8541C53.7397 63.0612 52.4649 62.3418 51.1473 62.3097C49.2768 62.2641 47.3725 63.5901 45.6483 62.8634C45.0306 62.603 44.5409 62.1044 44.1542 61.557C43.4763 60.5974 43.0635 59.4131 43.1968 58.2458C43.3302 57.0785 44.0727 55.9546 44.6849 55.9466Z" fill="white"/>
<path d="M42.9904 47.983C43.4807 48.8969 43.9839 49.8591 43.9844 50.8962C43.985 51.9334 43.2961 53.0504 42.2637 53.1492C41.5367 53.2189 40.8501 52.7788 40.3569 52.2403C39.2312 51.0107 38.8338 49.1594 39.3558 47.5762C39.4382 47.3261 39.5465 47.0757 39.7364 46.8932C39.9759 46.6631 40.3189 46.5689 40.6509 46.5573C41.5668 46.5254 42.5129 47.0932 42.9904 47.983Z" fill="white"/>
<path d="M50.0151 41.3577C50.3416 42.4412 50.483 43.5803 50.4313 44.7108C50.4108 45.1587 50.3537 45.6243 50.1087 45.9999C49.6527 46.6991 48.6312 46.8677 47.8697 46.5256C47.1082 46.1836 46.5887 45.4454 46.2889 44.6664C45.7336 43.2238 45.8766 41.4545 46.9072 40.3024C47.1493 40.0318 47.447 39.793 47.8001 39.7085C48.3437 39.5785 48.9207 39.845 49.3088 40.2472C49.697 40.6494 49.9561 41.162 50.0151 41.3577Z" fill="white"/>
<path d="M58.0977 44.6552C58.4603 45.6566 58.3831 46.8086 57.8901 47.7526C57.5693 48.3669 56.9546 48.9387 56.2706 48.8271C55.7537 48.7427 55.3762 48.296 55.1139 47.8427C54.5195 46.8156 54.2702 45.5925 54.4154 44.4146C54.4818 43.8752 54.6356 43.332 54.9663 42.9009C55.2971 42.4697 55.8286 42.1674 56.37 42.2143C57.0121 42.2699 57.5344 42.799 57.7747 43.397C58.0149 43.9951 58.027 44.6566 58.0977 44.6552Z" fill="white"/>
<path d="M68.9479 58.574C69.8361 58.0378 70.3149 57.0259 70.6315 56.0379C70.9481 55.0499 71.1624 54.0066 71.7291 53.1376C72.2957 52.2685 73.3464 51.6025 74.3491 51.869C75.3098 52.1245 75.8786 53.1137 76.1766 54.0621C76.4745 55.0106 76.6243 56.0386 77.2099 56.842C78.181 58.1743 80.1509 58.6075 80.8698 60.0911C81.5012 61.3941 80.8105 63.0701 79.5902 63.8493C78.37 64.6285 76.7871 64.6419 75.3948 64.2448C74.7348 64.0566 74.0909 63.782 73.4069 63.7258C71.7079 63.5862 69.8508 64.7769 68.4034 63.8762C67.5848 63.3668 67.2372 62.299 67.372 61.3443C67.5068 60.3896 67.8178 59.2563 68.9479 58.574Z" fill="white"/>
<path d="M68.3545 47.0197C68.5063 47.8913 68.6585 48.7784 68.55 49.6564C68.4415 50.5346 68.0318 51.4184 67.2832 51.89C67.1676 51.9627 67.0421 52.026 66.9066 52.0425C66.7216 52.0651 66.5364 51.9983 66.3743 51.9064C65.6932 51.5203 65.3518 50.7286 65.179 49.965C65.01 49.2186 64.9575 48.446 65.024 47.6836C65.0692 47.1663 65.1753 46.6377 65.4665 46.2077C65.7577 45.7777 66.268 45.4656 66.783 45.5325C67.456 45.6199 68.2032 46.1505 68.3545 47.0197Z" fill="white"/>
<path d="M75.7553 43.8333C76.0048 44.9842 75.9146 46.2066 75.4987 47.3084C75.282 47.8824 74.8971 48.4846 74.291 48.5803C73.7554 48.6649 73.2397 48.3106 72.9085 47.8811C72.1426 46.8882 72.0735 45.5257 72.2159 44.2798C72.2925 43.6102 72.4339 42.9164 72.8562 42.3911C73.2783 41.8659 74.0557 41.5721 74.6508 41.8883C75.2429 42.203 75.5552 42.9104 75.7553 43.8333Z" fill="white"/>
<path d="M80.1083 51.9467C80.1245 51.0102 80.1798 50.0344 80.6384 49.2177C81.097 48.401 82.0794 47.8026 82.9733 48.0822C83.5578 48.265 83.9921 48.7858 84.2001 49.3619C84.4081 49.9379 84.4182 50.5662 84.3765 51.1772C84.3315 51.8372 84.2287 52.4939 84.0563 53.1325C83.8898 53.7495 83.6475 54.3664 83.2053 54.8278C82.763 55.2892 82.0853 55.5669 81.4703 55.3928C80.918 55.2365 80.5092 54.7471 80.3049 54.2107C80.1006 53.6744 80.0886 53.0903 80.1083 51.9467Z" fill="white"/>
<path d="M69.2715 28.7212C67.4195 28.745 65.5701 28.6162 63.7215 28.4937C63.8523 28.3593 63.9836 28.2255 64.1114 28.088C64.6397 27.5065 65.2103 26.9568 65.6417 26.2955C65.756 26.0777 66.0134 25.8781 65.9476 25.6109C65.8757 25.3163 65.444 25.2582 65.2982 25.526C64.7619 26.3574 64.0052 27.1597 63.1994 27.9657C63.2117 27.4065 63.2245 26.8472 63.2363 26.2882C63.2342 25.0419 63.3705 23.7742 63.3023 22.5379C63.1737 22.1799 62.596 22.2945 62.61 22.6773C62.5731 24.4062 62.4941 26.1402 62.4333 27.8742C62.2673 27.6931 62.1029 27.5105 61.9407 27.3258C61.1886 26.504 60.4933 25.5954 59.6984 24.8285C59.3656 24.6662 59.0457 25.141 59.3173 25.3938C60.1821 26.3926 61.0365 27.4009 61.9209 28.3819C61.8699 28.379 61.8189 28.3757 61.7679 28.373C59.8233 28.2619 58.0967 27.991 56.3845 27.9013C55.8544 27.9088 55.8476 28.7043 56.3845 28.715C58.2578 28.8494 60.1301 29.006 62.004 29.1372C60.9755 30.081 59.4501 31.2261 58.9487 31.6501C58.7843 31.7774 58.5787 31.914 58.5877 32.1471C58.5758 32.5169 59.0686 32.7229 59.323 32.4517C60.3409 31.5664 61.3817 30.7021 62.3786 29.7917C62.3402 31.5279 62.3415 33.2625 62.4509 34.9904C62.6032 35.3955 63.2413 35.2479 63.2068 34.8144C63.1342 33.1152 63.1391 31.4152 63.1665 29.7152C63.3249 29.8782 63.484 30.0407 63.6456 30.2009C64.3489 30.8748 65.0732 31.7945 65.7846 32.3963C66.2174 32.5607 66.4671 32.0033 66.1085 31.7309C65.342 30.8809 64.5357 30.0684 63.7379 29.2479C64.7179 29.305 65.6985 29.3533 66.6805 29.378C67.4264 29.4123 68.1728 29.4299 68.9193 29.4067C69.1176 29.3865 69.3555 29.4545 69.5113 29.3001C69.7226 29.1009 69.5649 28.7116 69.2715 28.7212Z" fill="#1A1A1A"/>
<path d="M47.1855 19.7034C46.3888 19.6909 45.5929 19.6467 44.7972 19.6061C45.2013 19.181 45.6014 18.7516 46.0021 18.3229C46.2214 18.0953 46.4399 17.8669 46.6584 17.6385C46.7332 17.5639 46.7765 17.4601 46.7761 17.3544C46.7872 17.0095 46.3275 16.8174 46.0903 17.0704C45.56 17.6196 45.0355 18.1745 44.5069 18.7252C44.5147 18.4412 44.5249 18.1573 44.5387 17.8735C44.5564 17.4827 44.589 17.093 44.6313 16.7042C44.6371 16.5743 44.6882 16.4334 44.6225 16.3122C44.4826 15.9204 43.8533 16.0485 43.8685 16.464C43.7659 17.3572 43.7162 18.2547 43.6944 19.1533C43.1921 18.5535 42.6811 17.9611 42.1518 17.3842C41.7937 17.0284 41.2462 17.5712 41.6029 17.9332C42.0885 18.4572 42.5591 18.9942 43.0223 19.5375C42.5449 19.5285 42.0673 19.5298 41.5893 19.5507C40.9777 19.5503 40.301 19.5325 40.2554 19.602C39.9951 19.6905 39.9293 20.0661 40.1265 20.251C40.3677 20.4195 40.3175 20.3528 40.4455 20.3704C40.541 20.3744 40.9351 20.3971 41.0455 20.3908C41.6541 20.3636 42.2618 20.3643 42.8693 20.3777C42.2327 20.9913 41.5758 21.5835 40.8806 22.1357C40.4856 22.5927 41.1434 23.1111 41.5335 22.6539C42.2942 22.063 43.0018 21.4161 43.6843 20.7429C43.6879 21.2522 43.6937 21.7615 43.7058 22.27C43.7181 22.7441 43.7319 23.2181 43.7516 23.692C43.7465 23.9022 43.777 24.1629 44.0083 24.2391C44.1868 24.3274 44.4148 24.2412 44.5139 24.0734C44.6414 23.7376 44.528 23.348 44.5464 22.9937C44.5203 22.4318 44.5047 21.8694 44.4943 21.3071C45.1052 22.055 45.7121 22.8063 46.3287 23.5492C46.4901 23.7185 46.788 23.6778 46.9029 23.4753C47.0341 23.1125 46.8759 23.1087 46.7366 22.894C46.0726 22.0829 45.4194 21.2625 44.7594 20.4478C45.4467 20.4801 46.1342 20.5133 46.8224 20.5299C47.0445 20.5221 47.308 20.5945 47.48 20.4145C47.7408 20.1699 47.545 19.6916 47.1855 19.7034Z" fill="#1A1A1A"/>
<path d="M40.4723 20.3745C40.4605 20.3721 40.4525 20.3716 40.4429 20.3702C40.4104 20.3689 40.4122 20.3696 40.4723 20.3745Z" fill="#1A1A1A"/>
<path d="M84.069 3.89634C82.8887 3.96374 81.7069 3.99887 80.5251 4.03089C80.5235 3.95444 80.5211 3.87804 80.5194 3.80167C80.7209 3.59059 80.9213 3.37849 81.1301 3.17449C81.5694 2.75174 82.0099 2.33032 82.4459 1.90417C82.5715 1.77902 82.7406 1.65932 82.7327 1.46247C82.7434 1.13139 82.3021 0.947041 82.0745 1.18984C81.5526 1.70287 81.0138 2.19852 80.4872 2.70662C80.4591 1.92509 80.4179 1.14427 80.3449 0.365241C80.3437 -0.120459 79.6014 -0.123034 79.5983 0.365241C79.7071 1.38507 79.7402 2.41209 79.7611 3.43922C79.6845 3.52187 79.6079 3.60457 79.5322 3.68809C79.1237 3.25569 78.7155 2.82304 78.3144 2.38367C78.1234 2.17424 77.9332 1.96407 77.7426 1.75412C77.678 1.68929 77.5881 1.65184 77.4965 1.65219C77.1975 1.64249 77.0311 2.04092 77.2503 2.24649C77.8008 2.86027 78.3554 3.47054 78.915 4.07607C78.7891 4.07977 78.6631 4.08292 78.5371 4.08682C78.0721 4.08859 77.6069 4.06742 77.1439 4.02382C76.9825 4.02347 76.8064 3.95082 76.6542 4.02207C76.4103 4.10519 76.3485 4.45704 76.5334 4.63042C76.6497 4.74964 76.8152 4.74122 76.9688 4.75859C77.4874 4.79897 78.0065 4.80927 78.5259 4.80634C78.349 4.99982 78.1703 5.19139 77.9866 5.37857C77.6526 5.72617 77.3127 6.06819 76.9818 6.41879C76.8246 6.56689 76.6583 6.78087 76.7739 7.00299C76.8417 7.19509 77.0684 7.29319 77.2607 7.24192C77.4818 7.17319 77.5896 6.93764 77.7535 6.78912C78.3882 6.14517 78.9881 5.46852 79.5939 4.79782C79.6606 4.86894 79.7275 4.93984 79.7943 5.01079C79.8083 5.61844 79.8271 6.22514 79.8671 6.82857C79.9484 7.06734 80.2931 7.12794 80.4629 6.94682C80.6143 6.79642 80.5639 6.57444 80.5707 6.38167C80.5662 6.19604 80.5635 6.01022 80.5598 5.82452C80.5706 5.83574 80.5811 5.84732 80.5918 5.85854C81.0025 6.29037 81.4149 6.72067 81.8244 7.15362C81.8913 7.22069 81.9844 7.25957 82.0792 7.25917C82.311 7.26437 82.4904 7.02484 82.4267 6.80297C82.3469 6.59464 82.1414 6.46039 82.0035 6.28989C81.5171 5.77554 81.0277 5.26407 80.5389 4.75204C81.1662 4.72579 81.7935 4.70259 82.4203 4.70369C82.9702 4.68594 83.5196 4.65462 84.069 4.62614C84.1653 4.62679 84.2591 4.58692 84.327 4.51929C84.5554 4.30502 84.384 3.88594 84.069 3.89634Z" fill="#1A1A1A"/>
</g>
<defs>
<clipPath id="clip0_32246_7382">
<rect width="125" height="125" fill="white"/>
</clipPath>
</defs>
</svg>
