<svg width="202" height="182" viewBox="0 0 202 182" fill="none" xmlns="http://www.w3.org/2000/svg">
<g clip-path="url(#clip0_32170_1007)">
<path d="M4.47446 80.25C7.3582 82.455 10.9582 83.4 14.5995 83.415C16.4256 83.418 18.2457 83.2052 20.022 82.7812C20.472 82.6837 20.9145 82.5675 21.3495 82.4325C26.9745 80.7525 31.947 77.3662 36.7995 74.0325C33.3495 101.198 39.3232 128.876 49.3882 154.342C52.6732 162.641 56.7645 171.217 64.2645 176.048C66.2701 177.323 68.4383 178.324 70.7107 179.021C75.0195 180.364 79.6657 180.761 84.2895 180.746C84.9082 180.746 85.5345 180.746 86.1645 180.709C87.1432 180.69 88.1257 180.645 89.097 180.592C91.947 180.439 95.2432 179.929 96.6645 177.458C96.8169 177.198 96.9425 176.925 97.0395 176.64C97.812 174.39 96.8107 171.713 95.9145 169.388C91.5968 157.945 90.5579 145.524 92.9145 133.522C96.1882 131.445 100.763 133.286 103.092 136.384C105.421 139.481 106.156 143.441 107.089 147.202C108.861 154.262 111.586 161.046 115.189 167.37C116.708 170.025 118.418 172.62 120.522 174.818C121.648 176.003 122.914 177.048 124.291 177.93C126.917 179.537 129.859 180.56 132.916 180.93C133.718 181.039 134.524 181.121 135.349 181.17C148.204 182.062 157.336 183.679 161.052 176.325C162.387 173.7 163.021 169.924 162.889 164.561C162.653 155.092 166.306 143.284 174.961 119.58C186.548 87.8625 192.983 90.33 197.251 68.685C199.876 55.4438 200.161 40.7775 200.251 37.0275C200.408 28.7577 200.095 20.4856 199.313 12.2512C192.563 15.8662 186.383 21.4462 180.188 26.0062C176.815 23.6652 173.15 21.7742 169.287 20.3812C165.387 18.9734 161.325 18.0661 157.197 17.6813C152.64 17.2514 148.044 17.485 143.554 18.375C141.737 11.023 137.426 4.52901 131.356 0C126.169 5.45625 124.606 13.29 122.202 20.415C119.858 27.3037 115.647 34.5525 108.721 36.4575C108.477 36.5213 108.233 36.5812 107.971 36.6338C98.3332 38.7 90.0795 29.6925 80.5957 27.0225C68.2919 23.5575 55.6732 31.1475 46.1145 39.6338C36.5557 48.12 27.4545 58.2562 15.0795 61.4587C14.752 61.5412 14.422 61.62 14.0895 61.695C13.0807 61.9388 12.0495 62.16 11.007 62.4038C6.85571 63.36 2.75696 64.5863 0.844452 68.1938C-1.28178 72.2325 0.833206 77.4938 4.47446 80.25Z" fill="#ADC6FF"/>
<path d="M108.724 36.4575C120.578 36.1087 133.335 39.42 143.648 33.6112C147.645 31.3612 153.398 24.6787 157.2 17.685C152.642 17.2535 148.045 17.4859 143.554 18.375C141.736 11.023 137.425 4.52901 131.355 0C126.169 5.45625 124.605 13.29 122.201 20.415C119.858 27.3037 115.646 34.5525 108.724 36.4575Z" fill="#1A1A1A"/>
<path d="M169.29 20.385C172.984 26.3362 177.803 31.6537 181.29 33.6112C187.028 36.8475 193.534 37.2525 200.228 37.0312C201.709 27.6562 202.039 18.5325 199.32 12.2512C192.57 15.8662 186.39 21.4462 180.195 26.0062C176.82 23.6662 173.154 21.7765 169.29 20.385Z" fill="#1A1A1A"/>
<path d="M188.877 36.8437C190.235 35.0614 191.193 33.0071 191.685 30.821C192.177 28.6349 192.191 26.3685 191.727 24.1762C191.476 23.0175 193.254 22.5225 193.505 23.685C194.04 26.1923 194.019 28.7862 193.446 31.2848C192.872 33.7834 191.758 36.1262 190.182 38.1487C190.009 38.3209 189.774 38.4176 189.53 38.4176C189.286 38.4176 189.051 38.3209 188.877 38.1487C188.71 37.9729 188.616 37.7393 188.616 37.4962C188.616 37.2532 188.71 37.0195 188.877 36.8437Z" fill="#1A1A1A"/>
<path d="M128.3 23.0549C127.682 18.1984 128.269 13.2644 130.01 8.68868C130.079 8.45796 130.235 8.26267 130.444 8.14276C130.653 8.02286 130.9 7.98742 131.135 8.04368C131.368 8.10947 131.566 8.26414 131.687 8.47448C131.807 8.68482 131.841 8.93405 131.78 9.16868C130.096 13.5873 129.531 18.354 130.137 23.0437C130.136 23.288 130.039 23.5221 129.866 23.6949C129.693 23.8677 129.459 23.9652 129.215 23.9662C128.972 23.9596 128.741 23.8602 128.57 23.6887C128.398 23.5171 128.299 23.2863 128.292 23.0437L128.3 23.0549Z" fill="#1A1A1A"/>
<path d="M182.052 49.6387C178.842 51.0947 175.342 51.7969 171.819 51.6916C168.296 51.5863 164.844 50.6763 161.727 49.0312C161.311 48.7785 161.009 48.3739 160.886 47.9029C160.763 47.4319 160.828 46.9315 161.067 46.5074C161.32 46.0923 161.723 45.7915 162.194 45.6684C162.664 45.5452 163.163 45.6094 163.587 45.8474C163.962 46.0424 164.337 46.2224 164.712 46.4024C164.761 46.4249 165.274 46.6499 165.061 46.5599C164.847 46.4699 165.368 46.6799 165.436 46.6987C166.161 46.9807 166.902 47.2199 167.656 47.4149C168.408 47.6091 169.171 47.7643 169.939 47.8799C170.382 47.9512 169.658 47.8574 170.067 47.8799L170.686 47.9437C171.061 47.9774 171.462 47.9999 171.852 48.0149C172.602 48.0392 173.353 48.0242 174.102 47.9699L174.721 47.9174C174.807 47.9174 175.471 47.8237 175.002 47.8874C175.377 47.8387 175.722 47.7787 176.078 47.7112C176.838 47.5643 177.59 47.374 178.328 47.1412C178.677 47.0324 179.018 46.9162 179.359 46.7887C179.554 46.7174 179.734 46.6387 179.937 46.5599C179.528 46.7249 180.139 46.4699 180.211 46.4399C181.088 46.0424 182.236 46.1587 182.734 47.0999C183.162 47.9062 183.012 49.1962 182.071 49.6237L182.052 49.6387Z" fill="#1A1A1A"/>
<path d="M145.18 49.6388C141.97 51.0949 138.469 51.7971 134.945 51.6918C131.422 51.5866 127.969 50.6765 124.851 49.0313C124.429 48.7827 124.123 48.3765 124 47.9022C123.878 47.4278 123.948 46.9242 124.197 46.502C124.446 46.0798 124.852 45.7737 125.326 45.6509C125.801 45.5282 126.304 45.599 126.726 45.8476C127.101 46.0426 127.476 46.2226 127.851 46.4026C127.9 46.4251 128.414 46.6501 128.2 46.5601C127.986 46.4701 128.508 46.6801 128.556 46.6988C129.282 46.9803 130.023 47.2194 130.776 47.4151C131.529 47.6093 132.291 47.7645 133.06 47.8801C133.503 47.9513 132.783 47.8576 133.188 47.8801L133.806 47.9438C134.181 47.9776 134.583 48.0001 134.973 48.0151C135.723 48.0393 136.474 48.0243 137.223 47.9701L137.841 47.9176C137.928 47.9176 138.591 47.8238 138.126 47.8876C138.483 47.8388 138.843 47.7788 139.199 47.7113C139.959 47.5639 140.71 47.3736 141.449 47.1413C141.794 47.0326 142.135 46.9163 142.476 46.7888C142.671 46.7176 142.851 46.6388 143.054 46.5601C142.645 46.7251 143.26 46.4701 143.328 46.4401C144.205 46.0426 145.353 46.1588 145.851 47.1001C146.279 47.9063 146.129 49.1963 145.191 49.6238L145.18 49.6388Z" fill="#1A1A1A"/>
<path d="M154.68 67.7024C149.299 68.8124 143.599 65.6249 141.724 60.4724C141.663 60.2378 141.697 59.989 141.818 59.7789C141.938 59.5688 142.136 59.414 142.369 59.3474C142.603 59.2911 142.85 59.3266 143.059 59.4465C143.268 59.5664 143.424 59.7617 143.494 59.9924C145.024 64.1586 149.869 66.8324 154.196 65.9324C154.43 65.8771 154.677 65.9129 154.886 66.0327C155.095 66.1525 155.25 66.3472 155.321 66.5774C155.379 66.8119 155.345 67.0598 155.224 67.2694C155.104 67.479 154.908 67.6341 154.676 67.7024H154.68Z" fill="#1A1A1A"/>
<path d="M153.564 57.0824L150.598 56.3324C150.48 56.2996 150.38 56.2213 150.32 56.1148C150.259 56.0082 150.244 55.8821 150.277 55.7643C150.31 55.6464 150.388 55.5464 150.495 55.4863C150.601 55.4262 150.727 55.4108 150.845 55.4437L153.808 56.1937C153.925 56.227 154.024 56.3049 154.085 56.4108C154.145 56.5168 154.161 56.6421 154.13 56.7599C154.095 56.8761 154.017 56.9744 153.911 57.0344C153.806 57.0944 153.681 57.1116 153.564 57.0824Z" fill="#1A1A1A"/>
<path d="M115.67 54.3001L96.5446 49.8001C95.9671 49.6651 96.2109 48.7726 96.7884 48.9113L115.913 53.4113C116.491 53.5463 116.247 54.4351 115.666 54.3001H115.67Z" fill="#1A1A1A"/>
<path d="M118.437 51.7501C115.594 49.5549 112.432 47.8061 109.062 46.5638C108.511 46.3576 108.751 45.4651 109.306 45.6713C112.822 46.9719 116.118 48.8018 119.082 51.0976C119.551 51.4726 118.894 52.1063 118.429 51.7501H118.437Z" fill="#1A1A1A"/>
<path d="M117.216 58.5C112.291 57.8351 107.278 58.6169 102.79 60.75C102.257 61.0013 101.788 60.2063 102.325 59.9513C107.035 57.7186 112.296 56.9118 117.46 57.63C118.045 57.7125 117.797 58.6013 117.216 58.5188V58.5Z" fill="#1A1A1A"/>
<path d="M173.564 61.0463C175.561 60.4753 177.671 60.4165 179.697 60.8753C181.723 61.334 183.602 62.2956 185.159 63.6713C185.601 64.0688 184.945 64.7176 184.506 64.3238C183.068 63.0592 181.334 62.1766 179.465 61.7572C177.596 61.3378 175.652 61.3951 173.811 61.9238C173.693 61.9566 173.567 61.9413 173.461 61.8812C173.354 61.821 173.276 61.7211 173.243 61.6032C173.21 61.4853 173.226 61.3593 173.286 61.2527C173.346 61.1462 173.446 61.0679 173.564 61.0351V61.0463Z" fill="#1A1A1A"/>
<path d="M168.558 65.01C173.133 65.5583 177.635 66.6032 181.983 68.1263C182.538 68.325 182.298 69.2138 181.736 69.015C177.468 67.5123 173.05 66.4787 168.558 65.9325C167.973 65.8613 167.969 64.9388 168.558 65.01Z" fill="#1A1A1A"/>
<path d="M167.224 70.0686C172.476 70.8763 177.384 73.1793 181.362 76.7024C182.488 77.6979 183.527 78.7882 184.467 79.9611C184.842 80.4186 184.189 81.0861 183.814 80.6099C179.621 75.385 173.608 71.9384 166.98 70.9611C166.395 70.8711 166.643 69.9824 167.224 70.0686Z" fill="#1A1A1A"/>
<path d="M4.47751 80.2499C7.36126 82.4549 10.9613 83.3999 14.6025 83.4149C14.4824 76.2642 13.2709 69.1737 11.01 62.3887C6.85876 63.3449 2.76001 64.5712 0.847511 68.1787C-1.27874 72.2324 0.836259 77.4937 4.47751 80.2499Z" fill="#1A1A1A"/>
<path d="M120.514 174.833C121.64 176.018 122.906 177.063 124.283 177.945C126.909 179.552 129.851 180.575 132.908 180.945C133.71 181.054 134.516 181.136 135.341 181.185C148.196 182.078 157.328 183.694 161.044 176.34C156.986 176.468 152.734 177.499 148.736 178.095C147.437 178.335 146.116 178.439 144.795 178.406C143.314 178.309 141.885 177.866 140.453 177.476C133.96 175.679 127.25 174.789 120.514 174.833Z" fill="#1A1A1A"/>
<path d="M132.898 180.934C133.701 181.042 134.507 181.125 135.324 181.174C136.713 179.832 137.863 178.263 138.726 176.535C142.761 168.18 139.389 158.91 137.976 150.36C137.267 146.085 137.083 141.671 138.624 137.55C139.896 134.175 142.314 131.134 145.809 129.96C146.934 129.585 146.443 127.808 145.314 128.183C141.347 129.518 138.564 132.765 137.038 136.567C133.528 145.241 137.413 154.286 138.516 163.016C139.037 167.25 139.011 171.84 137.076 175.74C136.037 177.728 134.618 179.493 132.898 180.934Z" fill="#1A1A1A"/>
<path d="M70.7152 179.036C75.0239 180.379 79.6702 180.776 84.2939 180.761C84.9127 180.761 85.5389 180.761 86.1689 180.724C87.1477 180.705 88.1302 180.66 89.1014 180.607C91.9514 180.454 95.2477 179.944 96.6689 177.473C96.8213 177.213 96.947 176.94 97.0439 176.655C96.3379 176.548 95.6241 176.5 94.9102 176.513C87.1289 176.513 79.0927 175.954 71.3602 176.685C69.8677 176.824 70.0364 177.877 70.7152 179.036Z" fill="#1A1A1A"/>
<path d="M84.2936 180.75C83.7049 177.75 82.6286 174.806 81.5936 172.061C80.3561 168.757 79.0136 165.476 78.1211 162.056C77.1895 158.503 76.6698 154.854 76.5724 151.181C76.4621 146.941 76.9084 142.705 77.8999 138.581C78.1736 137.434 79.9511 137.917 79.6774 139.076C77.8916 146.537 77.9831 154.324 79.9436 161.741C81.6461 168.172 84.9349 174.161 86.1611 180.724L84.2936 180.75Z" fill="#1A1A1A"/>
</g>
<defs>
<clipPath id="clip0_32170_1007">
<rect width="201.353" height="181.976" fill="white" transform="matrix(-1 0 0 1 201.353 0)"/>
</clipPath>
</defs>
</svg>
