<svg width="16" height="17" viewBox="0 0 16 17" fill="none" xmlns="http://www.w3.org/2000/svg">
<g clip-path="url(#clip0_32170_975)">
<path d="M8.67408 15.915C8.67408 15.915 8.67251 15.9156 8.67188 15.916C8.67314 15.9153 8.67408 15.915 8.67534 15.9141C8.67471 15.9141 8.6744 15.9144 8.67377 15.9147L8.67408 15.915Z" fill="#D3ADF7"/>
<path d="M12.4492 11.0293C12.4492 11.0293 12.4498 11.0293 12.4502 11.0293C12.4552 11.028 12.4555 11.0274 12.4492 11.0293Z" fill="#D3ADF7"/>
<path d="M15.7178 8.43413C15.6939 8.38497 15.6677 8.33676 15.6428 8.28791C15.6372 8.2772 15.6227 8.25294 15.6097 8.23214C15.547 8.11743 15.5262 7.9501 15.495 7.82689C15.4244 7.54738 15.3047 7.28362 15.236 7.00505C15.2212 6.94487 15.2105 6.88373 15.1985 6.82291C15.2823 6.7372 15.3346 6.62187 15.3283 6.49203C15.3151 6.21693 15.1755 5.97933 14.9174 5.8703C14.7277 5.79026 14.5159 5.80759 14.3511 5.90559C14.3455 5.90622 14.3395 5.90654 14.3338 5.90717C14.3379 5.85896 14.3429 5.81074 14.3474 5.76253C14.365 5.57408 14.3694 5.391 14.3225 5.20539C14.2897 5.07619 14.2103 4.98039 14.1098 4.92178C14.0537 4.74405 13.9557 4.58649 13.7896 4.47336C13.8186 4.43681 13.846 4.39899 13.8718 4.36087C13.9531 4.2408 13.9919 4.11349 14.0026 3.96854C14.0272 3.6364 13.6721 3.43283 13.3843 3.49743C13.1846 3.54249 12.9949 3.64711 12.8272 3.78955C12.8367 3.63419 12.8508 3.4801 12.8682 3.34334C12.9028 3.07044 12.9577 2.77234 12.883 2.48085C12.8086 2.18999 12.4264 2.01289 12.1655 2.18904C11.9628 2.32581 11.805 2.50102 11.7259 2.73137C11.7013 2.68946 11.6764 2.64755 11.6509 2.60595C11.6383 2.58547 11.6266 2.56404 11.6152 2.5423C11.6137 2.50763 11.614 2.47265 11.6146 2.43799C11.6357 2.36362 11.6458 2.28484 11.6401 2.20827C11.6222 1.96373 11.4678 1.76237 11.2166 1.72865C11.0373 1.7047 10.8397 1.78789 10.7392 1.94136C10.5987 1.84241 10.4345 1.77277 10.2703 1.79105C10.2561 1.74063 10.2423 1.69021 10.2284 1.63947C10.2237 1.62183 10.2202 1.60922 10.2177 1.60008C10.2161 1.58149 10.2152 1.5629 10.2136 1.54462C10.2063 1.45513 10.2004 1.36216 10.1796 1.27456C10.0875 0.886646 9.67851 0.555138 9.28618 0.76879C9.19007 0.821101 9.11413 0.902717 9.05867 0.996939C9.0426 0.950931 9.02558 0.905553 9.0073 0.860176C8.82421 0.407345 8.32569 -0.351153 7.78274 0.182664C7.66646 0.297053 7.61037 0.438858 7.5861 0.591692C7.54545 0.624465 7.50953 0.663855 7.48022 0.708917C7.36552 0.886331 7.28201 1.08202 7.17959 1.26637C7.16667 1.28937 7.15375 1.31269 7.1402 1.33538C7.04567 1.2525 6.93916 1.18507 6.8046 1.14851C6.43213 1.04704 6.11133 1.28622 5.94369 1.59945C5.92919 1.59693 5.91501 1.59378 5.90051 1.59126C5.88003 1.58779 5.85923 1.58464 5.83875 1.5818C5.81228 1.46269 5.73917 1.34924 5.6522 1.28433C5.48991 1.16301 5.28981 1.15292 5.10987 1.2462C4.96555 1.32088 4.85305 1.44693 4.7749 1.58779C4.74906 1.63443 4.72921 1.6839 4.704 1.73086C4.69265 1.75166 4.6145 1.8506 4.63656 1.83075C4.61104 1.85722 4.58456 1.88275 4.55683 1.9067C4.55022 1.90827 4.46545 1.96877 4.45316 1.97665C4.36745 2.03148 4.27984 2.07844 4.18846 2.12318C3.95401 2.23883 3.70884 2.3756 3.57239 2.60879C3.52197 2.69513 3.48731 2.79156 3.47155 2.89082C3.383 2.89303 3.2954 2.90154 3.20654 2.9113C2.92041 2.94345 2.63081 2.97874 2.3784 3.12937C2.2076 3.23115 2.07714 3.48104 2.15403 3.68083C2.21359 3.83619 2.29552 3.949 2.38344 4.07726C2.3264 4.09837 2.26999 4.12011 2.21359 4.1428C2.02924 4.21717 1.85845 4.29311 1.71569 4.43681C1.5761 4.57735 1.54679 4.77115 1.60698 4.94258C1.54364 4.94983 1.4803 4.95802 1.41759 4.96811C0.960663 5.04184 0.433464 5.38344 0.607096 5.91505C0.662242 6.08427 0.747955 6.23616 0.850685 6.3767C0.666023 6.35779 0.461194 6.44886 0.373275 6.61493C0.109203 7.11346 0.536824 7.61324 0.829887 7.99044C0.829887 7.99044 0.831463 7.99265 0.833038 7.99485C0.860454 8.03204 0.8885 8.06859 0.916546 8.10514C0.815706 8.08308 0.714552 8.06166 0.614659 8.03739C0.372645 7.97878 0.0663465 8.11271 0.0137211 8.37867C-0.0953111 8.9295 0.470333 9.31521 0.829887 9.63538C1.03156 9.81499 1.21938 10.0107 1.41412 10.1982C1.18913 10.2111 0.964444 10.2417 0.745119 10.2921C0.360985 10.3803 0.305524 10.8448 0.529576 11.1086C0.776316 11.3988 1.15478 11.5063 1.47463 11.6884C1.59563 11.7574 1.71254 11.8365 1.82725 11.9178C1.722 11.977 1.6325 12.0612 1.57484 12.1803C1.474 12.3873 1.49732 12.6 1.65109 12.7721C1.77494 12.9104 1.93533 13.0072 2.10392 13.0797C2.20476 13.1231 2.30655 13.1629 2.40959 13.2003C2.42283 13.2051 2.43606 13.2101 2.4493 13.2148C2.3097 13.3986 2.30434 13.6715 2.48648 13.8567C2.58512 13.957 2.70423 14.0373 2.82808 14.1032C2.88322 14.1325 2.93994 14.1593 2.99477 14.1889C3.01652 14.2005 3.03763 14.2132 3.05906 14.2251C3.07166 14.2324 3.0808 14.2374 3.08837 14.2415C3.09057 14.2434 3.09341 14.2459 3.09719 14.2491C3.28154 14.4038 3.40821 14.6146 3.59256 14.7706C3.86955 15.0051 4.20831 15.1157 4.56629 15.0088C4.67847 14.9754 4.79507 14.9278 4.89559 14.8642C4.89906 14.8667 4.90221 14.8692 4.90567 14.8721C4.91576 14.9007 4.92584 14.9291 4.9353 14.9578C4.98319 15.1002 5.027 15.2401 5.05977 15.387C5.09538 15.5449 5.10924 15.7112 5.19527 15.8515C5.32731 16.0664 5.5397 16.2072 5.79526 16.2041C6.00671 16.2016 6.17814 16.0818 6.31112 15.9306C6.36784 16.0784 6.4504 16.2145 6.57267 16.3185C6.75386 16.4723 6.95239 16.4934 7.16447 16.3947C7.29997 16.332 7.42066 16.246 7.54734 16.1682C7.59209 16.1408 7.63778 16.1108 7.686 16.0881C7.69639 16.0859 7.72728 16.0768 7.73074 16.0777C7.72507 16.0762 7.72129 16.0752 7.71782 16.0739C7.68253 16.0632 7.78904 16.0847 7.80921 16.0859C7.99545 16.0976 8.17412 16.1114 8.35594 16.0516C8.43409 16.0257 8.51035 15.9908 8.58535 15.9564C8.62411 16.0251 8.66004 16.0954 8.70352 16.1616C8.89134 16.4477 9.17967 16.626 9.53072 16.546C9.68072 16.5117 9.83607 16.4118 9.94384 16.3043C10.0053 16.2432 10.057 16.1707 10.109 16.1023C10.1187 16.0894 10.1288 16.0762 10.1386 16.0629C10.333 16.1181 10.5454 16.0793 10.7168 15.9772C10.8237 15.9135 10.904 15.8253 10.9812 15.7311C10.9834 15.7286 10.9856 15.7261 10.9878 15.7232C11.072 15.7954 11.1583 15.8612 11.2623 15.905C11.6902 16.0856 12.1034 15.7623 12.2121 15.3476C12.2562 15.1796 12.2587 15.0051 12.2568 14.8327C12.3337 14.8075 12.4068 14.7659 12.4727 14.7032C12.6158 14.567 12.6747 14.3896 12.7279 14.205C12.7365 14.175 12.7487 14.1441 12.7573 14.1136C12.7689 14.0893 12.7787 14.0632 12.7885 14.0395C12.8256 13.9516 12.8527 13.8671 12.8691 13.7729C12.8861 13.6756 12.8969 13.5772 12.9101 13.4792C12.911 13.4742 12.9154 13.4474 12.9195 13.4228C12.9835 13.4537 13.0462 13.4865 13.1096 13.518C13.4861 13.7052 13.9191 13.8281 14.2598 13.4934C14.4334 13.3229 14.487 13.079 14.474 12.8446C14.59 12.7816 14.683 12.6744 14.7148 12.5462C14.769 12.3275 14.7554 12.1201 14.7116 11.9011C14.6959 11.822 14.6745 11.7439 14.6578 11.6648C14.6559 11.6563 14.6464 11.5935 14.642 11.5721C14.642 11.5674 14.642 11.562 14.6417 11.5564C14.7542 11.6758 14.8881 11.7672 15.0621 11.8154C15.3765 11.9024 15.6696 11.6591 15.6803 11.3443C15.6879 11.1171 15.5902 10.8924 15.5313 10.6759C15.466 10.4364 15.3977 10.1982 15.3182 9.9631C15.2801 9.8506 15.241 9.73842 15.2032 9.62592C15.3022 9.63916 15.4059 9.63727 15.5168 9.62151C15.6901 9.59725 15.8023 9.42708 15.8581 9.28023C15.9661 8.99599 15.8426 8.6878 15.7178 8.43287V8.43413ZM0.975788 8.43791C0.972007 8.43318 0.96665 8.42625 0.960978 8.41901C0.961608 8.42279 0.962553 8.42657 0.963184 8.43035C0.960978 8.42625 0.958457 8.42153 0.955621 8.41459C0.955621 8.41459 0.95436 8.41176 0.9531 8.40924C0.946167 8.40104 0.94018 8.39442 0.938289 8.39474C0.94081 8.39411 0.943331 8.39411 0.945537 8.39411C0.938289 8.37993 0.928835 8.36354 0.925369 8.36291C0.938919 8.36543 0.948373 8.37804 0.954675 8.39569C0.972952 8.40293 0.97894 8.42909 0.975788 8.43791ZM5.25641 5.92482C5.25767 5.96484 5.03487 6.09569 5.03677 6.1354C5.0084 6.29202 5.02863 6.27399 4.9987 6.43029C4.95584 6.65434 5.0875 6.96157 5.04307 7.1853C5.04055 7.1018 5.03834 7.01797 5.03677 6.93384C5.03519 6.8519 5.03651 7.50277 4.9987 7.43029C5.09229 7.17189 5.1625 6.18227 5.25641 5.92482ZM5.81953 8.46753C5.82425 8.48991 5.65654 8.40791 5.66536 8.43029C5.75612 8.66064 5.22836 9.53988 5.33203 9.76362C5.22363 9.73967 5.90335 9.18853 5.76911 9.21374C5.68213 9.23013 5.60241 9.28023 5.53844 9.34798C5.52111 9.30103 6.01635 8.81057 5.9987 8.76362C6.08662 8.70249 5.64243 9.05492 5.67709 8.94085C5.8397 9.14035 5.77257 8.62541 5.81953 8.46753ZM9.62116 12.923C9.61076 12.9101 9.60036 12.8972 9.59028 12.8843C9.58902 12.8827 9.58839 12.8814 9.58713 12.8796C9.55813 12.8386 9.52725 12.7986 9.49795 12.7576C9.46832 12.7157 9.43902 12.6738 9.41003 12.6312C9.45635 12.6817 9.50299 12.7321 9.54963 12.7819C9.57358 12.8288 9.59752 12.8758 9.62116 12.923ZM11.8002 10.1301C11.8683 10.2934 11.6058 9.59314 11.6654 9.76362C11.5097 9.49671 11.6647 10.0989 11.4946 9.84115C11.5109 9.85659 11.527 9.87235 11.5434 9.88779C11.6288 9.9694 11.7136 10.0513 11.8002 10.1301ZM9.33203 4.09695C9.34999 4.07931 9.64929 4.11586 9.66537 4.09695C9.73784 4.19622 9.78345 3.74197 9.86034 3.83713C9.86317 3.84533 9.86601 3.85352 9.86884 3.86171C9.88208 3.89732 9.57168 4.17742 9.58618 4.21271C9.59028 4.22248 9.96401 4.1012 9.9555 4.07726C9.98323 4.15225 9.9716 3.68831 9.9987 3.76362C9.75669 3.5153 9.52505 3.84154 9.18377 3.73251C9.32368 3.75457 9.21292 4.21418 9.33203 4.09695ZM8.89543 3.60048C8.9531 3.64617 8.74859 3.55656 8.81382 3.5802C8.72149 3.56602 8.89701 3.70478 8.81382 3.73913C8.8072 3.6509 9.19984 4.03743 9.18377 3.94951C9.21528 3.99583 8.84942 3.56392 8.89543 3.60048ZM8.62486 2.93788C8.63904 2.9675 8.55983 2.59019 8.57369 2.62013C8.5781 2.63022 8.58283 2.6403 8.58724 2.65007C8.58724 2.65007 8.58819 2.65416 8.59134 2.66267C8.59323 2.66866 8.60079 2.68977 8.60583 2.70774C8.61308 2.79408 8.61907 2.88799 8.62947 2.98252C8.62789 2.97906 8.57527 2.49234 8.57369 2.48856C8.55006 2.43593 8.56645 2.87538 8.52485 2.84009C8.528 2.73704 8.62328 3.04092 8.62486 2.93788ZM1.83954 5.89803C1.85939 5.89645 1.87924 5.89456 1.89941 5.89299C1.89153 5.95097 1.88555 6.00927 1.8805 6.06788C1.82851 6.01557 1.77683 5.96263 1.72609 5.90906C1.76391 5.90528 1.80204 5.90118 1.83954 5.89803ZM2.22462 9.51405C2.24289 9.50933 2.26054 9.50302 2.27756 9.49609C2.3034 9.57897 2.10077 9.31114 2.12724 9.39339C2.05035 9.32375 2.20287 9.60386 2.12724 9.53296C2.15939 9.52855 2.19184 9.52288 2.22462 9.51405ZM8.67422 15.9161C8.62632 15.9403 8.63136 15.9366 8.6509 15.9271C8.65878 15.9233 8.66634 15.9199 8.67422 15.9161L8.67674 15.9151L8.67957 15.9139L8.67831 15.9145C8.69659 15.9063 8.71424 15.9 8.71392 15.905C8.71361 15.917 8.69659 15.9192 8.67422 15.9161ZM10.7808 14.6978C10.5505 14.7611 10.4109 14.9099 10.2646 15.0747C10.1985 15.0564 10.131 15.0476 10.0639 15.0479C10.189 14.9376 10.31 14.8223 10.4317 14.7076C10.4836 14.6587 10.5356 14.6099 10.5876 14.5614C10.633 14.5478 10.6762 14.5286 10.7159 14.5024C10.7682 14.5434 10.8274 14.573 10.8908 14.5856C11.0345 14.614 11.1687 14.6039 11.2938 14.567C11.2888 14.6272 11.2863 14.6877 11.285 14.7489C11.1319 14.6767 10.9636 14.6477 10.7808 14.6978ZM13.719 12.0987C13.7263 12.0763 13.7332 12.0536 13.7398 12.0312C13.743 12.0454 13.7464 12.0596 13.7496 12.0738C13.7389 12.0817 13.7291 12.0902 13.719 12.0987ZM14.1958 9.62151C14.2137 9.5005 14.1803 9.92592 14.1958 9.80428C14.1996 9.77403 14.2027 9.74409 14.2062 9.71384C14.2355 9.80838 14.332 10.4303 14.332 10.4303C14.3487 10.4788 14.373 9.9631 14.347 10.1418C14.2783 10.1364 14.2601 9.59819 14.1958 9.62151Z" fill="#D3ADF7"/>
<path d="M0.945312 8.39429C0.948464 8.40027 0.950985 8.40532 0.952875 8.40941C0.955396 8.41256 0.958232 8.41572 0.960753 8.41918C0.959178 8.41067 0.956972 8.40311 0.954451 8.39618C0.951615 8.39523 0.948464 8.3946 0.945312 8.3946V8.39429Z" fill="#D3ADF7"/>
<path d="M6.89619 8.19189C6.78401 8.0712 6.58044 8.01984 6.43738 8.11532C6.37467 8.15691 6.33465 8.21836 6.31133 8.28674C6.14242 8.50386 6.28107 8.95512 6.57697 9.01152C7.02098 9.09629 7.14104 8.45565 6.89619 8.19189Z" fill="#FF85C0"/>
<path d="M9.96692 8.14188C9.95022 7.99377 9.88279 7.83684 9.75296 7.75932C9.72995 7.72024 9.68993 7.69062 9.63289 7.68652C9.19204 7.65281 9.01778 8.32591 9.30391 8.59754C9.44351 8.73021 9.67733 8.75952 9.82323 8.62275C9.95022 8.50364 9.98552 8.30826 9.96692 8.14219V8.14188Z" fill="#FF85C0"/>
<path d="M14.4596 11.9758C14.578 12.2273 14.6965 12.4787 14.8147 12.7302C14.8519 12.8096 14.8982 12.8862 14.9234 12.9691C14.9682 13.1165 14.9064 13.2089 14.7498 13.2098C14.5642 13.2111 14.3783 13.1915 14.1933 13.1742C13.9465 13.1512 13.7001 13.1219 13.4351 13.0935C13.4382 13.1509 13.4341 13.1884 13.443 13.2227C13.5224 13.5306 13.6049 13.8379 13.6844 14.1457C13.6979 14.1977 13.7014 14.2529 13.7061 14.3068C13.7313 14.5831 13.5173 14.6178 13.3415 14.5664C13.1401 14.5078 12.9448 14.429 12.7434 14.3714C12.6448 14.343 12.5386 14.3351 12.4352 14.3316C12.2909 14.3269 12.2562 14.3676 12.2685 14.5147C12.2903 14.7706 12.3202 15.0259 12.3385 15.2817C12.3489 15.4283 12.3508 15.5764 12.3429 15.7232C12.3293 15.9744 12.1116 16.0172 11.9613 15.9426C11.7883 15.8565 11.6326 15.7365 11.4609 15.6473C11.2664 15.5464 11.0629 15.4633 10.8624 15.3738C10.8461 15.3665 10.8249 15.369 10.7959 15.3659C10.7862 15.5436 10.7874 15.7182 10.7644 15.8893C10.737 16.0916 10.708 16.2977 10.6441 16.4902C10.5602 16.7414 10.3081 16.7994 10.0967 16.6421C9.79417 16.4171 9.55594 16.1323 9.33031 15.8338C9.24208 15.7172 9.13651 15.6139 9.02559 15.4897C8.92948 15.652 8.84503 15.7979 8.75774 15.9419C8.60522 16.194 8.4527 16.4474 8.21762 16.6339C8.06857 16.7524 7.91825 16.719 7.83128 16.5536C7.69987 16.3027 7.58139 16.0443 7.43675 15.8014C7.29904 15.5698 7.29084 15.5597 7.07247 15.6977C6.8522 15.837 6.63571 15.9819 6.41291 16.1165C6.32121 16.172 6.22101 16.2183 6.11859 16.2489C5.97395 16.292 5.86996 16.2218 5.87752 16.0711C5.88477 15.9284 5.92385 15.7844 5.96828 15.6473C6.01964 15.4885 6.09244 15.3369 6.1646 15.1601C6.06471 15.1601 5.99128 15.1516 5.92069 15.1614C5.49623 15.2206 5.07239 15.2865 4.6476 15.3454C4.44183 15.3741 4.32019 15.2212 4.39613 15.0246C4.44025 14.9105 4.50958 14.8059 4.56882 14.6975C4.59655 14.6465 4.62649 14.5967 4.66619 14.5283C4.61483 14.5075 4.5726 14.4804 4.52723 14.4738C4.24299 14.4331 3.95717 14.4041 3.67419 14.3572C3.39972 14.3115 3.12682 14.2535 2.8555 14.1914C2.77263 14.1725 2.70172 14.1218 2.68502 14.0203C2.65981 13.8662 2.69574 13.813 2.88954 13.7257C3.00519 13.6737 3.11737 13.6147 3.23113 13.559C3.23018 13.5489 3.22924 13.5388 3.22798 13.529C3.13911 13.5089 3.05025 13.4903 2.96201 13.4682C2.5615 13.369 2.16098 13.2684 1.81024 13.0368C1.75888 13.0028 1.71382 12.9583 1.66749 12.9174C1.5531 12.8162 1.56571 12.5723 1.76833 12.5377C1.95583 12.5055 2.14301 12.4715 2.33051 12.4378C2.3762 12.4296 2.4219 12.4201 2.4928 12.4063C2.44521 12.3662 2.41339 12.3366 2.37872 12.3108C1.95646 11.9953 1.52947 11.6859 1.11382 11.3619C0.966978 11.2476 0.820761 11.1202 0.782317 10.9145C0.760258 10.7954 0.820761 10.7371 0.916243 10.7251C1.05017 10.7084 1.18756 10.7163 1.32338 10.715C1.43777 10.714 1.55216 10.715 1.61676 10.715C1.43525 10.5168 1.22034 10.3041 1.03252 10.0696C0.883471 9.88339 0.748914 9.68045 0.641457 9.46774C0.525807 9.23896 0.635155 9.08928 0.89387 9.08834C1.05679 9.08771 1.21971 9.10157 1.38262 9.10661C1.47117 9.10945 1.55972 9.10724 1.68546 9.10724C1.61424 8.98308 1.56287 8.8772 1.4967 8.78109C1.34985 8.56712 1.18725 8.36324 1.04796 8.14455C0.970759 8.02291 0.905214 7.88394 0.878114 7.74403C0.863933 7.6706 0.923491 7.55401 0.986516 7.50233C1.05868 7.4434 1.17149 7.43237 1.2676 7.40464C1.3259 7.38794 1.38672 7.37911 1.48283 7.35926C1.29502 7.25212 1.1403 7.16199 0.983364 7.07502C0.77822 6.96126 0.591353 6.82891 0.447972 6.63669C0.319718 6.46463 0.349969 6.29163 0.553538 6.22577C0.729691 6.16873 0.915613 6.14194 1.09712 6.10129C1.27926 6.06033 1.46109 6.01873 1.65773 5.97399C1.43682 5.77955 1.31739 5.54479 1.28494 5.27126C1.25153 4.99049 1.30983 4.93219 1.61109 4.9032C1.85783 4.87957 2.1074 4.88303 2.35383 4.85688C2.49942 4.84144 2.64091 4.79165 2.77105 4.76045C2.62357 4.44911 2.4865 4.16329 2.3532 3.87559C2.32894 3.82328 2.31696 3.76467 2.30499 3.70763C2.26434 3.51194 2.35414 3.39566 2.55582 3.40511C2.73387 3.4133 2.91097 3.44513 3.08869 3.46467C3.18039 3.47475 3.2743 3.49461 3.36411 3.48515C3.61463 3.45805 3.65276 3.41803 3.74257 3.12182C3.85413 2.75312 3.97041 2.38569 4.16105 2.04757C4.19698 1.9836 4.21336 1.90797 4.2537 1.84778C4.38479 1.65272 4.54897 1.65681 4.69834 1.83706C4.86378 2.03685 5.04245 2.22624 5.21577 2.41941C5.22522 2.42981 5.24066 2.43485 5.26902 2.45187C5.29644 2.25397 5.31062 2.0649 5.35158 1.8815C5.40169 1.65808 5.454 1.43056 5.54381 1.22132C5.62479 1.03224 5.76849 1.01806 5.92731 1.15703C6.08204 1.29222 6.22353 1.44253 6.37542 1.5815C6.47279 1.67037 6.58087 1.74725 6.67951 1.83454C6.76932 1.91427 6.81785 1.87992 6.86385 1.78728C6.96123 1.59032 7.0649 1.39621 7.16448 1.2002C7.30755 0.918484 7.43738 0.629202 7.65166 0.38971C7.78716 0.238451 7.96111 0.20946 8.09976 0.353471C8.2986 0.559875 8.47507 0.787709 8.65721 1.00955C8.72339 1.08991 8.77854 1.17941 8.85196 1.28371C8.94082 1.12646 9.02023 0.983714 9.10122 0.841909C9.17401 0.7146 9.23987 0.581934 9.32401 0.462503C9.42485 0.319752 9.61771 0.344962 9.66844 0.511347C9.72359 0.692542 9.74974 0.88256 9.78787 1.0688C9.80772 1.16554 9.82632 1.2626 9.84869 1.37478C9.90951 1.27426 9.94984 1.18445 10.0116 1.11291C10.0519 1.06628 10.1228 1.0209 10.1805 1.02058C10.2678 1.01995 10.3258 1.08897 10.339 1.18004C10.3693 1.38739 10.397 1.59537 10.4269 1.81249C10.5905 1.7252 10.7509 1.63413 10.916 1.55219C11.0477 1.48696 11.182 1.42425 11.3203 1.3751C11.4987 1.31176 11.6493 1.40629 11.6559 1.59537C11.6613 1.74442 11.6386 1.89631 11.6131 2.04441C11.5765 2.25807 11.5261 2.4692 11.4776 2.7005C11.7423 2.58958 11.9852 2.48464 12.231 2.38632C12.3567 2.3359 12.485 2.2858 12.6167 2.25712C12.7551 2.22687 12.8468 2.29021 12.8477 2.4317C12.8486 2.59966 12.825 2.77109 12.7859 2.93495C12.7292 3.17192 12.6492 3.40354 12.5732 3.65658C12.767 3.58221 12.9463 3.50343 13.1323 3.44387C13.3462 3.37549 13.563 3.31278 13.783 3.26929C13.9995 3.22644 14.1101 3.35406 14.0155 3.55259C13.8873 3.82139 13.7231 4.07317 13.5737 4.33157C13.5485 4.37506 13.5199 4.41602 13.4779 4.48094C13.5473 4.48094 13.599 4.47716 13.65 4.48157C13.8933 4.50205 14.1388 4.51213 14.3792 4.55089C14.5541 4.57894 14.6174 4.70972 14.5242 4.86318C14.3839 5.09416 14.2156 5.30782 14.0587 5.5284C14.0341 5.56275 14.0061 5.59458 13.9632 5.64846C14.1558 5.67336 14.3291 5.69699 14.5024 5.71811C14.7523 5.74867 14.9896 5.81642 15.2001 5.95823C15.3942 6.089 15.42 6.25507 15.2779 6.44352C15.1402 6.62629 14.9994 6.80622 14.861 6.98836C14.826 7.03437 14.7964 7.08479 14.7573 7.1434C15.0088 7.28678 15.2565 7.41976 15.5316 7.49287C15.6378 7.52092 15.7512 7.55212 15.7405 7.68447C15.7304 7.81052 15.6192 7.84676 15.5092 7.87984C15.3173 7.93751 15.1279 8.00526 14.9401 8.07553C14.8963 8.09192 14.8632 8.13604 14.7961 8.1915C15.0929 8.40232 15.3731 8.6021 15.6545 8.8C15.7434 8.86239 15.8499 8.90683 15.922 8.98403C15.9731 9.03855 16.0087 9.13875 15.9977 9.2106C15.9892 9.26512 15.9028 9.33445 15.8401 9.34831C15.6794 9.38392 15.5124 9.3918 15.3482 9.41228C15.3189 9.41606 15.2905 9.42804 15.2429 9.44159C15.375 9.64326 15.5013 9.83265 15.6236 10.0239C15.7027 10.1475 15.7925 10.2678 15.8483 10.4021C15.9198 10.5738 15.7979 10.6898 15.6268 10.6992C15.38 10.7128 15.132 10.7027 14.8421 10.7027C15.0586 11.0159 15.2565 11.3008 15.4522 11.5876C15.4865 11.6377 15.5228 11.6916 15.5376 11.7489C15.5656 11.8573 15.5184 11.9361 15.4062 11.95C15.2804 11.9657 15.1516 11.9622 15.0246 11.9582C14.8478 11.9522 14.6713 11.938 14.4948 11.9273C14.4832 11.943 14.4715 11.9588 14.4596 11.9745V11.9758ZM15.2549 7.6684C15.2398 7.6602 15.2234 7.65043 15.2064 7.64256C15.0211 7.55495 14.8305 7.4768 14.6518 7.37691C14.492 7.28773 14.458 7.13931 14.5513 6.98175C14.6203 6.86547 14.7063 6.75864 14.7876 6.64961C14.8806 6.52513 14.977 6.40318 15.0709 6.27965C15.1137 6.22325 15.0955 6.18606 15.0375 6.14856C14.8516 6.02787 14.6401 5.99983 14.428 5.97115C14.2279 5.94405 14.0263 5.92357 13.829 5.8826C13.6513 5.84573 13.5936 5.67746 13.6985 5.53313C13.7556 5.45466 13.8214 5.38219 13.8823 5.30656C14.0178 5.13828 14.1526 4.96969 14.2957 4.79133C14.2572 4.77463 14.244 4.76581 14.2301 4.76329C13.9374 4.71192 13.6424 4.72169 13.3494 4.74942C13.2558 4.75824 13.172 4.74753 13.1392 4.67159C13.1162 4.61865 13.1373 4.52852 13.1701 4.47337C13.2634 4.31644 13.3749 4.17054 13.4745 4.01708C13.576 3.86046 13.6717 3.70007 13.7701 3.54124C13.7127 3.52927 13.6777 3.53337 13.6462 3.54566C13.2882 3.68431 12.9303 3.82233 12.5739 3.9654C12.4818 4.00227 12.3961 4.02748 12.3164 3.94996C12.2364 3.87212 12.2436 3.78074 12.2767 3.68084C12.3738 3.3862 12.4674 3.0903 12.5572 2.79346C12.5833 2.70743 12.5921 2.61605 12.6145 2.49819C12.415 2.57949 12.2461 2.64535 12.0801 2.7172C11.8875 2.80039 11.7 2.8965 11.505 2.97276C11.3635 3.02823 11.2478 2.95764 11.2239 2.81237C11.2141 2.75344 11.2267 2.68915 11.2371 2.62865C11.2721 2.42666 11.3124 2.22561 11.348 2.02393C11.3682 1.9086 11.3833 1.79232 11.4035 1.65965C11.3591 1.6732 11.3395 1.67572 11.3235 1.68455C11.0676 1.82351 10.8126 1.96437 10.5565 2.10271C10.4896 2.13864 10.4424 2.17488 10.426 2.26216C10.409 2.35292 10.3091 2.3712 10.2461 2.29872C10.1972 2.24263 10.1588 2.17141 10.1355 2.10082C10.0989 1.99021 10.0787 1.87425 10.0516 1.75986C10.0132 1.81816 9.97978 1.87961 9.93566 1.93286C9.85499 2.03023 9.74627 2.03528 9.66623 1.94011C9.6281 1.89505 9.59911 1.83391 9.58777 1.77593C9.53231 1.49012 9.48441 1.20272 9.43399 0.915648C9.36561 1.00073 9.32275 1.08739 9.27926 1.17342C9.23546 1.26008 9.19544 1.34926 9.14597 1.43245C8.98494 1.70314 8.81887 1.73812 8.61971 1.47909C8.5986 1.45136 8.58032 1.42142 8.55953 1.39337C8.36951 1.13907 8.1776 0.886342 7.98979 0.630463C7.92456 0.541598 7.87319 0.572165 7.82939 0.642122C7.74084 0.782982 7.64945 0.923211 7.57382 1.071C7.4128 1.38549 7.2628 1.70566 7.10461 2.02173C7.00661 2.21742 6.8232 2.27603 6.63823 2.16259C6.52983 2.09641 6.43088 2.01196 6.33697 1.92561C6.14601 1.74978 5.96166 1.56732 5.74769 1.36186C5.70263 1.59285 5.65662 1.79295 5.62543 1.99557C5.59108 2.21836 5.57942 2.44462 5.53782 2.66584C5.52427 2.73831 5.46062 2.82497 5.39602 2.85806C5.31345 2.90029 5.22238 2.84892 5.15747 2.7777C4.96871 2.57098 4.78027 2.36363 4.59214 2.15597C4.55748 2.11784 4.52597 2.07719 4.485 2.02803C4.28616 2.39641 4.17019 2.77581 4.05013 3.15333C4.0079 3.286 3.97923 3.42622 3.91557 3.54818C3.77377 3.82044 3.51379 3.83525 3.2513 3.80878C3.03701 3.78704 2.82494 3.74607 2.59647 3.71141C2.61318 3.75994 2.61948 3.79397 2.63555 3.82296C2.77074 4.06687 2.90246 4.31266 3.04584 4.55184C3.13785 4.70562 3.1555 4.84679 3.0408 4.96843C2.9784 5.03461 2.88071 5.08818 2.79122 5.10393C2.53723 5.149 2.28009 5.17799 2.02295 5.20068C1.87043 5.21391 1.71602 5.2032 1.55437 5.2032C1.58808 5.51044 1.73903 5.6929 2.00404 5.77956C2.1074 5.81327 2.16507 5.88859 2.17043 5.98344C2.1761 6.08648 2.11024 6.17503 2.01129 6.20591C1.80457 6.27051 1.5947 6.32692 1.38325 6.37419C1.16614 6.42272 0.945235 6.45612 0.709208 6.49929C0.865824 6.69688 1.07065 6.79047 1.26697 6.89635C1.43746 6.98836 1.60951 7.07754 1.77558 7.17712C1.86665 7.23164 1.92526 7.32523 1.90919 7.43174C1.89092 7.55464 1.80111 7.62617 1.67821 7.64854C1.53388 7.67438 1.38956 7.70148 1.2446 7.72134C1.15101 7.73426 1.11225 7.76293 1.17622 7.85369C1.29849 8.02763 1.4217 8.20064 1.53955 8.37774C1.67033 8.57406 1.80583 8.76849 1.91959 8.97458C2.02894 9.17279 1.93346 9.37699 1.72768 9.39936C1.57044 9.41638 1.41035 9.40661 1.25153 9.40346C1.13683 9.40125 1.02244 9.39022 0.896391 9.38266C0.905214 9.4148 0.905214 9.43623 0.915613 9.4501C1.05836 9.63854 1.18347 9.84494 1.35048 10.0085C1.58808 10.2414 1.85751 10.4415 2.11119 10.6576C2.17516 10.7122 2.24574 10.7629 2.21297 10.8719C2.17925 10.9835 2.10457 11.0311 1.99837 11.0339C1.82442 11.0386 1.65016 11.0383 1.47622 11.0361C1.3738 11.0348 1.27139 11.0254 1.15132 11.0188C1.17653 11.0556 1.18693 11.0824 1.20616 11.0976C1.4926 11.3229 1.77716 11.5507 2.06896 11.7691C2.29931 11.9415 2.54322 12.0959 2.77074 12.2717C2.8284 12.3164 2.87126 12.4104 2.87693 12.485C2.88513 12.5922 2.79279 12.6429 2.697 12.6697C2.65225 12.6823 2.60593 12.6889 2.55992 12.6965C2.35919 12.7305 2.15814 12.7639 1.94197 12.8002C1.97348 12.8254 1.99144 12.8471 2.01413 12.8569C2.21392 12.9423 2.40929 13.0441 2.61664 13.1049C2.89836 13.1874 3.18953 13.2366 3.47629 13.3028C3.6389 13.3403 3.69593 13.489 3.59541 13.6188C3.55823 13.6671 3.50907 13.7096 3.4577 13.743C3.33386 13.823 3.20529 13.8962 3.05182 13.9885C3.25571 14.0225 3.43092 14.055 3.60738 14.0802C3.93795 14.1274 4.27135 14.1586 4.59939 14.2192C4.88552 14.2718 5.02039 14.4687 4.8392 14.7545C4.77176 14.8607 4.71031 14.971 4.63153 15.104C4.69613 15.0987 4.733 15.098 4.76892 15.0927C5.21388 15.0249 5.6582 14.9543 6.10347 14.8891C6.34327 14.8538 6.50399 15.0571 6.42205 15.2877C6.39086 15.3753 6.35399 15.4607 6.31932 15.5471C6.27269 15.6634 6.22605 15.7793 6.17941 15.8953C6.27773 15.8653 6.3521 15.8178 6.42773 15.7721C6.66344 15.63 6.89442 15.4793 7.13738 15.3508C7.29084 15.2695 7.40744 15.2943 7.50639 15.439C7.66805 15.6747 7.80575 15.9271 7.95134 16.1739C7.98569 16.2318 8.01121 16.2949 8.04871 16.3717C8.10165 16.3157 8.14798 16.2788 8.17886 16.2318C8.35848 15.9602 8.53715 15.6876 8.71142 15.4125C8.85227 15.1897 9.05301 15.1176 9.25027 15.3344C9.36781 15.4639 9.48409 15.595 9.59344 15.7311C9.78094 15.9649 9.97884 16.1871 10.2177 16.3705C10.2832 16.4209 10.3356 16.4307 10.3655 16.3374C10.3904 16.2602 10.4263 16.1836 10.4339 16.1045C10.4578 15.8512 10.4739 15.5972 10.4878 15.3429C10.4988 15.1415 10.5993 15.0378 10.8004 15.058C11.0846 15.0867 11.3307 15.2216 11.5711 15.3656C11.723 15.4566 11.8743 15.5483 12.0577 15.6593C12.0397 15.4094 12.0243 15.1995 12.0092 14.9899C11.9947 14.7873 11.9657 14.5844 11.971 14.3824C11.9748 14.2355 12.0111 14.1473 12.1932 14.0963C12.3961 14.0392 12.6013 14.0332 12.8039 14.0928C13.0031 14.1514 13.2 14.2188 13.4165 14.2885C13.4033 14.2128 13.3979 14.1517 13.3815 14.0934C13.304 13.8177 13.2246 13.5429 13.1442 13.2681C13.0563 12.9669 13.188 12.7961 13.5032 12.8172C13.6919 12.8298 13.8797 12.8572 14.0682 12.8789C14.2516 12.9004 14.4347 12.9231 14.637 12.9473C14.6184 12.9035 14.6105 12.8827 14.6007 12.8626C14.4687 12.5915 14.3285 12.3243 14.2068 12.0486C14.1221 11.857 14.2245 11.6903 14.4315 11.6695C14.5736 11.6553 14.7183 11.6604 14.8616 11.6635C14.9653 11.666 15.0684 11.6796 15.1869 11.6897C15.1676 11.6575 15.1569 11.638 15.1443 11.6194C14.9499 11.3304 14.7526 11.043 14.5617 10.7519C14.4756 10.6208 14.5052 10.5332 14.6543 10.4856C14.7375 10.4588 14.8298 10.4522 14.9181 10.4503C15.1383 10.4456 15.3589 10.4487 15.6006 10.4487C15.571 10.3989 15.5533 10.3662 15.5329 10.3356C15.3706 10.0936 15.2029 9.85471 15.046 9.60923C14.9102 9.39684 14.9757 9.23865 15.219 9.18791C15.3721 9.15609 15.5294 9.1438 15.6955 9.12111C15.5852 9.04832 15.4752 8.98561 15.3759 8.90872C15.1339 8.72122 14.8824 8.54254 14.6625 8.33141C14.4838 8.15999 14.5232 8.02732 14.7447 7.91451C14.9127 7.82911 15.0841 7.75064 15.2562 7.66808L15.2549 7.6684Z" fill="#1A1A1A"/>
<path d="M7.30475 7.89694C7.30759 7.78728 7.41946 7.68014 7.52565 7.6855C7.62681 7.69054 7.70685 7.78287 7.7037 7.89159C7.6996 8.0356 7.61168 8.15503 7.50864 8.15629C7.41032 8.15755 7.3016 8.01921 7.30475 7.89726V7.89694Z" fill="#1A1A1A"/>
<path d="M8.96377 7.81316C8.96094 7.93637 8.85852 8.05044 8.7517 8.04918C8.67638 8.04824 8.59098 7.94803 8.59382 7.86389C8.59981 7.69688 8.67859 7.58879 8.79109 7.59289C8.86987 7.59572 8.96598 7.71862 8.96377 7.81316Z" fill="#1A1A1A"/>
<path d="M9.59551 8.56845C9.49246 8.57475 9.39572 8.55018 9.30087 8.50952C9.2265 8.4777 9.14047 8.48747 9.09604 8.56309C9.05917 8.62612 9.07492 8.73578 9.14961 8.76792C9.16095 8.77265 9.1723 8.77738 9.18364 8.7821C9.07461 8.97055 8.90885 9.10164 8.70655 9.19554C8.44279 9.31813 8.16233 9.30143 7.87998 9.27306C7.69816 9.25479 7.5157 9.2343 7.33829 9.18861C7.21003 9.15552 7.02632 9.10511 6.94911 8.98315C7.01844 8.93525 7.07831 8.87633 7.12054 8.80731C7.22106 8.64219 6.96203 8.49156 6.86182 8.65606C6.78682 8.77927 6.58515 8.83599 6.44933 8.83315C6.25647 8.82906 6.25647 9.12842 6.44933 9.13252C6.52212 9.1341 6.59933 9.12464 6.6759 9.1051C6.876 9.48325 7.45173 9.52737 7.82988 9.56739C8.16926 9.60331 8.49762 9.61466 8.81589 9.47348C9.09887 9.34775 9.34467 9.14828 9.47796 8.86498C9.51641 8.86908 9.55549 8.87065 9.59519 8.86813C9.78678 8.85647 9.78804 8.55679 9.59519 8.56877L9.59551 8.56845Z" fill="#1A1A1A"/>
</g>
<defs>
<clipPath id="clip0_32170_975">
<rect width="16" height="16.7305" fill="white"/>
</clipPath>
</defs>
</svg>
