<svg width="16" height="28" viewBox="0 0 16 28" fill="none" xmlns="http://www.w3.org/2000/svg">
<g clip-path="url(#clip0_32170_992)">
<path d="M13.8203 0.0694151C13.8176 0.0676472 13.7951 0.0702991 13.7734 0.0733929C13.7902 0.072067 13.8066 0.0707411 13.815 0.0702991C13.8168 0.0702991 13.8185 0.0698571 13.8203 0.0694151Z" fill="#FAAD14"/>
<path d="M15.2011 0.168871C14.7662 -0.0781943 14.2893 -0.000848373 13.8204 0.0694259C13.8204 0.0694259 13.8182 0.0694259 13.8146 0.0698679C13.8031 0.0716358 13.7916 0.0734037 13.7801 0.0751716C13.6997 0.087105 13.7346 0.0791494 13.7731 0.0734037C13.7519 0.0751716 13.7302 0.0764976 13.7245 0.0769395C13.6029 0.0853371 13.4831 0.0937347 13.362 0.108762C13.0752 0.14412 12.7914 0.191853 12.5103 0.259918C11.5919 0.48179 10.6576 0.71648 9.7586 1.00686C9.25917 1.16818 8.77697 1.37237 8.30671 1.60397C7.90628 1.80109 7.48949 1.96948 7.10939 2.20594C6.67891 2.47378 6.30057 2.81896 5.91208 3.14205C5.55894 3.43596 5.19121 3.71176 4.83277 3.99904C4.48582 4.27704 4.14594 4.56477 3.837 4.88476C3.4843 5.25028 3.18243 5.66264 2.88233 6.07147C2.80896 6.1718 2.73559 6.27213 2.66178 6.37201C2.62068 6.4277 2.57957 6.48295 2.53803 6.5382C2.53317 6.54483 2.51107 6.57223 2.49737 6.58947C2.37229 6.73885 2.23527 6.87719 2.10135 7.01818C1.73761 7.40182 1.48656 7.79651 1.31022 8.2955C1.15464 8.73571 1.05652 9.19448 0.980501 9.65458C0.943817 9.87777 0.912437 10.1019 0.88194 10.3264C0.863819 10.4621 0.845698 10.5973 0.827577 10.733C0.829787 10.7166 0.817412 10.8081 0.816528 10.8161C0.805036 10.9005 0.793103 10.9849 0.781612 11.0693C0.718851 11.521 0.657416 11.9723 0.61808 12.4249C0.494769 13.1113 0.452339 13.8198 0.367037 14.5004C0.329469 14.8001 0.296763 15.1011 0.301183 15.4034C0.306045 15.7402 0.367037 16.0721 0.413887 16.4049C0.404164 16.3417 0.43024 16.5613 0.429798 16.5574C0.436428 16.6391 0.438196 16.7205 0.440848 16.8022C0.445267 16.9317 0.449245 17.0608 0.458527 17.1898C0.482835 17.535 0.524381 17.889 0.620732 18.2223C0.692332 18.4694 0.797523 18.7071 0.883266 18.9498C0.999506 19.2786 1.12414 19.6097 1.31906 19.9009C1.64302 20.3858 2.03859 20.8574 2.43681 21.2839C3.22221 22.1254 4.18881 22.6787 5.16867 23.2573C5.5912 23.507 6.00799 23.7665 6.4124 24.0445C6.71648 24.3229 7.01967 24.6013 7.3485 24.8519C7.73391 25.1454 8.14362 25.3629 8.59532 25.5379C8.8026 25.6179 9.01166 25.6926 9.21939 25.7717C9.31486 25.8079 9.40988 25.8451 9.50446 25.8826C9.51728 25.8875 9.52789 25.8919 9.53761 25.8959C9.54292 25.8985 9.5522 25.9025 9.5659 25.9092C9.62424 25.9352 9.68258 25.9618 9.74048 25.9892C9.95307 26.0912 10.159 26.2066 10.3557 26.337C10.4423 26.3944 10.5272 26.4546 10.6107 26.5155C10.6527 26.546 10.6938 26.577 10.7354 26.6084C10.7354 26.6084 10.925 26.7538 10.8251 26.6764C11.1376 26.9177 11.4536 27.1511 11.7749 27.3805C12.018 27.5537 12.2774 27.7328 12.5696 27.8097C13.1676 27.967 13.7174 27.4928 13.755 26.9045C13.7801 26.5054 13.5318 26.1544 13.2975 25.8588C12.8825 25.335 12.38 24.8714 11.9243 24.3839C11.5857 24.0215 11.2516 23.6555 10.9298 23.2785C10.8587 23.195 10.788 23.111 10.7181 23.0266C10.6929 22.9961 10.6682 22.9656 10.6434 22.9347C10.6315 22.9187 10.5882 22.8626 10.5776 22.8476C10.4348 22.6513 10.3031 22.4471 10.1794 22.2385C9.94998 21.8505 9.74932 21.4465 9.5575 21.039C9.46469 20.8419 9.37408 20.6434 9.28303 20.4454C9.2406 20.3531 9.19817 20.2607 9.15574 20.1683C9.13453 20.1224 9.11331 20.0764 9.0921 20.0309C9.08282 20.011 9.07619 19.9973 9.07133 19.988C9.06868 19.9792 9.06426 19.9659 9.05718 19.9456C8.90603 19.5124 8.80393 19.0704 8.71951 18.6201C8.68283 18.4238 8.64791 18.2276 8.61167 18.0314C8.61255 18.0358 8.59974 17.9461 8.59267 17.9063C8.59134 17.8802 8.58957 17.8506 8.58913 17.8418C8.5878 17.798 8.58736 17.7534 8.59001 17.7096C8.59001 17.7374 8.60593 17.6751 8.61521 17.6278C8.61786 17.6225 8.62139 17.6168 8.62581 17.6084C8.62184 17.6084 8.63952 17.585 8.65764 17.5624C8.85343 17.5492 9.0289 17.505 9.19685 17.3976C9.52435 17.1881 9.72589 16.6908 9.47441 16.3395C9.29099 16.0831 9.10138 15.909 8.84371 15.726C8.76239 15.6681 8.67885 15.6133 8.59664 15.5558L8.59576 15.5554C8.54361 15.5063 8.49366 15.4568 8.44372 15.4051C8.43709 15.3985 8.43179 15.3932 8.42648 15.3879C8.42472 15.3835 8.42251 15.3782 8.41853 15.3711C8.39334 15.3216 8.35577 15.2748 8.3266 15.2266C8.27135 15.1351 8.21831 15.0423 8.16483 14.9495C8.14008 14.907 8.11401 14.8646 8.09235 14.82C8.0897 14.8085 8.08616 14.7912 8.08086 14.7669C8.07423 14.7369 8.06716 14.7068 8.06008 14.6768C8.07467 14.7333 8.45919 15.7119 8.44372 15.5554C8.43532 15.3375 8.57234 14.1278 8.57543 13.9099C8.57543 13.9073 8.05434 13.8604 8.05434 13.8578C8.2824 13.9113 8.51355 13.9267 8.75045 13.9161C8.84548 13.9117 8.93962 13.9077 9.03464 13.9099C9.04569 13.9121 9.10359 13.9188 9.12923 13.9254C9.18403 13.9395 9.23751 13.9563 9.29187 13.9714C9.58756 14.0545 9.89385 14.1066 10.1979 14.0332C10.6355 13.9276 10.9748 13.7338 11.0013 13.286C11.0137 13.0788 10.9139 12.7396 10.841 12.5451C10.7031 12.1765 10.498 11.8547 10.2969 11.5197C10.0591 11.1237 9.82799 10.7171 9.61717 10.306C9.56192 10.1982 9.50888 10.089 9.45982 9.97855C9.45364 9.96175 9.4227 9.88661 9.41651 9.86982C9.38822 9.79468 9.36082 9.71866 9.33342 9.64308C9.23397 9.37171 9.13409 9.10078 9.03906 8.82764C8.97277 8.6367 8.90868 8.44444 8.84901 8.2513C9.08238 8.06302 9.31353 7.87208 9.54203 7.67717C10.0012 7.28602 10.475 6.90283 10.8644 6.43875C10.9192 6.37378 10.9714 6.3066 11.0231 6.23942C11.0359 6.22263 11.2313 5.95611 11.146 6.07677C11.0699 6.18462 11.1636 6.05556 11.1809 6.03346C11.2459 5.95125 11.3113 5.86904 11.3736 5.78463C11.504 5.60828 11.6153 5.40364 11.6648 5.18663C11.7479 5.06907 11.8301 4.95106 11.9141 4.83438C11.9446 4.79195 11.9751 4.74996 12.0061 4.70797C12.022 4.68676 12.0335 4.67173 12.0414 4.66112C12.0944 4.59438 12.1501 4.52897 12.2063 4.46488C12.7508 3.84347 13.3063 3.21586 13.922 2.66383C14.0719 2.52947 14.2234 2.39732 14.3742 2.26428C14.4029 2.23909 14.585 2.09501 14.5178 2.13965C14.558 2.11136 14.5982 2.08307 14.6389 2.05523C14.9589 1.83512 15.3089 1.59425 15.4773 1.22961C15.651 0.853935 15.5914 0.393837 15.1998 0.171523L15.2011 0.168871ZM12.5192 1.85722C12.4666 1.90761 12.4144 1.95843 12.3627 2.0097C12.3468 1.97744 12.3287 1.94562 12.3079 1.91512C12.3782 1.89612 12.4489 1.87667 12.5192 1.85722ZM5.25442 14.4226C5.31939 14.0757 5.37861 13.7274 5.43695 13.3791C5.43607 13.4295 5.00263 14.2357 5.0013 14.286C4.99777 14.4147 5.37463 14.4912 5.36491 14.6194C5.35298 14.7736 5.39187 14.1477 5.3795 14.2224C5.3711 14.2723 5.36624 14.3223 5.36491 14.3714C5.32778 14.3855 5.29022 14.4027 5.25442 14.4226ZM7.33463 12.286C7.33773 12.2418 7.1726 12.211 7.17569 12.1668C7.19956 12.207 7.22431 12.2459 7.25082 12.2843C7.22165 12.2945 7.19293 12.306 7.1642 12.3188C7.16464 12.3122 7.33419 12.2927 7.33463 12.286ZM2.2419 14.3828C2.24102 14.4558 2.24102 14.5287 2.2419 14.6012C2.22776 14.53 2.21494 14.458 2.20168 14.3864C2.21538 14.3855 2.22864 14.3846 2.2419 14.3828ZM7.37016 16.7068C7.31403 16.7832 8.01587 16.2568 7.97609 16.3395C7.75289 15.7207 6.76553 15.7141 6.49814 15.113C6.57372 15.726 6.84995 15.4983 6.57372 15.071C6.63073 15.3097 6.72134 15.5377 6.84995 15.7609C7.02144 16.0575 7.20088 16.3625 7.45192 16.6002C7.42408 16.636 7.39668 16.6718 7.37016 16.7076V16.7068ZM7.61546 13.7349C7.62076 13.7446 7.657 13.7566 7.70253 13.7689C7.66628 13.7787 7.6349 13.7711 7.61546 13.7349ZM9.0013 12.6194C9.04064 12.6848 8.96083 12.2945 9.00061 12.359C8.94934 12.3573 8.89807 12.3564 8.84592 12.3573C8.86581 12.2958 8.99644 12.6861 9.0013 12.6194ZM6.76377 4.43306C6.92907 4.30047 7.09127 4.16434 7.25303 4.02733C7.3348 3.95794 7.41701 3.88899 7.5001 3.82092C7.53413 3.79308 7.56861 3.76568 7.60308 3.73828C7.61546 3.72988 7.67954 3.68259 7.69634 3.67065C7.99069 3.4616 6.20244 4.77186 6.52817 4.61937C6.15514 4.90003 7.69264 4.31883 7.33463 4.61937C7.20779 4.70114 7.29104 4.19042 7.16376 4.27262C6.65195 4.60543 5.23864 4.56747 5.0013 5.61937C4.93766 5.6702 5.82449 6.2845 5.15287 5.32453C5.13651 5.33823 6.30414 6.63308 6.33464 6.61937C6.3258 6.62424 5.67769 5.61407 5.66797 5.61937C6.12276 5.21099 6.28732 4.81405 6.76377 4.43306ZM4.84736 6.06749C4.72891 6.27169 4.67454 6.50196 4.64184 6.74769C4.62018 6.9099 3.95745 6.95145 4.06617 7.08757C4.01358 7.14459 4.69664 7.33243 4.64581 7.39077C4.51145 7.22503 4.35676 7.11807 4.13135 7.08757C4.10528 7.08404 5.93904 7.01907 5.91208 7.01818C6.18743 6.64295 4.69501 6.62371 5.0013 6.28604C5.01633 6.26969 4.83233 6.08385 4.84736 6.06749ZM9.64324 24.2836C9.63971 24.2296 9.63264 24.1762 9.62336 24.1231C9.68479 24.1987 9.74711 24.2734 9.81031 24.3476C9.75462 24.326 9.69893 24.3048 9.64324 24.2836ZM8.57543 16.0168C8.55245 16.0168 8.52946 16.0168 8.50648 16.0168C8.62316 15.9784 8.69388 16.0186 8.57543 16.0168Z" fill="#FFC069"/>
<path d="M8.80137 15.0971C9.06523 15.1307 9.31892 15.1537 9.56864 15.1979C9.76886 15.2328 9.92178 15.3477 9.97172 15.555C10.0186 15.7495 9.94344 15.8883 9.72687 16.0465C9.82366 16.1177 9.92576 16.1809 10.0142 16.2595C10.1653 16.3939 10.2122 16.6379 10.1326 16.8147C10.0486 17.0007 9.79803 17.1576 9.6124 17.1497C9.51074 17.1453 9.4082 17.1678 9.30699 17.1607C9.21064 17.1537 9.11606 17.124 8.99761 17.0997C8.99761 17.3799 8.98567 17.6606 9.0007 17.9395C9.0175 18.2551 9.03915 18.5724 9.09175 18.8831C9.3176 20.2135 9.78919 21.4315 10.7112 22.4503C11.1089 22.8896 11.4585 23.3727 11.8506 23.8178C12.0941 24.094 12.3761 24.3358 12.6404 24.5934C13.0134 24.9581 13.371 25.3399 13.7626 25.6834C14.1126 25.9905 14.4507 26.3052 14.7305 26.6774C14.8374 26.8197 14.9267 26.9779 15.0032 27.1388C15.1093 27.3607 14.9585 27.6223 14.7172 27.6232C14.4246 27.6245 14.1303 27.6064 13.839 27.5772C13.5743 27.5507 13.3117 27.5003 13.0488 27.4552C12.8561 27.4221 12.6638 27.3841 12.4729 27.3421C12.1529 27.2718 11.8307 27.2077 11.5147 27.1207C11.1067 27.008 10.7001 26.8864 10.3006 26.7476C9.87095 26.5983 9.44179 26.4422 9.02678 26.2575C8.39696 25.9768 7.76582 25.6931 7.16031 25.3647C6.49248 25.0023 5.8441 24.601 5.20279 24.1926C4.58138 23.7966 4.02006 23.3219 3.48704 22.8105C2.70607 22.0614 2.0378 21.2247 1.51008 20.2811C1.23473 19.7887 0.950536 19.2928 0.755182 18.7669C0.522261 18.1397 0.373314 17.4807 0.202269 16.8314C0.135089 16.5755 0.0860296 16.3112 0.0643727 16.0478C0.0272466 15.5895 0.00293792 15.1298 0.000286056 14.6706C-0.00192383 14.1632 0.00824164 13.6545 0.0458097 13.1485C0.115642 12.2066 0.328233 11.2917 0.600932 10.3883C0.815733 9.67585 1.08446 8.98592 1.45041 8.33975C1.7019 7.89556 1.97681 7.4611 2.27779 7.04918C2.62386 6.57671 2.97656 6.09981 3.38715 5.68568C4.04437 5.0236 4.72458 4.37787 5.44677 3.78872C6.07747 3.27426 6.76341 2.82211 7.45467 2.38942C8.1605 1.94744 8.9238 1.60845 9.7114 1.33442C10.3881 1.09885 11.0647 0.860621 11.7502 0.653334C12.3982 0.457539 13.0651 0.378425 13.7466 0.370027C14.2478 0.363839 14.7331 0.400966 15.2122 0.541956C15.4293 0.606043 15.6498 0.656428 15.8664 0.720957C15.9857 0.756757 16.0096 0.824379 15.9967 0.966696C15.9671 1.29906 15.6958 1.42061 15.5022 1.60093C15.0929 1.98192 14.6487 2.32533 14.243 2.70985C13.9398 2.99669 13.672 3.32155 13.3926 3.63358C12.9891 4.0844 12.5873 4.53654 12.1896 4.99222C11.5381 5.73916 10.8782 6.47947 10.2453 7.24188C9.83029 7.74176 9.45638 8.27522 9.06479 8.7941C8.98214 8.90371 8.97816 9.01951 9.02192 9.15034C9.17705 9.61618 9.44047 10.0228 9.71184 10.4241C10.202 11.1494 10.7178 11.8588 11.1001 12.6503C11.2035 12.8647 11.2791 13.0954 11.3419 13.3252C11.4302 13.6492 11.2786 13.8627 10.9472 13.8981C10.3775 13.959 9.80687 14.0094 9.23716 14.0704C9.09705 14.0854 8.93927 14.0894 8.82568 14.1584C8.67143 14.2521 8.81772 14.416 8.80535 14.5495C8.78811 14.7382 8.80093 14.9301 8.80093 15.0971H8.80137ZM15.4474 1.03167C15.3099 0.972883 15.214 0.912333 15.1097 0.890676C14.5793 0.781507 14.0432 0.760293 13.5018 0.780182C12.7027 0.809352 11.9513 1.04935 11.1987 1.2805C10.842 1.39011 10.4933 1.52889 10.1472 1.669C9.63715 1.87584 9.11694 2.06545 8.629 2.31693C7.99299 2.64488 7.36318 2.99537 6.7696 3.39403C6.18531 3.78607 5.64212 4.2413 5.09539 4.68726C4.81518 4.91576 4.56104 5.17785 4.30691 5.43685C3.94404 5.80634 3.57455 6.17186 3.23998 6.56698C2.92219 6.94266 2.63358 7.3453 2.35514 7.75192C2.11603 8.10064 1.88797 8.46041 1.69262 8.83432C1.34522 9.49861 1.09108 10.2027 0.893963 10.9262C0.673417 11.7346 0.503698 12.554 0.4595 13.392C0.426794 14.0081 0.394087 14.6282 0.426352 15.243C0.458174 15.8498 0.552315 16.4558 0.654854 17.056C0.791866 17.8582 1.05263 18.629 1.42124 19.3516C1.68333 19.8656 2.00332 20.3522 2.32155 20.8353C2.94164 21.7781 3.74471 22.555 4.6269 23.2441C5.11396 23.6242 5.63947 23.9597 6.16984 24.2788C6.74706 24.6262 7.34152 24.9488 7.94438 25.2502C8.43806 25.4968 8.95031 25.7099 9.46389 25.9132C10.0053 26.1275 10.5512 26.3366 11.1076 26.5054C11.9407 26.7578 12.7946 26.9284 13.6578 27.0446C13.9292 27.0813 14.2028 27.103 14.475 27.1313C14.483 27.1154 14.4909 27.0995 14.4989 27.084C14.319 26.8683 14.1528 26.6389 13.9561 26.4405C13.7002 26.1828 13.4156 25.9543 13.1513 25.7046C12.8402 25.4102 12.5347 25.1092 12.2324 24.8056C11.981 24.5528 11.7321 24.2973 11.4926 24.0335C11.3215 23.8447 11.1792 23.6291 11.0046 23.4434C10.3487 22.7464 9.77549 21.9977 9.34323 21.1337C9.02855 20.5052 8.75805 19.8727 8.68071 19.1722C8.63784 18.7872 8.61397 18.3996 8.59762 18.0129C8.58303 17.6659 8.58745 17.3176 8.59055 16.9702C8.59143 16.8381 8.65021 16.7364 8.7996 16.7267C8.89021 16.721 8.9817 16.7227 9.07274 16.7254C9.24202 16.7302 9.4113 16.7488 9.57969 16.74C9.63405 16.7373 9.68488 16.6666 9.73748 16.6268C9.70079 16.5822 9.67162 16.5097 9.6261 16.4973C9.38168 16.4301 9.13329 16.3771 8.88579 16.3214C8.81684 16.3059 8.73065 16.3205 8.67983 16.2838C8.61353 16.2361 8.53795 16.1517 8.5353 16.081C8.53309 16.0275 8.63077 15.9444 8.69971 15.9201C8.7943 15.8869 8.90435 15.9011 9.00645 15.8878C9.20843 15.8622 9.41174 15.837 9.5735 15.6465C9.28843 15.5621 9.02943 15.532 8.76159 15.5877C8.5132 15.639 8.33729 15.4878 8.37751 15.2474C8.4248 14.9641 8.42171 14.6861 8.37575 14.4019C8.30414 13.9608 8.42525 13.7761 8.84026 13.6939C9.11606 13.6391 9.39671 13.6072 9.67692 13.5794C10.0928 13.5383 10.5105 13.51 10.979 13.4724C10.8685 13.2006 10.7969 12.9593 10.6776 12.7454C10.4689 12.3715 10.2329 12.0121 10.0031 11.6506C9.86609 11.4349 9.70919 11.232 9.57836 11.0133C9.28224 10.5187 8.9817 10.0259 8.71209 9.51718C8.54325 9.1994 8.48933 8.85333 8.71518 8.52494C8.84999 8.32914 8.98567 8.13335 9.12976 7.94462C9.38964 7.6043 9.64422 7.25868 9.92266 6.93427C10.7204 6.00567 11.5279 5.08548 12.3336 4.16351C12.7721 3.66187 13.2017 3.15094 13.6596 2.66742C14.0132 2.29439 14.4021 1.95496 14.7809 1.60668C14.9882 1.41619 15.2074 1.23851 15.4474 1.03255V1.03167Z" fill="#1A1A1A"/>
<path d="M4.60982 8.45818C4.50817 8.70967 4.33138 9.33816 4.7486 9.40401C5.10351 9.4597 5.43411 9.02922 5.58261 8.76271L5.26616 8.62923C5.19367 8.87497 5.00539 9.60909 5.4898 9.57815C5.652 9.56755 5.81774 9.43274 5.94017 9.33683C6.09973 9.21131 6.21597 9.06546 6.28094 8.87187C6.34591 8.67829 6.05332 8.56293 5.96448 8.7384C5.80537 9.05309 5.57996 9.78367 6.02945 9.97858C6.47894 10.1735 6.92711 9.55826 7.11981 9.2312C7.23295 9.03894 6.93374 8.86436 6.82103 9.05662C6.75562 9.16756 6.68446 9.27319 6.5996 9.36998C6.52844 9.45131 6.39541 9.62147 6.28536 9.64312C5.96404 9.70588 6.1921 9.05529 6.2637 8.91342L5.94724 8.77994C5.89111 8.94613 5.73023 9.09993 5.57156 9.1733C5.53488 9.17905 5.51499 9.19717 5.5119 9.22811C5.51101 9.1817 5.51411 9.13529 5.51985 9.08933C5.53355 8.96381 5.56493 8.8427 5.60073 8.72204C5.65598 8.53465 5.38019 8.4162 5.28428 8.58857C5.20649 8.72823 5.03412 9.00668 4.86086 9.04159C4.7981 9.05441 4.86042 9.08889 4.83744 9.03054C4.82285 8.99386 4.84495 8.91121 4.85026 8.87408C4.86705 8.76182 4.90197 8.65619 4.9444 8.551C5.02793 8.3446 4.69336 8.25487 4.61071 8.45907L4.60982 8.45818Z" fill="#1A1A1A"/>
<path d="M4.50777 10.4365C4.46092 10.8643 4.4923 11.4261 4.99395 11.5684C5.49559 11.7107 5.74487 11.1269 5.90265 10.756C5.98928 10.5532 5.69095 10.3768 5.60388 10.5815C5.52565 10.7653 5.34532 11.3125 5.08058 11.2316C4.76279 11.1344 4.82688 10.6853 4.85428 10.4365C4.87859 10.2155 4.53208 10.2168 4.50822 10.4365H4.50777Z" fill="#1A1A1A"/>
</g>
<defs>
<clipPath id="clip0_32170_992">
<rect width="16" height="27.8388" fill="white"/>
</clipPath>
</defs>
</svg>
