<svg width="16" height="20" viewBox="0 0 16 20" fill="none" xmlns="http://www.w3.org/2000/svg">
<g clip-path="url(#clip0_32170_970)">
<path d="M16.0003 6.36059C15.8269 6.49423 15.6711 6.66604 15.4771 6.75487C14.886 7.02642 14.2841 7.27615 13.6791 7.51575C13.0413 7.76821 12.3794 7.93885 11.6972 8.0269C11.6493 8.03314 11.6033 8.05184 11.5374 8.06976C11.6348 8.20183 11.7186 8.32845 11.8152 8.44416C12.3572 9.09051 12.8138 9.79295 13.1987 10.5425C13.4153 10.9649 13.5244 11.4203 13.6078 11.8831C13.6479 12.1052 13.6681 12.3316 13.7207 12.5501C13.7531 12.6857 13.704 12.7461 13.5953 12.7956C13.3362 12.9128 13.0592 12.8801 12.8142 12.8061C11.975 12.5521 11.2343 12.1266 10.676 11.4277C10.6285 11.3681 10.5724 11.3155 10.489 11.2259C10.5311 11.5473 10.5685 11.8255 10.6036 12.104C10.676 12.6783 10.7579 13.2514 10.8155 13.8272C10.8732 14.4035 10.9153 14.982 10.9456 15.5606C10.9675 15.9747 10.9702 16.3904 10.9597 16.8049C10.9468 17.3173 10.9117 17.8292 10.8856 18.3415C10.8716 18.6205 10.8089 18.6598 10.5346 18.6863C10.1703 18.7214 9.98723 18.5118 9.84191 18.234C9.36348 17.3196 8.8496 16.4212 8.50871 15.4425C8.38793 15.0958 8.31274 14.7334 8.20092 14.3746C8.03496 15.6689 7.66601 16.9066 7.1907 18.1159C7.06992 18.4229 6.96317 18.7354 6.84473 19.0436C6.71772 19.3728 6.50851 19.5111 6.21943 19.4674C6.04956 19.4417 5.95294 19.3541 5.95256 19.183C5.95178 18.6933 5.96385 18.2036 5.97009 17.7135C5.9732 17.4602 5.95957 17.2058 5.97944 16.9538C6.03359 16.2657 6.10255 15.5785 6.1645 14.8908C6.19761 14.5223 6.228 14.1537 6.26345 13.7435C6.20501 13.8202 6.17229 13.8732 6.13021 13.9176C5.90775 14.1545 5.6888 14.3957 5.45699 14.6232C5.23647 14.8394 5.00233 15.0416 4.77324 15.2489C4.46195 15.5306 4.17443 15.8473 3.83081 16.0826C3.37887 16.3923 2.8798 16.6249 2.29657 16.5233C2.10255 16.4894 2.0745 16.434 2.07645 16.2342C2.07917 15.9922 2.18592 15.7908 2.30124 15.6026C2.6063 15.1051 2.85136 14.5675 3.26784 14.1416C3.39368 14.0131 3.48757 13.8506 3.5838 13.6959C3.99833 13.0328 4.46546 12.411 5.00622 11.8454C5.06856 11.7799 5.12154 11.7055 5.18894 11.6229C4.60649 11.7257 4.05132 11.8578 3.48874 11.9131C3.00213 11.9607 2.50695 11.9295 2.01567 11.9166C1.75152 11.9096 1.48426 11.8886 1.22595 11.836C0.925574 11.7752 0.631818 11.6786 0.33923 11.5847C0.283907 11.5672 0.208325 11.4865 0.212611 11.4413C0.218455 11.3794 0.280011 11.3065 0.337671 11.2687C0.424162 11.2123 0.53286 11.1912 0.622857 11.139C0.955963 10.9454 1.28556 10.7451 1.61633 10.5468C2.32891 10.1194 3.11901 9.88451 3.89743 9.61919C3.97535 9.5927 4.05249 9.56192 4.12573 9.52452C4.19859 9.48673 4.26599 9.43803 4.36884 9.37335C4.28819 9.35037 4.23209 9.32699 4.17404 9.3192C3.59627 9.2405 3.0368 9.1096 2.52331 8.81389C2.1754 8.61364 1.91671 8.32495 1.65101 8.03353C1.35452 7.70821 1.03193 7.40627 0.709348 7.10628C0.507926 6.91889 0.279232 6.76149 0.0754721 6.57643C-0.0456928 6.46657 -0.0184209 6.35631 0.138977 6.30332C0.262869 6.26164 0.396501 6.23865 0.527406 6.23164C1.51698 6.17904 2.47578 6.31696 3.39212 6.70889C3.52185 6.76422 3.6586 6.80279 3.83665 6.86434C3.43303 6.2441 3.19693 5.5888 2.73837 5.05778C2.37722 4.63974 2.09203 4.16872 1.91632 3.63107C1.80568 3.29212 1.62062 2.97772 1.47491 2.64968C1.43478 2.55968 1.40751 2.46267 1.38842 2.36566C1.3553 2.20047 1.43205 2.09294 1.59958 2.07619C1.82204 2.05398 2.04021 2.06645 2.24241 2.18411C2.71032 2.45643 3.12057 2.79928 3.45835 3.22005C3.73146 3.56017 3.97885 3.92093 4.23755 4.27274C4.25586 4.29767 4.27534 4.32183 4.32053 4.33469C4.28118 4.0308 4.24456 3.72613 4.20209 3.42264C4.08132 2.55578 4.01508 1.68737 4.14638 0.816618C4.17872 0.60195 4.23092 0.385723 4.30884 0.183522C4.39105 -0.0295883 4.59753 -0.00270605 4.78103 0.0058651C4.94544 0.0132675 5.04713 0.0978102 5.08726 0.257935C5.22518 0.807657 5.35881 1.35894 5.50374 1.90671C5.63737 2.41202 5.78308 2.91421 5.93463 3.45809C6.00164 3.28394 6.05346 3.14174 6.11073 3.00226C6.38501 2.33332 6.64175 1.65581 6.94525 1.00051C7.07654 0.717271 7.29355 0.469097 7.49497 0.22404C7.63873 0.0495001 8.13158 0.019501 8.29521 0.173392C8.37235 0.245857 8.42767 0.384944 8.42494 0.492083C8.41014 1.11076 8.34313 1.72204 8.1569 2.31891C7.99132 2.84954 7.86158 3.39108 7.71743 3.92834C7.70808 3.96262 7.71081 4.00002 7.7412 4.05301C7.84834 3.8886 7.95197 3.72146 8.0634 3.55978C8.19157 3.37394 8.32482 3.192 8.45845 3.00966C8.61818 2.79149 8.78065 2.57487 8.94194 2.35748C9.24154 1.95424 9.51426 1.52724 9.84931 1.15674C10.0979 0.88207 10.4127 0.657662 10.7286 0.459747C10.8494 0.384165 11.0625 0.414553 11.2207 0.451175C11.3824 0.488966 11.3348 0.656493 11.2978 0.762074C11.0029 1.59893 10.6994 2.43306 10.3951 3.2668C10.2229 3.7386 10.0457 4.20846 9.86607 4.67753C9.78152 4.89843 9.68568 5.11544 9.5801 5.36907C9.66971 5.30829 9.74373 5.26933 9.80412 5.21557C10.2038 4.85869 10.6016 4.49988 10.9975 4.13911C11.3882 3.7834 11.8226 3.49588 12.3007 3.26797C12.6236 3.11408 12.933 2.93135 13.2462 2.75759C13.473 2.63175 13.6911 2.49734 13.9681 2.50163C14.295 2.50708 14.3312 2.61111 14.2467 2.91655C14.1949 3.10317 14.0702 3.28589 13.9354 3.43043C13.3218 4.08846 12.6957 4.7348 12.0673 5.37881C11.8978 5.55257 11.6999 5.69789 11.5258 5.86736C11.3781 6.01113 11.2456 6.17086 11.0762 6.35748C11.4868 6.24527 11.8413 6.11437 12.2072 6.05593C12.7771 5.96515 13.3541 5.89347 13.9303 5.87048C14.4407 5.85022 14.9546 5.90048 15.4665 5.93282C15.6828 5.94645 15.8705 6.04112 16.0003 6.22657V6.35943V6.36059ZM6.50267 18.3579C6.51669 18.3594 6.53111 18.3606 6.54513 18.3622C6.58253 18.2601 6.62227 18.1584 6.65656 18.0551C6.9059 17.3017 7.24018 16.5762 7.38939 15.79C7.47471 15.3408 7.57445 14.8943 7.66484 14.4463C7.73419 14.1023 7.79224 13.7559 7.86977 13.4139C7.91262 13.2257 7.98275 13.1996 8.2356 13.2C8.39923 13.2 8.51767 13.26 8.55857 13.4248C8.59987 13.59 8.62909 13.7579 8.66532 13.9242C8.83246 14.6844 9.0109 15.4409 9.35764 16.1446C9.66737 16.773 9.97983 17.4002 10.2919 18.0275C10.3125 18.0692 10.3406 18.1074 10.3651 18.1475C10.3858 18.1451 10.406 18.1428 10.4267 18.1401C10.4267 17.7735 10.4345 17.4069 10.4247 17.0406C10.4096 16.4609 10.394 15.8808 10.357 15.3019C10.3141 14.6302 10.2514 13.9593 10.1894 13.2888C10.1583 12.9487 10.1189 12.6086 10.0679 12.2712C10.0001 11.8251 9.90658 11.3825 9.95918 10.9267C9.97905 10.7541 10.0359 10.7003 10.2046 10.6758C10.5299 10.6282 10.7442 10.8051 10.9246 11.0311C11.1634 11.3299 11.4069 11.619 11.7155 11.8508C12.1374 12.1675 12.5975 12.404 13.1106 12.5669C13.1106 12.5065 13.1176 12.4617 13.1095 12.4196C12.9766 11.7144 12.8243 11.0221 12.467 10.3801C12.0646 9.65698 11.5748 8.99973 11.0738 8.34793C10.8517 8.05924 10.8385 7.92911 11.2417 7.79704C11.2624 7.79042 11.2858 7.79198 11.3072 7.7873C11.8339 7.66964 12.3739 7.59289 12.8835 7.42342C13.5684 7.19589 14.2315 6.90252 14.8989 6.62474C15.0929 6.5437 15.2686 6.41825 15.4782 6.29865C15.4081 6.24995 15.38 6.21605 15.3473 6.2106C15.2008 6.18644 15.0539 6.15995 14.9063 6.15411C14.5112 6.13813 14.1146 6.11047 13.7207 6.12878C13.3534 6.14593 12.986 6.20203 12.6232 6.26826C12.1686 6.35124 11.7182 6.46306 11.3021 6.67539C11.1132 6.77201 10.9258 6.84603 10.7041 6.83006C10.401 6.80824 10.316 6.675 10.4575 6.40696C10.4731 6.37774 10.4879 6.34657 10.5101 6.3228C10.7719 6.03957 11.0325 5.75516 11.2994 5.47699C11.4217 5.34959 11.5612 5.23894 11.6863 5.11388C12.1394 4.66078 12.5925 4.20807 13.0389 3.74873C13.2154 3.56679 13.3779 3.37043 13.5392 3.17446C13.5875 3.11602 13.6101 3.03655 13.6459 2.96369C13.305 3.13823 12.9852 3.31277 12.6556 3.46744C12.2212 3.6712 11.8316 3.9373 11.479 4.25949C11.1326 4.57624 10.7972 4.90584 10.4407 5.2105C10.0157 5.574 9.50841 5.84204 9.1905 6.32865C9.1157 6.44358 8.85701 6.46423 8.74714 6.38163C8.7113 6.35475 8.68208 6.27605 8.69454 6.23436C8.75143 6.04658 8.81532 5.85996 8.89324 5.68036C9.05142 5.31647 9.23725 4.9635 9.38102 4.59416C9.62724 3.96184 9.85594 3.32251 10.08 2.68201C10.2592 2.17008 10.4205 1.65231 10.5895 1.13687C10.5132 1.1583 10.4575 1.1879 10.4189 1.23232C10.2662 1.40725 10.1057 1.57711 9.97243 1.76607C9.7562 2.07307 9.56569 2.39838 9.3518 2.70773C8.98791 3.23368 8.6026 3.74522 8.24884 4.2778C7.9995 4.65299 7.78561 5.05232 7.55809 5.44192C7.48991 5.5588 7.23823 5.61023 7.0559 5.544C6.90084 5.4879 6.92889 5.37452 6.95616 5.25686C6.9659 5.21401 6.9659 5.1692 6.97291 5.12596C7.05784 4.60429 7.1155 4.07599 7.23589 3.5625C7.36991 2.9894 7.56354 2.43033 7.726 1.86347C7.77159 1.70529 7.80977 1.54322 7.83275 1.38037C7.87093 1.10726 7.89509 0.832202 7.92275 0.557925C7.92898 0.496369 7.92353 0.434033 7.92353 0.333906C7.65743 0.544679 7.48173 0.778827 7.36524 1.04492C7.00875 1.85918 6.65617 2.67539 6.32891 3.50134C6.18281 3.87067 6.04021 4.25287 6.17151 4.67364C6.26423 4.97129 6.288 5.29037 6.51864 5.53543C6.57007 5.58997 6.58721 5.64412 6.57474 5.68971C6.55448 5.76412 6.44501 5.79529 6.42085 5.79957C6.11424 5.85451 5.3327 4.06664 4.89869 1.91139C4.83207 1.58101 4.78883 1.31686 4.76896 1.18985C4.72805 1.27517 4.71052 1.36128 4.71558 1.44582C4.74909 1.97372 4.76039 2.50513 4.8309 3.02836C4.92791 3.74912 5.07518 4.46325 5.19167 5.18167C5.21699 5.3379 5.21388 5.50114 5.2018 5.65971C5.19712 5.71854 5.14141 5.79412 5.08804 5.82451C4.85311 5.95736 4.56208 5.85217 4.45299 5.60789C4.43741 5.57283 4.4152 5.54088 4.39416 5.50893C4.15924 5.1544 3.92158 4.80181 3.68938 4.44533C3.34498 3.91704 3.00174 3.38757 2.54357 2.94694C2.3967 2.8059 2.23579 2.67967 2.08112 2.54682C2.0706 2.55656 2.05969 2.56669 2.04917 2.57643C2.08502 2.64929 2.12086 2.72214 2.15631 2.79538C2.28644 3.06382 2.44033 3.32329 2.54085 3.60263C2.68383 3.99885 2.89811 4.34676 3.14862 4.67948C3.41394 5.03207 3.68354 5.38231 3.9282 5.74893C4.11443 6.02788 4.25703 6.33566 4.43312 6.62162C4.53325 6.78448 4.66377 6.92863 4.7787 7.08252C4.89402 7.23641 4.86168 7.34978 4.67234 7.37433C4.51689 7.39459 4.34468 7.39848 4.1982 7.35212C3.78834 7.22238 3.38199 7.07784 2.98499 6.91226C2.39864 6.6676 1.79243 6.51449 1.16128 6.46773C0.975053 6.4541 0.785319 6.48838 0.565976 6.5028C0.726101 6.62981 0.851161 6.74863 0.994144 6.83902C1.46673 7.13784 1.87308 7.50679 2.2241 7.94041C2.58994 8.39235 3.04654 8.71454 3.61497 8.84779C4.07547 8.9557 4.54494 9.02427 5.00817 9.12206C5.10206 9.14193 5.18544 9.21362 5.27349 9.26154C5.21193 9.33751 5.16557 9.44465 5.0857 9.48439C4.79584 9.62932 4.50208 9.77308 4.19625 9.87866C3.45523 10.1342 2.6998 10.3497 2.01723 10.7502C1.67049 10.9536 1.3218 11.1538 0.973885 11.3548C0.932977 11.3782 0.89129 11.4 0.812202 11.4429C0.9883 11.4819 1.12544 11.5259 1.2653 11.5407C1.71412 11.5878 2.16333 11.6467 2.61331 11.6564C2.95811 11.6638 3.3068 11.6221 3.64886 11.5687C4.03495 11.5083 4.42066 11.43 4.79545 11.3221C5.01323 11.2594 5.2131 11.1293 5.41452 11.0178C5.59413 10.9185 5.7784 10.8897 5.97398 10.9434C6.09593 10.9769 6.16138 11.0642 6.09476 11.1807C5.95294 11.4289 5.8123 11.6817 5.63776 11.9069C5.43517 12.1687 5.1792 12.3888 4.97856 12.6518C4.50598 13.2701 4.03768 13.8931 3.59588 14.534C3.27407 15.0011 2.99473 15.4978 2.70292 15.9852C2.66435 16.0495 2.66435 16.1372 2.64136 16.2369C2.71071 16.2159 2.74655 16.2042 2.78279 16.194C3.33913 16.0343 3.71743 15.6225 4.12106 15.2469C4.42027 14.9688 4.71402 14.6851 5.01791 14.4124C5.34205 14.1218 5.62763 13.8035 5.80918 13.4022C5.92334 13.1509 6.03476 12.898 6.15359 12.6491C6.25216 12.4422 6.5763 12.3553 6.76409 12.4847C6.79954 12.5092 6.83499 12.5626 6.83616 12.6039C6.84279 12.8451 6.84629 13.0866 6.83694 13.3274C6.81824 13.8179 6.80344 14.3084 6.76565 14.7977C6.70565 15.5722 6.6176 16.7936 6.50267 18.3586V18.3579Z" fill="#1A1A1A"/>
<path d="M6.50349 18.3577C6.51556 18.2218 6.52959 18.0858 6.53933 17.9494C6.61608 16.8987 6.69517 15.8483 6.76608 14.7972C6.79919 14.3079 6.81867 13.8174 6.83737 13.3269C6.84672 13.0861 6.84283 12.8445 6.83659 12.6034C6.83542 12.5625 6.79997 12.5087 6.76452 12.4842C6.57673 12.3548 6.25259 12.4421 6.15402 12.6486C6.03519 12.8975 5.92377 13.1504 5.80961 13.4017C5.62767 13.803 5.34248 14.1209 5.01834 14.4119C4.71445 14.6846 4.4207 14.9682 4.12149 15.2464C3.71747 15.6216 3.33956 16.0338 2.78322 16.1935C2.74698 16.2041 2.71075 16.2153 2.64179 16.2364C2.66478 16.1367 2.66478 16.0494 2.70335 15.9847C2.99516 15.4973 3.27411 15.0006 3.59631 14.5335C4.03811 13.893 4.50641 13.27 4.97899 12.6513C5.17963 12.3887 5.43599 12.1682 5.63819 11.9064C5.81234 11.6812 5.95298 11.4284 6.09519 11.1802C6.16181 11.0637 6.09636 10.9764 5.97441 10.9429C5.77884 10.8892 5.59494 10.9176 5.41495 11.0173C5.21353 11.1288 5.01366 11.2589 4.79588 11.3216C4.42109 11.4295 4.03538 11.5078 3.64929 11.5682C3.30762 11.6216 2.95854 11.6633 2.61374 11.6559C2.16376 11.6461 1.71455 11.5869 1.26573 11.5402C1.12587 11.5254 0.98873 11.4813 0.812632 11.4424C0.89172 11.3995 0.933407 11.3777 0.974315 11.3543C1.32223 11.1529 1.67092 10.9531 2.01766 10.7497C2.70023 10.3492 3.45566 10.1337 4.19668 9.87815C4.50251 9.77257 4.79627 9.62881 5.08613 9.48388C5.166 9.44414 5.21236 9.337 5.27392 9.26103C5.18587 9.21311 5.10288 9.14142 5.0086 9.12155C4.54537 9.02376 4.0759 8.95519 3.6154 8.84728C3.04736 8.71403 2.59037 8.39223 2.22453 7.9399C1.8739 7.50628 1.46716 7.13733 0.994574 6.83851C0.851592 6.74812 0.726531 6.6293 0.566406 6.50229C0.786139 6.48787 0.975874 6.45359 1.16171 6.46722C1.79286 6.51398 2.39907 6.66709 2.98542 6.91175C3.38203 7.07733 3.78877 7.22226 4.19863 7.35161C4.34511 7.39797 4.51732 7.39408 4.67277 7.37382C4.86211 7.34888 4.89445 7.2359 4.77913 7.08201C4.6642 6.92812 4.53407 6.78397 4.43355 6.62111C4.25707 6.33515 4.11447 6.02737 3.92863 5.74842C3.68397 5.3818 3.41437 5.03156 3.14905 4.67897C2.89854 4.34625 2.68426 3.99834 2.54128 3.60212C2.44076 3.32317 2.28687 3.06331 2.15674 2.79488C2.12129 2.72163 2.08545 2.64878 2.0496 2.57592C2.06012 2.56618 2.07103 2.55605 2.08155 2.54631C2.23622 2.67917 2.39713 2.80539 2.544 2.94643C3.00217 3.38667 3.34541 3.91614 3.68981 4.44482C3.92201 4.8013 4.15967 5.15389 4.39459 5.50842C4.41563 5.54037 4.43784 5.57271 4.45342 5.60738C4.56251 5.85166 4.85354 5.95685 5.08847 5.824C5.14223 5.79361 5.19794 5.71803 5.20223 5.6592C5.21431 5.50063 5.21742 5.33739 5.1921 5.18116C5.07561 4.46274 4.92873 3.749 4.83133 3.02786C4.76082 2.50463 4.74913 1.97321 4.71601 1.44531C4.71056 1.36077 4.72848 1.27467 4.76939 1.18934C4.78965 1.31635 4.83289 1.5805 4.89912 1.91088C5.33313 4.06613 6.11467 5.854 6.42128 5.79906C6.44544 5.79478 6.55491 5.76361 6.57517 5.6892C6.58764 5.64361 6.5705 5.58907 6.51907 5.53453C6.28804 5.28947 6.26466 4.97039 6.17194 4.67274C6.04064 4.25197 6.18285 3.86978 6.32934 3.50044C6.6566 2.6741 7.00918 1.85789 7.36567 1.04402C7.48216 0.777928 7.65786 0.54378 7.92396 0.333008C7.92396 0.433134 7.92902 0.49586 7.92318 0.557027C7.89591 0.831303 7.87136 1.10636 7.83318 1.37947C7.8102 1.54232 7.77202 1.70439 7.72643 1.86257C7.56397 2.42904 7.37034 2.98851 7.23632 3.5616C7.11593 4.07509 7.05827 4.60339 6.97334 5.12506C6.96633 5.16869 6.96633 5.2135 6.95659 5.25596C6.92932 5.37362 6.90127 5.487 7.05633 5.5431C7.23905 5.60933 7.49034 5.5579 7.55852 5.44102C7.78604 5.05104 7.99993 4.65209 8.24927 4.27691C8.60342 3.74433 8.98834 3.23278 9.35223 2.70683C9.56611 2.39788 9.75624 2.07256 9.97285 1.76517C10.1061 1.57621 10.2666 1.40596 10.4193 1.23142C10.4583 1.18701 10.514 1.1574 10.59 1.13597C10.4209 1.65141 10.2596 2.16918 10.0804 2.68111C9.85636 3.32161 9.62767 3.96094 9.38144 4.59326C9.23768 4.9626 9.05185 5.31518 8.89367 5.67946C8.81575 5.85906 8.75185 6.04607 8.69497 6.23347C8.68251 6.27476 8.71173 6.35346 8.74757 6.38073C8.85705 6.46333 9.11574 6.44268 9.19093 6.32775C9.50884 5.84114 10.0161 5.5731 10.4412 5.2096C10.7976 4.90455 11.1331 4.57534 11.4794 4.25859C11.832 3.93601 12.222 3.6703 12.656 3.46654C12.9852 3.31187 13.3055 3.13694 13.6464 2.96279C13.6105 3.03565 13.5875 3.11474 13.5396 3.17356C13.3783 3.36953 13.2163 3.56589 13.0394 3.74783C12.5929 4.20717 12.1398 4.65988 11.6867 5.11298C11.5616 5.23804 11.4222 5.34869 11.2998 5.47609C11.0329 5.75426 10.7723 6.03906 10.5105 6.3219C10.4883 6.34567 10.4731 6.37684 10.4579 6.40606C10.3165 6.6741 10.4014 6.80734 10.7045 6.82916C10.9262 6.84513 11.1136 6.77111 11.3026 6.67449C11.7186 6.46216 12.1686 6.35034 12.6237 6.26736C12.986 6.20113 13.3538 6.14542 13.7212 6.12788C14.1151 6.10918 14.5117 6.13723 14.9067 6.15321C15.0544 6.15905 15.2016 6.18593 15.3477 6.2097C15.3805 6.21515 15.4085 6.24905 15.4786 6.29775C15.269 6.41736 15.0933 6.54281 14.8993 6.62384C14.2323 6.90201 13.5688 7.19499 12.8839 7.42252C12.3743 7.59199 11.8344 7.66874 11.3076 7.7864C11.2862 7.79108 11.2628 7.78952 11.2422 7.79614C10.8385 7.92822 10.8518 8.05795 11.0742 8.34703C11.5757 8.99883 12.065 9.65608 12.4674 10.3792C12.8247 11.0208 12.977 11.7135 13.1099 12.4187C13.1177 12.4608 13.1111 12.5056 13.1111 12.566C12.598 12.4027 12.1378 12.1666 11.7159 11.8499C11.4074 11.6181 11.1635 11.329 10.925 11.0302C10.7446 10.8046 10.5304 10.6277 10.2051 10.6749C10.036 10.6994 9.97948 10.7536 9.95961 10.9258C9.90701 11.382 10.0005 11.8242 10.0683 12.2703C10.1197 12.6081 10.1587 12.9478 10.1899 13.2879C10.2514 13.9584 10.3141 14.6289 10.3574 15.301C10.3944 15.8795 10.41 16.46 10.4252 17.0397C10.4349 17.406 10.4271 17.7726 10.4271 18.1392C10.4065 18.1415 10.3862 18.1439 10.3656 18.1466C10.341 18.1068 10.3134 18.0683 10.2923 18.0266C9.98026 17.3993 9.66819 16.7721 9.35807 16.1437C9.01133 15.44 8.8325 14.6835 8.66575 13.9233C8.62913 13.757 8.59991 13.5891 8.559 13.4239C8.5181 13.2595 8.39966 13.1995 8.23603 13.1991C7.98318 13.1987 7.91305 13.2248 7.8702 13.413C7.79267 13.755 7.735 14.1014 7.66527 14.4454C7.57488 14.8934 7.47475 15.3399 7.38982 15.7891C7.24061 16.5753 6.90633 17.3012 6.65699 18.0543C6.6227 18.1575 6.58296 18.2588 6.54556 18.3613C6.53154 18.3597 6.51712 18.3585 6.5031 18.357L6.50349 18.3577Z" fill="#002C8C"/>
</g>
<defs>
<clipPath id="clip0_32170_970">
<rect width="16" height="19.4744" fill="white"/>
</clipPath>
</defs>
</svg>
