<svg width="16" height="28" viewBox="0 0 16 28" fill="none" xmlns="http://www.w3.org/2000/svg">
<g clip-path="url(#clip0_32170_1003)">
<path d="M15.1268 9.22356C14.4498 8.37969 13.4937 8.5312 12.6655 8.9963C11.998 9.37155 11.3928 9.90888 10.7653 10.359C9.95233 10.9404 9.13134 11.5561 8.54059 12.4158C8.33434 12.7162 8.16167 13.051 8.05855 13.4112C7.24876 12.0468 6.09602 10.8822 4.95368 9.94324C4.14468 9.27818 3.09107 8.7382 2.06784 9.08791C1.26924 9.36098 0.753628 10.1168 0.577759 10.9968C0.413882 11.816 0.458649 12.6572 0.556176 13.4817C0.68328 14.5581 0.865544 15.6187 1.17811 16.6511C1.56102 17.9178 2.08223 19.1325 2.64421 20.3138C3.23976 21.5655 3.81533 22.8339 4.47644 24.046C4.9241 24.867 5.323 25.7796 5.88978 26.5089C6.47254 27.2594 7.35268 27.3519 8.10651 26.8551C8.62293 26.5151 9.05061 26.0236 9.41993 25.4651C10.5743 24.7366 11.5144 23.4849 12.1171 22.2085C12.8637 20.6274 13.2035 18.8092 13.6927 17.1188C13.8414 16.6053 14.0029 16.0944 14.158 15.5808C14.7271 14.3362 15.3499 13.0677 15.5593 11.6856C15.6888 10.8329 15.676 9.90624 15.1276 9.22356H15.1268Z" fill="#36CFC9"/>
<path d="M15.2347 8.29235C14.5049 7.62553 13.4936 7.65636 12.6303 7.94881C11.6598 8.27737 10.7693 8.91336 9.94747 9.5564C9.72683 9.72905 9.5102 9.90699 9.29755 10.0902C9.30875 9.97658 9.31994 9.86207 9.33033 9.74843C9.3767 9.26659 9.43345 8.77419 9.14487 8.3637C9.01936 8.184 8.86988 8.08623 8.71 8.03602C8.73398 7.04856 8.73078 6.0611 8.68841 5.07452C8.63565 3.82808 8.50135 2.57108 8.02171 1.42682C7.81067 0.922963 7.48851 0.246452 6.98169 0.0579451C6.4397 -0.143775 5.94887 0.200647 5.68826 0.724766C5.41007 1.285 5.34612 2.00468 5.30775 2.63098C5.26458 3.32246 5.31974 4.01307 5.41966 4.69574C5.62031 6.06903 6.06078 7.38064 6.53723 8.66584C6.47727 8.72486 6.42211 8.78916 6.37894 8.86668C6.21747 9.15384 6.24305 9.48417 6.3062 9.79864C5.52598 9.1882 4.65624 8.75393 3.6434 8.69403C1.75841 8.58216 0.320288 10.077 0.0524885 12.0854C-0.0969994 13.2076 0.0908597 14.3325 0.388237 15.4072C0.684015 16.4774 1.04534 17.5292 1.42666 18.5651C2.18449 20.6246 3.06783 22.6277 4.10945 24.5321C4.61467 25.4562 5.13028 26.4727 5.78899 27.2761C6.54602 28.2001 7.52289 27.8231 8.37824 27.3042C9.91389 26.3732 11.1793 24.9831 12.1842 23.4143C13.2714 21.716 14.0228 19.7816 14.5784 17.8031C15.1715 15.6917 15.6288 13.4754 15.931 11.29C16.0781 10.225 16.0501 9.03669 15.2347 8.29147V8.29235ZM6.47087 2.70585C6.48926 2.35702 6.53483 2.0126 6.61237 1.67347C6.61477 1.66202 6.65234 1.5616 6.68671 1.4647C6.79463 1.68492 6.94172 1.89016 7.03285 2.12271C7.14397 2.40547 7.22391 2.70497 7.29026 3.00447C7.42536 3.61755 7.48132 4.24121 7.51249 4.87016C7.56446 5.91223 7.57085 6.95783 7.54447 8.00254C7.16715 6.96311 6.82501 5.90694 6.62116 4.80938C6.49246 4.11789 6.4333 3.41319 6.47008 2.70673L6.47087 2.70585ZM14.8366 10.6064C14.787 11.497 14.5592 12.3981 14.3961 13.2702C14.2123 14.2532 14.014 15.2336 13.7798 16.2044C13.3425 18.0181 12.7797 19.8036 11.938 21.4411C11.2041 22.8673 10.2768 24.1674 9.12249 25.2104C8.56211 25.7169 7.89621 26.2278 7.21352 26.5088C6.8378 26.663 6.68352 26.4868 6.46768 26.1609C6.19908 25.7548 5.94727 25.332 5.69865 24.91C4.75456 23.3033 3.92478 21.6164 3.20053 19.8767C2.46828 18.1185 1.76001 16.266 1.34192 14.3827C1.12848 13.4199 1.05014 12.3743 1.41307 11.4397C1.72563 10.6355 2.35236 10.0893 3.14617 9.99067C4.60587 9.80921 5.79059 10.8328 6.78424 11.933L6.90975 12.4932C6.98249 12.8165 7.32543 13.0411 7.61802 12.9442C7.75871 13.0332 7.92578 13.0605 8.08566 12.9856C8.2983 13.0077 8.51494 12.968 8.706 12.8412C9.00817 12.6395 9.09611 12.2853 9.13448 11.918C10.0826 10.964 11.1354 10.1202 12.2761 9.48681C12.8013 9.19524 13.4656 8.93186 14.062 9.06311C14.7431 9.21374 14.8742 9.94751 14.8374 10.609L14.8366 10.6064Z" fill="#1A1A1A"/>
</g>
<defs>
<clipPath id="clip0_32170_1003">
<rect width="16" height="27.84" fill="white"/>
</clipPath>
</defs>
</svg>
