<svg width="41" height="25" viewBox="0 0 41 25" fill="none" xmlns="http://www.w3.org/2000/svg">
<path d="M23.9144 16.4259C24.5087 16.3924 25.0819 16.1938 25.5697 15.8525C26.5066 15.2685 27.2231 14.3898 27.6065 13.3545C27.9197 12.4625 28.2627 11.4875 28.0019 10.5411C27.9503 10.2795 27.4483 8.99253 27.0903 9.28085C26.9322 9.49718 27.298 9.61631 27.3565 9.80497C27.5088 10.0675 27.6252 10.3492 27.7026 10.6426C27.8942 11.3934 27.6835 12.1899 27.4264 12.9022C27.2527 13.5018 26.9619 14.0609 26.5705 14.5472C26.1792 15.0336 25.6953 15.4374 25.1468 15.7353C24.7755 15.9647 24.3505 16.0926 23.9142 16.1061C23.6282 16.0358 23.6268 16.4361 23.9144 16.4259Z" fill="#002726"/>
<path d="M19.1168 13.0716C19.2341 13.3149 19.2885 13.5838 19.4477 13.8069C19.5632 14.03 19.766 14.1848 19.9112 14.3851C19.9235 14.4017 19.9389 14.4158 19.9566 14.4265C19.9743 14.4371 19.994 14.4442 20.0144 14.4473C20.0349 14.4504 20.0557 14.4494 20.0758 14.4445C20.0958 14.4395 20.1147 14.4306 20.1314 14.4183C20.148 14.406 20.1621 14.3906 20.1728 14.3729C20.1834 14.3552 20.1905 14.3356 20.1936 14.3151C20.1967 14.2947 20.1957 14.2738 20.1907 14.2537C20.1858 14.2337 20.1769 14.2148 20.1646 14.1981C20.0685 14.0734 19.9648 13.9547 19.8542 13.8428C19.6082 13.5419 19.4929 13.1641 19.3597 12.8066C19.1508 11.8382 19.4679 10.8362 19.8795 9.96349C20.163 9.45553 20.5476 9.01109 21.0096 8.65763C21.4716 8.30417 22.0012 8.04918 22.5656 7.90844C22.9419 7.80386 23.3293 7.74488 23.7197 7.73276C23.8963 7.71452 24.2245 7.91292 24.3016 7.683C24.3634 7.40766 23.8226 7.43794 23.642 7.41724C23.1915 7.44313 22.7456 7.52127 22.3131 7.65009C20.8829 8.07671 19.6508 9.20544 19.2584 10.6645C19.005 11.4298 18.839 12.2927 19.1168 13.0716Z" fill="#002726"/>
<path d="M39.9131 6.49547C39.4944 6.37134 39.0538 6.33892 38.6215 6.40044C37.8627 6.42177 37.1235 6.61939 36.3844 6.77545C35.4669 6.94457 34.5636 7.18358 33.6826 7.49039C33.2005 7.64321 32.7012 7.73082 32.2201 7.88595C31.9463 7.96537 31.6753 8.05067 31.4011 8.12452C32.0554 7.92474 32.7036 7.70563 33.348 7.47556C34.2648 7.16004 36.3345 6.44773 36.7613 5.57641C36.8045 5.20434 36.4567 4.87754 36.129 4.76073C35.6587 4.61718 35.1495 4.60111 34.6611 4.55769C32.8516 4.61471 31.0289 4.67729 29.2484 5.02511C28.8245 5.07455 28.4051 5.15289 27.9823 5.21052C27.8844 5.24992 27.6719 5.24359 27.5213 5.28315C27.2432 5.13863 26.9571 5.01001 26.6645 4.89794C25.6005 4.5064 24.413 4.66029 23.3033 4.72225C22.557 4.77182 21.8247 4.94899 21.1382 5.24606C21.8506 4.62396 22.4908 3.92373 23.0467 3.15856C23.3239 2.78185 23.6252 2.40035 23.7429 1.9399C23.9116 1.42923 24.2697 0.601644 23.8582 0.139643C23.3174 -0.3375 22.5012 0.539374 22.0006 0.809466C21.1807 1.34023 20.3423 1.87052 19.5622 2.46278C18.7447 3.09969 17.7629 3.47779 16.8435 3.94164C15.6369 4.58195 14.4022 5.18008 13.2323 5.88452C12.2144 6.60471 11.4338 7.60458 10.78 8.65436C10.2579 9.50172 9.77412 10.3857 9.00309 11.0382C8.56628 11.4313 8.08682 11.7743 7.57367 12.0606C7.12557 12.2734 6.64812 12.4174 6.20466 12.6379C5.56729 12.9184 4.90024 13.1685 4.24232 13.4105C3.66799 13.6687 3.11575 13.9773 2.53802 14.2262C1.93278 14.4647 1.29633 14.6035 0.693568 14.8464C0.530554 14.9071 0.104865 14.9712 0.118153 15.1718C0.0847804 15.3263 0.0620654 15.4829 0.0501675 15.6405C-0.00619152 16.1834 -0.0150848 16.7302 0.0235902 17.2746C0.0203069 17.6385 0.0390373 18.0023 0.079679 18.3639C0.220423 19.3082 0.472172 20.2325 0.829696 21.1177C0.948673 21.4363 1.04602 21.7634 1.18833 22.0729C1.27903 22.2718 1.40789 22.4496 1.49411 22.651C1.74473 23.1732 1.97991 23.7313 2.45211 24.0963C2.4725 24.1255 2.50273 24.1464 2.53726 24.1551C2.57179 24.1639 2.60832 24.1599 2.64015 24.1439C2.68066 24.1372 2.7187 24.12 2.75047 24.094C2.89649 24.0459 3.04853 24.0141 3.19857 23.9781C3.66211 23.8718 4.12242 23.7534 4.58071 23.6266C5.41416 23.481 6.25612 23.3848 7.07041 23.144C7.66854 23.0668 8.25492 22.9214 8.85336 22.8455C9.11322 22.8476 9.37292 22.8316 9.63057 22.7978C10.3707 22.6808 11.1221 22.697 11.8642 22.5995C12.1472 22.5901 12.4302 22.591 12.7141 22.5919C13.0967 22.5932 13.4792 22.5946 13.8618 22.57C14.1165 22.5669 14.3717 22.572 14.6273 22.5773C15.3359 22.5927 16.045 22.6063 16.7441 22.4431C17.8242 22.3161 18.8394 21.8971 19.9077 21.705C20.5159 21.5351 21.1239 21.3621 21.7191 21.1506C22.1597 20.9692 22.613 20.8202 23.0752 20.7047C24.3124 20.3793 25.5233 19.9613 26.6977 19.454C28.059 18.9495 29.3958 18.3851 30.746 17.8509C32.4967 17.2174 33.9313 16.0236 35.4003 14.9209C36.5674 13.9722 37.7905 12.9329 38.4311 11.5439C38.5617 11.0649 38.3003 10.5087 37.7596 10.5139C37.4475 10.5054 37.1609 10.6853 36.8881 10.8202C36.4286 11.0917 35.9838 11.3888 35.5451 11.6926C35.2917 11.8694 35.0342 12.0404 34.7725 12.2056C34.8318 12.1529 34.8904 12.0993 34.9468 12.043C35.6678 11.3264 36.3855 10.606 37.0468 9.83253L37.1343 9.73287C37.1752 9.73198 37.2149 9.71902 37.2485 9.69563C37.3307 9.65731 37.4449 9.61838 37.5278 9.57048C37.9169 9.39663 38.2923 9.19386 38.651 8.96385C39.1918 8.57942 40.4743 7.93014 40.4981 7.21072C40.5271 6.85719 40.2226 6.59575 39.9131 6.49547ZM28.1223 5.50657C28.6902 5.42113 29.2605 5.35005 29.8245 5.24065C30.4961 5.12685 31.1737 5.05102 31.8539 5.01351C32.6651 4.95325 33.4754 4.89238 34.2893 4.88589C34.6793 4.86931 35.0699 4.89032 35.4558 4.94862C35.7874 4.99575 36.1939 5.01692 36.3829 5.3397C36.4108 5.4015 36.493 5.47876 36.4315 5.54165C36.334 5.65215 36.2286 5.75543 36.1162 5.85068C35.4043 6.37448 34.5627 6.69016 33.7461 7.01217C32.9137 7.27886 32.1 7.60566 31.2556 7.8311C31.0255 7.91315 30.7902 7.97526 30.5553 8.0414C30.4711 8.07693 30.3307 8.08775 30.2244 8.12592C30.1929 8.07085 30.1577 8.01798 30.119 7.96769C29.3096 6.82629 28.853 6.11583 27.9504 5.53191C28.0067 5.51778 28.0643 5.50919 28.1223 5.50627V5.50657ZM22.0834 5.25935C23.1431 4.94367 24.2766 4.96206 25.3737 4.97458C26.0667 4.97829 26.6098 5.18426 27.2243 5.49329C28.0045 5.84731 28.6646 6.42096 29.1241 7.14412C29.4309 7.53041 29.7148 7.93787 29.9912 8.34579C30.1805 8.80779 30.2607 9.30379 30.3929 9.78371C30.7329 11.0339 30.8719 12.414 30.3554 13.6416C30.1452 14.3117 29.8779 14.9624 29.5562 15.5867C29.2149 16.0746 28.9093 16.5997 28.4649 17.0022C28.1369 17.3531 27.7371 17.6292 27.2927 17.8117C26.8528 18.1033 26.3439 18.2171 25.8426 18.3553C24.9657 18.5997 24.0657 18.8258 23.15 18.7291C21.9737 18.687 20.7507 18.6329 19.6918 18.0697C19.1481 17.9419 18.6441 17.6826 18.2239 17.3146C17.3605 16.592 17.0051 16.1034 16.6159 15.0487C15.9488 13.6101 15.7463 11.9996 16.0365 10.4407C16.1755 9.79684 16.5739 9.23827 16.9578 8.71014C17.3214 8.17598 17.785 7.72587 18.2187 7.25028L18.2202 7.24657C18.2411 7.20557 18.2692 7.16863 18.303 7.13748C18.3331 7.10469 18.3657 7.07436 18.4005 7.04678L18.4331 7.00892C18.4367 7.01078 18.4401 7.01263 18.4435 7.01418C18.5362 6.94619 18.6351 6.88639 18.7295 6.82072C18.8296 6.75119 18.9345 6.68908 19.0362 6.62217C19.0761 6.59575 19.1156 6.56871 19.1571 6.54492C19.2107 6.51561 19.2659 6.48905 19.3222 6.46534C19.3942 6.43289 19.4658 6.40014 19.5386 6.37031C19.713 6.26524 19.8868 6.15878 20.0582 6.0483C20.078 6.046 20.097 6.03941 20.114 6.02899C20.1226 6.02327 20.1311 6.01709 20.1398 6.01122C20.7954 5.77342 21.3998 5.41587 22.0834 5.25966V5.25935ZM35.0502 12.398C35.6877 12.0678 37.3619 10.5665 37.9926 10.8828C38.3651 11.314 37.9626 11.8017 37.7026 12.1745C37.4574 12.5428 37.1724 12.883 36.8527 13.1889C36.0944 14.0244 35.1685 14.6891 34.2724 15.3687C33.5061 15.9929 32.6852 16.5468 31.8196 17.0238C30.6822 17.5864 29.4731 17.9834 28.3121 18.4917C26.4438 19.204 24.6076 20.0282 22.6533 20.4822C21.451 20.8972 20.2544 21.3475 18.9985 21.5811C18.1992 21.7801 17.4225 22.0675 16.596 22.1437C15.9023 22.2719 15.1949 22.3096 14.4915 22.2559C14.1516 22.2415 13.8112 22.2444 13.4717 22.2645C13.1925 22.2763 12.9132 22.2882 12.6342 22.2809C12.1685 22.2583 11.7018 22.2802 11.2403 22.3463C10.6016 22.3698 9.96451 22.4255 9.33143 22.5133C8.79996 22.5194 8.27102 22.5876 7.75538 22.7165C7.22337 22.7863 6.69715 22.8948 6.18087 23.041C5.37229 23.1915 4.55212 23.2645 3.76518 23.517C3.6224 23.5873 2.9243 23.6561 2.61126 23.8171C2.57908 23.7939 2.54927 23.7676 2.52225 23.7386C2.37235 23.581 2.23913 23.4083 2.12469 23.2233C1.98099 22.9558 1.86618 22.6737 1.72511 22.4044C1.56074 22.1323 1.42414 21.8443 1.31735 21.5449C0.957017 20.5588 0.582008 19.5682 0.416213 18.5265C0.360013 18.1024 0.333629 17.675 0.337256 17.2473C0.297282 16.6959 0.308766 16.1421 0.371558 15.5929C0.37743 15.4847 0.402462 15.3782 0.417913 15.271C0.45822 15.2461 0.502478 15.2282 0.548788 15.2182C1.04416 15.0541 1.53228 14.8753 2.03584 14.7348C2.79204 14.5048 3.48473 14.12 4.19256 13.775C4.57066 13.6107 4.97488 13.4893 5.35545 13.3176C5.82193 13.1642 6.26199 12.9459 6.7107 12.7509C7.14127 12.6082 7.55679 12.4237 7.9513 12.1999C8.72195 11.7427 9.40976 11.1585 9.98565 10.4721C10.3984 9.94008 10.7109 9.33608 11.0771 8.77241C11.8381 7.57213 12.7733 6.39705 14.0771 5.75936C14.8708 5.31266 15.6937 4.92127 16.4875 4.47518C17.4059 3.99804 18.3656 3.59584 19.2581 3.06987C20.2479 2.34257 21.2591 1.6457 22.2997 0.991793C22.5904 0.840059 23.3603 0.113065 23.6487 0.377595C23.89 0.912991 23.5173 1.52642 23.3766 2.05687C22.8223 3.09861 21.9998 4.01921 21.1378 4.82624C20.8051 5.12431 20.4571 5.40488 20.0953 5.66681C20.0475 5.7076 19.9814 5.73402 19.9352 5.77713C19.5477 5.978 19.1832 6.22522 18.8038 6.44711L18.7793 6.45205C18.7405 6.4811 18.702 6.50984 18.6615 6.5375C18.5736 6.59822 18.4801 6.64937 18.392 6.70978C18.3289 6.75444 18.2706 6.80558 18.2089 6.85256C18.1655 6.88562 18.1216 6.91807 18.0778 6.95036C17.9378 6.99239 17.8472 7.14783 17.7088 7.20624C17.0999 7.64429 16.5179 8.11858 15.966 8.62654C15.8487 8.75108 15.5011 8.8064 15.6301 9.03508C15.8353 9.30765 16.487 8.55037 16.6777 8.41254C16.7724 8.33127 16.8685 8.25169 16.9651 8.17273C16.8462 8.32157 16.7349 8.47628 16.6315 8.63628C16.2304 9.12317 15.9307 9.68528 15.7498 10.2896C15.4089 11.9926 15.6353 13.7604 16.3943 15.3226C16.6995 16.2652 17.2673 16.9361 18.0229 17.5567C18.36 17.8479 18.7437 18.0803 19.1578 18.2442C19.4299 18.3057 19.6924 18.4034 19.9386 18.5345C21.0842 19.026 22.369 19.0046 23.5944 19.0634C23.6473 19.0661 23.7 19.0671 23.7525 19.0671C24.4438 19.0671 25.124 18.8601 25.7921 18.6997C26.3989 18.5345 27.0098 18.3865 27.5427 18.037C28.0172 17.8309 28.4404 17.5227 28.7823 17.1345C29.2446 16.6721 29.5936 16.1042 29.9428 15.5538C30.0919 15.2302 30.2248 14.8989 30.3569 14.5678C32.0139 14.0648 33.5933 13.335 35.0502 12.399V12.398ZM36.761 9.67725C36.0502 10.4912 35.2968 11.2688 34.5125 12.0121C34.1183 12.3366 33.7059 12.6396 33.2995 12.949C33.1714 13.0466 32.6583 13.2173 32.514 13.4168C31.8511 13.7024 31.181 13.9666 30.5013 14.2027C30.8367 13.3255 31.0765 12.3976 31.0124 11.4568C31.0742 11.4338 31.1343 11.395 31.1932 11.3712C31.3757 11.2833 31.5679 11.2167 31.7465 11.1196C32.0724 10.9174 32.4191 10.7505 32.7443 10.5479C33.1343 10.2687 33.5478 10.0246 33.961 9.78124C34.4836 9.479 34.9499 9.09364 35.4791 8.80223C35.9641 8.51483 36.4141 8.17505 36.8676 7.8413C37.0827 7.68699 37.3218 7.56902 37.5751 7.49209C37.801 7.4238 37.9379 7.40603 38.0555 7.6412C37.9005 8.45333 37.288 9.07572 36.761 9.67833V9.67725ZM38.9902 8.36681C38.5463 8.67238 38.0817 8.94649 37.5995 9.18713C37.9425 8.8007 38.1923 8.34084 38.3299 7.84284C38.4605 7.55668 38.2324 7.2529 37.9713 7.14181C37.1987 7.0817 36.583 7.67736 35.9935 8.09347C35.6321 8.33976 35.2612 8.56999 34.8848 8.79296C34.4969 9.04899 34.1254 9.3282 33.7207 9.55935C33.3102 9.79406 32.9091 10.0458 32.5226 10.318C32.0227 10.6159 31.5068 10.8864 30.9775 11.1283C30.9758 11.1173 30.9744 11.1064 30.9727 11.0952C30.8818 10.4781 30.7528 9.86715 30.5864 9.26593C30.5342 9.07155 30.4924 8.86805 30.4376 8.66965C30.441 8.66764 30.4444 8.66595 30.4478 8.66363C30.7741 8.64941 31.0756 8.52163 31.3903 8.44731C31.7544 8.37747 32.0997 8.23438 32.459 8.14291C33.1178 7.96738 33.7785 7.80375 34.4233 7.578C34.995 7.37142 35.5936 7.28149 36.1817 7.13748C36.8174 7.01093 37.4433 6.8439 38.0872 6.76247C40.0277 6.49223 41.1844 6.99656 38.9902 8.36788V8.36681Z" fill="#002726"/>
</svg>
