<svg width="102" height="90" viewBox="0 0 102 90" fill="none" xmlns="http://www.w3.org/2000/svg">
<path d="M89.9218 36.337C92.0143 46.5595 92.0068 56.6095 87.4468 66.277C82.4968 76.7695 74.2543 83.3095 63.0568 85.957C56.1868 87.577 49.4443 89.842 42.1468 89.2945C20.2468 87.652 -0.340724 69.8695 0.00427564 45.997C0.124276 37.6195 2.61427 29.8645 6.70177 22.597C7.90927 21.667 9.19178 22.9795 10.4143 22.477C22.0468 23.677 32.8618 21.097 43.0018 15.427C43.8118 14.977 45.2743 14.5496 44.7118 13.3946C44.0668 12.067 42.8443 12.8845 41.8993 13.432C32.1268 19.0795 21.5743 21.1645 10.3843 20.3995C10.1218 20.2795 9.86677 20.167 9.60427 20.047C10.8718 15.9145 13.9243 13.042 17.1043 10.5821C26.3218 3.47205 36.6793 -0.900457 48.5593 0.157043C60.3868 1.20704 72.2593 2.58705 80.4418 12.8995C85.4668 19.237 88.8343 26.317 89.7643 34.4395C88.8343 34.0345 87.9493 33.4045 86.8468 33.8095C75.3793 31.447 65.4643 26.5195 58.4743 16.6945C55.9093 13.087 54.0943 9.19454 53.2093 4.85204C52.9843 3.74954 53.1643 1.77704 51.4918 2.17454C50.0518 2.51954 50.7643 4.34205 51.0418 5.43705C51.6193 7.71705 52.1818 10.072 53.2243 12.157C60.4618 26.6545 72.6568 33.9445 88.3693 35.9845C88.8868 36.1045 89.3968 36.217 89.9143 36.337H89.9218ZM55.3393 42.667C57.2818 40.2295 59.7493 39.7645 62.6293 40.6495C63.3268 40.867 64.2193 41.0245 64.5493 40.117C64.9093 39.1495 63.9793 38.8795 63.3568 38.5645C60.5368 37.1245 55.3843 38.512 53.5618 41.017C52.5043 42.4645 53.0893 42.9595 54.4768 43.2595C54.1168 46.417 52.6618 44.572 51.4693 43.9195C49.9018 43.057 48.6718 42.112 50.1943 40.1545C52.4968 37.1995 56.1493 37.3345 59.2168 36.127C59.9818 35.827 61.6918 36.082 61.5418 35.557C60.5518 32.002 64.0393 32.6545 66.0268 31.132C62.8843 30.9145 60.2293 30.8695 58.7518 28.567C57.1018 25.987 52.9618 24.697 54.4093 20.422C54.7018 19.5595 54.0943 19.042 53.2393 18.8695C52.4668 18.712 51.5968 18.442 52.1218 17.467C52.7743 16.2595 53.4718 15.097 51.6268 14.5345C50.1268 14.0695 48.6043 14.1895 47.9143 16.0345C47.6818 16.657 47.3293 17.1145 46.6393 17.257C42.8893 18.007 39.3343 19.2745 35.9293 21.0595C31.0768 23.602 25.6618 23.6245 20.3668 24.112C16.9318 24.427 13.5043 24.877 9.76927 25.297C11.1043 27.007 14.0518 26.6695 13.5043 28.5595C13.0393 30.187 10.6393 29.092 9.11677 29.3245C8.50177 29.4145 7.87178 29.3395 7.24928 29.3545C6.33428 29.377 5.51678 29.5495 5.23178 30.622C3.76178 36.1645 1.32427 41.632 2.95177 47.5195C3.94927 51.1345 1.66927 55.0345 4.05427 58.417C5.44927 60.4045 6.19177 62.5945 6.67927 64.942C7.15927 67.2445 10.5493 69.187 12.8443 68.6245C13.7068 68.4146 14.6218 68.0695 15.2518 68.9245C15.8968 69.802 15.7618 70.8595 15.2968 71.7745C14.4268 73.492 12.2143 75.982 16.7968 73.9795C17.3443 73.7395 17.8543 74.2495 17.7793 74.767C17.0893 79.537 21.9043 80.0095 24.1318 81.8245C28.9243 85.732 35.4643 86.062 41.5243 87.097C47.9593 88.192 53.8543 85.537 59.9893 84.6145C61.5268 84.382 62.5093 83.362 63.1018 81.7345C63.6943 80.1145 64.9468 78.952 66.8968 80.2495C69.0193 81.667 70.6318 80.557 72.7018 79.7095C76.0018 78.352 77.4268 75.262 79.9993 73.372C81.5218 72.247 81.8443 71.227 81.1768 69.5995C80.8018 68.6845 80.5018 67.717 80.2993 66.742C80.1268 65.932 80.4793 65.1745 81.3193 65.002C82.1293 64.837 82.2793 65.5495 82.3618 66.1945C82.4668 67.027 82.3318 68.137 83.6068 68.0845C84.6568 68.0396 85.0468 67.0345 85.1668 66.217C85.5868 63.2845 86.7793 60.397 85.8493 57.3745C85.4818 56.182 85.2493 54.997 86.9518 54.907C89.1493 54.787 89.1643 53.3695 89.1418 51.7795C89.1118 49.657 89.1043 47.5345 89.1418 45.412C89.1868 42.8545 88.1143 41.5045 85.4293 41.302C82.9318 41.1145 80.3443 40.777 80.0443 37.3645C79.9468 36.247 78.9493 35.9245 78.0793 36.157C75.0793 36.9745 73.0093 36.007 70.9093 33.697C69.8518 32.5345 67.2643 32.2045 66.0193 34.1995C64.6093 36.457 66.0868 36.9445 68.1043 36.8545C69.8968 36.7795 71.6143 37.3795 71.6143 39.3445C71.6143 41.212 69.6493 40.1695 68.6518 40.6195C65.6368 41.9995 62.4568 42.142 59.2393 42.2395C57.9493 42.277 56.8993 44.602 55.3543 42.6745L55.3393 42.667ZM79.4068 24.397C79.4068 26.782 79.3618 28.012 79.4218 29.242C79.4593 30.0895 79.9468 30.907 80.8018 30.262C82.1518 29.2495 83.6293 28.132 84.4318 26.707C85.7593 24.3445 84.1393 21.997 81.4843 22.312C79.1143 22.5896 79.2343 21.397 79.7368 19.897C80.0668 18.907 81.5593 17.8045 80.3293 16.9645C77.5393 15.067 77.7493 9.77204 72.8218 10.3645C72.6043 10.387 72.2593 9.92954 72.0793 9.63704C68.4193 3.67454 61.8643 4.68704 56.3818 3.16454C55.6993 2.97704 54.8218 3.32955 54.9193 4.35705C54.9943 5.12955 55.6843 5.33204 56.3143 5.28704C60.9793 4.98704 59.6218 7.58204 58.3393 9.77954C57.6193 11.017 57.7168 11.992 58.5418 12.802C59.7193 13.9495 60.1918 12.6446 60.7693 11.8946C61.1443 11.4145 61.4968 10.7395 62.2318 11.047C63.1168 11.422 62.9668 12.322 62.7868 12.9895C62.5993 13.672 62.0143 14.242 61.7443 14.917C61.2718 16.102 60.9568 17.5195 62.0218 18.3895C63.1543 19.327 63.8818 18.367 64.6618 17.3695C65.6818 16.0645 67.2343 16.2595 68.2543 17.347C69.4018 18.5695 68.7118 19.672 67.3093 20.227C66.1468 20.692 65.6068 21.3745 66.3943 22.4695C67.0843 23.437 68.0668 23.437 69.0118 22.7395C69.5143 22.372 69.9343 21.8845 70.4668 21.5695C71.4868 20.9695 72.7093 20.6995 73.6018 21.5395C74.6143 22.4845 73.6393 23.3245 73.0168 24.082C71.2243 26.2645 72.5368 26.7895 74.5468 27.0895C76.3393 27.3595 77.4793 26.197 79.4218 24.4045L79.4068 24.397Z" fill="url(#paint0_linear_32198_18707)"/>
<path d="M89.923 36.3371C89.4055 36.2171 88.8955 36.1046 88.378 35.9846C87.8155 35.2946 86.803 34.9271 86.8555 33.8021C87.9655 33.3896 88.843 34.0271 89.773 34.4321C93.133 34.9346 96.403 34.2221 99.6955 33.7121C100.446 33.5921 101.66 33.2171 101.84 34.4771C102.028 35.7596 100.768 35.6096 99.9955 35.7896C96.673 36.5771 93.2755 36.0371 89.923 36.3371Z" fill="#1A1A1A"/>
<path d="M10.4159 22.4771C9.1934 22.9871 7.91089 21.6671 6.70339 22.5971C5.30839 21.3371 1.67088 22.0271 2.12838 20.1596C2.76588 17.5646 5.29339 20.8196 7.07839 20.0621C7.79839 19.7546 8.75839 20.0321 9.61339 20.0396C9.87589 20.1596 10.1309 20.2721 10.3934 20.3921C10.4009 21.0896 10.4084 21.7796 10.4234 22.4771H10.4159Z" fill="#1A1A1A"/>
<path d="M55.3324 42.6671C56.8774 44.5946 57.9274 42.2771 59.2174 42.2321C62.4424 42.1271 65.6224 41.9921 68.6299 40.6121C69.6274 40.1546 71.5924 41.2046 71.5924 39.3371C71.5924 37.3721 69.8674 36.7721 68.0824 36.8471C66.0649 36.9371 64.5949 36.4421 65.9974 34.1921C67.2424 32.1971 69.8299 32.5271 70.8874 33.6896C72.9874 35.9996 75.0574 36.9671 78.0574 36.1496C78.9274 35.9096 79.9324 36.2396 80.0224 37.3571C80.3149 40.7696 82.9099 41.0996 85.4074 41.2946C88.0924 41.4971 89.1649 42.8471 89.1199 45.4046C89.0824 47.5271 89.0899 49.6496 89.1199 51.7721C89.1424 53.3621 89.1199 54.7721 86.9299 54.8996C85.2349 54.9896 85.4599 56.1746 85.8274 57.3671C86.7574 60.3896 85.5649 63.2846 85.1449 66.2096C85.0249 67.0271 84.6424 68.0321 83.5849 68.0771C82.3099 68.1296 82.4449 67.0271 82.3399 66.1871C82.2574 65.5421 82.1074 64.8296 81.2974 64.9946C80.4574 65.1671 80.1049 65.9246 80.2774 66.7346C80.4799 67.7021 80.7799 68.6696 81.1549 69.5921C81.8224 71.2121 81.5074 72.2396 79.9774 73.3646C77.4049 75.2621 75.9799 78.3446 72.6799 79.7021C70.6099 80.5571 68.9974 81.6596 66.8749 80.2421C64.9249 78.9371 63.6724 80.1071 63.0799 81.7271C62.4874 83.3546 61.5049 84.3746 59.9674 84.6071C53.8324 85.5371 47.9374 88.1846 41.5024 87.0896C35.4424 86.0621 28.9024 85.7321 24.1099 81.8171C21.8824 80.0021 17.0674 79.5296 17.7574 74.7596C17.8324 74.2421 17.3224 73.7321 16.7749 73.9721C12.1924 75.9746 14.4049 73.4846 15.2749 71.7671C15.7399 70.8521 15.8749 69.7946 15.2299 68.9171C14.5999 68.0621 13.6924 68.4071 12.8224 68.6171C10.5349 69.1796 7.13736 67.2371 6.65736 64.9346C6.16986 62.5796 5.43486 60.3971 4.03236 58.4096C1.65486 55.0196 3.93486 51.1271 2.92986 47.5121C1.30236 41.6246 3.73987 36.1571 5.20987 30.6146C5.49487 29.5421 6.30487 29.3696 7.22737 29.3471C7.84987 29.3321 8.48736 29.4071 9.09486 29.3171C10.6174 29.0846 13.0099 30.1796 13.4824 28.5521C14.0224 26.6621 11.0824 26.9921 9.74736 25.2896C13.4824 24.8696 16.9099 24.4196 20.3449 24.1046C25.6399 23.6171 31.0474 23.5946 35.9074 21.0521C39.3199 19.2671 42.8674 18.0071 46.6174 17.2496C47.3074 17.1146 47.6599 16.6496 47.8924 16.0271C48.5824 14.1821 50.0974 14.0621 51.6049 14.5271C53.4499 15.0971 52.7524 16.2521 52.0999 17.4596C51.5749 18.4346 52.4524 18.7046 53.2174 18.8621C54.0724 19.0346 54.6799 19.5521 54.3874 20.4146C52.9324 24.6896 57.0799 25.9796 58.7299 28.5596C60.2074 30.8696 62.8624 30.9071 66.0049 31.1246C64.0174 32.6546 60.5299 31.9946 61.5199 35.5496C61.6699 36.0746 59.9599 35.8271 59.1949 36.1196C56.1274 37.3196 52.4749 37.1846 50.1724 40.1471C48.6499 42.1046 49.8799 43.0496 51.4474 43.9121C52.6399 44.5646 54.0949 46.4096 54.4549 43.2521C54.7399 43.0571 55.0249 42.8546 55.3099 42.6596L55.3324 42.6671ZM26.1199 32.2346C24.9574 32.1896 23.7499 32.0171 23.1499 33.3971C21.7549 34.1396 21.1249 35.0096 22.0624 36.6671C22.9399 38.2121 24.1624 38.7071 25.7524 38.5571C27.2749 38.4071 28.3399 37.4921 28.5199 35.9921C28.7449 34.1846 28.5574 32.4296 26.1124 32.2421L26.1199 32.2346ZM30.0274 51.3221C30.2224 51.7346 30.4099 52.1471 30.6049 52.5671C30.7999 52.6196 30.8824 52.7396 30.8374 52.9421C29.4799 59.6996 31.8949 61.8296 38.4424 59.6171C39.4849 59.2646 40.3099 59.4071 41.2249 60.0221C42.1099 60.6221 42.9424 60.0446 43.4824 59.3471C44.3449 58.2296 43.2874 57.8321 42.5674 57.4271C41.7649 56.9696 41.1499 56.3996 40.9999 55.4621C40.4899 52.2671 39.3649 50.5346 36.3649 53.7596C35.5774 52.0121 36.0649 50.8796 37.3849 50.3771C42.6499 48.3446 42.3049 43.6871 42.5674 39.3896C42.7174 36.9146 40.9024 35.3321 39.1999 33.8471C38.2024 32.9771 37.0474 33.2471 36.9124 34.4396C36.5524 37.5371 35.5024 40.7696 37.6999 43.6721C37.4074 44.1671 37.1149 44.6696 36.8299 45.1646C35.8474 44.2571 33.2599 44.8796 34.1899 42.1046C34.6774 40.6421 34.2274 38.5946 32.4649 38.6846C30.6349 38.7821 31.4299 40.9046 31.4374 42.1271C31.4449 44.5946 32.7424 47.2646 29.9899 49.1471C30.0049 49.8746 30.0199 50.6021 30.0349 51.3221H30.0274ZM65.4049 64.4846C66.1774 59.4671 62.0149 58.4096 59.6299 56.2271C57.9199 54.6596 56.4649 56.6996 55.0849 57.5696C47.5024 62.3471 39.4549 65.0771 30.4024 63.0296C28.1074 62.5121 26.8549 63.0071 26.0224 65.3246C25.5049 66.7646 23.2249 67.5371 24.9649 69.6821C26.4574 71.5196 28.0549 70.8596 29.9599 70.8071C33.6424 70.7096 37.3249 69.5021 41.0299 70.5446C42.9499 71.0846 44.8624 72.9446 46.6624 70.0421C47.0674 69.3896 48.9499 69.5546 49.2874 71.0696C49.6699 72.7571 50.7199 72.4646 52.0399 72.6521C55.7299 73.1846 59.3449 71.5871 63.0499 72.6296C65.0374 73.1846 65.7199 71.4671 65.7724 69.9221C65.8399 67.9646 65.5174 65.9996 65.3974 64.4846H65.4049ZM33.3649 27.0446C32.7124 25.3121 31.1374 24.9596 29.5099 24.8546C26.0074 24.6221 22.8949 27.0821 19.3024 26.3996C18.7699 26.3021 18.2449 26.7221 18.3124 27.2396C18.3649 27.6371 18.8149 28.1471 19.1974 28.2821C19.7449 28.4771 20.4199 28.4696 21.0124 28.3796C24.4624 27.8696 27.8674 25.8521 31.3999 28.3346C32.1349 28.8521 33.0499 28.1921 33.3574 27.0446H33.3649ZM35.9824 74.4221C37.0624 73.6271 39.7174 75.3446 39.7474 73.2671C39.7699 71.3996 37.1149 72.0221 35.6674 72.1421C34.1299 72.2696 31.3249 71.0171 31.3099 73.1021C31.2874 75.1046 34.1674 73.9571 35.9899 74.4221H35.9824ZM59.6299 76.5821C59.3899 75.4196 58.6249 74.6546 57.4549 74.4821C56.4424 74.3321 55.2124 74.7296 55.0924 75.7196C54.8674 77.4746 56.6824 77.2046 57.6874 77.6546C58.6399 78.0821 59.3224 77.6546 59.6299 76.5821ZM56.1274 32.3321C55.2799 32.3921 54.2074 32.2421 54.1249 33.4346C54.0649 34.3946 54.9574 34.5521 55.7224 34.5296C56.7049 34.5071 57.9124 34.5146 57.8974 33.1571C57.8824 32.1146 56.8024 32.4596 56.1274 32.3321ZM32.5924 81.4121C32.4199 80.3846 31.7824 80.3471 31.1599 80.3846C30.6274 80.4146 30.1624 80.7296 30.2599 81.2996C30.3799 81.9896 30.9424 82.3871 31.6174 82.2146C32.0149 82.1096 32.3224 81.6446 32.5999 81.4121H32.5924ZM41.3899 84.1046C41.3524 83.4071 40.8124 83.3546 40.3324 83.3996C39.9949 83.4296 39.4624 83.5946 39.3874 83.8196C39.1774 84.4421 39.7024 84.6596 40.2199 84.7121C40.7224 84.7646 41.2024 84.6971 41.3899 84.1046ZM64.8124 55.3871C64.6249 55.3046 64.3924 55.1171 64.2574 55.1696C64.1224 55.2221 64.0849 55.5146 64.0023 55.7096C64.1898 55.7921 64.4224 55.9796 64.5574 55.9271C64.6924 55.8746 64.7374 55.5821 64.8199 55.3871H64.8124Z" fill="url(#paint1_linear_32198_18707)"/>
<path d="M79.4007 24.3971C77.4582 26.1971 76.3182 27.3521 74.5257 27.0821C72.5157 26.7821 71.2032 26.2571 72.9957 24.0746C73.6182 23.3171 74.5932 22.4771 73.5807 21.5321C72.6806 20.6996 71.4657 20.9621 70.4457 21.5621C69.9132 21.8771 69.4932 22.3571 68.9907 22.7321C68.0457 23.4371 67.0631 23.4371 66.3731 22.4621C65.5856 21.3671 66.1256 20.6771 67.2881 20.2196C68.6906 19.6646 69.3731 18.5621 68.2331 17.3396C67.2132 16.2521 65.6606 16.0571 64.6406 17.3621C63.8606 18.3596 63.1332 19.3196 62.0006 18.3821C60.9356 17.5046 61.2582 16.0946 61.7232 14.9096C61.9932 14.2346 62.5781 13.6721 62.7656 12.9821C62.9456 12.3146 63.1031 11.4146 62.2106 11.0396C61.4757 10.7321 61.1231 11.3996 60.7481 11.8871C60.1706 12.6371 59.6981 13.9421 58.5206 12.7946C57.6956 11.9921 57.5981 11.0096 58.3181 9.7721C59.6006 7.5746 60.9581 4.9796 56.2931 5.2796C55.6706 5.3171 54.9731 5.12209 54.8981 4.34959C54.8006 3.31459 55.6707 2.96209 56.3607 3.15709C61.8432 4.68709 68.3982 3.6746 72.0582 9.6296C72.2382 9.9296 72.5831 10.3871 72.8006 10.3571C77.7356 9.7721 77.5182 15.0671 80.3082 16.9571C81.5382 17.7896 80.0456 18.8996 79.7156 19.8896C79.2132 21.3896 79.0857 22.5821 81.4632 22.3046C84.1182 21.9896 85.7382 24.3371 84.4107 26.6996C83.6157 28.1246 82.1382 29.2421 80.7807 30.2546C79.9257 30.8921 79.4382 30.0746 79.4007 29.2346C79.3407 28.0046 79.3856 26.7746 79.3856 24.3896L79.4007 24.3971Z" fill="url(#paint2_linear_32198_18707)"/>
<path d="M86.8468 33.8095C86.7943 34.927 87.8143 35.3021 88.3693 35.9921C72.6568 33.9446 60.4618 26.6546 53.2243 12.1646C52.1818 10.0796 51.6193 7.72458 51.0418 5.44458C50.7643 4.35708 50.0518 2.52707 51.4918 2.18207C53.1643 1.78457 52.9843 3.75708 53.2093 4.85958C54.0943 9.20208 55.9093 13.0946 58.4743 16.7021C65.4643 26.5271 75.3718 31.4471 86.8468 33.8171L86.8468 33.8095Z" fill="#1A1A1A"/>
<path d="M10.4159 22.4771C10.4084 21.7796 10.4007 21.0896 10.3857 20.3921C21.5757 21.1571 32.1283 19.0721 41.9008 13.4246C42.8458 12.8771 44.0683 12.0596 44.7133 13.3871C45.2758 14.5496 43.8132 14.9696 43.0032 15.4196C32.8632 21.0896 22.0407 23.6696 10.4157 22.4696L10.4159 22.4771Z" fill="#1A1A1A"/>
<path d="M55.3332 42.6671C55.0482 42.8621 54.7632 43.0646 54.4782 43.2596C53.0832 42.9596 52.5057 42.4721 53.5632 41.0171C55.3857 38.5121 60.5382 37.1321 63.3582 38.5646C63.9807 38.8796 64.9032 39.1496 64.5507 40.1171C64.2207 41.0171 63.3282 40.8596 62.6307 40.6496C59.7507 39.7571 57.2832 40.2221 55.3407 42.6671H55.3332Z" fill="#1A1A1A"/>
<path d="M65.4135 64.4921C65.5335 66.0071 65.856 67.9796 65.7885 69.9296C65.736 71.4746 65.0535 73.1921 63.066 72.6371C59.3685 71.6021 55.746 73.1921 52.056 72.6596C50.736 72.4721 49.6785 72.7646 49.3035 71.0771C48.966 69.5696 47.0835 69.4046 46.6785 70.0496C44.886 72.9521 42.966 71.0921 41.046 70.5521C37.341 69.5096 33.6585 70.7171 29.976 70.8146C28.071 70.8671 26.4735 71.5271 24.981 69.6896C23.241 67.5446 25.521 66.7721 26.0385 65.3321C26.871 63.0146 28.1235 62.5121 30.4185 63.0371C39.471 65.0846 47.5185 62.3546 55.101 57.5771C56.481 56.7071 57.936 54.6671 59.646 56.2346C62.031 58.4171 66.1935 59.4821 65.421 64.4921H65.4135ZM34.221 66.4946C33.0735 66.3971 32.5785 66.3146 32.0835 66.3146C30.8385 66.3146 28.8735 65.2721 28.716 67.2221C28.596 68.7296 30.606 68.3321 31.761 68.4221C36.891 68.8346 41.976 68.5196 46.866 66.8246C48.636 66.2096 49.671 66.3971 50.826 68.0096C52.956 70.9946 56.076 71.5646 59.481 70.5971C61.7385 69.9596 63.156 68.3321 63.3135 66.0371C63.5085 63.2096 61.9635 61.0721 59.7885 59.4146C57.8835 57.9671 56.4885 59.5271 55.1235 60.4346C48.576 64.7696 41.361 66.5996 34.2285 66.4796L34.221 66.4946Z" fill="url(#paint3_linear_32198_18707)"/>
<path d="M37.7076 43.6796C35.5101 40.7771 36.5601 37.5446 36.9201 34.4471C37.0626 33.2546 38.2176 32.9846 39.2076 33.8546C40.9101 35.3396 42.7251 36.9221 42.5751 39.3971C42.3126 43.6946 42.6576 48.3521 37.3926 50.3846C36.0726 50.8946 35.5851 52.0196 36.3726 53.7671C39.3726 50.5421 40.4977 52.2746 41.0076 55.4696C41.1576 56.4071 41.7651 56.9771 42.5751 57.4346C43.3026 57.8471 44.3601 58.2371 43.4901 59.3546C42.9501 60.0521 42.1101 60.6296 41.2326 60.0296C40.3176 59.4071 39.4926 59.2721 38.4501 59.6246C31.8951 61.8371 29.4801 59.7071 30.8451 52.9496C32.2401 54.6671 33.4401 56.5796 35.6526 57.4421C36.3051 57.6971 36.8751 57.7196 37.3026 57.1496C37.6326 56.7146 37.5876 56.1746 37.1526 55.8296C36.5751 55.3646 35.8851 55.0496 35.3226 54.5846C32.4726 52.2296 32.5251 51.4646 35.6151 49.5821C39.4326 47.2571 41.3076 43.1996 40.4826 39.1796C40.3026 38.2871 40.1601 37.2746 39.0726 37.3421C37.7901 37.4171 38.0826 38.5121 38.2101 39.3521C38.4351 40.8446 38.4801 42.3146 37.7076 43.6871V43.6796Z" fill="url(#paint4_linear_32198_18707)"/>
<path d="M37.7087 43.6796C38.4812 42.2996 38.4287 40.8371 38.2112 39.3446C38.0837 38.5046 37.7837 37.4096 39.0737 37.3346C40.1612 37.2746 40.3037 38.2796 40.4837 39.1721C41.3012 43.1921 39.4262 47.2496 35.6162 49.5746C32.5262 51.4571 32.4737 52.2296 35.3237 54.5771C35.8937 55.0421 36.5837 55.3646 37.1537 55.8221C37.5812 56.1671 37.6262 56.7071 37.3037 57.1421C36.8762 57.7121 36.3062 57.6896 35.6537 57.4346C33.4487 56.5721 32.2412 54.6596 30.8462 52.9421C30.8912 52.7396 30.8087 52.6196 30.6137 52.5671C30.4187 52.1546 30.2312 51.7421 30.0362 51.3221C30.0212 50.5946 30.0062 49.8671 29.9912 49.1471C32.5937 48.3746 35.4737 48.0746 36.8387 45.1721C37.1312 44.6771 37.4237 44.1746 37.7087 43.6796Z" fill="#1A1A1A"/>
<path d="M33.3731 27.0521C33.0656 28.1996 32.1432 28.8596 31.4157 28.3421C27.8832 25.8596 24.4782 27.8771 21.0282 28.3871C20.4357 28.4771 19.7682 28.4771 19.2132 28.2896C18.8232 28.1546 18.3806 27.6371 18.3281 27.2471C18.2606 26.7296 18.7857 26.3096 19.3182 26.4071C22.9107 27.0896 26.0232 24.6296 29.5257 24.8621C31.1532 24.9671 32.7282 25.3196 33.3807 27.0521H33.3731Z" fill="url(#paint5_linear_32198_18707)"/>
<path d="M36.8299 45.1721C35.4649 48.0821 32.5849 48.3746 29.9824 49.1471C32.7424 47.2646 31.4449 44.6021 31.4299 42.1271C31.4299 40.9121 30.6274 38.7821 32.4574 38.6846C34.2199 38.5871 34.6774 40.6421 34.1824 42.1046C33.2524 44.8796 35.8399 44.2571 36.8224 45.1646L36.8299 45.1721Z" fill="url(#paint6_linear_32198_18707)"/>
<path d="M26.1268 32.2346C28.5718 32.4296 28.7593 34.1771 28.5343 35.9846C28.3468 37.4921 27.2818 38.3996 25.7668 38.5496C24.1768 38.7071 22.9543 38.2046 22.0768 36.6596C21.1318 35.0021 21.7618 34.1321 23.1643 33.3896C23.1268 35.0471 23.1793 36.9971 25.4293 36.6521C27.8743 36.2771 26.8018 34.3571 26.4118 32.9021C26.3518 32.6696 26.2243 32.4521 26.1343 32.2271L26.1268 32.2346Z" fill="#1A1A1A"/>
<path d="M35.9897 74.4296C34.1672 73.9646 31.2872 75.1046 31.3097 73.1096C31.3322 71.0246 34.1372 72.2771 35.6672 72.1496C37.1222 72.0296 39.7772 71.4146 39.7472 73.2746C39.7172 75.3521 37.0622 73.6346 35.9822 74.4296H35.9897Z" fill="url(#paint7_linear_32198_18707)"/>
<path d="M26.1268 32.2346C26.2243 32.4596 26.3444 32.6771 26.4044 32.9096C26.7944 34.3646 27.8669 36.2846 25.4219 36.6596C23.1719 37.0046 23.1193 35.0546 23.1568 33.3971C23.7568 32.0171 24.9643 32.1896 26.1268 32.2346Z" fill="#1A1A1A"/>
<path d="M59.6377 76.5895C59.3302 77.6695 58.6477 78.0895 57.6952 77.662C56.6902 77.2045 54.8752 77.4745 55.1002 75.727C55.2277 74.737 56.4502 74.3395 57.4627 74.4895C58.6327 74.662 59.3902 75.4345 59.6377 76.5895Z" fill="url(#paint8_linear_32198_18707)"/>
<path d="M56.1343 32.3396C56.8093 32.4671 57.8893 32.1296 57.9043 33.1721C57.9193 34.5221 56.7118 34.5146 55.7293 34.5446C54.9643 34.5596 54.0718 34.4096 54.1318 33.4496C54.2068 32.2646 55.2868 32.4071 56.1343 32.3471V32.3396Z" fill="url(#paint9_linear_32198_18707)"/>
<path d="M32.5991 81.427C32.3291 81.667 32.0216 82.1245 31.6166 82.2296C30.9416 82.4021 30.3791 82.0046 30.2591 81.3146C30.1616 80.7371 30.6266 80.4296 31.1591 80.3996C31.7816 80.3621 32.4191 80.3996 32.5916 81.427H32.5991Z" fill="url(#paint10_linear_32198_18707)"/>
<path d="M41.3902 84.1121C41.1952 84.6971 40.7152 84.7646 40.2202 84.7196C39.7027 84.6671 39.1852 84.4496 39.3877 83.8271C39.4627 83.6021 39.9952 83.4371 40.3327 83.4071C40.8127 83.3621 41.3527 83.4146 41.3902 84.1121Z" fill="url(#paint11_linear_32198_18707)"/>
<path d="M64.8136 55.4021C64.7311 55.5896 64.6861 55.8821 64.5511 55.9421C64.4161 55.9946 64.1836 55.8071 63.9961 55.7246C64.0786 55.5371 64.1161 55.2371 64.2511 55.1846C64.3861 55.1321 64.6186 55.3196 64.8061 55.4021H64.8136Z" fill="url(#paint12_linear_32198_18707)"/>
<path d="M30.0352 51.3296C30.2302 51.7421 30.4176 52.1546 30.6126 52.5746C30.4176 52.1621 30.2302 51.7496 30.0352 51.3296Z" fill="url(#paint13_linear_32198_18707)"/>
<path d="M34.211 66.4946C41.3435 66.6071 48.5585 64.7846 55.106 60.4496C56.471 59.5421 57.8585 57.9821 59.771 59.4296C61.9535 61.0871 63.491 63.2246 63.296 66.0521C63.1385 68.3471 61.721 69.9746 59.4635 70.6121C56.0585 71.5796 52.9385 71.0096 50.8085 68.0246C49.6535 66.4046 48.626 66.2246 46.8485 66.8396C41.9585 68.5346 36.8735 68.8496 31.7435 68.4371C30.5885 68.3471 28.5785 68.7371 28.6985 67.2371C28.856 65.2871 30.8285 66.3371 32.066 66.3296C32.561 66.3296 33.056 66.4046 34.2035 66.5096L34.211 66.4946ZM56.906 68.8496C58.901 68.5271 61.0535 67.9646 61.031 65.5121C61.016 63.7271 59.831 61.2071 57.9485 61.6871C55.781 62.2421 52.5335 63.3071 52.1585 65.5646C51.8285 67.5221 54.6335 68.5721 56.9135 68.8496H56.906Z" fill="#1A1A1A"/>
<path d="M56.9154 68.8496C54.6354 68.5721 51.8304 67.5296 52.1604 65.5646C52.5429 63.3071 55.7829 62.2421 57.9504 61.6871C59.8329 61.1996 61.0179 63.7271 61.0329 65.5121C61.0554 67.9646 58.9029 68.5271 56.9079 68.8496H56.9154Z" fill="url(#paint14_linear_32198_18707)"/>
<defs>
<linearGradient id="paint0_linear_32198_18707" x1="30.3725" y1="35.3696" x2="147.035" y2="44.0858" gradientUnits="userSpaceOnUse">
<stop stop-color="#EFDBFF"/>
<stop offset="1" stop-color="#ADC6FF"/>
</linearGradient>
<linearGradient id="paint1_linear_32198_18707" x1="30.3725" y1="35.3696" x2="147.035" y2="44.0858" gradientUnits="userSpaceOnUse">
<stop stop-color="#EFDBFF"/>
<stop offset="1" stop-color="#ADC6FF"/>
</linearGradient>
<linearGradient id="paint2_linear_32198_18707" x1="30.3725" y1="35.3696" x2="147.035" y2="44.0858" gradientUnits="userSpaceOnUse">
<stop stop-color="#EFDBFF"/>
<stop offset="1" stop-color="#ADC6FF"/>
</linearGradient>
<linearGradient id="paint3_linear_32198_18707" x1="30.3725" y1="35.3696" x2="147.035" y2="44.0858" gradientUnits="userSpaceOnUse">
<stop stop-color="#EFDBFF"/>
<stop offset="1" stop-color="#ADC6FF"/>
</linearGradient>
<linearGradient id="paint4_linear_32198_18707" x1="30.3725" y1="35.3696" x2="147.035" y2="44.0858" gradientUnits="userSpaceOnUse">
<stop stop-color="#EFDBFF"/>
<stop offset="1" stop-color="#ADC6FF"/>
</linearGradient>
<linearGradient id="paint5_linear_32198_18707" x1="30.3725" y1="35.3696" x2="147.035" y2="44.0858" gradientUnits="userSpaceOnUse">
<stop stop-color="#EFDBFF"/>
<stop offset="1" stop-color="#ADC6FF"/>
</linearGradient>
<linearGradient id="paint6_linear_32198_18707" x1="30.3725" y1="35.3696" x2="147.035" y2="44.0858" gradientUnits="userSpaceOnUse">
<stop stop-color="#EFDBFF"/>
<stop offset="1" stop-color="#ADC6FF"/>
</linearGradient>
<linearGradient id="paint7_linear_32198_18707" x1="30.3725" y1="35.3696" x2="147.035" y2="44.0858" gradientUnits="userSpaceOnUse">
<stop stop-color="#EFDBFF"/>
<stop offset="1" stop-color="#ADC6FF"/>
</linearGradient>
<linearGradient id="paint8_linear_32198_18707" x1="30.3725" y1="35.3696" x2="147.035" y2="44.0858" gradientUnits="userSpaceOnUse">
<stop stop-color="#EFDBFF"/>
<stop offset="1" stop-color="#ADC6FF"/>
</linearGradient>
<linearGradient id="paint9_linear_32198_18707" x1="30.3725" y1="35.3696" x2="147.035" y2="44.0858" gradientUnits="userSpaceOnUse">
<stop stop-color="#EFDBFF"/>
<stop offset="1" stop-color="#ADC6FF"/>
</linearGradient>
<linearGradient id="paint10_linear_32198_18707" x1="30.3725" y1="35.3696" x2="147.035" y2="44.0858" gradientUnits="userSpaceOnUse">
<stop stop-color="#EFDBFF"/>
<stop offset="1" stop-color="#ADC6FF"/>
</linearGradient>
<linearGradient id="paint11_linear_32198_18707" x1="30.3725" y1="35.3696" x2="147.035" y2="44.0858" gradientUnits="userSpaceOnUse">
<stop stop-color="#EFDBFF"/>
<stop offset="1" stop-color="#ADC6FF"/>
</linearGradient>
<linearGradient id="paint12_linear_32198_18707" x1="30.3725" y1="35.3696" x2="147.035" y2="44.0858" gradientUnits="userSpaceOnUse">
<stop stop-color="#EFDBFF"/>
<stop offset="1" stop-color="#ADC6FF"/>
</linearGradient>
<linearGradient id="paint13_linear_32198_18707" x1="30.3725" y1="35.3696" x2="147.035" y2="44.0858" gradientUnits="userSpaceOnUse">
<stop stop-color="#EFDBFF"/>
<stop offset="1" stop-color="#ADC6FF"/>
</linearGradient>
<linearGradient id="paint14_linear_32198_18707" x1="30.3725" y1="35.3696" x2="147.035" y2="44.0858" gradientUnits="userSpaceOnUse">
<stop stop-color="#EFDBFF"/>
<stop offset="1" stop-color="#ADC6FF"/>
</linearGradient>
</defs>
</svg>
