<svg width="90" height="122" viewBox="0 0 90 122" fill="none" xmlns="http://www.w3.org/2000/svg">
<path d="M47.6855 121.706L43.5207 119.159L43.5129 118.96C43.5106 118.903 43.2753 113.186 43.0615 103.91C40.5706 104.879 35.2574 106.745 30.2819 107.207C23.6023 107.823 11.7536 106.204 11.6346 106.188L11.6959 105.45C11.7907 105.452 21.2833 105.691 25.1116 105.114C27.0083 104.829 28.6573 104.257 30.4022 103.655C32.1991 103.033 34.0547 102.389 36.3528 102.001C39.1476 101.529 41.6034 101.338 43.0016 101.26C42.9858 100.592 42.9724 99.9056 42.9605 99.2049L42.9439 98.352C39.3689 98.0945 29.0812 97.237 24.6302 95.6362C19.2741 93.7111 2.66494 86.9153 2.49705 86.8456L0.0250807 85.8338L2.67916 86.1338C2.79902 86.1467 14.7744 87.507 21.1461 88.6772C26.1904 89.6052 37.6673 93.2766 42.8846 94.9848C42.8669 93.9159 42.8495 92.8183 42.8345 91.696C38.1319 90.7129 27.4072 88.3583 22.6002 86.37C16.5002 83.8467 7.65707 77.1922 7.56831 77.1247L7.98862 76.5134C8.08626 76.575 17.7709 82.6123 22.88 82.9868C23.8932 83.06 24.855 83.1114 25.7818 83.1594C29.6704 83.3644 33.028 83.5402 36.9869 85.2779C39.6522 86.4475 41.6255 87.4342 42.7867 88.0431C42.7702 86.6276 42.7556 85.1773 42.745 83.6948C38.6493 83.4621 29.5118 82.7876 25.2191 81.2439C19.8723 79.3228 3.12999 73.5931 2.96118 73.5336L3.15129 72.8188C3.24655 72.8379 12.815 74.6614 19.8581 74.9377C25.6941 75.1679 38.264 79.1062 42.7228 80.5596L42.7147 78.7301C39.249 78.2127 29.1944 76.595 24.613 74.6482C19.1117 72.307 0.959774 63.2385 0.776096 63.1461L1.04293 62.4582C1.14417 62.4861 11.1859 65.313 18.4758 66.3054C24.5552 67.1363 37.9407 73.1223 42.7027 75.3181C42.6989 74.1492 42.6994 72.9652 42.7002 71.7683C39.9376 71.0566 33.7842 69.4096 30.1564 67.9595L28.9816 67.4892C24.4786 65.6835 18.875 63.4363 14.2019 62.4204C9.14539 61.3229 0.523363 60.0033 0.436595 59.9912L0.504764 59.2524C1.38098 59.2829 22.0612 60.0244 29.0468 62.5149C34.2103 64.3536 39.9685 67.7424 42.703 69.44C42.7075 67.8343 42.715 66.2066 42.7255 64.5569C39.5712 63.9385 30.3508 61.9356 24.6303 58.6771C17.6731 54.7138 3.03941 42.6239 2.89322 42.5028L3.32859 41.903C3.41661 41.9593 12.2368 47.5473 18.9767 50.6258C24.8024 53.2873 38.812 60.1292 42.745 62.0536C42.7558 60.8562 42.7661 59.6488 42.7801 58.4308C38.9026 57.3605 27.2888 53.9843 21.9876 50.6201C15.6658 46.6029 2.98461 37.9287 2.85632 37.8415L-0.000167671 35.8865L3.20611 37.1907C3.34762 37.2496 17.4604 42.9954 25.4723 46.394C31.6778 49.0275 39.3181 53.4274 42.8293 55.5124C42.8534 54.3325 42.8886 53.1805 42.934 52.0595C40.584 50.771 31.0798 45.4852 26.0601 41.5849C20.3436 37.146 9.80599 26.5671 9.69967 26.46L7.56227 24.3121L10.155 25.8821C10.2729 25.9527 22.0602 33.0995 29.1227 38.1479C34.6488 42.0991 40.6524 47.2177 43.0696 49.3165C43.165 47.6091 43.2842 45.9443 43.4273 44.3523C40.9537 43.1891 35.2192 40.2625 30.3183 36.0617C24.0241 30.665 17.1619 23.4081 17.0936 23.3353L15.499 21.6465L17.5398 22.7549C17.6323 22.8045 26.7757 27.7898 32.7189 32.509C36.6978 35.6658 41.1146 39.4449 43.6938 41.6803C43.8154 40.5534 43.9525 39.4249 44.102 38.317C41.7316 36.7418 36.29 32.9863 32.6377 29.3879C28.0312 24.8462 22.0323 17.4619 21.9726 17.3889L22.5097 16.8799C22.5581 16.9236 27.3956 21.3097 33.2033 24.9954C37.5673 27.7695 42.2466 32.9401 44.5025 35.5894C44.6953 34.3931 44.9005 33.2316 45.1178 32.1265C43.1801 30.778 37.7412 26.8717 36.0396 24.4117C34.0299 21.4993 27.6638 12.5717 27.5995 12.4823L25.5048 9.54467L38.8488 21.8833C41.1674 24.0282 43.9069 27.5472 45.592 29.8228C45.7774 28.9858 45.9712 28.1701 46.1697 27.3864C43.3069 25.3983 37.1005 20.9354 36.2316 19.0138C35.2092 16.7521 29.1239 8.58411 29.064 8.50249L29.6355 8.03133C29.6915 8.09223 35.2344 14.2034 39.1528 17.8986C41.7858 20.3786 44.9325 23.3977 46.7648 25.1614C46.9544 24.4967 47.1451 23.8677 47.3329 23.2679C46.4937 22.3427 42.3339 17.7717 40.2483 15.6555C37.8974 13.2663 33.9459 7.55745 33.7795 7.31573L31.6857 4.28486L34.3412 6.83789C34.3798 6.87492 38.2015 10.5513 40.7573 13.1963C42.7083 15.2151 46.383 19.4792 47.9798 21.3451C48.1086 20.9841 48.2361 20.6391 48.3618 20.3074C46.9198 18.946 42.9776 15.1408 41.4376 12.8304C39.5968 10.0605 36.7769 4.01714 36.6578 3.76068L35.5493 1.378L37.2742 3.35971C37.3127 3.40391 41.1237 7.78953 43.99 11.711C45.895 14.3141 47.8737 16.936 49.0798 18.5242C49.1848 18.2794 49.2876 18.045 49.3897 17.8223C48.5149 16.808 46.7185 14.5264 45.6971 11.8193C44.3338 8.21257 42.5085 3.24937 42.5085 3.24937L42.0474 1.99448L43.089 2.83236C43.2363 2.95173 46.7214 5.78609 48.6165 10.192C49.599 12.477 50.0798 14.5112 50.3137 15.9254C50.7362 15.1305 51.0759 14.5847 51.287 14.2653C50.7724 13.473 49.836 11.7303 49.5557 9.20117C49.1867 5.88439 49.3255 2.14444 49.3272 2.10832L49.3562 1.34406L49.9372 1.83884C50.062 1.94532 52.9759 4.45627 52.741 6.97909C52.7095 7.32439 52.6821 7.64598 52.6615 7.94339C53.0067 7.11882 53.4784 6.16854 54.1064 5.21276C55.8245 2.60042 59.5611 0.566681 59.7194 0.480679L60.6112 3.97522e-06L60.2412 0.942368C60.1375 1.20979 57.6611 7.49557 56.0981 9.36686C55.4825 10.1027 54.8485 10.9221 54.26 11.71C54.6216 11.4593 55.0156 11.1981 55.4439 10.9289C57.8897 9.39321 60.8007 8.63065 60.9235 8.59866L61.8949 8.34761L61.3202 9.17011C61.2495 9.27234 59.5415 11.6895 56.9477 12.9298C55.5553 13.5933 54.8857 13.8584 54.2361 14.1153C53.7357 14.3138 53.2618 14.5015 52.4797 14.8668C52.365 15.2566 52.1647 15.7901 51.9378 16.3945C51.7357 16.9341 51.5048 17.5479 51.3 18.1553C52.4632 16.9729 54.1312 15.4725 56.086 14.2895C59.7706 12.0581 66.0494 8.70081 66.1131 8.66718L68.7404 7.26441L66.5371 9.26922C66.276 9.50653 60.0995 15.1119 56.7728 16.6753C54.3276 17.8243 51.8282 19.4318 50.75 20.1513C50.6394 20.6376 50.5242 21.152 50.4063 21.6899C51.7533 20.4653 53.6715 18.8355 55.3754 17.8235C56.9495 16.8893 57.8034 16.4945 58.7915 16.0384C59.7229 15.6075 60.7781 15.12 62.6848 14.045C66.4839 11.9034 70.869 8.33026 70.9124 8.2948L72.2983 7.1616L71.4775 8.75108C71.352 8.99404 68.3729 14.7085 65.4782 15.9247C64.2244 16.4514 63.0678 17.2632 61.8416 18.1226C60.3933 19.1388 58.7521 20.292 56.6556 21.167C54.0896 22.2374 51.2985 23.7946 49.7753 24.6805C49.6432 25.3241 49.5095 25.9895 49.3759 26.6778C51.5145 25.2351 54.9331 23.0501 57.9952 21.6231C62.7135 19.4222 73.5225 15.5205 73.631 15.4813L76.657 14.3904L73.9602 16.1415C73.5729 16.3928 64.4502 22.3065 60.9167 23.9264C58.0655 25.2359 51.3803 28.4359 48.8167 29.6691C48.6433 30.6369 48.4723 31.6401 48.3039 32.6715C50.9401 30.5498 55.1528 27.2886 58.362 25.417C63.1303 22.6369 73.7445 17.4209 73.8517 17.3675L76.2081 16.2111L74.2655 17.9758C73.8884 18.3182 64.9702 26.3933 59.7527 29.0844C56.1608 30.9388 51.3293 33.605 47.853 35.5476C47.6689 36.7823 47.4988 38.0073 47.3437 39.2065C50.2645 36.5051 55.8643 31.4635 58.8951 29.6173C62.8961 27.1752 74.5074 21.5501 74.6257 21.4946L77.2667 20.2167L75.0267 22.1111C74.6003 22.4729 64.5134 30.9956 60.5773 33.305C57.091 35.3525 48.5225 41.1019 46.9911 42.1325C46.8547 43.3468 46.7281 44.5978 46.6166 45.8602C50.0271 43.6324 56.8151 39.1015 59.3332 36.736C61.3017 34.8891 62.4172 34.3801 63.7094 33.7916C64.6867 33.3461 65.7944 32.8415 67.5215 31.6432C71.5025 28.8786 77.0755 24.2601 77.1311 24.2137L78.9062 22.7415L77.6825 24.6955C77.5082 24.975 73.3684 31.5549 70.1179 33.4502C68.5988 34.3353 67.4146 35.6706 66.1608 37.0835C64.8105 38.6065 63.4143 40.1811 61.439 41.4138C55.5656 45.0803 49.1087 47.7286 46.3852 48.7761C46.2986 49.9965 46.2293 51.2251 46.1759 52.4393C49.3437 50.0573 57.1677 44.2323 60.4372 42.3392C64.4711 40.0025 78.2003 33.5241 78.338 33.4578L78.6987 34.1034C78.6274 34.1499 71.5406 38.765 68.4417 41.1553C67.2871 42.0454 66.4274 43.0697 65.5174 44.1536C63.9715 45.9945 62.3732 47.8982 59.1418 49.4434C55.2974 51.2801 48.8949 54.0182 46.0892 55.2059C46.074 55.9747 46.0613 56.7415 46.0602 57.5091C46.0601 58.1318 46.0609 58.7745 46.0633 59.4325C48.2667 57.9016 52.051 55.4049 56.0286 53.3882C58.8954 51.9355 61.2978 51.2384 63.4182 50.6237C65.7799 49.9387 68.0129 49.2911 70.4736 47.7283C75.1298 44.7662 80.8323 39.4372 80.8893 39.3834L82.6272 37.7537L81.4663 39.8346C81.288 40.1535 77.0608 47.6635 72.4432 49.732C70.937 50.4071 69.4013 51.002 67.9164 51.5785C64.968 52.7233 62.1832 53.8025 60.5609 55.1826C60.248 55.4484 59.9508 55.7069 59.6634 55.9564C57.6573 57.696 56.0728 59.0718 52.9432 60.002C50.6457 60.6862 47.7646 61.3429 46.0775 61.7075C46.0918 63.4942 46.1129 65.377 46.1416 67.3299C48.9651 65.0193 55.9788 59.4046 60.4219 56.9013C65.9802 53.7672 81.001 48.7175 81.1518 48.6673L81.4521 49.3416C81.354 49.3975 71.5233 54.9466 67.1562 58.0511C65.8299 58.9939 64.6125 59.9447 63.4362 60.8632C60.7334 62.9733 58.1812 64.9645 55.1896 66.1003C53.0201 66.9233 49.9899 68.1195 46.178 69.6608C46.1986 70.8579 46.2205 72.0763 46.2436 73.3088C49.6514 70.9469 56.7326 66.0695 60.6464 63.6055C65.7703 60.3782 81.0383 52.4124 81.1919 52.3316L81.5659 52.9718C81.4627 53.0387 71.1887 59.7317 68.9077 62.1994C67.1141 64.1376 62.3594 68.9264 56.9529 71.5348C53.2756 73.3095 48.4431 75.3017 46.302 76.168C46.3346 77.6535 46.3688 79.1544 46.4049 80.6578L46.4056 80.6763C49.1153 78.5349 54.7653 74.2524 59.7171 71.6692C66.316 68.2265 83.4019 63.5862 83.5734 63.5392L83.7942 64.2473C83.7137 64.2755 75.6682 67.1436 71.0916 70.6359C65.361 75.0067 58.916 79.677 54.5685 81.1873C51.7543 82.1647 48.6645 83.1389 46.4819 83.8098L46.5486 86.3525C48.8715 85.0206 53.7329 82.3158 58.5402 80.1538C65.2533 77.1374 86.3736 68.8033 86.5853 68.72L89.9778 67.3818L86.9236 69.3756C86.7874 69.4645 73.2077 78.3266 67.4388 81.8201C61.7006 85.2947 58.3453 86.2651 46.6256 89.3169L46.7149 92.4508C48.4761 91.1014 51.7766 89.6333 56.5451 88.0785C68.4422 84.1999 83.722 82.2732 83.8742 82.2528L84.0346 82.9738C83.9455 83.0022 75.114 85.8626 70.7771 87.9392C67.0412 89.7294 51.8401 94.2767 46.8105 95.761L46.8886 98.2656C48.5635 96.9585 51.674 94.9969 56.4488 93.723C64.0056 91.7154 76.3981 96.1199 76.9223 96.3091L76.716 97.0213C76.5932 96.9932 64.4189 94.3266 60.3683 95.8547C58.3137 96.6344 57.3484 97.3681 56.497 98.0157C55.6069 98.6936 54.838 99.2783 53.1798 99.7118C51.1421 100.242 48.5342 100.665 46.9681 100.89C46.9867 101.431 47.0053 101.844 47.0245 102.26C47.0371 102.544 47.05 102.829 47.063 103.153C49.4 102.014 54.5128 100.719 59.0532 101.009C65.1272 101.398 68.2887 103.752 68.421 103.852L69.3819 104.582L68.1772 104.519C68.1323 104.516 63.5939 104.282 59.057 105.301C55.5094 106.119 49.8079 105.776 47.1213 105.561C47.4167 114.62 47.6612 121.008 47.6612 121.008L47.687 121.699L47.6855 121.706ZM44.2455 118.733L46.8918 120.351C46.8195 118.433 46.6087 112.686 46.3639 105.177L46.3502 104.76L46.7664 104.795C49.1995 105.003 55.2399 105.389 58.8935 104.586C61.9761 103.89 65.0738 103.769 66.8048 103.762C65.4102 103.048 62.7783 102.001 59.0042 101.758C54.2221 101.454 48.814 102.943 46.9037 104.089L46.363 104.414L46.3417 103.784C46.3211 103.188 46.3014 102.747 46.2827 102.304C46.261 101.807 46.2374 101.307 46.2159 100.594L46.2054 100.261L46.5346 100.216C48.0222 100.007 50.8393 99.5696 52.992 99.0046C54.5059 98.6101 55.186 98.0924 56.0474 97.4372C56.9388 96.759 57.9488 95.9895 60.1052 95.1733C62.2054 94.3778 66.1977 94.6159 69.7613 95.076C65.6122 94.1506 60.427 93.437 56.6394 94.4526C51.3755 95.857 48.204 98.1065 46.782 99.321L46.195 99.8237L46.0509 95.2229L46.326 95.1418C51.0373 93.7526 66.7007 89.0843 70.4573 87.283C72.9771 86.0753 76.9855 84.6111 79.9525 83.5788C74.6113 84.4124 64.8969 86.1484 56.7761 88.7947C50.2002 90.9388 47.6258 92.5434 46.6239 93.5132L46.0196 94.0979L45.8678 88.7585L46.1528 88.6841C58.0201 85.5956 61.359 84.6441 67.0547 81.1947C71.1065 78.7415 79.0252 73.6314 83.4102 70.7855C77.1007 73.2911 63.8868 78.5747 58.8446 80.8416C53.6573 83.1734 48.4003 86.1455 46.3802 87.3165L45.8402 87.6299L45.726 83.2768L45.9951 83.194C48.1836 82.5234 51.4049 81.5112 54.3251 80.4964C58.5733 79.0208 64.9573 74.3908 70.6417 70.056C72.6326 68.5369 75.2551 67.1393 77.6163 66.0306C72.0287 67.6972 64.0685 70.2469 60.0605 72.3367C54.7756 75.0951 48.6654 79.8246 46.2847 81.7315L45.6996 82.1995L45.6644 80.6859C45.6272 79.0939 45.5907 77.5061 45.5566 75.9379L45.5506 75.6813L45.7887 75.5859C47.7828 74.7819 52.8323 72.7112 56.6328 70.8772C61.9238 68.3238 66.6003 63.6128 68.3641 61.7061C69.5272 60.4479 72.585 58.2028 75.4226 56.2288C70.5415 58.8301 64.04 62.3558 61.043 64.2442C56.9082 66.8477 49.2155 72.1596 46.0993 74.3241L45.5303 74.7189L45.5159 74.0273C45.485 72.4685 45.4572 70.9334 45.4324 69.4293L45.4283 69.1752L45.6636 69.0802C49.5926 67.4923 52.7092 66.2611 54.9268 65.4203C57.8146 64.3257 60.2083 62.4564 62.9797 60.2932C64.1635 59.3689 65.3873 58.4141 66.7274 57.4614C69.481 55.5049 74.3728 52.5923 77.6732 50.6733C72.841 52.3819 64.5721 55.43 60.7871 57.5631C56.0394 60.2406 48.2831 66.5408 46.0194 68.4083L45.4245 68.8996L45.4135 68.1287C45.3778 65.7863 45.3503 63.5397 45.3359 61.4294L45.334 61.1263L45.6299 61.0641C47.2473 60.7171 50.321 60.0266 52.7349 59.3073C55.7116 58.4234 57.1657 57.1598 59.1804 55.4129C59.4703 55.1615 59.7689 54.9027 60.084 54.6336C61.8011 53.1724 64.6432 52.0709 67.6517 50.9032C69.1285 50.3296 70.6549 49.738 72.1438 49.0704C75.0177 47.7824 77.8261 44.1161 79.4375 41.7102C77.3347 43.5585 73.8934 46.4506 70.8765 48.3701C68.3251 49.9903 66.0446 50.6513 63.63 51.3521C61.4392 51.9874 59.1736 52.6441 56.3695 54.0648C52.0578 56.2511 47.9687 59.012 45.9145 60.4616L45.3327 60.8717L45.3286 60.1595C45.3244 59.2513 45.3224 58.3698 45.3226 57.5223C45.3234 56.6704 45.3382 55.8172 45.3561 54.9648L45.3619 54.7247L45.5831 54.6309C48.2536 53.5005 54.8903 50.6691 58.825 48.788C61.9121 47.3119 63.458 45.4711 64.9523 43.6902C65.889 42.5739 66.7734 41.5206 67.9915 40.5811C69.4656 39.4454 71.8272 37.8128 73.9188 36.4019C69.5231 38.5154 63.2994 41.553 60.8125 42.9934C57.2476 45.0574 47.8488 52.1203 46.0018 53.5161L45.3785 53.9856L45.4073 53.2057C45.4659 51.6513 45.5533 50.067 45.6653 48.4996L45.6818 48.2631L45.9035 48.1793C48.4634 47.2045 55.0645 44.5316 61.0493 40.7966C62.9351 39.6197 64.2948 38.0863 65.6099 36.6044C66.9036 35.1453 68.1254 33.7671 69.749 32.8219C71.7383 31.6625 74.1751 28.5022 75.6725 26.3772C73.6711 27.9913 70.4906 30.5017 67.9483 32.2676C66.1668 33.5034 65.0275 34.0227 64.0211 34.4808C62.7381 35.0647 61.724 35.5272 59.8459 37.2925C57.1133 39.8549 49.5236 44.8736 46.3876 46.9117L45.752 47.3249L45.8154 46.5684C45.9496 44.9824 46.1048 43.4081 46.2781 41.892L46.2973 41.7222L46.4394 41.6264C48.1129 40.5 56.6464 34.7702 60.2074 32.6783C62.9368 31.0757 68.8734 26.269 72.1903 23.528C68.4831 25.3557 62.0458 28.5799 59.2859 30.2628C55.9372 32.3042 49.1158 38.5823 47.1055 40.4573L46.3592 41.1536L46.4839 40.1405C46.6791 38.5587 46.9035 36.9197 47.15 35.2693L47.1773 35.0895L47.3364 35.0004C50.8293 33.0475 55.7603 30.3251 59.4173 28.4368C63.0328 26.5708 68.6343 21.9139 71.66 19.2971C68.2041 21.0239 62.0511 24.1396 58.7412 26.0691C55.2483 28.105 50.5256 31.8299 48.0209 33.8678L47.2674 34.481L47.4206 33.5199C47.6503 32.0817 47.8871 30.688 48.125 29.36L48.1581 29.1733L48.3298 29.0904C50.7544 27.9239 57.6898 24.6018 60.6135 23.2599C62.8728 22.225 67.6059 19.3055 70.682 17.3663C67.0978 18.6981 61.3946 20.8691 58.3167 22.3034C54.9165 23.8864 51.058 26.4301 49.0596 27.8046L48.3167 28.3156L48.4841 27.4291C48.687 26.3611 48.8884 25.3449 49.0888 24.3762L49.1223 24.2137L49.2651 24.1293C50.767 23.2517 53.6895 21.6108 56.3774 20.4885C58.3997 19.6449 59.9362 18.566 61.4237 17.5222C62.6824 16.6381 63.872 15.8043 65.1986 15.2464C66.9364 14.5171 68.8023 11.8322 69.8893 10.0545C68.253 11.3085 65.5347 13.2998 63.0567 14.697C61.1243 15.787 60.0534 16.2818 59.1103 16.7192C58.1407 17.1675 57.304 17.5546 55.762 18.4699C53.7071 19.6905 51.3072 21.8574 50.0584 23.0417L49.1939 23.8608L49.4396 22.6945C49.5721 22.0679 49.7036 21.4659 49.8309 20.8948L49.8203 20.9068L50.1504 19.4768C50.3955 18.4193 50.8691 17.1566 51.2483 16.1423C51.3862 15.7768 51.5123 15.4392 51.6156 15.1475C51.3199 15.6319 50.9169 16.3487 50.447 17.323L50.2676 17.6964L50.2715 17.7014L50.1702 17.9212C49.9621 18.3689 49.7458 18.8639 49.5244 19.4071L49.2779 20.0067L48.8849 19.4919C47.749 18.002 45.5274 15.067 43.3977 12.1561C41.8197 9.99889 39.954 7.699 38.5966 6.0681C39.6023 8.10677 41.0139 10.8482 42.0618 12.4251C43.6262 14.7738 47.8119 18.7745 49.057 19.9443L49.2384 20.1145L49.148 20.3464C48.9266 20.9197 48.7012 21.5397 48.4729 22.2045L48.2611 22.8204L47.8389 22.3254C46.593 20.8665 42.3637 15.9307 40.2288 13.7208C39.2035 12.6608 37.9743 11.432 36.8674 10.3418C38.1457 12.0608 39.6671 14.0111 40.7808 15.1445C43.0686 17.4655 47.8288 22.7153 48.03 22.9374L48.1734 23.0962L48.1092 23.3003C47.8458 24.1264 47.5781 25.0121 47.3165 25.9681L47.1506 26.5695L46.7016 26.1369C44.9747 24.4748 41.5078 21.1431 38.6464 18.4489C36.9484 16.8486 34.9485 14.7991 33.2188 12.98C34.7961 15.2161 36.4073 17.6074 36.9097 18.7185C37.4743 19.968 41.1738 23.0406 46.8064 26.9343L47.0191 27.0813L46.9551 27.3312C46.6733 28.4285 46.4013 29.5927 46.1478 30.7934L45.975 31.6066L45.4846 30.9342C43.8974 28.7587 40.8621 24.7621 38.3476 22.4384L30.2905 14.9885C32.3519 17.8867 35.3768 22.1516 36.6526 23.9999C38.3446 26.4474 44.0363 30.4859 45.7412 31.6641L45.9407 31.8021L45.893 32.0402C45.6139 33.452 45.3499 34.9583 45.1114 36.5155L44.9869 37.3266L44.46 36.6955C42.5058 34.3524 37.4582 28.5863 32.8087 25.6289C29.8933 23.7782 27.2195 21.7527 25.2631 20.1787C27.4286 22.7292 30.527 26.2686 33.1612 28.8672C36.9739 32.624 42.9642 36.6815 44.7084 37.8335L44.9036 37.9638L44.8717 38.1946C44.6787 39.6 44.5066 41.0401 44.3602 42.4724L44.2868 43.1835L43.748 42.715C41.2856 40.5747 36.5189 36.4773 32.2596 33.0962C28.1451 29.8292 22.472 26.4285 19.3926 24.6564C21.8385 27.1606 26.4584 31.7799 30.8035 35.5054C35.7971 39.7872 41.681 42.7312 43.9787 43.7977L44.216 43.9085L44.1924 44.1678C44.0195 46.0618 43.879 48.0656 43.7731 50.123L43.7339 50.8863L43.1585 50.3833C41.2837 48.7422 34.7006 43.0541 28.6935 38.758C23.734 35.2112 16.4272 30.6231 12.5032 28.1974C15.9342 31.566 22.4581 37.8523 26.5182 41.0065C31.6518 44.994 41.56 50.469 43.4951 51.5259L43.6979 51.6362L43.689 51.8669C43.6299 53.2539 43.5891 54.6919 43.563 56.1699L43.5506 56.8108L43.0012 56.4817C39.8133 54.5756 31.6964 49.8457 25.1856 47.0828C19.5379 44.6865 10.8575 41.1233 6.18116 39.2118C10.3289 42.0301 17.9388 47.1717 22.389 49.9995C27.7343 53.3926 39.7125 56.8253 43.2563 57.7974L43.5328 57.8735L43.5286 58.1592C43.5105 59.6716 43.497 61.1701 43.485 62.6541L43.4803 63.2448L42.9511 62.9849C39.9699 61.5247 24.7915 54.1011 18.6713 51.3067C15.0366 49.6476 10.809 47.2669 7.65082 45.4038C12.5395 49.3076 20.4446 55.4423 25.0009 58.0381C30.8194 61.3524 40.3793 63.3564 43.1713 63.8921L43.4745 63.9502L43.4717 64.2586C43.4588 66.2409 43.4492 68.1954 43.4457 70.1144L43.4446 70.7846L42.8769 70.4275C40.4718 68.9105 34.2851 65.1739 28.7989 63.2193C24.3799 61.6438 14.0398 60.7663 7.15276 60.3399C9.5978 60.7599 12.278 61.2496 14.3598 61.7017C19.094 62.7303 24.7287 64.9902 29.258 66.8066L30.4312 67.2758C34.1458 68.7608 40.5729 70.4617 43.1633 71.1259L43.4431 71.1972L43.4422 71.4851C43.4406 72.9785 43.4408 74.4516 43.4468 75.902L43.4492 76.4857L42.92 76.2401C38.7346 74.298 24.5963 67.8929 18.3764 67.0459C13.7434 66.4131 8.01797 65.0509 4.39542 64.1239C9.9212 66.8641 20.8572 72.2491 24.9015 73.969C29.5513 75.9443 40.0351 77.5904 43.1373 78.0483L43.4524 78.0942L43.4687 81.5884L42.98 81.4282C39.0581 80.1401 25.7985 75.9182 19.8285 75.6835C15.8187 75.526 11.0027 74.8723 7.55351 74.3288C12.9365 76.1771 21.834 79.2423 25.4702 80.5489C29.918 82.1475 40.1144 82.812 43.1337 82.9779L43.4824 82.9973L43.4845 83.3462C43.496 85.1707 43.5147 86.9437 43.5365 88.6646L43.5449 89.2944L42.9899 88.9965C41.9784 88.452 39.8155 87.334 36.6879 85.9619C32.8526 84.2794 29.5584 84.1058 25.7423 83.9057C24.8097 83.8573 23.8437 83.8066 22.8245 83.7318C20.3274 83.5494 16.8891 82.132 13.908 80.6574C16.7354 82.512 20.1025 84.5399 22.8813 85.6894C27.7319 87.6965 38.7588 90.0966 43.274 91.0352L43.5661 91.0955L43.5701 91.394C43.5885 92.8049 43.6104 94.1736 43.6326 95.4993L43.6417 96.0201L43.147 95.8581C38.2124 94.2364 26.1759 90.3624 21.0101 89.4132C16.5209 88.5884 9.23046 87.6678 5.30375 87.1952C10.1907 89.1825 20.8061 93.4791 24.8789 94.9431C29.3912 96.5652 40.1433 97.4186 43.3326 97.6423L43.6705 97.6652L43.7003 99.1956C43.716 100.021 43.7319 100.826 43.7508 101.608L43.7597 101.97L43.398 101.988C42.1069 102.049 39.4916 102.23 36.4763 102.739C34.239 103.115 32.4132 103.751 30.6445 104.363C28.8681 104.98 27.1948 105.566 25.2227 105.855C23.6684 106.09 21.2558 106.193 18.8955 106.232C22.6071 106.545 27.0179 106.771 30.214 106.475C35.4525 105.989 41.0982 103.906 43.2824 103.033L43.7784 102.834L43.7901 103.369C43.9865 111.975 44.2024 117.636 44.2454 118.74L44.2455 118.733ZM63.5084 10.9389C61.3751 12.1087 58.5228 13.6975 56.477 14.9364C54.7314 15.9922 53.2172 17.3159 52.1057 18.4168C53.334 17.6587 54.9082 16.7473 56.4637 16.0155C58.3793 15.1149 61.3771 12.7353 63.5084 10.9389ZM43.7457 4.45225C44.3883 6.19365 45.4939 9.17672 46.3974 11.5656C47.299 13.9519 48.8322 16.0017 49.7318 17.0785C49.5902 15.8027 49.1719 13.3529 47.9422 10.4923C46.7725 7.7734 44.9265 5.63724 43.7471 4.45199L43.7457 4.45225ZM59.9592 9.68297C58.8938 10.0421 57.2692 10.6739 55.8449 11.5682C54.4076 12.4693 53.3529 13.2974 52.722 13.8328L52.4152 14.0932C53.0757 13.7883 53.5128 13.6176 53.9706 13.4359C54.6069 13.1843 55.2659 12.9241 56.6343 12.2695C58.079 11.5803 59.2474 10.47 59.9606 9.68271L59.9592 9.68297ZM50.0552 2.98311C50.0359 4.26375 50.042 6.80364 50.2991 9.12819C50.5565 11.4398 51.4139 13.0686 51.8625 13.7848L52.1793 13.3364C53.0415 12.1141 54.3249 10.3534 55.5358 8.90286C56.6596 7.55909 58.3664 3.58889 59.1449 1.70254C57.9325 2.46909 55.8421 3.94703 54.7331 5.63156C53.1071 8.10324 52.5699 10.6093 52.5661 10.6343L51.9351 13.655L51.8322 10.5695C51.8296 10.5185 51.7926 9.27291 52.011 6.91927C52.1506 5.41384 50.8517 3.8119 50.0568 2.98423L50.0552 2.98311Z" fill="#1A1A1A"/>
</svg>
