<svg width="146" height="244" viewBox="0 0 146 244" fill="none" xmlns="http://www.w3.org/2000/svg">
<path d="M20.6071 36.7739C21.2371 36.7739 21.8721 36.7439 22.5071 36.6864C27.7996 36.1939 32.3996 33.7289 35.4571 29.7464C38.3471 25.9889 39.4946 21.2964 38.6896 16.5389C36.9896 6.48145 26.987 -0.913552 16.432 0.0914483C11.1395 0.583948 6.53959 3.04895 3.48209 7.03145C0.594594 10.7889 -0.552949 15.4814 0.249551 20.2389C1.84705 29.6914 10.762 36.7764 20.6045 36.7764L20.6071 36.7739Z" fill="#1A1A1A"/>
<path d="M145.101 12.7915L142.701 13.444C52.0461 38.059 43.9285 115.424 43.8585 116.202L43.7211 117.697C43.7061 117.707 43.6785 117.724 43.671 117.729L43.7111 117.792V117.819L43.7235 117.809L43.816 117.954L43.6686 117.949C43.6561 118.287 43.1935 135.897 49.556 160.897C13.396 110.219 20.806 37.674 20.8885 36.934L19.3785 36.769C19.296 37.5315 11.5136 113.549 50.5386 164.802L50.5785 164.772C52.4235 171.474 54.7636 178.644 57.7161 186.112C39.2586 157.202 5.14854 151.582 3.74854 151.364L0.871094 150.379L3.02356 152.629C34.4061 185.472 62.701 199.979 62.9835 200.122L64.161 200.719C70.941 214.602 79.931 229.066 91.921 243.132L93.076 242.147C86.4185 234.337 80.7111 226.404 75.7736 218.517C80.0361 214.242 110.994 181.587 98.4885 147.799C101.906 146.642 104.304 144.039 104.304 141.009C104.304 136.909 99.931 133.574 94.556 133.574C89.181 133.574 84.8086 136.909 84.8086 141.009C84.8086 145.109 89.181 148.442 94.556 148.442C95.411 148.442 96.2235 148.332 97.016 148.172C109.153 180.619 79.8561 212.212 74.9561 217.184C45.6011 169.471 45.1236 123.882 45.1786 118.564C49.5061 115.729 73.9736 99.489 97.2686 79.894C131.441 51.149 147.059 29.119 143.719 14.3965L145.101 12.799V12.7915ZM60.681 194.634C43.421 172.417 22.8835 160.254 11.826 154.862C24.5935 158.687 48.7135 169.064 60.681 194.634ZM6.58105 154.114C15.4161 157.899 40.551 170.389 60.686 197.119C52.901 192.657 30.9061 178.969 6.58105 154.114ZM61.2635 195.382L61.5861 195.237C61.8086 195.729 62.0385 196.227 62.266 196.722C61.931 196.274 61.5985 195.824 61.2635 195.384V195.382ZM140.669 15.5865C129.851 28.0065 69.181 97.2215 45.5985 114.634C47.3385 103.269 60.6836 38.519 140.669 15.5865ZM46.3761 115.944C70.5536 98.1665 133.681 25.9365 142.458 15.844C147.191 47.0265 62.6861 105.064 46.3761 115.944Z" fill="#1A1A1A"/>
</svg>
