<svg width="124" height="150" viewBox="0 0 124 150" fill="none" xmlns="http://www.w3.org/2000/svg">
<path d="M43.5523 100.259C42.6954 100.394 42.176 100.889 42.1273 101.617C41.9829 103.724 44.4035 104.521 46.5391 105.222C47.4241 105.513 48.3391 105.815 49.0216 106.181C51.416 107.521 55.511 109.231 55.6854 109.302L56.7991 109.767L56.3491 108.646C54.2791 103.488 46.376 99.7887 43.5503 100.259H43.5523Z" fill="#1A1A1A"/>
<path d="M45.0959 89.2325C45.9827 89.5231 46.8978 89.825 47.5822 90.1925C49.9765 91.5312 54.0715 93.2431 54.244 93.3143L55.3596 93.7793L54.9096 92.6581C52.8396 87.5018 44.9702 83.8325 42.1109 84.2693C41.254 84.4062 40.7346 84.9012 40.6859 85.6287C40.5415 87.7362 42.9602 88.5312 45.0959 89.2325Z" fill="#1A1A1A"/>
<path d="M60.5419 118.629L59.25 119.521L60.8212 119.551C60.8775 119.555 66.2569 119.654 69.4575 119.448C70.3987 119.397 71.5369 119.486 72.6412 119.568C73.5769 119.639 74.4975 119.709 75.3412 119.709C77.0362 119.709 78.4181 119.427 78.9975 118.316C79.245 117.841 79.1344 117.329 78.705 116.951C76.5919 115.085 65.2575 115.374 60.5437 118.629H60.5419Z" fill="#1A1A1A"/>
<path d="M122.979 67.4881C122.7 67.1581 122.111 66.8112 120.862 67.0456C118.496 67.4956 81.3392 87.5356 79.1005 93.7793C78.8361 94.5181 79.0498 95 79.2767 95.2718C79.6592 95.7312 80.203 95.9862 80.893 96.035C80.968 96.0406 81.0411 96.0425 81.1179 96.0425C86.7129 96.0425 101.259 82.8331 101.884 82.2631L101.201 81.515C97.0349 85.3137 85.4361 95.0319 81.1424 95.0319C81.0824 95.0319 81.0205 95.03 80.9624 95.0244C80.5518 94.9962 80.2554 94.865 80.0548 94.625C80.0229 94.5875 79.9273 94.4731 80.0548 94.1225C81.9579 88.8106 117.489 68.7181 121.052 68.0412C121.734 67.9081 122.094 68.0075 122.205 68.1406C122.28 68.2306 122.28 68.4031 122.205 68.6056C122.016 69.1137 121.408 69.6912 120.615 69.815C118.515 70.1468 105.137 77.9225 104.899 83.8006C104.692 88.9231 88.6086 97.1412 84.3561 97.9231C83.4711 98.0862 82.4042 98.495 81.2623 99.0425C81.2417 99.0518 81.221 99.0631 81.2004 99.0744C79.5073 99.8919 77.653 101.011 75.9486 102.129C71.5705 104.898 67.7755 107.919 64.4792 111.056C68.2949 104.922 71.398 97.3569 69.6598 90.5056C66.1667 76.745 86.8348 57.2469 87.2811 56.8287C88.5523 57.4325 90.013 57.7812 91.5692 57.7812C96.4349 57.7812 100.393 54.4137 100.393 50.2718C100.393 46.13 96.4349 42.7625 91.5692 42.7625C86.7036 42.7625 82.7492 46.13 82.7492 50.2718C82.7492 52.7506 84.1724 54.9444 86.353 56.3131C83.8649 58.6775 65.188 76.9925 68.6792 90.7531C70.8767 99.41 64.6967 109.586 59.7111 116.041C58.7736 117.121 57.8942 118.203 57.0598 119.287C55.9592 120.564 55.0667 121.514 54.5586 122.039C58.3029 111.691 63.2342 92.8662 55.8879 79.4468C45.5492 60.5618 53.0998 35.765 53.1373 35.6075C60.3729 22.3868 71.9474 2.29997 74.1861 1.15435C74.6155 0.934973 74.8011 1.02684 74.8649 1.05684C75.5699 1.39622 75.9917 3.48309 76.4361 5.69184C76.963 8.29434 77.6155 11.5325 79.0892 14.2662C80.1542 16.2444 81.9129 17.6543 83.4654 18.8975C84.9111 20.0543 86.158 21.0556 86.023 21.9593C85.8448 23.135 83.4748 24.6068 78.7779 26.4612C66.5679 31.2818 61.5655 37.0306 60.9917 40.49C60.778 41.7819 61.1286 42.8618 62.0117 43.6118C63.1348 44.5681 63.7273 45.8356 63.7236 47.2756C63.7179 49.5143 62.2761 52.01 59.7655 54.125C55.2842 57.9012 53.7861 64.3043 56.038 70.0587C57.3167 73.3268 57.6917 77.3506 57.7967 79.8012C54.433 72.23 45.1142 44.0581 75.1592 13.415L74.4355 12.7043C38.893 48.9556 57.7068 81.9706 57.8999 82.3006L58.7886 83.8081L58.843 82.0587C58.8523 81.7718 59.0361 74.9356 56.9811 69.6912C54.8886 64.3419 56.2705 58.4 60.4199 54.9012C63.1986 52.5594 64.7305 49.8518 64.738 47.2794C64.7417 45.53 64.0273 43.9962 62.6679 42.8393C62.0642 42.3256 61.8373 41.5906 61.9911 40.655C62.563 37.205 68.0904 31.7693 79.1492 27.4025C84.4929 25.2931 86.7748 23.7593 87.0242 22.1094C87.2473 20.6281 85.7886 19.46 84.0993 18.1062C82.6236 16.9231 80.9492 15.5825 79.9817 13.7862C78.581 11.1856 77.9436 8.0281 77.4317 5.49122C76.8711 2.71247 76.4661 0.704347 75.3074 0.145597C74.8386 -0.0794027 74.3079 -0.0437859 73.7267 0.254339C70.4904 1.90809 54.1086 31.7281 52.213 35.2156C52.1342 35.4687 44.4542 60.6669 55.001 79.9344C65.0098 98.2212 51.5455 127.059 50.5967 129.037C50.4542 123.884 48.476 110.097 32.8254 95.7331C15.5885 79.9156 14.2573 62.9244 14.1767 59.3094H14.1899C14.1899 59.2269 14.1823 59.0112 14.1729 58.6943C14.1729 58.6418 14.1748 58.6062 14.1748 58.5987H14.1692C14.0135 53.9037 12.8023 28.0906 4.70417 20.4856C2.4223 18.3443 1.55233 17.3262 1.22233 16.85C1.70608 16.9737 2.46172 17.2625 3.01484 17.4725C4.40609 18.005 5.29292 18.3162 5.82917 18.2187C6.0748 18.1756 6.39546 18.0875 6.76109 17.9862C7.87109 17.6769 9.55106 17.2081 10.3442 17.8587C10.7773 18.2131 10.9573 18.92 10.8823 19.9606C10.633 23.3487 11.2349 26.2081 12.4517 27.4212C12.9692 27.935 13.4736 28.01 13.8017 27.9893C13.9929 27.9968 14.7167 28.3887 15.6092 29.72C16.5767 31.1656 17.3642 33.2262 16.8092 34.3325C15.6467 36.6443 16.3723 46.6475 16.4605 47.8044C16.6461 49.2725 16.7173 51.8825 16.1248 52.6437C16.093 52.6868 16.0611 52.7168 16.033 52.7375C15.583 51.9143 15.2849 47.9187 15.0449 44.6768C14.6474 39.3368 14.1954 33.2825 12.8867 30.7344C11.9211 28.8556 11.5049 27.305 11.1392 25.9381C10.6067 23.9525 10.1867 22.3868 8.35109 21.1906L7.79792 22.04C9.31105 23.0244 9.64862 24.2862 10.1624 26.2006C10.5224 27.5468 10.9724 29.2231 11.9867 31.1975C13.2017 33.5637 13.663 39.7681 14.0342 44.7537C14.4673 50.5794 14.7186 53.0112 15.4592 53.6206C15.628 53.7575 15.8343 53.8231 16.0368 53.795C16.3818 53.7537 16.6892 53.5718 16.9255 53.2681C17.9661 51.9312 17.5199 48.1119 17.4674 47.7031C17.2386 44.7031 16.8374 36.5319 17.713 34.79C18.508 33.2131 17.5292 30.77 16.4492 29.1593C15.9936 28.4768 14.788 26.8793 13.7249 26.9825C13.573 26.9844 13.3629 26.9037 13.1642 26.7069C12.3448 25.8894 11.6342 23.51 11.8892 20.0356C11.9924 18.6481 11.6867 17.6506 10.9836 17.075C9.78359 16.0906 7.79985 16.6437 6.48735 17.0093C6.15922 17.1012 5.87043 17.1818 5.64918 17.2231C5.36793 17.2681 4.16045 16.8256 3.37483 16.5256C1.60858 15.8525 0.545435 15.4456 0.121685 16.1243C-0.212065 16.6606 -0.131443 17.3394 4.00856 21.2262C11.7842 28.5275 13.0086 54.5468 13.1567 58.7431C13.1323 60.7568 13.4548 79.3344 32.1373 96.4794C42.2211 105.736 46.4154 114.641 48.1573 120.481C50.0435 126.806 49.543 131 49.5374 131.041L49.6424 131.054C48.2511 133.814 47.158 136.409 46.2992 138.744C46.0986 138.959 45.9017 139.177 45.733 139.398L45.5942 139.582C44.6754 139.696 38.201 140.307 36.5285 135.144C35.0173 130.481 33.1536 125.401 30.1499 124.166C29.0774 123.725 27.9392 123.806 26.7636 124.413C25.9874 124.814 25.6105 124.608 25.3967 124.417C23.518 122.771 24.3711 114.266 25.1323 112.158C25.7642 110.405 25.6461 104.51 23.7674 103.696C22.3593 103.081 21.1911 105.357 20.8105 106.106C20.023 107.652 18.1274 110.197 15.9317 113.142C10.2674 120.742 2.51047 131.148 4.19047 137.043C4.66485 138.706 5.84798 139.919 7.70985 140.652C16.363 144.057 33.2792 145.707 40.9461 145.707C42.4029 145.707 43.5148 145.647 44.1842 145.527C43.5561 148.031 43.3499 149.549 43.3424 149.619L44.3493 149.742C44.3624 149.632 44.8836 145.754 46.9086 140.009C48.3786 139.593 52.0855 138.524 54.4405 137.658C55.318 137.347 56.4279 137.109 57.5042 136.876C60.2698 136.282 62.8817 135.719 63.1274 133.867C63.1986 133.327 62.9155 132.884 62.3493 132.654C60.0374 131.703 52.3705 133.942 47.9399 137.285C49.9349 132.286 52.993 126.286 57.6054 120.23C58.5673 119.137 59.6961 117.789 60.8829 116.238C63.6917 113.056 66.9561 109.921 70.7717 106.972L70.8149 107.028C70.8636 106.989 73.5411 104.915 76.6761 102.866C78.2886 101.853 79.9629 100.867 81.7348 99.9312C82.7811 99.4306 83.7486 99.0612 84.5417 98.915C89.2255 98.0525 105.679 89.6243 105.913 83.8362C106.117 78.7662 118.699 71.1387 120.774 70.8125C122.008 70.6175 122.874 69.7137 123.157 68.9562C123.367 68.3975 123.304 67.8612 122.985 67.4843L122.979 67.4881ZM54.4442 122.879C54.2811 123.119 54.1329 123.356 53.9736 123.594C54.0804 123.312 54.1873 123.027 54.2979 122.729L54.4442 122.877V122.879ZM50.593 129.174L50.6173 129.185C50.6098 129.2 50.6023 129.213 50.5948 129.228C50.5948 129.209 50.5948 129.191 50.5948 129.172L50.593 129.174ZM17.0305 124.646C16.2467 127.197 16.4774 129.627 17.7167 131.87C21.6561 138.999 34.8149 142.541 41.1392 144.245C41.6961 144.395 42.2436 144.541 42.718 144.676C37.0405 144.881 17.8386 143.557 8.07917 139.717C6.50605 139.098 5.55171 138.134 5.16359 136.773C3.62046 131.36 11.2049 121.184 16.7436 113.756C18.9674 110.771 20.8874 108.194 21.7124 106.571C22.5861 104.853 23.1617 104.532 23.3661 104.632C24.3786 105.069 24.7986 110.101 24.1798 111.821C23.4973 113.714 22.2767 123.033 24.7292 125.184C25.1961 125.594 26.0099 125.947 27.2286 125.317C28.1361 124.85 28.9648 124.779 29.7655 125.107C32.2461 126.127 34.0179 130.687 35.5667 135.461C37.4229 141.187 44.4036 140.727 45.6467 140.596C45.2024 141.914 44.833 143.131 44.5368 144.206C44.038 143.979 43.1155 143.727 41.4055 143.268C35.2161 141.601 22.3386 138.134 18.6074 131.382C17.5067 129.389 17.3042 127.224 18.0036 124.946L17.0342 124.649L17.0305 124.646Z" fill="#1A1A1A"/>
</svg>
