<svg width="41" height="36" viewBox="0 0 41 36" fill="none" xmlns="http://www.w3.org/2000/svg">
<path d="M28.8143 11.6645C25.6379 14.4681 22.4615 17.2647 19.2851 20.0682C17.683 18.3765 16.0879 16.6916 14.4859 14.9998C14.2097 14.7098 13.9059 15.3105 14.1268 15.5522C15.7772 17.2923 17.4206 19.0325 19.071 20.7726C19.1677 20.8693 19.2989 20.8554 19.3886 20.7726C22.6272 17.9207 25.8589 15.0688 29.0974 12.217C29.3529 11.9891 29.1389 11.3814 28.8143 11.6645Z" fill="black"/>
<path d="M39.1291 14.8755C39.8749 12.9351 40.3928 10.8152 39.8749 8.75052C39.3915 6.83085 38.0864 5.30479 36.1391 4.84214C35.8767 2.77056 34.3299 1.27902 32.2929 0.837086C30.1937 0.381339 28.1221 1.14092 26.4303 2.36315C25.3738 1.06496 23.7994 0.215614 22.1352 0.0360774C20.402 -0.15727 18.6895 0.436582 17.3844 1.57595C16.7284 2.14218 16.1967 2.83961 15.8031 3.613C13.6763 2.6946 11.1283 2.59793 9.05668 3.70968C7.22679 4.69022 6.02527 6.68584 6.29458 8.75742C4.55445 8.66765 2.85576 9.22007 1.65424 10.539C0.155801 12.1755 -0.389714 14.4612 0.287001 16.588C0.65298 17.7343 1.29517 18.7562 2.10309 19.6401C1.01205 21.2283 1.24683 23.4449 2.33786 24.9917C3.5739 26.7456 5.70073 27.45 7.74468 26.863C8.35235 28.3407 9.59529 29.4939 11.1904 29.8116C12.7096 30.1085 14.3254 29.6251 15.4924 28.6308C16.7146 29.418 18.0888 29.9428 19.5182 30.1913C20.2777 30.3225 21.058 30.3778 21.8314 30.3364C22.1767 30.3226 22.5219 30.288 22.8603 30.2397C23.0467 30.2121 23.2332 30.1844 23.4196 30.143C23.5854 30.1085 23.8478 29.9911 24.0066 30.0256C24.1585 30.0532 24.3173 30.2259 24.4416 30.3225C24.5935 30.4399 24.7385 30.5573 24.8766 30.6816C25.1736 30.944 25.4429 31.241 25.6845 31.5517C26.1817 32.187 26.5615 32.9258 26.7963 33.6992C26.9827 34.3207 27.0035 35.0665 27.7147 35.3289C28.0254 35.4463 28.3155 35.391 28.64 35.3358C29.0405 35.2598 29.4963 35.2391 29.8553 35.025C30.4285 34.6798 30.6425 33.9616 30.4216 33.3471C30.1523 32.6013 29.807 31.8762 29.4203 31.1857C31.6093 30.6747 33.2182 28.8794 33.6118 26.6766C36.3117 26.2623 38.6595 24.46 39.8265 21.9879C40.8416 19.7023 40.7864 16.8228 39.1291 14.8755ZM33.377 26.0344C33.1975 26.0551 33.1146 26.283 33.0939 26.428C32.8384 28.6446 31.0914 30.3018 28.9093 30.6057C28.6952 30.6333 28.5571 30.9716 28.6607 31.1512C29.0474 31.8072 29.3858 32.4839 29.6827 33.1813C29.8001 33.4575 30.028 33.8304 29.9175 34.1343C29.807 34.4588 29.4617 34.5002 29.1717 34.5555C28.8264 34.6176 28.3776 34.7903 28.0323 34.6936C27.694 34.5969 27.5559 34.3345 27.4868 34.0169C27.3349 33.3332 27.1139 32.6772 26.7894 32.0558C26.4718 31.4619 26.0712 30.9026 25.6017 30.4192C25.3669 30.1775 25.1114 29.9497 24.8421 29.7425C24.6557 29.5975 24.3311 29.2868 24.0894 29.3006C23.7649 29.3213 23.4196 29.4663 23.0951 29.5146C22.7429 29.5699 22.3976 29.6113 22.0386 29.632C21.3619 29.6665 20.6782 29.632 20.0015 29.5423C18.4478 29.3213 16.9632 28.7482 15.6581 27.885C15.5752 27.8298 15.444 27.8919 15.3819 27.9471C14.3116 28.9484 12.7786 29.3903 11.3354 29.1072C9.82317 28.8103 8.6838 27.6433 8.159 26.2277C8.12447 26.138 8.00708 26.0896 7.91731 26.1172C6.0598 26.718 4.08489 26.1794 2.89028 24.6188C1.83378 23.2378 1.50233 21.1386 2.66932 19.7161C2.7729 19.5918 2.79361 19.3708 2.68313 19.2534C1.32279 17.8378 0.321528 15.9182 0.570117 13.9018C0.797991 12.0167 2.14452 10.2559 3.96751 9.6551C4.80995 9.37889 5.70073 9.33056 6.57769 9.42723C6.80557 9.45485 6.97129 9.14412 6.92296 8.94386C6.41197 6.89991 7.6411 4.99405 9.471 4.1309C11.4459 3.20559 13.8075 3.41275 15.7479 4.31734C15.9067 4.3933 16.0724 4.24138 16.1277 4.11018C16.9563 2.25957 18.7379 0.885423 20.7749 0.664454C22.8258 0.443486 24.9043 1.40332 26.1403 3.03296C26.2232 3.14345 26.3889 3.07439 26.4718 3.01224C28.0323 1.83144 29.9658 1.08568 31.9338 1.44475C33.8328 1.79002 35.4486 3.19178 35.6074 5.1874C35.6212 5.32551 35.6696 5.42909 35.8077 5.45671C37.679 5.8365 38.9288 7.32113 39.357 9.13721C39.8127 11.0914 39.281 13.0732 38.556 14.8893C38.5076 15.0136 38.4938 15.1655 38.5905 15.276C40.1856 17.0161 40.2754 19.6746 39.3293 21.7531C38.2245 24.1009 35.9458 25.7167 33.377 26.0344Z" fill="black"/>
</svg>
