<svg width="41" height="49" viewBox="0 0 41 49" fill="none" xmlns="http://www.w3.org/2000/svg">
<path d="M36.2109 31.8317C38.2166 29.0975 39.7304 25.9376 40.2696 22.5695C40.544 20.8666 40.5345 19.1352 40.4399 17.4133C40.3642 15.9658 40.2034 14.5183 39.9196 13.0897C39.4087 10.4974 38.4531 7.94302 36.807 5.84271C32.6915 0.582469 25.2174 -0.439304 18.9638 0.147269C15.6525 0.459477 12.3506 1.37718 9.55968 3.21259C7.00524 4.88716 5.009 7.33752 3.95885 10.2136C3.38173 11.7841 3.07899 13.4398 2.98438 15.1144C2.88031 17.1295 2.74786 19.1258 2.1802 21.0747C1.94368 21.8789 1.63147 22.6547 1.25304 23.3926C0.855684 24.1684 0.193423 24.8874 0.0420495 25.7578C-0.118785 26.6377 0.183962 27.5838 0.912449 28.1136C1.42334 28.492 1.97206 28.5204 2.5681 28.5015C2.93707 28.492 3.29659 28.4825 3.66556 28.4731C3.63718 29.2867 3.07899 29.9679 2.77624 30.7153C2.48295 31.4627 2.63433 32.1344 3.18306 32.6169C2.81408 33.459 2.90869 34.4429 3.81693 34.8686C3.95885 35.8336 3.59933 36.8081 3.71286 37.7826C3.82639 38.7665 4.31836 39.6937 5.18876 40.2046C6.08754 40.7344 7.11878 40.7627 8.13109 40.6871C9.17178 40.6114 10.2125 40.4695 11.2437 40.3181C11.8114 40.2424 12.3696 40.1572 12.9372 40.0626C12.8899 40.9236 12.8237 41.7845 12.7291 42.6455C12.5304 44.5376 12.2749 46.4771 11.6884 48.2936C11.6221 48.5017 11.6221 48.8045 11.8208 48.9464C12.0006 49.0694 12.2371 48.9748 12.3033 48.7666C13.2589 45.8243 13.5616 42.5981 13.6751 39.5139C13.6846 39.3436 13.5427 39.003 13.3156 39.0409C11.4708 39.3436 9.59752 39.6558 7.72427 39.7504C6.61735 39.8072 5.32121 39.6085 4.71572 38.5489C4.42243 38.0286 4.36566 37.4041 4.43189 36.8176C4.51704 36.0607 4.63057 35.3606 4.51704 34.5943C4.48865 34.405 4.46027 34.1874 4.29944 34.0645C4.0913 33.9036 3.73179 33.9131 3.67502 33.5914C3.62772 33.336 3.83586 32.9859 3.97777 32.7872C4.11022 32.598 4.1386 32.1817 3.90208 32.0398C3.64664 31.8979 3.31551 31.7182 3.34389 31.3965C3.36281 31.0843 3.62772 30.7342 3.76963 30.4693C4.21429 29.6368 4.49812 28.8042 4.34674 27.8487C4.31836 27.6878 4.17645 27.4986 3.99669 27.4986C2.92761 27.527 0.808379 27.9244 0.723231 26.2971C0.694849 25.7389 1.03544 25.3132 1.31927 24.859C1.56525 24.4617 1.79231 24.0549 2.00045 23.6386C2.41673 22.7966 2.73839 21.9072 2.97492 20.999C3.25874 19.9299 3.4385 18.8325 3.55203 17.7255C3.66556 16.6375 3.6561 15.5495 3.76017 14.4615C3.921 12.6734 4.38459 10.9137 5.1793 9.29592C8.66089 2.2192 17.2987 0.468939 24.4795 1.05551C27.9611 1.33934 31.5373 2.24758 34.3187 4.46142C36.5799 6.25899 38.0463 8.81342 38.8316 11.5665C39.2479 13.0235 39.5033 14.5278 39.6452 16.0321C39.8155 17.8202 39.9101 19.665 39.7114 21.4531C39.2952 25.2091 37.6017 28.7001 35.3027 31.6614C34.6215 32.5413 33.893 33.3833 33.0983 34.1496C32.9469 34.2915 32.7766 34.4334 32.6347 34.5848C32.4171 34.8119 32.436 35.0295 32.4739 35.3133C32.8618 38.284 33.9971 41.2547 35.6527 43.7429C36.2677 44.6606 36.9678 45.5026 37.753 46.2784C37.9233 46.4487 38.1599 46.269 38.2355 46.0987C38.3396 45.8716 38.2734 45.6162 38.1031 45.4459C36.1825 43.5348 34.8391 41.1033 33.9971 38.5394C33.7227 37.6974 33.4957 36.8365 33.3254 35.9661C33.2781 35.7201 33.2308 35.4741 33.2024 35.2281C34.3093 34.2726 35.3121 33.0521 36.2109 31.8317Z" fill="black"/>
<path d="M30.1452 21.7747C32.0185 21.3584 33.5606 19.9582 34.2985 18.2174C34.9986 17.6592 35.6609 17.0821 36.1718 16.3347C36.1907 16.3063 36.2191 16.2779 36.238 16.2401C36.2475 16.2211 36.2569 16.2022 36.2664 16.1833C37.0232 14.8588 36.9381 13.2504 35.8879 12.1151C35.4244 11.6137 34.7621 11.1974 34.0809 11.046C34.062 10.1851 33.9674 9.22956 33.5133 8.51053C32.8226 7.41307 31.5076 6.86435 30.2398 6.94003C29.8425 6.01287 29.114 5.256 28.13 4.96271C27.1745 4.67889 26.1433 4.83026 25.2918 5.32222C24.3552 4.09231 22.7468 3.42059 21.2047 3.77064C19.8234 4.08285 18.7543 5.12355 18.2434 6.40076C17.0135 5.51144 15.197 5.60605 14.0807 6.65621C13.0021 7.66852 12.7278 9.39986 13.3522 10.7149C11.3276 11.5096 10.0693 14.0168 10.7694 16.1076C11.4884 18.2268 14.0901 19.3716 16.1431 18.5674C16.7297 20.2609 18.2056 21.6422 19.9842 21.9923C20.7127 22.1342 21.4601 22.1153 22.1697 21.9355C22.9076 22.91 24.1943 22.9951 25.3769 22.9951C25.6891 23.6385 25.9824 24.2913 26.3136 24.9346C26.5595 25.4171 26.9474 25.7198 27.5151 25.5495C28.026 25.3982 28.3855 24.8967 28.3382 24.3669C28.2814 23.7709 28.0544 23.137 27.8746 22.541C28.2341 22.3802 28.5747 22.172 28.8774 21.9071C29.2843 21.9166 29.7195 21.8787 30.1452 21.7747ZM20.1356 21.0651C18.4894 20.6867 17.1554 19.3905 16.7202 17.7633C16.6824 17.6119 16.4932 17.4794 16.3323 17.5551C14.6389 18.3971 12.302 17.6308 11.5357 15.8616C10.7126 13.9884 12.1223 11.8124 14.0428 11.4339C14.3266 11.3772 14.478 10.8758 14.3077 10.6582C13.5225 9.64584 13.5414 8.04695 14.6105 7.23332C15.6606 6.41968 17.2311 6.62782 18.1394 7.54553C18.4043 7.81989 18.6976 7.33739 18.7449 7.12925C19.0192 5.85203 20.164 4.83026 21.4412 4.64104C22.7752 4.44236 24.1092 5.12355 24.8377 6.23047C24.9323 6.38184 25.1309 6.40076 25.2729 6.29669C26.8528 5.20869 28.9815 5.86149 29.6343 7.66852C29.6722 7.78205 29.7857 7.9145 29.9276 7.89558C31.0818 7.76313 32.3969 8.21725 32.9645 9.29579C33.3146 9.95805 33.3335 10.8568 33.3335 11.5948C33.3335 11.7083 33.4187 11.8975 33.5511 11.9164C35.3581 12.1908 36.6543 14.1019 35.6609 15.7954C35.3108 16.3347 34.8378 16.7793 34.3364 17.1861C34.1377 17.347 33.8822 17.4889 33.7403 17.7065C33.6079 17.9146 33.5417 18.1795 33.4187 18.3971C32.8983 19.3338 32.0752 20.0906 31.1102 20.5353C29.0761 21.4719 26.6636 20.8853 25.1593 19.277C25.0363 19.154 24.7998 19.2392 24.7052 19.3527C23.6645 20.7245 21.848 21.4435 20.1356 21.0651ZM24.9039 20.2988C25.6986 21.0651 26.7014 21.576 27.7705 21.7936C27.657 21.8598 27.5435 21.9071 27.4299 21.9544C27.3732 21.9639 27.3259 21.9828 27.2691 22.0112C26.8623 22.1531 26.4176 22.2193 25.973 22.2477C25.8689 22.1909 25.727 22.2004 25.604 22.2572C25.5567 22.2572 25.5094 22.2572 25.4715 22.2572C24.5917 22.2572 23.6929 22.2193 23.0874 21.6044C23.778 21.3111 24.393 20.857 24.9039 20.2988ZM27.2407 23.8277C27.2975 24.0547 27.3732 24.2818 27.4205 24.5183C27.4772 24.7643 27.4583 24.8684 27.2313 24.6791C26.9664 24.4615 26.815 23.8844 26.6731 23.5817C26.569 23.3641 26.4649 23.1559 26.3609 22.9383C26.569 22.91 26.7771 22.8816 26.9758 22.8343C27.061 23.1654 27.1556 23.4965 27.2407 23.8277Z" fill="black"/>
</svg>
