<svg width="41" height="38" viewBox="0 0 41 38" fill="none" xmlns="http://www.w3.org/2000/svg">
<path d="M38.8132 7.68714C37.5458 5.79824 35.616 4.37543 33.4164 3.77032C28.8618 2.51106 23.4731 5.02959 21.6169 9.40432C21.208 6.02719 19.4091 2.74001 16.3754 1.09643C12.5894 -0.964194 7.77312 0.041584 4.58407 2.76455C1.12517 5.71646 -0.305814 10.5491 0.0539771 14.9811C0.446476 19.7974 2.826 24.3683 5.88422 28.0317C8.81161 31.5151 12.5731 34.3035 16.5308 36.5031C17.1195 36.8302 17.7246 37.1491 18.3297 37.4516C18.3297 37.4516 18.3297 37.4516 18.3379 37.4516C18.3951 37.4925 18.4769 37.5007 18.5832 37.4762C23.4649 36.127 28.1994 34.0254 32.0999 30.7464C34.921 28.3751 37.2269 25.3986 38.6906 22.0133C39.8108 19.4294 40.4487 16.6165 40.4977 13.7954C40.5386 11.6285 40.0316 9.50244 38.8132 7.68714ZM38.3553 21.1793C37.1124 24.3356 35.1172 27.1485 32.6232 29.4463C29.2052 32.5945 24.9777 34.7205 20.5866 36.1433C19.9569 36.3477 19.3191 36.5358 18.6813 36.7157C14.6664 34.6878 10.8395 32.0957 7.71588 28.8412C4.66584 25.6603 2.19636 21.6536 1.17423 17.3361C0.160275 13.084 0.749025 8.30859 3.49652 4.80063C6.02323 1.57887 10.5533 -0.0892485 14.5274 1.1782C18.4524 2.43746 20.791 6.47693 21.0118 10.4428C21.0363 10.9334 21.0363 11.4241 21.0036 11.9147C20.9709 12.3726 21.6496 12.1273 21.6823 11.7757C22.1566 6.85308 27.4962 3.54137 32.1735 4.31819C34.3486 4.67798 36.3438 5.85547 37.7257 7.57266C39.124 9.30619 39.8027 11.4486 39.8108 13.6646C39.8272 16.224 39.2957 18.7998 38.3553 21.1793Z" fill="black"/>
<path d="M29.467 14.8666C25.7056 18.1865 21.9441 21.4982 18.1827 24.8181C16.2856 22.8147 14.3967 20.8195 12.4996 18.8161C12.1726 18.4727 11.8128 19.1841 12.0744 19.4703C14.0287 21.5309 15.9749 23.5915 17.9292 25.6521C18.0437 25.7666 18.199 25.7503 18.3053 25.6521C22.1404 22.275 25.9673 18.8979 29.8023 15.5208C30.0967 15.2509 29.8514 14.5313 29.467 14.8666Z" fill="black"/>
</svg>
