<svg width="41" height="33" viewBox="0 0 41 33" fill="none" xmlns="http://www.w3.org/2000/svg">
<path d="M27.1346 22.9085C26.8942 23.0275 26.4716 23.2281 26.3201 22.8923C25.9033 22.128 25.6349 22.0989 24.8613 22.3891C24.6313 22.4502 24.3867 22.6086 24.1472 22.5623C24.1246 21.9066 24.0245 21.2067 23.2782 21.8798C22.7964 22.312 22.4126 23.1705 21.666 23.1031C21.5319 22.9592 21.77 21.9874 21.877 21.8381C21.9726 21.6422 22.0529 21.4391 22.1397 21.2393C22.1755 21.0986 22.3507 20.928 22.2422 20.7901C21.938 20.5325 21.6007 21.8349 21.4941 22.0127C21.2225 22.43 20.5761 23.1827 20.1205 23.3745C19.7642 23.407 20.4141 21.6888 20.4433 21.4576C20.8174 21.2546 21.3115 21.0585 21.336 20.5672C21.4232 20.2054 21.0575 20.0803 20.8148 20.3108C20.5305 20.5697 20.3275 20.9056 20.2305 21.2776C19.4079 21.6651 18.6787 22.0994 18.1009 22.8171C18.2549 22.3034 18.393 21.7845 18.5716 21.2785C19.1025 20.8823 19.721 20.496 20.0358 19.8953C20.1643 19.4702 20.7278 18.3696 19.8778 18.4309C19.3953 18.4871 19.1341 18.9248 18.9876 19.3434C18.7303 19.9147 18.5201 20.5061 18.3591 21.1116C17.7662 21.4499 17.22 21.8756 16.588 22.141C16.0991 22.3231 15.6278 22.5618 15.113 22.6639C14.6325 22.7668 14.1553 22.9351 13.6629 22.9895C13.6312 22.9913 13.6012 23.0048 13.5789 23.0275C13.5566 23.0501 13.5435 23.0802 13.5422 23.112C13.5408 23.1437 13.5513 23.1749 13.5717 23.1993C13.592 23.2237 13.6207 23.2397 13.6522 23.2442C14.0051 23.2043 14.3536 23.1324 14.6934 23.0293C15.1587 22.9354 15.6149 22.8009 16.0568 22.6274C16.8266 22.34 17.5573 21.9571 18.2317 21.4877C18.0244 22.1029 17.8564 22.7307 17.7286 23.3672C17.6988 23.5243 17.4706 23.9268 17.6885 24.0021C17.8694 24.0366 17.8534 23.8049 17.9012 23.6908C17.9736 23.2909 18.2671 23.0069 18.5372 22.7259C18.9566 22.2156 19.554 21.9081 20.1323 21.6125C19.9979 22.135 19.8009 22.6513 19.7543 23.1917C19.8791 24.356 21.1015 22.9113 21.4159 22.5568C21.1084 23.7678 22.2245 23.4298 22.7554 22.8541C23.0951 22.5333 23.3204 22.0426 23.7708 21.8641C23.9664 22.085 23.7531 22.5977 24.0129 22.7808C24.3991 22.9431 24.8068 22.6326 25.184 22.5513C25.5211 22.4417 25.6597 22.4097 25.903 22.7022C26.2205 23.1851 26.2888 23.4829 26.9653 23.262C27.2222 23.1553 27.4698 23.0275 27.7056 22.88C27.7342 22.862 27.7546 22.8336 27.7626 22.8008C27.7706 22.768 27.7655 22.7334 27.7485 22.7043C27.6215 22.5196 27.2966 22.8613 27.1346 22.9085ZM21.0901 20.4465C21.1133 20.7873 20.8304 20.9681 20.5611 21.1045C20.6774 20.8556 20.8285 20.5635 21.0901 20.4465ZM18.7618 20.656C18.9215 20.1362 19.1194 19.6289 19.3537 19.1383C19.397 19.0298 19.4652 18.933 19.5528 18.8558C19.6404 18.7785 19.745 18.7229 19.858 18.6935C19.9281 18.6812 20.0396 18.6569 20.0799 18.7336C20.0737 19.1143 19.9119 19.4832 19.7813 19.8373C19.5272 20.272 19.0851 20.5609 18.7019 20.8742C18.7225 20.8014 18.7422 20.7286 18.7618 20.656ZM20.114 23.3769C20.114 23.3769 20.1107 23.3769 20.1068 23.3769L20.1161 23.3761L20.114 23.3769Z" fill="#1A1A1A"/>
<path d="M40.0142 24.4202C39.3163 24.5417 38.6385 24.7465 37.9529 24.919C37.5178 25.0382 37.087 25.1766 36.6639 25.3332C36.3166 25.4817 35.9827 25.6595 35.6657 25.8648C35.6873 25.8341 35.7087 25.8033 35.7293 25.7721C35.8124 25.6585 35.9158 25.5356 36.0029 25.4197C36.1635 25.1763 36.3113 24.9255 36.4837 24.6894C36.5962 24.5009 36.676 24.2959 36.7759 24.1008C36.8603 23.9531 36.9322 23.7984 36.9907 23.6386C36.9979 23.6449 37.0052 23.6512 37.0127 23.6571C37.1478 23.708 37.2931 23.7263 37.4366 23.7105C38.1224 23.7277 38.7396 23.3252 39.2535 22.9079C39.525 22.7157 39.7591 22.4754 39.9441 22.1989C39.9928 22.1239 40.039 22.048 40.0889 21.9741C40.4266 22.0582 40.5047 21.5555 40.1932 21.4404C40.1402 21.4147 40.0801 21.4076 40.0226 21.4205C39.965 21.4333 39.9136 21.4652 39.8765 21.511C39.8395 21.5569 39.8191 21.6139 39.8186 21.6728C39.8182 21.7317 39.8377 21.7891 39.874 21.8355C39.8616 21.8548 39.8493 21.8738 39.8365 21.8918C39.5406 22.4274 39.0249 22.7834 38.5302 23.1194C38.1662 23.3141 37.7766 23.4936 37.3538 23.4547C37.2747 23.4711 37.1923 23.456 37.1242 23.4126C37.4382 23.1938 37.7145 22.9251 37.942 22.6173C38.0423 22.4875 38.1558 22.3677 38.2602 22.2409C38.3763 22.0738 38.4826 21.9 38.5784 21.7204C38.7025 21.5355 38.8087 21.3393 38.8958 21.1343C39.0055 20.9443 39.0985 20.745 39.1736 20.5388C39.2364 20.3886 39.31 20.2431 39.3937 20.1035C39.4677 19.9425 39.5192 19.7721 39.5838 19.607C40.0004 19.6476 39.7737 19.0188 39.4163 19.1574C39.2187 19.2124 39.2322 19.4027 39.3458 19.5134C39.3285 19.5593 39.3122 19.6057 39.2949 19.6516C39.2112 19.885 39.108 20.1108 38.9865 20.3268C38.9045 20.551 38.8045 20.7681 38.6875 20.9761C38.5442 21.2805 38.3823 21.576 38.2029 21.8607C38.0751 22.0635 37.9284 22.2537 37.7646 22.4287C37.6123 22.6389 37.4357 22.8304 37.2386 22.9992C37.3886 22.6422 37.5273 22.177 37.6143 21.8956C37.6594 21.8849 37.7005 21.8615 37.7326 21.8281C37.7647 21.7947 37.7864 21.7527 37.7953 21.7073C37.8042 21.6618 37.7998 21.6148 37.7826 21.5718C37.7654 21.5288 37.7362 21.4916 37.6984 21.4648C37.6564 21.4354 37.6078 21.4167 37.5569 21.4103C37.5059 21.4039 37.4542 21.4101 37.4063 21.4283C37.3776 21.4501 37.3539 21.4776 37.3365 21.5092C37.319 21.5407 37.3084 21.5754 37.3051 21.6113C37.3019 21.6471 37.3061 21.6833 37.3176 21.7174C37.329 21.7515 37.3475 21.7829 37.3717 21.8095C37.3439 21.9106 37.321 22.0137 37.2871 22.1121C37.1897 22.3854 37.1086 22.6623 36.9907 22.9277C36.9708 22.9699 36.9497 23.0113 36.9281 23.0523C36.9356 22.6984 36.9615 22.3451 37.0057 21.9939C37.0451 21.4364 37.2123 20.897 37.336 20.3538C37.4606 19.7267 37.6173 19.1063 37.8054 18.4952C37.8463 18.4867 37.8846 18.4687 37.9172 18.4426C37.9498 18.4164 37.9758 18.383 37.993 18.3449C38.0166 18.263 38.008 18.1752 37.9691 18.0993C37.9302 18.0235 37.8639 17.9653 37.7836 17.9367C37.7297 17.9217 37.6725 17.9231 37.6195 17.9409C37.5664 17.9587 37.5199 17.992 37.486 18.0365C37.3399 18.1415 37.4314 18.3431 37.5548 18.43C37.5378 18.5159 37.514 18.6004 37.4834 18.6825C37.3486 19.1462 37.2339 19.6184 37.1242 20.0886C37.0415 20.5361 36.9223 20.9592 36.8257 21.4064C36.7155 22.0503 36.667 22.7033 36.6806 23.3565L36.6658 23.3537C36.3063 23.0484 36.1352 22.3961 36.0955 21.9379C36.0536 21.3956 36.1854 20.8571 36.2 20.3148C36.2008 20.3061 36.2014 20.2971 36.2021 20.2884C36.5054 20.2519 36.443 19.8477 36.1349 19.8299C35.8617 19.8071 35.8328 20.0475 35.9533 20.1903C35.9278 20.7054 35.8484 21.2155 35.8262 21.7303C35.8307 22.0949 35.9007 22.4557 36.033 22.7955C36.0838 22.9828 36.1695 23.1587 36.2857 23.3141C36.3321 23.3954 36.3953 23.466 36.4711 23.521C36.5469 23.5761 36.6335 23.6144 36.7252 23.6334C36.7218 23.642 36.7179 23.6504 36.7135 23.6585C36.5519 24.0113 36.3725 24.3555 36.176 24.69C36.0171 24.8776 35.9228 25.1079 35.7726 25.3021C35.624 25.4824 35.4849 25.6703 35.3558 25.8651C35.2487 25.9917 35.1396 26.1169 35.0228 26.2342C35.1273 25.8943 35.207 25.5038 35.2304 25.3858C35.4059 24.605 35.4477 23.8001 35.354 23.0052C35.2909 22.3623 35.2657 21.7143 35.1533 21.077C35.1094 20.8121 35.0801 20.5439 35.0223 20.2817C34.9481 20.1155 34.7595 20.2066 34.7593 20.3629C34.6556 20.786 34.5918 21.2174 34.4975 21.6427C34.3891 22.1206 34.3096 22.6046 34.2593 23.0921C34.2544 23.1111 34.2497 23.1302 34.245 23.1494C34.2486 22.1781 34.2494 21.2067 34.2474 20.2351C34.2799 19.6234 34.2286 19.0113 34.2352 18.3977C34.2643 17.8028 34.219 17.2092 34.2328 16.6145C34.2428 16.0528 34.2243 15.4908 34.1775 14.9309C34.1335 14.4627 34.1062 13.9769 33.9218 13.5388C33.8407 13.2752 33.7535 13.0118 33.4945 12.8699C33.4363 12.8333 33.376 12.8001 33.3138 12.7706C33.5186 12.6048 33.6918 12.4034 33.8249 12.1761C34.0632 11.8405 34.1763 11.4321 34.1445 11.0217C34.0967 10.7807 33.9923 10.5544 33.8399 10.3616C33.8066 10.3114 33.7686 10.2645 33.7262 10.2216C33.8754 10.1137 34.0037 9.97946 34.1048 9.82554C34.3911 9.41717 34.4964 8.86257 34.2362 8.41574C34.1115 8.19848 33.9216 8.02593 33.6935 7.92248C33.4911 7.81987 33.265 7.77328 33.0385 7.78756C32.8121 7.80183 32.5936 7.87643 32.4057 8.00364C32.3661 7.8054 32.2715 7.62231 32.1327 7.47533C32.029 7.33147 31.8823 7.22437 31.7136 7.16954C31.4223 7.08816 31.1122 7.10622 30.8323 7.22086C30.5524 7.3355 30.3187 7.54018 30.1681 7.80254C30.078 7.93748 30.0108 8.08637 29.9692 8.2432C29.8252 8.16172 29.6676 8.10721 29.5041 8.08235C29.5366 8.02879 29.5665 7.97442 29.5973 7.92005C29.7388 7.65094 29.9247 7.41024 30.0745 7.14617C30.2564 6.81587 30.3972 6.46447 30.5776 6.1332C30.8945 5.43431 31.2647 4.75456 31.522 4.03051C31.683 3.54488 31.8831 3.07127 31.9292 2.55643C32.0632 1.96043 32.2051 1.06157 31.4436 1.94907C30.5279 2.94811 29.6716 4 28.8791 5.0993C28.2701 6.06033 27.7048 7.07637 27.3924 8.17649C27.2839 8.49428 27.2096 8.82269 27.1705 9.15619C27.1689 9.21121 27.1554 9.27369 27.1525 9.33358C27.1093 9.34903 27.0673 9.36781 27.027 9.38974C27.0147 9.08396 26.9765 8.77947 26.9673 8.47271C26.9616 7.51818 26.6985 6.59367 26.6446 5.64352C26.8066 5.57085 26.9648 5.48997 27.1185 5.40119C27.6368 5.1126 28.1042 4.74096 28.5022 4.30107C28.7267 4.06118 29.0011 3.8531 29.1135 3.5319C29.2079 3.35504 29.2744 3.16461 29.3105 2.96739C29.3868 2.95897 29.4592 2.92956 29.5198 2.88242C29.5803 2.83528 29.6266 2.77227 29.6535 2.70039C29.6423 2.55432 29.4816 2.44979 29.3478 2.42025C29.1761 2.4097 28.9078 2.42155 28.8395 2.61096C28.8293 2.64842 28.8268 2.68755 28.8322 2.72599C28.8375 2.76443 28.8507 2.80138 28.8707 2.83461C28.8908 2.86783 28.9174 2.89665 28.9489 2.9193C28.9804 2.94196 29.0162 2.95799 29.0541 2.96642C29.0453 3.00537 29.0318 3.04335 29.0205 3.08182C28.9575 3.27901 28.8727 3.46856 28.7678 3.64697C28.6227 3.81756 28.4692 3.98078 28.3078 4.13601C27.8979 4.58728 27.4116 4.96266 26.8712 5.24489C26.9686 5.05499 27.0304 4.84951 27.1327 4.66058C27.6157 3.39556 27.5806 2.02552 27.4998 0.694435C27.7895 0.640386 28.0077 0.477591 27.7561 0.165149C27.7131 0.111609 27.6565 0.0705834 27.5922 0.046347C27.528 0.0221106 27.4584 0.0155505 27.3907 0.0273501C27.2782 -0.0132666 27.1544 -0.00849293 27.0453 0.0406594C26.9821 0.0550662 26.9247 0.0883342 26.8808 0.136064C26.8368 0.183793 26.8084 0.243736 26.7993 0.307962C26.7902 0.372189 26.8007 0.437673 26.8296 0.495755C26.8585 0.553838 26.9044 0.601782 26.9611 0.633245C27.0477 0.684054 27.1456 0.712242 27.246 0.71521C27.249 0.757735 27.2523 0.800096 27.2546 0.842621C27.3016 1.82166 27.3375 2.81158 27.1336 3.77731C27.0517 4.13566 26.9308 4.48398 26.7732 4.81608C26.7329 4.95784 26.6694 5.09191 26.585 5.21276C26.5999 4.70955 26.5802 4.20591 26.5261 3.7054C26.5195 3.64454 26.5125 3.58367 26.5057 3.52281C26.7094 3.51031 26.9139 3.44863 26.9621 3.29671C26.9695 3.1807 26.9395 3.06536 26.8765 2.96762C26.8136 2.86989 26.721 2.79489 26.6123 2.75363C26.3443 2.60398 25.8232 2.64343 25.8099 3.02809C25.8078 3.12982 25.8381 3.22957 25.8965 3.31292C25.9548 3.39628 26.0382 3.45892 26.1345 3.49181C26.1714 3.50178 26.2089 3.50915 26.2468 3.51388C26.2981 3.90719 26.3269 4.30311 26.333 4.6997C26.3167 4.9107 26.337 5.12057 26.3237 5.33108C26.3237 5.35283 26.3237 5.37717 26.3219 5.40233C26.1656 5.3478 26.0582 5.18451 25.9402 5.07285C25.6938 4.71025 25.3963 4.38012 25.2069 3.98133C24.8535 3.20533 24.7307 2.34689 24.668 1.50143C24.8691 1.43797 25.0332 1.25797 24.8349 1.06855C24.6787 0.895047 24.425 0.954939 24.2588 1.08008C24.0439 1.24498 24.1939 1.47595 24.4091 1.51604C24.4298 1.81779 24.4662 2.11825 24.5182 2.41619C24.6193 3.29444 24.9027 4.17236 25.4724 4.86071C25.627 5.09547 25.8066 5.31278 26.008 5.50881C25.8024 5.45746 25.6029 5.38417 25.413 5.29018C25.2669 5.23676 25.1253 5.17162 24.9897 5.09541C24.5761 4.82111 24.2204 4.46816 23.943 4.05664C23.6414 3.6658 23.3077 3.29266 23.1258 2.827C23.1143 2.80297 23.1018 2.77976 23.0884 2.75688C23.1655 2.71021 23.2278 2.64269 23.2681 2.56211C23.3374 2.33179 23.0315 2.22126 22.8502 2.27271C22.4645 2.35565 22.2782 2.72718 22.7705 2.82975C22.792 2.83292 22.8137 2.83439 22.8354 2.83414C22.8456 2.84939 22.855 2.864 22.8625 2.87747C23.0975 3.46032 23.5228 3.91916 23.8953 4.41745C24.0858 4.68629 24.3194 4.92178 24.5867 5.1144C24.8064 5.29882 25.0584 5.44091 25.3299 5.53348C25.5944 5.67001 25.8815 5.7576 26.1772 5.79203C26.2499 5.80453 26.3244 5.80381 26.3969 5.78992C26.4403 6.39971 26.5644 6.99911 26.6508 7.60404C26.7008 7.92638 26.6873 8.25327 26.7176 8.57788C26.7266 8.91629 26.7756 9.2513 26.7766 9.58955C26.7771 9.595 26.778 9.60041 26.7792 9.60577C26.7543 9.63987 26.7325 9.67616 26.7142 9.7142C26.6849 9.68995 26.6544 9.66725 26.6227 9.64619C26.6029 9.60805 26.5691 9.57494 26.5495 9.53663C26.4577 9.33054 26.3539 9.13002 26.2387 8.93609C25.8167 8.22071 25.3386 7.53996 24.8089 6.90027C24.4885 6.48407 24.1304 6.0983 23.7391 5.74788C23.3378 5.25877 22.8676 4.83047 22.3433 4.47637C22.2599 4.4293 22.1842 4.34652 22.0846 4.34165C21.9528 4.34749 21.9489 4.48968 21.9726 4.5882C22.0173 4.97488 22.1072 5.355 22.2404 5.72078C22.3756 6.28626 22.6643 6.79704 22.8656 7.33996C23.2799 8.28532 23.8721 9.14218 24.6101 9.86385C24.619 9.87212 24.6281 9.88008 24.6377 9.88949C24.5811 9.95942 24.5389 10.0398 24.5133 10.126L24.4981 10.167C24.3953 10.1101 24.2789 10.0824 24.1615 10.087C23.9659 10.1159 23.779 10.187 23.6137 10.2953C23.4038 10.4629 23.2466 10.6876 23.161 10.9422C23.0033 10.8481 22.8165 10.8152 22.6361 10.8497C22.4557 10.8842 22.2943 10.9837 22.1824 11.1294C22.0784 10.9955 21.9294 10.9039 21.763 10.8715C21.6053 10.8279 21.4397 10.8202 21.2786 10.849C21.1175 10.8777 20.9648 10.9422 20.8319 11.0377C20.7858 11.0742 20.7106 11.1274 20.6452 11.1884C20.6374 11.1745 20.629 11.1607 20.6202 11.1474C20.4255 10.8422 20.0151 10.7851 19.687 10.8685C19.5062 10.9296 19.3428 11.0335 19.2109 11.1714C19.1308 10.9845 18.9943 10.8272 18.8206 10.7215C18.7043 10.6214 18.5678 10.5476 18.4203 10.5053C18.2716 10.4725 18.1189 10.4612 17.967 10.472C17.7793 10.5143 17.6044 10.6008 17.4569 10.7244C17.3095 10.848 17.1937 11.005 17.1192 11.1824C17.0073 11.0901 16.8705 11.0329 16.7262 11.0179C16.5818 11.0029 16.4363 11.0309 16.3077 11.0982C16.2311 11.1367 16.1602 11.1854 16.0967 11.243C16.0247 11.1368 15.9469 11.0347 15.8638 10.937C15.7057 10.7739 15.4911 10.6775 15.2641 10.6676C15.095 10.637 14.9211 10.6454 14.7557 10.6921C14.5175 10.7854 14.3132 10.949 14.1703 11.1612C14.0985 11.0811 14.0075 11.0206 13.9058 10.9856C13.8042 10.9505 13.6953 10.942 13.5894 10.9609C13.4991 10.9583 13.4094 10.9754 13.3263 11.0109C13.2433 11.0464 13.169 11.0995 13.1085 11.1665C12.827 10.5874 11.983 10.524 11.5052 10.8924C11.4565 10.9357 11.3591 10.9981 11.2812 11.0683C10.989 10.6734 10.3947 10.7504 10.0996 11.1445C9.91872 10.9506 9.67183 10.8314 9.40751 10.8104C9.14318 10.7893 8.88056 10.868 8.6713 11.0308C8.54951 11.1183 8.45136 11.2346 8.38564 11.3694C8.27155 11.2754 8.13434 11.2138 7.98831 11.1909C7.69615 11.1521 7.39944 11.213 7.14625 11.3639C6.91659 11.5218 6.64667 11.656 6.53403 11.9284C6.46752 12.0848 6.41636 12.2473 6.3813 12.4135C6.36497 12.5622 6.39495 12.7123 6.46716 12.8433C6.29811 12.9292 6.1535 13.0564 6.04678 13.2131C5.80868 13.5864 5.77086 14.036 6.07632 14.3841C5.96496 14.4458 5.87296 14.5373 5.81058 14.6482C5.74821 14.7592 5.71794 14.8854 5.72314 15.0126C5.74054 15.1189 5.7959 15.2152 5.87896 15.2838C5.71603 15.4159 5.59251 15.5902 5.52188 15.7878C5.41772 15.9877 5.38343 16.2168 5.42449 16.4384C5.51246 16.807 5.66633 17.0602 6.0747 17.0877C6.20772 17.1028 6.3424 17.0834 6.4657 17.0312C6.57967 16.9589 6.68448 16.8731 6.77781 16.7756C6.78755 17.4053 6.80681 18.0348 6.8356 18.6642C6.8175 19.2744 6.84604 19.8851 6.92097 20.4909C6.97287 21.0944 6.98252 21.7007 6.94986 22.3055C6.98135 22.8384 6.96885 23.3711 6.95992 23.9041C6.88607 23.4229 6.79762 22.9432 6.72182 22.4631C6.63498 22.0598 6.52705 21.6743 6.46213 21.2637C6.41791 21.0439 6.35547 20.8281 6.27547 20.6187C6.22159 20.4916 6.18945 20.1894 5.98868 20.3046C5.92716 20.3517 5.93057 20.4364 5.91174 20.5051C5.81289 20.8773 5.7332 21.2543 5.67299 21.6347C5.4821 22.443 5.41301 23.2753 5.46799 24.1041C5.50224 24.4069 5.58761 24.701 5.63208 25.0024C5.6756 25.1771 5.73374 25.3478 5.80592 25.5127C5.14072 24.8872 4.57829 24.1606 4.13934 23.3599C4.12003 23.324 4.10087 23.2878 4.08205 23.2518C4.12798 23.2054 4.16758 23.1447 4.20897 23.1047C4.39344 22.871 4.55487 22.6199 4.69103 22.355C4.94098 21.9683 5.01564 21.5164 5.11725 21.0761C5.24744 20.5192 5.26043 19.9414 5.15539 19.3793C5.21371 19.3341 5.25975 19.275 5.28929 19.2074C5.44316 18.899 5.0567 18.9162 4.86567 18.9732C4.64055 19.0401 4.51103 19.4114 4.81827 19.4566C4.84706 19.4632 4.87653 19.4665 4.90608 19.4663C5.01438 20.0568 4.98314 20.6644 4.81487 21.2406C4.76781 21.559 4.66618 21.8668 4.51443 22.1505C4.39433 22.3331 4.30587 22.535 4.18511 22.7165C4.27177 22.4084 4.33953 22.0952 4.388 21.7789C4.40682 21.6417 4.54738 21.0136 4.50015 20.699C4.69817 20.6086 4.65256 20.3108 4.39952 20.2256C4.24306 20.1903 3.90221 20.1572 3.96421 20.4116C3.9883 20.4762 4.02538 20.5353 4.07317 20.5851C4.12096 20.6348 4.17845 20.6743 4.24208 20.701C4.25327 21.0199 4.22321 21.339 4.15265 21.6503C4.09909 21.9402 4.04812 22.2302 3.97995 22.5172C3.96702 22.575 3.95076 22.6321 3.93126 22.6881C3.88565 22.4972 3.86894 22.2997 3.80937 22.1122C3.74964 21.9303 3.69516 21.7467 3.64593 21.5612C3.52679 21.0791 3.43071 20.59 3.27489 20.1181C3.17377 19.8924 3.13303 19.6466 3.03695 19.4202C2.96931 19.2242 2.91253 19.0247 2.86685 18.8224C2.77742 18.579 2.69123 18.3347 2.59872 18.0933C2.6405 18.054 2.66624 18.0005 2.67097 17.9433C2.67571 17.8861 2.6591 17.8292 2.62436 17.7835C2.59953 17.6752 2.48023 17.6781 2.39259 17.6978C2.21194 17.7176 2.05352 17.9463 2.16438 18.111C2.18793 18.1425 2.21901 18.1676 2.25477 18.1839C2.29054 18.2003 2.32983 18.2073 2.36905 18.2045C2.42099 18.3436 2.47358 18.4824 2.52 18.6238C2.61965 18.8961 2.70471 19.1737 2.77482 19.4551C2.84281 19.6273 2.9017 19.803 2.95125 19.9815C3.03248 20.182 3.09841 20.3885 3.14845 20.599C3.23496 20.9074 3.30378 21.2205 3.37568 21.5326C3.43606 21.7915 3.52176 22.0324 3.59545 22.2892C3.63002 22.4571 3.65096 22.6277 3.69592 22.7936C3.38027 22.4124 3.10234 22.0014 2.86604 21.5666C2.78666 21.4013 2.69818 21.2406 2.60099 21.0851C2.4726 20.7894 2.33123 20.4986 2.22606 20.1934C2.21859 20.1735 2.20983 20.154 2.20155 20.1345C2.35704 19.9758 2.39632 19.6801 2.10416 19.6687C2.03344 19.6662 1.96325 19.6817 1.90022 19.7139C1.8372 19.7461 1.78343 19.7938 1.744 19.8526C1.72879 19.8914 1.72242 19.933 1.72535 19.9746C1.72827 20.0161 1.74042 20.0565 1.76091 20.0927C1.7814 20.129 1.80972 20.1602 1.8438 20.1842C1.87788 20.2081 1.91687 20.2241 1.95793 20.2311C2.06716 20.503 2.18321 20.7737 2.3025 21.0415C2.37684 21.2471 2.51545 21.418 2.60634 21.6152C2.78721 21.9874 3.0111 22.3371 3.27343 22.6571C3.29583 22.6845 3.3179 22.7131 3.33965 22.7421C3.20839 22.6228 3.08576 22.4943 2.97267 22.3576C2.67069 22.0362 2.39231 21.6933 2.13971 21.3317C1.98844 21.0587 1.81509 20.8001 1.63996 20.5424C1.55362 20.4288 1.47977 20.308 1.40348 20.1881C1.29414 20.0492 1.1955 19.9022 1.10841 19.7484C0.923051 19.4549 0.792394 19.1316 0.591132 18.8481C0.55979 18.8 0.531021 18.7503 0.504947 18.6992C0.519667 18.6718 0.527539 18.6413 0.527891 18.6102C0.528243 18.5791 0.521064 18.5483 0.506968 18.5206C0.492873 18.4929 0.472279 18.469 0.446942 18.4509C0.421606 18.4329 0.39228 18.4212 0.361467 18.417C0.146409 18.3774 -0.00356307 18.7447 0.221395 18.8318C0.243755 18.842 0.267694 18.8482 0.292161 18.8502C0.319115 18.8867 0.343053 18.9253 0.363739 18.9657C0.56143 19.2404 0.685433 19.5564 0.868192 19.8403C0.957142 20.0101 1.06313 20.1704 1.18453 20.3187C1.3061 20.5215 1.46678 20.7375 1.59809 20.9412C1.76835 21.1661 1.87693 21.4302 2.05531 21.6497C2.25381 21.9027 2.44274 22.169 2.66137 22.4034C2.73979 22.4789 2.81371 22.559 2.88275 22.6431C2.71913 22.5483 2.56484 22.4382 2.42196 22.3143C2.10059 22.024 1.79706 21.7145 1.51304 21.3875C1.20936 21.0863 0.911365 20.7781 0.628138 20.4572C0.585416 20.4047 0.539791 20.3546 0.491476 20.3072C0.509904 20.2735 0.520006 20.2359 0.520938 20.1975C0.521869 20.1591 0.513604 20.121 0.496831 20.0865C0.247527 19.8323 -0.23615 20.2997 0.135697 20.4958C0.163024 20.5084 0.192812 20.5147 0.222888 20.5143C0.252963 20.5138 0.282564 20.5067 0.309528 20.4934C0.726497 20.9478 1.15613 21.3887 1.5817 21.8342C1.94835 22.24 2.34211 22.6659 2.84185 22.904C3.07426 23.0451 3.32006 23.1628 3.57565 23.2555C3.36735 23.2959 3.1526 23.2883 2.94768 23.2333C2.33691 23.0932 1.9576 22.7585 1.50233 22.3568C1.36096 22.2203 1.22511 22.0783 1.0813 21.9441C1.10003 21.9194 1.11251 21.8906 1.11768 21.8601C1.12286 21.8296 1.12056 21.7982 1.111 21.7688C1.00193 21.5185 0.557859 21.7321 0.65849 21.9749C0.675409 22.0095 0.702733 22.0379 0.736621 22.0561C0.770509 22.0743 0.809257 22.0815 0.847417 22.0765C0.887344 22.1168 0.935387 22.1513 0.972717 22.1918C1.23287 22.4586 1.5088 22.7096 1.79903 22.9434C2.19155 23.261 2.66337 23.4653 3.16355 23.5344C3.4094 23.5579 3.65712 23.5168 3.88225 23.4152C4.03978 23.729 4.22049 24.0306 4.42289 24.3175C4.743 24.7391 5.08718 25.1419 5.45371 25.5238C5.52723 25.5928 5.59979 25.6637 5.67201 25.7348C5.37228 25.651 5.0646 25.5988 4.754 25.5791C4.44919 25.5295 4.14827 25.4701 3.83729 25.4493C3.19195 25.433 2.53883 25.3816 1.89803 25.4785C1.83019 25.4873 1.76072 25.4845 1.69353 25.4947C1.67204 25.5016 1.65271 25.5139 1.63744 25.5305C1.62217 25.5471 1.61148 25.5674 1.60644 25.5894C1.60139 25.6114 1.60216 25.6343 1.60866 25.6559C1.61517 25.6775 1.62719 25.697 1.64354 25.7125C2.16687 26.1116 2.73218 26.4524 3.32943 26.7289C3.68098 26.8862 4.03157 27.0482 4.38832 27.1931C4.86027 27.3162 5.3452 27.3826 5.83286 27.391C6.17978 27.3983 6.52453 27.3346 6.84599 27.204C6.88848 27.1795 6.93232 27.1575 6.97729 27.1379C6.98032 27.4924 6.98227 27.8469 6.98313 28.2015C7.01585 28.6577 7.01227 29.1157 6.97242 29.5712C6.98865 29.9139 7.13067 30.4152 7.42916 30.6084C7.38014 30.8217 7.39712 31.0449 7.47785 31.2484C7.54002 31.3725 7.628 31.4818 7.73588 31.5691C7.84376 31.6564 7.96906 31.7197 8.10338 31.7546C8.37152 31.8188 8.65404 31.7785 8.8935 31.6418C8.90911 31.635 8.92434 31.6274 8.93911 31.6189C8.96345 31.6588 8.99786 31.6921 9.02399 31.7312C9.08094 31.8212 9.15336 31.9003 9.23791 31.965C9.44691 32.1279 9.69884 32.2266 9.96294 32.2488C10.126 32.2665 10.2909 32.2401 10.4403 32.1724C10.6273 32.0974 10.7913 31.9745 10.9158 31.8161C10.9335 31.853 10.9553 31.8878 10.9808 31.9198C11.0148 31.9922 11.0688 32.0534 11.1363 32.0963C11.3419 32.2297 11.5767 32.3117 11.8207 32.3353C11.9797 32.3572 12.1416 32.3449 12.2955 32.2993C12.4494 32.2538 12.5919 32.176 12.7134 32.0711C12.7363 32.055 12.7575 32.0367 12.7767 32.0164C12.8205 32.1133 12.8847 32.1997 12.9649 32.2695C13.0451 32.3394 13.1394 32.3911 13.2414 32.4212C13.3641 32.4532 13.4893 32.4749 13.6157 32.4861C13.8411 32.5018 14.0645 32.4341 14.2432 32.2957C14.3204 32.2375 14.3897 32.1694 14.4493 32.0932C14.4704 32.1267 14.4938 32.1588 14.5192 32.1891C14.6394 32.3267 14.7913 32.4329 14.9619 32.4985C15.2837 32.5808 15.6239 32.5522 15.9274 32.4173C16.1193 32.3436 16.2795 32.2052 16.3803 32.026C16.495 32.2061 16.6645 32.3448 16.8638 32.4217C17.1864 32.4928 17.5839 32.447 17.8006 32.1727C18.0355 32.3971 18.3416 32.5321 18.6657 32.554C19.2857 32.6161 20.0026 32.0995 19.9012 31.4673C20.0723 31.4621 20.2421 31.4024 20.4147 31.4008C20.828 31.4245 21.2352 31.3383 21.6483 31.3324C22.2753 31.3057 22.9044 31.3503 23.5327 31.3428C24.0487 31.3539 24.5552 31.2963 25.0757 31.3266C25.6141 31.2946 26.1539 31.2976 26.6918 31.3357C27.343 31.3242 27.9931 31.3631 28.6433 31.3755C29.2139 31.35 29.7856 31.3557 30.3556 31.3255C30.6539 31.2863 30.9524 31.2945 31.2525 31.2842C31.7717 31.2378 32.2859 31.1466 32.7894 31.0119C32.8172 31.0064 32.8421 30.9913 32.8599 30.9692C32.9374 30.9293 33.0174 30.8944 33.0994 30.8648C33.3242 30.7656 33.527 30.6227 33.6961 30.4444C33.8651 30.266 33.997 30.0559 34.084 29.8261C34.1363 29.6289 34.1743 29.4282 34.1976 29.2255C34.2075 29.1724 34.2081 29.118 34.1995 29.0647C34.232 28.7914 34.2454 28.5161 34.2395 28.241C34.2395 28.2182 34.2395 28.1955 34.2395 28.1728C34.2873 28.1733 34.3349 28.165 34.3797 28.1481C34.5355 28.1024 34.6946 28.0753 34.8535 28.0446C35.8041 27.7885 36.7195 27.416 37.5789 26.9357C37.8795 26.7682 38.1599 26.5695 38.4429 26.3749C38.9484 25.9827 39.4282 25.5585 39.8795 25.105C40.0431 24.9507 40.1984 24.7872 40.3729 24.6444C40.4205 24.6009 40.4865 24.5684 40.5 24.4995C40.4997 24.2289 40.1691 24.405 40.0142 24.4202ZM31.7203 2.3042C31.6716 2.71132 31.5756 3.11136 31.4341 3.49619C31.1895 4.33272 30.7687 5.0967 30.4174 5.8899C30.2076 6.27003 30.0456 6.6745 29.8344 7.05349C29.6325 7.37356 29.4287 7.69022 29.244 8.02149C29.2282 8.03641 29.2149 8.05365 29.2044 8.07262C28.842 8.1026 28.5047 8.26945 28.261 8.53925C28.3139 8.43105 28.3693 8.32457 28.4271 8.21983C28.703 7.6339 29.0524 7.08692 29.3685 6.5216C29.6444 6.04621 29.8977 5.55863 30.1714 5.08177C30.3251 4.83832 30.4647 4.58622 30.5895 4.32672C30.7078 4.12692 30.8461 3.9401 30.9643 3.74014C31.2137 3.26149 31.4882 2.79307 31.72 2.30388L31.7203 2.3042ZM27.4571 8.93074C27.5684 8.42388 27.7217 7.92718 27.9155 7.44578C28.4623 6.15929 29.204 4.96467 30.1144 3.90391C30.5337 3.38014 30.9584 2.86076 31.4093 2.36507C31.2928 2.60577 31.1581 2.83576 31.025 3.06835C30.849 3.44259 30.6411 3.80099 30.4036 4.13958C29.9057 5.06002 29.3834 5.96781 28.8705 6.88063C28.4715 7.53297 28.1194 8.21292 27.8171 8.91532C27.8041 9.00978 27.7035 9.16462 27.6595 9.29918C27.579 9.28322 27.4967 9.27776 27.4148 9.28294C27.4222 9.16446 27.442 9.04728 27.4568 8.93074H27.4571ZM27.9059 9.38033C27.9059 9.39153 27.9048 9.40273 27.9043 9.41409L27.8996 9.41068C27.9017 9.40046 27.9038 9.39039 27.9056 9.38049L27.9059 9.38033ZM23.4863 5.84868C23.6232 6.00871 23.8029 6.1246 23.9445 6.27993C24.223 6.60357 24.5006 6.92786 24.7773 7.2528C24.9934 7.54885 25.2202 7.83711 25.4333 8.13543C25.6592 8.49575 25.8912 8.85251 26.1088 9.2177C26.1603 9.3047 26.2012 9.3977 26.2439 9.48956C26.1627 9.47122 26.079 9.45824 25.9902 9.44639C25.8572 9.40589 25.7178 9.39059 25.5792 9.40127C25.5774 9.39818 25.5758 9.39526 25.5739 9.39218C25.4826 9.23425 25.3569 9.10003 25.2725 8.93772C24.993 8.43619 24.7141 7.93303 24.4104 7.44562C24.235 7.22018 24.0785 6.98126 23.9073 6.75354C23.7081 6.5369 23.5256 6.30549 23.3613 6.0613C23.2136 5.86166 23.0871 5.6479 22.9555 5.43771C22.8568 5.28948 22.75 5.14676 22.6356 5.0102C22.9489 5.25783 23.2341 5.539 23.4863 5.84868ZM23.9021 8.6566C23.4747 8.04274 23.1283 7.37626 22.8716 6.67369C22.6981 6.31664 22.5603 5.9433 22.4603 5.55912C22.3985 5.37328 22.3394 5.18679 22.2964 4.99624C22.3196 5.0227 22.3412 5.05044 22.3613 5.07934C22.6724 5.4257 22.8864 5.83959 23.1566 6.21549C23.3926 6.58588 23.7169 6.88598 23.9519 7.25718C24.4875 7.93417 24.8165 8.74425 25.3044 9.4524C25.1282 9.50467 24.964 9.59103 24.8211 9.70657C24.4877 9.38091 24.1804 9.02957 23.9021 8.65579V8.6566ZM6.31702 21.8684C6.51768 22.7171 6.67071 23.5764 6.77538 24.4422C6.88072 25.1131 6.84436 25.7963 6.9088 26.473C6.89027 26.4621 6.86926 26.4561 6.84777 26.4556C6.83154 26.4445 6.81661 26.4332 6.80119 26.4217C6.80746 26.4138 6.81259 26.405 6.81644 26.3957C6.84891 26.2542 6.73221 26.1134 6.72409 25.9672C6.69358 25.7745 6.6444 25.5861 6.59749 25.3972C6.56357 25.1719 6.54166 24.945 6.50968 24.7194C6.473 24.3925 6.41132 24.0684 6.38341 23.7407C6.35306 23.406 6.35095 23.0694 6.31394 22.7352C6.27515 22.2984 6.26281 21.86 6.23181 21.4229C6.25957 21.5714 6.2844 21.7211 6.31702 21.8684ZM5.70301 23.2619C5.74954 22.634 5.8406 22.0103 5.97553 21.3953C6.00604 21.7492 6.0174 22.1033 6.03201 22.464C6.09093 22.9812 6.09693 23.5027 6.15569 24.0197C6.26622 24.7429 6.3193 25.4804 6.51861 26.1852C6.48225 26.1527 6.44568 26.121 6.40889 26.0901C6.37135 25.9903 6.31851 25.8969 6.25226 25.8133C6.15359 25.663 6.07261 25.5018 6.01091 25.3329C5.91059 25.0887 5.84355 24.8321 5.8116 24.5701C5.71294 24.1414 5.67637 23.7008 5.70301 23.2617V23.2619ZM3.2262 25.6871C3.4484 25.7033 3.67108 25.6822 3.8928 25.7101C4.20362 25.738 4.50956 25.8054 4.82363 25.8469C5.02207 25.8534 5.21905 25.8832 5.41054 25.9357C5.61326 25.9813 5.81152 26.045 6.00296 26.1258C6.03721 26.142 6.08103 26.1662 6.12696 26.1852C6.25389 26.3053 6.38406 26.4213 6.52121 26.5275C6.51358 26.5275 6.50611 26.5275 6.49832 26.5275C6.20617 26.5036 5.91531 26.4702 5.62186 26.4541C5.3954 26.4228 5.17133 26.3761 4.9512 26.3144C4.63584 26.2745 4.33573 26.1667 4.02297 26.1128C3.79216 26.0751 3.57532 25.9855 3.34906 25.9297C3.21922 25.8995 3.08791 25.881 2.96082 25.8421C2.88227 25.8216 2.6638 25.739 2.44469 25.6798C2.70519 25.6713 2.96634 25.6858 3.2262 25.6869V25.6871ZM4.93919 27.0474C4.73874 27.0247 4.54172 26.9781 4.35229 26.9088C4.09195 26.7876 3.8295 26.6713 3.56493 26.5599C3.16971 26.3566 2.76248 26.1677 2.38561 25.9305C2.6623 26.0228 2.94358 26.1008 3.22831 26.1641C3.57922 26.2592 3.92509 26.3673 4.28477 26.4285C4.57692 26.5215 4.88239 26.5497 5.17746 26.6328C5.59199 26.7412 6.02471 26.7257 6.44736 26.7807C6.56651 26.7857 6.68532 26.7646 6.79551 26.719C6.8534 26.755 6.91291 26.7889 6.97404 26.8205V26.8506C6.37091 27.221 5.61066 27.1696 4.93919 27.0474ZM6.8429 14.4361C6.80687 14.6226 6.78926 14.8122 6.79031 15.0022C6.75785 15.1645 6.79405 15.4282 6.76938 15.5359C6.76851 15.8244 6.76954 16.1129 6.77246 16.4013C6.74571 16.4104 6.72284 16.4283 6.70754 16.4521C6.64818 16.5444 6.57436 16.6266 6.48891 16.6955C6.44791 16.7397 6.39837 16.775 6.34329 16.7994C6.28821 16.8238 6.22874 16.8367 6.16851 16.8374C5.80527 16.8465 5.72476 16.6277 5.65773 16.3161C5.65207 16.1952 5.67632 16.0748 5.72833 15.9655C5.79313 15.7324 5.94219 15.5317 6.1466 15.4023C6.17312 15.3996 6.19822 15.389 6.21861 15.3718C6.23899 15.3546 6.25371 15.3317 6.26084 15.306C6.26796 15.2803 6.26716 15.2531 6.25853 15.2279C6.2499 15.2026 6.23386 15.1806 6.2125 15.1647C6.19667 15.1448 6.17524 15.1301 6.15098 15.1225C5.95897 15.108 5.94648 14.9306 6.01984 14.7878C6.07751 14.6952 6.16132 14.6218 6.2607 14.5768C6.36328 14.5825 6.47316 14.5057 6.43161 14.3934C6.39674 14.3335 6.34914 14.2819 6.29219 14.2424C6.23541 14.1761 6.1867 14.1032 6.14709 14.0254C6.10204 13.8537 6.11282 13.6722 6.17787 13.507C6.24292 13.3419 6.35885 13.2018 6.50887 13.1069C6.56407 13.0697 6.63006 13.0518 6.6965 13.0561C6.71545 13.0572 6.7344 13.054 6.75192 13.0467C6.76944 13.0394 6.78505 13.0282 6.79758 13.0139C6.8101 12.9997 6.81921 12.9827 6.82419 12.9644C6.82918 12.9461 6.82991 12.9269 6.82635 12.9083C6.82867 12.8885 6.82585 12.8685 6.81817 12.8502C6.81049 12.8319 6.79821 12.8159 6.78252 12.8037C6.71846 12.7571 6.67076 12.6914 6.64622 12.6161C6.62168 12.5407 6.62156 12.4596 6.64586 12.3842C6.71241 12.181 6.75948 11.9511 6.93623 11.8123C7.1003 11.6867 7.27691 11.5784 7.46324 11.489C7.73916 11.415 8.05063 11.3933 8.27267 11.6026C8.29575 11.6335 8.32803 11.6563 8.36487 11.6677C8.4017 11.679 8.44119 11.6784 8.47766 11.6659C8.61206 11.6463 8.61319 11.4079 8.71544 11.3212C8.79662 11.2327 8.89653 11.1634 9.00788 11.1184C9.11924 11.0734 9.23923 11.0538 9.35911 11.0611C9.479 11.0684 9.59575 11.1023 9.70085 11.1604C9.80596 11.2185 9.89678 11.2993 9.96667 11.397C9.97275 11.4225 9.98594 11.4457 10.0047 11.4639C10.0235 11.4822 10.0471 11.4947 10.0727 11.5001C10.0984 11.5054 10.125 11.5034 10.1495 11.4941C10.174 11.4849 10.1954 11.4689 10.2111 11.448C10.3994 11.0573 10.9003 10.8758 11.134 11.3126C11.134 11.3103 11.1324 11.3081 11.1317 11.3058C11.1335 11.3105 11.1356 11.315 11.1376 11.3194L11.134 11.3126C11.1377 11.3216 11.1422 11.3301 11.1475 11.3382L11.1445 11.3327C11.1592 11.3592 11.1834 11.3791 11.2123 11.3881C11.2412 11.3972 11.2724 11.3948 11.2995 11.3814C11.3592 11.3624 11.4103 11.3231 11.4438 11.2702C11.5557 11.1603 11.6841 11.0686 11.8244 10.9985C11.9911 10.9181 12.1792 10.8936 12.3609 10.9287C12.5425 10.9638 12.708 11.0566 12.8327 11.1933C12.8794 11.2717 12.9093 11.359 12.9203 11.4496C13.0075 11.6259 13.1463 11.5108 13.2304 11.4019C13.3086 11.337 13.3802 11.2407 13.4857 11.2258C13.6937 11.191 13.9659 11.1959 14.0375 11.4384C14.0489 11.4608 14.0659 11.4798 14.0869 11.4935C14.108 11.5073 14.1322 11.5152 14.1573 11.5166C14.1824 11.5179 14.2074 11.5127 14.2298 11.5013C14.2522 11.49 14.2712 11.4729 14.2849 11.4519C14.5725 10.9763 14.8749 10.8168 15.4272 10.9529C15.6707 11.0253 15.7932 11.2722 15.9393 11.4601C15.9416 11.4914 15.9552 11.5207 15.9776 11.5428C15.9999 11.5648 16.0294 11.578 16.0607 11.5799C16.0647 11.5799 16.069 11.5799 16.073 11.5799C16.202 11.6048 16.2395 11.4092 16.3528 11.3655C16.557 11.2152 16.9209 11.2305 17.0207 11.4939C17.0986 11.6345 17.2734 11.5556 17.29 11.415C17.3531 11.2725 17.4301 11.1366 17.52 11.0093C17.7076 10.8307 17.9616 10.6708 18.233 10.7333C18.3775 10.7437 18.5151 10.7995 18.626 10.8929C18.7748 10.9783 18.8952 11.1057 18.972 11.2592C19.0616 11.5124 19.2075 11.6903 19.3787 11.3684C19.4813 11.2414 19.6223 11.1511 19.7806 11.1111C19.9389 11.0711 20.1059 11.0837 20.2565 11.1469C20.4462 11.2173 20.4453 11.5275 20.6298 11.5455C20.6571 11.5468 20.684 11.5393 20.7068 11.5243C20.7295 11.5092 20.7469 11.4873 20.7564 11.4618C20.772 11.4425 20.7857 11.4219 20.7975 11.4001C20.8598 11.3332 20.9308 11.2749 21.0085 11.2267C21.1026 11.1643 21.2084 11.1214 21.3194 11.1006C21.4305 11.0798 21.5446 11.0815 21.6549 11.1057C21.8078 11.1435 21.9796 11.203 22.012 11.3777C22.016 11.3994 22.0247 11.4199 22.0377 11.4378C22.0506 11.4556 22.0674 11.4703 22.0867 11.4809C22.1061 11.4914 22.1275 11.4975 22.1496 11.4987C22.1716 11.4998 22.1936 11.496 22.2139 11.4876C22.3227 11.3944 22.3871 11.2534 22.5048 11.1651C22.5973 11.106 22.7071 11.0801 22.8162 11.0917C22.9254 11.1033 23.0273 11.1516 23.1053 11.2289C23.118 11.2551 23.1387 11.2766 23.1644 11.2903C23.1902 11.304 23.2195 11.3092 23.2484 11.3051C23.2772 11.3011 23.3041 11.288 23.325 11.2678C23.346 11.2476 23.36 11.2212 23.365 11.1925C23.3865 11.0383 23.4413 10.8907 23.5255 10.7598C23.614 10.6396 23.7211 10.5343 23.8427 10.4478C23.9668 10.392 24.0991 10.3564 24.2345 10.3423C24.3075 10.3568 24.3762 10.3877 24.4354 10.4327C24.4485 10.4523 24.4657 10.4688 24.4859 10.4811C24.506 10.4934 24.5285 10.5011 24.552 10.5038C24.5808 10.5053 24.6094 10.4971 24.6329 10.4803C24.6565 10.4636 24.6737 10.4394 24.6818 10.4116C24.6955 10.3943 24.7042 10.3736 24.707 10.3517C24.748 10.1514 24.8656 9.97497 25.0347 9.85995C25.1916 9.7475 25.376 9.67963 25.5683 9.66356C25.7188 9.64645 25.8713 9.66337 26.0144 9.71306C26.1195 9.71927 26.2233 9.73991 26.3228 9.77441C26.4272 9.81896 26.5226 9.88222 26.6044 9.96107C26.6306 10.0177 26.661 10.0886 26.7371 10.0875C26.8981 10.0958 26.8981 9.80655 27.0268 9.70527C27.1171 9.62068 27.2303 9.56449 27.3523 9.54369C27.4743 9.52288 27.5997 9.53838 27.7129 9.58825C27.7778 9.64375 27.8458 9.69569 27.9077 9.75477C27.9401 9.79551 27.971 9.84258 28.0312 9.84307C28.0646 9.84426 28.0972 9.83251 28.1222 9.81025C28.1472 9.78799 28.1626 9.75696 28.1653 9.72361C28.1751 9.6994 28.1771 9.67272 28.1709 9.64733C28.1424 9.45141 28.162 9.25149 28.2279 9.0648C28.2889 8.90683 28.384 8.76423 28.5063 8.64713C28.6287 8.53004 28.7753 8.44132 28.9358 8.3873C29.0963 8.33327 29.2667 8.31526 29.435 8.33453C29.6032 8.35381 29.7651 8.40991 29.9093 8.49884C29.9236 8.5257 29.9458 8.54747 29.973 8.56115C30.0002 8.57484 30.0309 8.57977 30.061 8.57527C30.0911 8.57077 30.119 8.55705 30.141 8.53601C30.163 8.51497 30.1779 8.48764 30.1837 8.45777C30.2083 8.39754 30.2233 8.33386 30.2284 8.26901C30.2768 8.1085 30.3548 7.95845 30.4583 7.82656C30.5753 7.66342 30.7359 7.53662 30.9217 7.46076C31.1075 7.38489 31.311 7.36305 31.5086 7.39774C31.7242 7.3906 31.867 7.55015 31.992 7.70515C32.1091 7.85108 32.1715 8.03339 32.1683 8.22048C32.1725 8.25036 32.1849 8.27848 32.2041 8.30177C32.2233 8.32505 32.2486 8.34259 32.2771 8.35245C32.3056 8.36232 32.3363 8.36413 32.3658 8.35768C32.3952 8.35123 32.4224 8.33678 32.4442 8.31592C32.7138 8.00218 33.2257 7.96842 33.5803 8.15182C33.7753 8.23845 33.9345 8.38968 34.0309 8.57999C34.2473 8.97959 34.0786 9.44931 33.8199 9.7861C33.7452 9.87515 33.6589 9.95377 33.5633 10.0198C33.5318 10.0378 33.4997 10.0537 33.4659 10.0685C33.451 10.0754 33.4377 10.0856 33.4271 10.0982C33.4041 10.1106 33.3854 10.1296 33.3734 10.1528C33.3614 10.176 33.3567 10.2023 33.3598 10.2282C33.363 10.2541 33.3739 10.2785 33.3911 10.2981C33.4083 10.3178 33.431 10.3318 33.4563 10.3383C33.568 10.3944 33.6209 10.5087 33.7034 10.5963C33.7535 10.6725 33.7918 10.7558 33.817 10.8434C33.8861 10.9908 33.9107 11.1552 33.8876 11.3163C33.8748 11.4728 33.8297 11.6249 33.7551 11.763C33.6382 12.021 33.4784 12.2573 33.2825 12.4619C33.2293 12.5123 33.1706 12.5567 33.1075 12.5942C33.0713 12.5999 33.0379 12.6174 33.0124 12.6439C32.993 12.6501 32.9755 12.661 32.9613 12.6756C32.9471 12.6902 32.9367 12.7081 32.9311 12.7277C32.9255 12.7472 32.9247 12.7679 32.929 12.7878C32.9332 12.8077 32.9423 12.8263 32.9555 12.8419C32.9869 12.8778 33.009 12.921 33.0196 12.9676C33.0303 13.0142 33.0292 13.0626 33.0165 13.1087C33.0165 13.3187 32.9507 13.5234 32.8284 13.6941C32.7273 13.8476 32.5717 13.9568 32.3931 13.9996C32.2416 14.0553 31.9917 13.8686 31.9183 14.0735C31.9261 14.2975 31.8666 14.5187 31.7476 14.7086C31.6202 14.8589 31.4601 14.9781 31.2796 15.0572C31.0565 15.1746 30.801 15.2156 30.5523 15.1737C30.2154 15.1475 29.8985 15.0032 29.6575 14.7662C29.5638 14.6466 29.4847 14.5162 29.4219 14.3779C29.36 14.132 29.3273 13.8796 29.3245 13.626C29.3382 13.6054 29.3456 13.5813 29.3459 13.5566C29.3461 13.5319 29.3392 13.5076 29.3259 13.4868C29.3126 13.466 29.2935 13.4495 29.271 13.4393C29.2484 13.4291 29.2234 13.4258 29.199 13.4296C29.178 13.4256 29.1564 13.4274 29.1364 13.4348C29.1164 13.4422 29.0988 13.4549 29.0854 13.4715C28.9039 13.601 28.6791 13.6548 28.4586 13.6214C28.3602 13.6201 28.2633 13.5983 28.1739 13.5574C28.0844 13.5165 28.0045 13.4575 27.9392 13.384C27.8424 13.2652 27.7929 13.115 27.7999 12.962C27.8034 12.9346 27.7982 12.9067 27.785 12.8824C27.7719 12.8581 27.7514 12.8386 27.7265 12.8265C27.7017 12.8145 27.6737 12.8105 27.6464 12.8153C27.6192 12.82 27.5941 12.8332 27.5748 12.8529C27.4977 12.9457 27.3939 13.0125 27.2776 13.0444C27.2059 13.0701 27.128 13.0721 27.0551 13.0501C26.8904 13.0379 26.7338 12.9741 26.6076 12.8677C26.5463 12.7708 26.513 12.6588 26.5114 12.5442C26.5155 12.5198 26.5143 12.4948 26.5079 12.4709C26.5015 12.4471 26.4901 12.4248 26.4743 12.4057C26.4486 12.3811 26.4161 12.3648 26.3809 12.359C26.3458 12.3532 26.3097 12.3582 26.2775 12.3733C26.167 12.3838 26.0561 12.3871 25.9452 12.3832C24.6969 12.4049 23.4489 12.4525 22.1996 12.4773C21.9182 12.4841 21.6376 12.5052 21.3569 12.5249C21.0112 12.5275 20.6655 12.4733 20.32 12.5104C19.6058 12.5486 18.8897 12.532 18.1744 12.5453C17.5039 12.5291 16.8307 12.5986 16.1629 12.5145C14.3626 12.485 12.5622 12.495 10.7618 12.5447C10.1874 12.5922 9.60538 12.5211 9.03048 12.5909C8.9219 12.6211 8.55216 12.602 8.42881 12.6982C8.18742 12.7366 7.95509 12.8188 7.74322 12.9407C7.49845 13.1148 7.29217 13.3375 7.13727 13.5949C6.98237 13.8522 6.88216 14.1387 6.8429 14.4365V14.4361ZM18.2091 32.162C18.0257 32.1188 17.8599 31.7369 17.6888 31.8666C17.5601 32.1635 17.2608 32.238 16.9584 32.1829C16.7729 32.1113 16.6213 31.9721 16.5341 31.7934C16.5017 31.7319 16.46 31.6623 16.3866 31.6636C16.3716 31.6568 16.3555 31.6532 16.3391 31.6528C16.3227 31.6525 16.3064 31.6554 16.2912 31.6615C16.276 31.6675 16.2621 31.6766 16.2505 31.6881C16.2388 31.6996 16.2296 31.7133 16.2233 31.7285C16.2007 31.7974 16.1736 31.8647 16.1422 31.9301C15.9526 32.218 15.5559 32.292 15.2332 32.2935C15.0975 32.2785 14.9681 32.228 14.858 32.1472C14.7479 32.0664 14.661 31.9581 14.6059 31.8332C14.6031 31.8163 14.5969 31.8001 14.5876 31.7858C14.5782 31.7714 14.566 31.7591 14.5517 31.7497C14.5367 31.7245 14.5136 31.7049 14.4862 31.6942C14.4588 31.6836 14.4286 31.6823 14.4005 31.6908C14.3723 31.6992 14.3477 31.7168 14.3307 31.7408C14.3137 31.7647 14.3051 31.7937 14.3065 31.8231C14.2347 31.9798 14.1094 32.1057 13.9531 32.1782C13.8193 32.2292 13.6746 32.2448 13.5329 32.2237C13.388 32.1875 13.2229 32.1867 13.118 32.0658C13.0658 32.0025 13.0207 31.9337 12.9836 31.8606C12.9741 31.8015 12.9691 31.7419 12.9686 31.6821C12.9658 31.6699 12.9611 31.6582 12.9546 31.6475C12.9502 31.6203 12.9373 31.5952 12.9177 31.5758C12.8981 31.5564 12.8728 31.5438 12.8456 31.5397C12.8183 31.5357 12.7905 31.5404 12.7661 31.5532C12.7417 31.566 12.722 31.5862 12.7098 31.611C12.6734 31.7191 12.6104 31.8165 12.5266 31.894C12.4428 31.9716 12.3409 32.0269 12.2302 32.0549C12.0651 32.0977 11.8925 32.1026 11.7253 32.0692C11.474 31.9947 11.2302 31.9357 11.1257 31.6679C11.0989 31.583 11.0608 31.4569 10.9634 31.4496C10.9434 31.4363 10.9199 31.429 10.8958 31.4288C10.8718 31.4286 10.8482 31.4354 10.8279 31.4484C10.8076 31.4614 10.7916 31.48 10.7817 31.5019C10.7719 31.5239 10.7686 31.5482 10.7724 31.572C10.6516 31.7669 10.4637 31.9108 10.2441 31.9765C10.1222 32.0015 9.99679 32.0046 9.87383 31.9854C9.55733 31.9106 9.22574 31.715 9.13306 31.3907C9.1166 31.3612 9.08918 31.3394 9.05674 31.3299C9.0243 31.3205 8.98945 31.3242 8.95972 31.3402L8.95631 31.3423C8.91834 31.337 8.87972 31.3458 8.84789 31.3672C8.48448 31.6652 7.80685 31.5425 7.68479 31.0554C7.63211 30.8613 7.65622 30.6543 7.75212 30.4775C7.84802 30.3007 8.00835 30.1676 8.19979 30.1059C8.41119 30.0475 8.63286 30.0364 8.84902 30.0734C8.9497 30.0933 9.04914 30.119 9.14686 30.1504C9.16451 30.1752 9.19069 30.1927 9.2204 30.1995C9.25012 30.2064 9.2813 30.202 9.30803 30.1874C9.33293 30.1863 9.35703 30.1782 9.37753 30.164C9.39804 30.1498 9.41412 30.1302 9.42392 30.1072C9.43373 30.0843 9.43686 30.0591 9.43295 30.0345C9.42904 30.0099 9.41826 29.9868 9.40184 29.9681C9.14686 29.0861 9.89299 28.3763 10.7652 28.5794C11.134 28.7516 11.054 28.8391 11.2969 29.0663C11.2963 29.0976 11.307 29.128 11.3271 29.1519C11.3473 29.1758 11.3755 29.1914 11.4064 29.196C11.4373 29.2006 11.4689 29.1937 11.4951 29.1767C11.5212 29.1596 11.5403 29.1336 11.5487 29.1035C11.5583 28.9143 11.611 28.7299 11.7026 28.5641C11.8597 28.3343 11.9856 28.068 12.2245 27.911C12.4051 27.7608 12.6193 27.6564 12.8488 27.6066C13.0784 27.5569 13.3166 27.5632 13.5431 27.6252C13.716 27.6942 13.8625 27.8162 13.9616 27.9738C14.1536 28.1929 14.2727 28.4662 14.3024 28.756C14.3165 28.905 14.3193 29.0549 14.311 29.2044C14.3022 29.237 14.3009 29.2711 14.3072 29.3043C14.3135 29.3374 14.3272 29.3687 14.3474 29.3958C14.3622 29.4206 14.3845 29.4399 14.4112 29.4511C14.4378 29.4622 14.4674 29.4645 14.4954 29.4576C14.5234 29.4507 14.5485 29.4349 14.5669 29.4127C14.5854 29.3905 14.5962 29.3629 14.5978 29.3341C14.6572 29.2273 14.7399 29.1353 14.8398 29.0648C15.067 28.909 15.4631 28.7978 15.6968 28.9869C15.7514 29.0274 15.7936 29.0824 15.8185 29.1457C15.8591 29.2004 15.8951 29.2584 15.9263 29.319C15.9588 29.4417 15.9657 29.5732 15.9974 29.6949C16.0085 29.7165 16.0251 29.7348 16.0455 29.7479C16.066 29.761 16.0895 29.7685 16.1137 29.7697C16.138 29.7708 16.1621 29.7656 16.1837 29.7544C16.2052 29.7433 16.2235 29.7267 16.2366 29.7063C16.3331 29.6147 16.4452 29.5412 16.5676 29.4893C16.8615 29.3849 17.2632 29.349 17.4765 29.6216C17.5508 29.7129 17.6036 29.8198 17.6311 29.9343C17.6587 30.0488 17.6602 30.168 17.6355 30.2831C17.6181 30.3364 17.6125 30.3929 17.6193 30.4485C17.6251 30.4676 17.6352 30.485 17.6488 30.4996C17.6624 30.5142 17.6791 30.5255 17.6977 30.5326C17.7163 30.5397 17.7363 30.5425 17.7561 30.5407C17.7759 30.5389 17.7951 30.5327 17.8121 30.5224C17.9178 30.4397 18.0429 30.3857 18.1755 30.3656C18.3081 30.3455 18.4436 30.36 18.569 30.4076C18.686 30.4922 18.7151 30.6438 18.7733 30.7678C18.8071 30.8449 18.7763 30.9289 18.7948 31.0083C18.796 31.0305 18.8029 31.052 18.8148 31.0707C18.8267 31.0895 18.8432 31.1049 18.8627 31.1154C18.8822 31.126 18.9042 31.1313 18.9264 31.131C18.9486 31.1307 18.9703 31.1246 18.9895 31.1135C20.412 31.2385 19.2971 32.777 18.2091 32.1625V32.162ZM9.12446 30.1043C9.12782 30.1169 9.13296 30.1291 9.13972 30.1403C9.13366 30.1314 9.12891 30.1217 9.1256 30.1114L9.12446 30.1043ZM33.9859 26.6517C34.0144 27.2798 33.9621 27.9084 33.9807 28.537C34.0041 28.6378 33.9364 28.8813 33.9402 29.0507C33.9308 29.0817 33.9337 29.1151 33.9481 29.144C33.8903 29.7162 33.8042 30.0294 33.3521 30.4125C33.1776 30.5468 32.9833 30.6534 32.7763 30.7285C32.7342 30.7433 32.6911 30.7561 32.648 30.7671C32.6274 30.7725 32.6087 30.7838 32.5943 30.7996C32.5716 30.8056 32.5489 30.8118 32.5263 30.8184C32.0986 30.9199 31.6643 30.9911 31.2266 31.0315C30.8747 31.0333 30.5264 31.0478 30.1764 31.0841C29.6622 31.0898 29.1508 31.1059 28.6361 31.1218C27.649 31.0934 26.6607 31.0723 25.6734 31.0439C25.3145 31.0745 24.954 31.0809 24.5943 31.0629C23.9761 31.0935 23.3574 31.0934 22.738 31.0827C22.0677 31.0525 21.3961 31.0758 20.7295 31.1524C20.4348 31.1442 20.14 31.1659 19.8498 31.2174C19.8339 31.2112 19.8171 31.2077 19.8001 31.2068C19.704 31.1015 19.5876 31.0167 19.4579 30.9575C19.3282 30.8983 19.1879 30.8659 19.0454 30.8622C19.0379 30.7555 19.0089 30.6514 18.9601 30.5561C18.9373 30.4727 18.8976 30.3948 18.8436 30.3272C18.7896 30.2596 18.7223 30.2038 18.6459 30.1632C18.4052 30.0801 18.1431 30.0831 17.9043 30.1716C17.9141 30.0077 17.8845 29.8439 17.8178 29.6938C17.7512 29.5438 17.6496 29.4119 17.5215 29.3093C17.1277 29.0522 16.5705 29.1367 16.2024 29.4037C16.1866 29.2592 16.1285 29.1225 16.0354 29.0108C15.9717 28.8832 15.8699 28.7787 15.744 28.7118C15.6182 28.6449 15.4745 28.6189 15.3332 28.6375C15.0486 28.648 14.7775 28.7617 14.5704 28.9572C14.5694 28.8836 14.5653 28.8097 14.5571 28.7363C14.5295 28.4402 14.4213 28.1572 14.2443 27.9181C14.0796 27.7063 13.9122 27.477 13.6462 27.3897C13.2749 27.2718 12.8735 27.2924 12.5162 27.4478C12.2025 27.5734 11.9303 27.7843 11.7305 28.0568C11.5911 28.278 11.4098 28.4846 11.3516 28.7456C11.2572 28.5896 11.1189 28.4647 10.9542 28.3866C10.6823 28.2777 10.3829 28.258 10.0991 28.3302C9.86267 28.3906 9.64726 28.5146 9.47625 28.6887C9.30524 28.8628 9.18515 29.0804 9.12901 29.3179C9.08668 29.5 9.0853 29.6892 9.12495 29.8718C9.03162 29.8481 8.93213 29.8361 8.86266 29.8167C8.62923 29.7813 8.39113 29.7924 8.16197 29.8491C7.8899 29.9332 7.65964 30.117 7.51729 30.3636C7.40977 30.2277 7.33167 30.0709 7.28795 29.9032C7.15729 29.5693 7.29022 29.2111 7.26247 28.8644C7.24883 28.4073 7.22546 27.9509 7.23861 27.4935C7.22578 26.1789 7.19267 24.8598 7.22238 23.5435C7.19836 22.4073 7.27999 21.2669 7.13408 20.1369C7.075 19.6034 7.10162 19.0657 7.08539 18.5301C7.0367 17.3862 7.00683 16.2399 7.03945 15.0957C7.05426 15.076 7.06248 15.0521 7.06291 15.0275C7.06335 15.0029 7.05599 14.9787 7.04189 14.9585C7.05287 14.5755 7.13322 14.1975 7.27902 13.8431C7.5082 13.4676 7.826 13.0891 8.27559 12.9949C8.36219 12.9693 8.45056 12.95 8.53999 12.9373C8.56631 12.9335 8.5908 12.9217 8.61011 12.9034C8.67422 12.8941 8.74093 12.8761 8.79384 12.8722C9.05353 12.8398 9.31404 12.8177 9.57519 12.8097C11.0092 12.8352 12.4428 12.7114 13.8763 12.7644C14.6716 12.7669 15.4691 12.7237 16.2623 12.7789C16.9047 12.8513 17.5339 12.7813 18.1817 12.7997C20.767 12.7907 23.3488 12.6971 25.934 12.6374C26.0087 12.6281 26.145 12.6432 26.2651 12.6349C26.2754 12.6979 26.2913 12.7597 26.2986 12.8052C26.3839 13.185 26.8126 13.2807 27.1466 13.3199C27.2959 13.3156 27.4414 13.2712 27.5676 13.1915C27.6011 13.3125 27.6555 13.4267 27.7283 13.5289C27.8535 13.6763 28.018 13.785 28.2026 13.8425C28.4713 13.9087 28.7535 13.8943 29.0141 13.8013C29.034 13.7864 29.0551 13.7732 29.0773 13.762C29.0747 14.0367 29.1264 14.3091 29.2294 14.5638C29.3354 14.8085 29.5141 15.0148 29.7413 15.1546C30.0515 15.3531 30.4139 15.4548 30.7822 15.4467C30.993 15.4376 31.1995 15.3837 31.3879 15.2885C31.5534 15.2226 31.7023 15.121 31.824 14.991C32.0285 14.7969 32.1516 14.5324 32.1686 14.251C32.7282 14.3468 33.2012 13.8128 33.256 13.2895C33.2645 13.2012 33.2806 13.1175 33.2833 13.0363C33.6105 13.2006 33.6229 13.5015 33.7568 13.8269C33.9193 14.6285 33.993 15.4456 33.9765 16.2633C33.9765 17.1588 33.9848 18.0531 33.9842 18.9485C34.0179 20.4974 33.9806 22.0476 33.9851 23.5988C34.007 23.9937 34.0001 24.3897 33.9645 24.7837C33.9871 25.4066 33.9652 26.0305 33.9859 26.6517ZM34.9226 22.953C34.9374 22.4849 34.9522 22.0171 34.9638 21.549C35.0135 21.9658 35.0431 22.3849 35.0797 22.8033C35.1607 23.3934 35.1685 23.9911 35.1031 24.583C35.0389 25.0872 34.9392 25.5862 34.8046 26.0763C34.7675 26.2085 34.7198 26.3376 34.6618 26.4621C34.6209 26.5296 34.5942 26.6048 34.5836 26.683C34.5805 26.7015 34.5816 26.7204 34.5867 26.7384C34.5919 26.7564 34.601 26.773 34.6134 26.787C34.6967 26.8644 34.773 26.8214 34.8429 26.7557C34.8684 26.7444 34.8896 26.7254 34.9035 26.7013C35.0755 26.5893 35.2414 26.4683 35.4006 26.3387C35.793 26.0675 36.2061 25.8274 36.6359 25.6207C37.264 25.3769 37.9087 25.1782 38.565 25.026C38.8917 24.9426 39.2152 24.8474 39.5434 24.7736C39.3725 24.8736 39.1985 24.9684 39.022 25.0601C38.0357 25.6567 37.0354 26.2342 35.9999 26.7417C35.7778 26.8553 35.5428 26.9422 35.3136 27.0414C35.131 27.1105 34.9499 27.2351 34.7564 27.2902C34.5894 27.3322 34.4265 27.3889 34.2695 27.4598C34.26 27.4607 34.2506 27.4622 34.2413 27.4642L34.2432 27.3277C34.3216 27.2528 34.3201 27.068 34.3657 26.9724C34.4614 26.6208 34.5171 26.2595 34.5316 25.8955C34.5965 25.4313 34.6499 24.9654 34.7175 24.5014C34.791 23.9857 34.8493 23.4688 34.9226 22.953ZM34.2281 26.1642C34.2314 25.6897 34.2344 25.2149 34.2372 24.74C34.2578 24.7311 34.2753 24.7165 34.2876 24.6978C34.2999 24.6791 34.3065 24.6572 34.3065 24.6348C34.3151 24.2992 34.369 23.9677 34.4011 23.634C34.486 23.3017 34.541 22.9624 34.5654 22.6203C34.606 22.3909 34.6522 22.1625 34.6993 21.9342C34.69 22.2942 34.6785 22.6539 34.6603 23.0134C34.522 24.0567 34.3619 25.0992 34.2557 26.1459C34.2497 26.2068 34.2434 26.2678 34.2362 26.3285C34.234 26.2741 34.2314 26.2193 34.2281 26.1642ZM37.9836 26.3821C37.6161 26.6317 37.2277 26.8489 36.8226 27.0313C36.3813 27.2535 35.9254 27.4457 35.4581 27.6063C35.1822 27.6875 34.9062 27.7742 34.6235 27.8297C34.5146 27.8419 34.4125 27.8828 34.3049 27.9047C34.283 27.9089 34.2593 27.9134 34.2364 27.9194C34.2364 27.8568 34.2364 27.794 34.2375 27.7313C34.3489 27.7274 34.487 27.6218 34.5917 27.6104C34.8419 27.5404 35.0837 27.4433 35.3128 27.3207C35.5512 27.2163 35.7898 27.1227 36.027 27.0165C37.243 26.4184 38.4104 25.7273 39.5778 25.0412C39.0888 25.5363 38.5552 25.9852 37.9836 26.3821Z" fill="#1A1A1A"/>
</svg>
