<svg width="41" height="35" viewBox="0 0 41 35" fill="none" xmlns="http://www.w3.org/2000/svg">
<path d="M11.2751 3.46582C11.2694 3.46987 11.2639 3.47392 11.2578 3.4776L11.2751 3.46582Z" fill="#002726"/>
<path d="M40.4889 29.9899C40.4889 29.6637 40.2156 29.4631 39.9632 29.3088C39.614 29.0445 39.1907 28.8964 38.7528 28.8854C38.9699 28.7345 39.1711 28.5609 39.2867 28.4779C39.6709 28.1585 40.0843 27.8253 40.1151 27.287C40.2699 26.7458 39.7631 26.3666 39.3563 26.1179C38.7447 25.8445 38.0761 25.9653 37.4388 26.055C38.1715 25.4979 38.9076 24.2732 37.7433 23.7355C37.1706 23.5686 36.5672 23.5358 35.9798 23.6398C38.017 22.3328 37.5108 20.5853 35.1008 20.5604C35.0384 20.5577 34.9285 20.5514 34.8013 20.5501C35.0551 20.3108 35.2968 20.0589 35.5255 19.7954C36.1663 18.9055 35.9277 17.9282 34.7652 17.7679C34.0274 17.5101 33.2432 17.6589 32.5194 17.8906C33.1269 17.3364 33.9353 16.3812 33.2296 15.5964C32.9207 15.2691 32.5323 14.9501 32.0757 14.8801C31.5103 14.7727 30.9288 14.7826 30.3673 14.909C30.96 14.4201 31.9773 13.7096 31.5599 12.8317C31.3063 12.2949 30.7264 12.3678 30.1817 12.5331C30.1841 12.5301 30.1865 12.5274 30.1889 12.5242C30.2741 12.398 30.4195 12.3427 30.518 12.2297C30.8476 11.8536 31.226 11.5233 31.6431 11.2474C31.8088 11.1291 31.9533 10.9855 32.1155 10.8631C32.3537 10.7317 32.5849 10.588 32.8082 10.4325C33.594 9.89788 34.4234 9.43038 35.2876 9.03493C36.0166 8.66676 36.796 8.39947 37.4977 7.98086C38.1146 7.5976 38.7808 6.98257 38.5001 6.18696C38.4504 5.77057 38.0132 5.63563 37.6614 5.55592C37.2932 5.52463 36.9495 5.7216 36.5967 5.80278C36.9481 5.3341 37.4388 4.66514 37.1195 4.0711C36.8008 3.7311 35.7077 4.33084 35.4146 4.57218C36.3642 3.2037 35.9415 2.06403 34.2391 2.98372C34.0964 3.08496 33.9475 3.18474 33.8008 3.28856C33.8102 3.25819 33.8192 3.22745 33.8269 3.19652C33.9595 2.6855 34.1596 1.6134 33.3851 1.5659C32.7644 1.47294 32.2512 1.86375 31.8572 2.2993C31.8821 1.91916 31.9653 1.51105 31.8048 1.14969C31.407 0.39826 30.7989 0.910382 30.451 1.3971C29.6057 2.65218 29.2215 4.14234 28.6032 5.51101C28.1185 6.47358 27.7792 7.50942 27.1489 8.39247C27.0496 8.52594 26.9609 8.66702 26.8836 8.81439C26.9406 8.47912 26.9807 8.14121 27.0039 7.80193C27.035 7.24968 27.1605 6.50598 26.6607 6.12511C26.3273 5.90531 25.8951 6.08829 25.6311 6.33681C25.3664 6.62566 25.1311 6.94015 24.9287 7.27564C24.9429 6.65214 25.004 6.02037 24.8751 5.40442C24.1417 3.15455 22.8036 4.6622 22.3016 6.09824C22.274 4.25003 20.9683 1.60217 19.4884 4.33379C19.4439 3.56947 18.9929 2.18774 18.2162 1.90388C17.4409 1.66568 16.8934 2.56511 16.7979 3.22745C16.664 2.39465 16.264 1.03409 15.258 0.977389C14.9173 0.928607 14.6645 1.14417 14.4712 1.39765C14.2605 1.59142 14.1129 1.84415 14.0478 2.12294C13.7901 1.47129 13.6561 0.675122 13.0105 0.283024C12.7528 0.111642 12.4456 -0.107418 12.1308 0.0597303C11.6691 0.227063 11.4149 0.639594 11.24 1.07366C11.057 1.47444 10.9748 1.91394 11.0007 2.35378C10.7982 1.97494 10.5847 1.60217 10.3623 1.23511C9.91406 0.43968 8.71144 -0.0939794 7.88453 0.417038C7.42911 0.788703 7.15943 1.34703 6.91147 1.86946C6.62356 2.64795 6.69425 3.50633 6.75315 4.31962C6.77287 5.71091 7.17332 7.07022 7.91104 8.24999C8.56546 9.11003 9.2508 9.95093 9.89639 10.8202C10.5063 11.4725 11.0744 12.1627 11.5975 12.8865C11.9209 13.2992 12.3003 13.6674 12.5282 14.1488C13.1558 15.2211 13.8325 16.3252 13.8731 17.6044C13.9755 18.3124 13.7377 18.9738 13.4365 19.6032C13.0928 20.1595 12.5006 20.5019 12.0191 20.9286C11.4364 21.5666 10.6546 21.9882 10.1136 22.6623C9.37082 23.5374 8.61903 24.6913 8.9097 25.8882C9.03414 26.2825 9.14753 26.6908 9.30695 27.0753C9.1773 27.2529 9.05818 27.4379 8.95019 27.6294C8.60163 28.1319 8.31538 28.6749 8.0977 29.2464C8.07211 29.3258 8.0434 29.4047 8.01339 29.4835C7.88381 29.4093 7.74597 29.3504 7.6027 29.3083C7.65792 29.1557 7.5784 28.9073 7.57122 28.7619C7.52074 28.4418 7.40141 28.1365 7.22146 27.8671C7.06665 27.6462 6.93632 27.3675 6.67344 27.2611C6.60147 27.2454 6.52677 27.2474 6.45574 27.2669C6.3847 27.2864 6.31943 27.3227 6.2655 27.3729C6.21157 27.4231 6.17058 27.4856 6.14603 27.555C6.12148 27.6244 6.11409 27.6988 6.12451 27.7717C6.15838 28.1798 6.41665 28.6141 6.7075 28.9867C6.56195 28.9414 6.41517 28.8994 6.26717 28.8608C5.96491 28.7882 5.6619 28.721 5.35687 28.6647C5.19838 28.1817 4.1642 26.6043 3.72424 27.2298C3.49616 27.6762 3.96354 28.0502 4.22126 28.3595C4.26691 28.4123 4.3133 28.4655 4.36043 28.5178C3.72773 28.4245 3.07589 28.3006 2.43638 28.3705H2.42737C2.42092 28.3658 2.41485 28.3606 2.40785 28.3564C2.04508 27.9477 1.60198 27.6182 1.10619 27.3885C0.813869 27.2684 0.384401 27.1167 0.130549 27.3811C-0.0310764 27.6222 0.161844 27.9518 0.383297 28.0841C0.0977825 28.1406 -0.162881 28.4479 0.125579 28.682C0.280517 28.7865 0.449632 28.8682 0.627761 28.9246C0.492316 28.9715 0.372944 29.0558 0.283501 29.1678C0.194058 29.2798 0.138213 29.4149 0.12245 29.5573C0.138465 29.7136 0.296041 29.7845 0.418825 29.8498C0.997585 30.0339 1.90401 29.4598 2.29206 29.046C2.36475 28.9617 2.42876 28.8704 2.48314 28.7733C2.48962 28.7679 2.49577 28.7622 2.50155 28.756C2.564 28.7458 2.62715 28.7405 2.69042 28.74C3.26582 28.752 3.8393 28.8108 4.40516 28.9158L4.4013 28.9173C3.96226 29.0629 3.08473 29.7534 3.69165 30.1862C4.12443 30.3274 4.84476 29.8346 5.07081 29.4727C5.18028 29.3467 5.27416 29.208 5.35043 29.0596C5.7629 29.135 6.17095 29.2329 6.57275 29.3528C6.45825 29.4099 6.35608 29.4703 6.29 29.5098C6.00301 29.6691 5.68399 29.8964 5.6238 30.241C5.62031 30.2926 5.62709 30.3444 5.64376 30.3933C5.66042 30.4423 5.68664 30.4875 5.72088 30.5262C5.75513 30.565 5.79672 30.5965 5.84325 30.6191C5.88979 30.6416 5.94033 30.6547 5.99197 30.6576C6.34984 30.6054 6.68694 30.4573 6.96761 30.2292C7.13596 30.0529 7.28335 29.8576 7.40683 29.6474C7.56404 29.7118 7.71898 29.7811 7.87165 29.8552C7.77664 30.0861 7.71629 30.3297 7.69253 30.5783C7.79654 31.0101 8.35358 30.5514 8.61755 30.5173C8.74199 30.4875 8.86421 30.449 8.98333 30.4023C9.07831 30.48 9.22025 30.5258 9.30566 30.607C9.65833 30.8792 9.99268 31.1744 10.3065 31.4906C9.86896 31.4438 9.36438 31.4037 8.97044 31.5806C8.38009 31.8551 8.45133 32.4826 9.13612 32.5058C9.55785 32.4874 9.99726 32.4968 10.3984 32.349C10.5682 32.285 10.7314 32.2048 10.8858 32.1097C11.1651 32.4279 11.4305 32.7586 11.6851 33.0958C12.1002 33.6396 12.4148 34.2912 12.8143 34.8501C12.8391 34.8941 12.88 34.9267 12.9284 34.9411C12.9768 34.9556 13.0289 34.9507 13.0738 34.9276C13.1186 34.9045 13.1528 34.8649 13.1691 34.8171C13.1855 34.7694 13.1827 34.7171 13.1613 34.6714C12.6477 33.9093 12.2225 33.0816 11.6185 32.3775C11.525 32.2631 11.4302 32.1492 11.3343 32.0357C11.3578 31.9856 11.3742 31.9326 11.3832 31.8781C11.4308 31.767 11.464 31.6502 11.4819 31.5307C11.5576 31.1134 11.6818 30.6311 11.4383 30.2471C11.0681 29.6028 10.3562 29.7341 10.4065 30.5206C10.43 30.7298 10.4663 30.9373 10.5153 31.1419C10.1746 30.7995 9.804 30.4884 9.40783 30.2121C9.54331 30.1446 9.67696 30.0735 9.81079 30.0045C10.2918 29.7689 10.7534 29.4956 11.1914 29.1873C11.1934 29.1859 11.1951 29.1842 11.1969 29.1827C11.6134 29.4004 12.0806 29.5026 12.55 29.4787C13.2051 29.3907 13.8419 29.1981 14.4359 28.9081C14.7059 28.7348 14.9823 28.5727 15.2617 28.4149C15.7709 28.0701 16.1886 27.6084 16.6782 27.239C17.033 27.0118 17.2695 26.653 17.6021 26.4008C18.8493 25.6925 19.2721 25.3906 20.7472 25.5756C22.7298 25.46 24.2846 26.8883 25.7473 28.0298C26.7833 28.844 27.747 29.7466 28.8077 30.5313C29.3063 30.9899 29.8573 31.3879 30.4494 31.7172C30.9849 31.9598 31.5117 32.2284 32.0606 32.4381C32.3739 32.5397 32.6985 32.6024 33.0271 32.6247C33.5508 32.684 34.0664 32.8088 34.5951 32.8169C35.7016 32.8567 36.8068 32.7083 37.8637 32.3782C39.0687 32.1688 40.6476 31.4383 40.4889 29.9899ZM6.56115 27.6377V27.6361L6.56226 27.6372L6.56115 27.6377ZM10.5861 29.1065C10.1066 29.4229 9.60268 29.7006 9.07905 29.9369C8.78157 30.089 8.44949 30.1409 8.14372 30.2694C8.31455 29.7755 8.49348 29.2825 8.70683 28.805C8.93952 28.3448 9.22982 27.9194 9.50337 27.4836C9.61154 27.6829 9.74391 27.8681 9.89749 28.035C10.1521 28.3941 10.4661 28.7071 10.8262 28.9603C10.7476 29.0113 10.6681 29.0609 10.5867 29.1065H10.5861ZM39.2567 31.4834C38.8082 31.7315 38.3208 31.9015 37.8153 31.9861C37.1466 32.1844 36.4621 32.3248 35.7694 32.4057C34.9847 32.468 34.1953 32.4267 33.4214 32.2829C32.8572 32.2111 32.2801 32.1665 31.7667 31.8983C31.0316 31.5396 30.2531 31.2592 29.6328 30.7049C28.7074 29.9533 27.7593 29.2343 26.8746 28.4335C25.3265 27.2589 23.8805 25.772 21.9458 25.275C21.3545 25.1546 20.7463 25.212 20.1488 25.145C19.1275 25.0031 18.2245 25.6019 17.3748 26.0826C16.6385 26.7589 15.8891 27.4221 15.1067 28.0493C14.5255 28.3906 13.967 28.7792 13.2953 28.921C12.7764 29.0706 12.2317 29.175 11.7085 28.9708C11.2234 28.8197 10.7963 28.5233 10.4851 28.1217C9.95877 27.5833 9.58865 26.912 9.41427 26.1796C8.8495 24.8936 9.78593 23.6173 10.6071 22.684C10.9863 22.2781 11.4825 22.0049 11.8755 21.6128C12.7742 20.6769 13.7448 20.3598 14.1132 18.9815C14.437 18.1022 14.2542 17.0985 14.0145 16.2184C13.7148 15.3334 13.1976 14.5506 12.7469 13.7392C12.2926 13.0135 11.6706 12.4086 11.1807 11.7049C10.8803 11.3046 10.5522 10.9258 10.1988 10.5713C9.91498 10.2363 9.68598 9.85944 9.40138 9.52496C8.87472 8.79433 8.21865 8.16126 7.84532 7.32902C7.13365 5.80628 6.99154 4.02582 7.16808 2.36943C7.32476 1.8185 7.59614 1.30691 7.96443 0.868227C8.43089 0.357762 9.23939 0.676227 9.71322 1.03261C10.2642 1.66439 10.611 2.46295 10.9932 3.2048C10.9704 3.24264 10.9608 3.28693 10.9659 3.33078C10.971 3.37463 10.9904 3.41558 11.0211 3.44724C11.0567 3.48198 11.104 3.502 11.1537 3.5033C11.2034 3.50459 11.2517 3.48707 11.289 3.45424C11.2847 3.45839 11.2801 3.46221 11.2752 3.46565C11.3049 3.44506 11.33 3.41847 11.3488 3.3876C11.3777 3.37391 11.4021 3.35245 11.4195 3.32562C11.4368 3.29879 11.4463 3.26766 11.4469 3.23573C11.4421 2.91064 11.3733 2.58831 11.3976 2.26008C11.4086 1.95101 11.4083 1.58799 11.5644 1.30138C11.6995 1.04642 11.7779 0.732925 12.0275 0.563568C12.4141 0.239764 12.5871 0.471526 12.9251 0.696477C13.2951 1.00942 13.4056 1.50332 13.5694 1.93923C13.7074 2.28978 13.8111 2.6529 13.8789 3.02348C13.8831 3.17922 14.0114 3.34802 14.178 3.26886C14.3847 3.18308 14.3253 2.42429 14.4425 2.16178C14.5162 1.85786 14.7691 1.66071 14.964 1.433C15.7411 1.07992 16.1324 2.20836 16.3182 2.77791C16.4246 3.26684 16.4851 3.76442 16.5722 4.25684C16.5895 4.46633 16.6232 4.90556 16.9359 4.70895C17.0701 4.56003 17.0151 4.3244 17.0571 4.1394C17.1162 3.63998 17.1491 3.10319 17.4162 2.66433C18.1341 1.50958 18.8274 3.07429 19.0126 3.76018C19.1333 4.36361 19.1414 4.98268 19.211 5.59292C19.2145 5.62391 19.2252 5.65364 19.2424 5.67968C19.2595 5.70573 19.2825 5.72735 19.3096 5.74279C19.3367 5.75822 19.3671 5.76704 19.3982 5.7685C19.4293 5.76997 19.4604 5.76405 19.4888 5.75124C19.6044 5.70227 19.6039 5.56844 19.6245 5.46241C19.7022 5.08798 19.7316 4.68926 19.9161 4.34741C20.1662 4.02306 20.5677 3.27641 21.0416 3.65655C21.9885 4.60973 21.932 6.09989 21.948 7.35387C21.9449 7.40243 21.96 7.45041 21.9903 7.48843C22.0207 7.52645 22.0642 7.55177 22.1122 7.55946C22.1603 7.56715 22.2094 7.55664 22.2502 7.52999C22.2909 7.50334 22.3202 7.46247 22.3324 7.41536C22.3657 7.27232 22.4088 7.13205 22.4443 6.98957C22.5244 6.62144 22.6407 6.26214 22.7915 5.91691C22.9619 5.54635 23.6618 4.20861 24.1344 4.79161C24.3448 5.05627 24.4819 5.37169 24.5318 5.70614C24.5832 6.48852 24.5675 7.27386 24.485 8.05357C24.4259 8.27227 24.5167 8.6351 24.8026 8.45635C24.9222 8.30908 24.9314 8.09481 25.0285 7.92913C25.1882 7.55802 26.1193 5.87991 26.5586 6.58716C26.7511 7.20531 26.5939 7.87115 26.5389 8.50163C26.5061 8.71333 26.472 8.92503 26.4203 9.13323C26.3971 9.33388 26.181 9.67572 26.4685 9.76758C26.5227 9.7765 26.5782 9.76373 26.623 9.73205C26.6676 9.71157 26.7028 9.67484 26.7213 9.62933C26.9777 9.37414 27.1942 9.08172 27.3634 8.76193C27.8654 8.05129 28.2741 7.27912 28.5794 6.46438C29.3903 4.93556 29.7782 3.20848 30.6949 1.736C31.7994 0.126736 31.5377 2.40919 31.284 3.09417C31.259 3.1377 31.2514 3.18913 31.2629 3.23802C31.2743 3.28692 31.304 3.32962 31.3458 3.35748C31.3876 3.38533 31.4384 3.39626 31.4879 3.38804C31.5375 3.37983 31.582 3.35308 31.6126 3.31323C31.6494 3.24733 31.6733 3.1759 31.7155 3.11203C32.0468 2.65421 32.4417 2.11061 33.0133 1.9615C33.1662 1.96574 33.3814 1.8956 33.4987 2.01304C33.6092 2.26726 33.537 2.56695 33.519 2.83498C33.4516 3.28157 33.1928 3.64311 32.9617 4.01643C32.9432 4.04726 32.9345 4.08303 32.9369 4.11892C32.9393 4.15482 32.9526 4.18914 32.975 4.21727C32.9906 4.25623 33.0184 4.28915 33.0541 4.31117C33.0899 4.3332 33.1318 4.34317 33.1736 4.33963C33.2155 4.33608 33.2551 4.31921 33.2866 4.29148C33.3182 4.26376 33.34 4.22665 33.3489 4.1856C33.9252 3.6582 34.5964 3.00747 35.4323 3.05735C35.7381 3.47817 35.1849 4.17934 34.9627 4.55487C34.8431 4.78038 34.2858 5.28403 34.7475 5.4278C34.939 5.42154 35.0726 5.23727 35.2352 5.15168C35.7383 4.83505 36.215 4.42767 36.8277 4.36011C36.859 4.87555 36.4921 5.28053 36.2073 5.67171C36.0672 5.90347 35.5098 6.21089 35.7003 6.50451C35.8918 6.73793 36.442 6.24532 36.6892 6.18347C36.8181 6.13634 36.9521 6.10505 37.0839 6.06565C37.2719 6.0211 37.4626 5.89906 37.6596 5.95262C38.0476 6.06308 38.1258 6.10247 38.1673 6.51666C38.2225 6.82389 37.9968 7.06891 37.7901 7.26422C37.3021 7.75278 36.632 7.97424 36.0229 8.26527C35.478 8.49943 34.9552 8.78071 34.4114 9.0167C33.5018 9.49845 32.6416 10.0675 31.7819 10.628C31.5013 10.8738 31.2042 11.1002 30.8928 11.3056C30.6266 11.5177 30.4168 11.7929 30.1679 12.0235C29.9801 12.1244 29.8781 12.3122 29.7261 12.4567C29.5905 12.5602 29.469 12.6811 29.3647 12.8162C29.3277 12.8435 29.3019 12.8833 29.2922 12.9282C29.2824 12.9732 29.2894 13.0202 29.3119 13.0603C29.3222 13.087 29.3377 13.1114 29.3577 13.1319C29.3894 13.1648 29.4326 13.1841 29.4782 13.1857C29.5238 13.1873 29.5683 13.1711 29.6022 13.1405C30.0847 12.9821 30.5872 12.7308 31.103 12.846C31.8107 13.6101 29.958 14.7382 29.3853 15.0622C29.2083 15.1412 28.8977 15.3094 29.1164 15.5206C29.2037 15.5997 29.3312 15.5517 29.4314 15.5314C29.8916 15.4666 30.2892 15.3137 30.7518 15.2268C31.6098 15.1183 32.7149 15.2323 33.0943 16.1363C33.2121 16.8701 32.3522 17.4822 31.8821 17.9424C31.7854 18.042 31.6129 18.0847 31.5824 18.2334C31.5779 18.2649 31.5809 18.297 31.591 18.3271C31.6011 18.3573 31.6181 18.3847 31.6407 18.4071C31.6632 18.4295 31.6907 18.4463 31.7209 18.4563C31.7511 18.4662 31.7832 18.4689 31.8147 18.4643C32.5177 18.3407 33.1852 18.0294 33.9077 18.0156C36.3783 18.1598 35.5645 19.5196 34.1299 20.5744C34.0867 20.5741 34.0445 20.5876 34.0094 20.6128C33.9743 20.638 33.948 20.6736 33.9344 20.7147C33.9209 20.7557 33.9206 20.8 33.9338 20.8412C33.947 20.8824 33.9728 20.9183 34.0077 20.9439C34.0165 20.9507 34.0261 20.9565 34.0362 20.9612C34.2091 21.1221 34.5854 20.8783 34.8132 20.9328C35.5696 20.9536 36.9094 21.0199 36.8586 22.0508C36.5856 22.9454 35.6107 23.4032 34.8705 23.8706C34.8428 23.8872 34.8195 23.9104 34.8028 23.9381C34.7861 23.9658 34.7764 23.9971 34.7746 24.0294C34.7728 24.0617 34.7789 24.0939 34.7924 24.1233C34.8059 24.1527 34.8264 24.1783 34.8521 24.1979C35.2324 24.306 35.6549 24.0753 36.0409 24.0254C36.5587 23.963 37.4906 23.8725 37.8598 24.2986C38.3569 25.0055 36.93 25.9771 36.4186 26.2952C36.3938 26.3183 36.3751 26.3473 36.3644 26.3795C36.3536 26.4118 36.3512 26.4462 36.3572 26.4796C36.3633 26.513 36.3776 26.5444 36.399 26.5708C36.4203 26.5972 36.448 26.6178 36.4794 26.6308C36.7038 26.6994 36.9155 26.5435 37.1276 26.4922C37.4854 26.429 37.8503 26.4034 38.2096 26.3449C38.7865 26.2713 39.4183 26.4568 39.7375 26.9676C39.82 27.4853 39.4511 27.8568 39.0733 28.1458C38.8001 28.3938 38.4923 28.6007 38.1595 28.7601C38.1221 28.7504 38.0826 28.7518 38.0459 28.764C38.0092 28.7762 37.9768 28.7988 37.9526 28.829C37.9284 28.8592 37.9135 28.8957 37.9095 28.9342C37.9056 28.9727 37.9129 29.0115 37.9305 29.046C37.9262 29.0651 37.9238 29.0847 37.9232 29.1043C37.9487 29.291 38.1479 29.2818 38.2913 29.2549C38.5877 29.2551 38.8834 29.282 39.1749 29.3353C39.4058 29.4101 39.6215 29.5251 39.8122 29.6752C39.9114 29.7127 39.9944 29.7837 40.0468 29.8759C40.0992 29.9681 40.1178 30.0757 40.0994 30.1801C40.169 30.782 39.6696 31.1451 39.2567 31.4834Z" fill="#002726"/>
<path d="M12.2549 23.2871C11.8879 23.4363 11.5542 23.6568 11.273 23.9358C10.9918 24.2148 10.7687 24.5468 10.6165 24.9126C10.519 25.1835 10.3001 25.4793 10.394 25.7741C10.4873 25.9657 10.6651 25.8449 10.8154 25.8262C11.1464 25.8065 11.4658 25.6967 11.7389 25.5086C12.234 25.2407 12.643 24.838 12.9187 24.3472C13.0812 24.0058 13.171 23.6342 13.1821 23.2562C13.1017 22.9101 12.4758 23.228 12.2549 23.2871ZM10.8743 25.4368H10.8452C10.8356 25.4368 10.8268 25.4368 10.8166 25.4368C10.9158 25.1433 11.0544 24.8646 11.2286 24.6084C11.2542 24.6694 11.2839 24.7292 11.3096 24.7879C11.3839 24.9265 11.4886 25.0464 11.6159 25.1386C11.3822 25.2876 11.121 25.3885 10.8478 25.4354L10.8743 25.4368ZM12.3112 24.5416C12.2747 24.4292 12.2243 24.3218 12.1612 24.2219C12.0839 24.1066 11.9781 24.0133 11.8541 23.9509C12.122 23.7503 12.4286 23.6073 12.7545 23.531C12.7216 23.9072 12.5661 24.2623 12.312 24.5416H12.3112Z" fill="#002726"/>
</svg>
