<svg width="41" height="54" viewBox="0 0 41 54" fill="none" xmlns="http://www.w3.org/2000/svg">
<path d="M34.585 38.1366C34.5489 38.1679 34.5201 38.2068 34.5007 38.2505C34.4813 38.2941 34.4717 38.3416 34.4727 38.3894C34.4737 38.4371 34.4853 38.4841 34.5065 38.5269C34.5277 38.5698 34.5582 38.6074 34.5956 38.6371C34.8789 38.8147 35.1629 38.4333 35.0453 38.1683C35.0332 38.1184 35.0055 38.0736 34.9662 38.0404C34.9269 38.0073 34.878 37.9875 34.8268 37.984C34.7755 37.9804 34.7244 37.9933 34.6809 38.0208C34.6375 38.0482 34.6039 38.0888 34.585 38.1366Z" fill="#002726"/>
<path d="M9.32417 36.3299C8.89861 36.278 8.79452 36.9646 9.20377 37.0542C9.68264 37.159 9.85429 36.332 9.32417 36.3299Z" fill="#002726"/>
<path d="M36.4568 36.3074C36.2349 36.1364 35.9776 36.0172 35.7038 35.9584C35.4346 35.8413 35.1452 35.7777 34.8517 35.7711C34.4639 35.7624 34.08 35.8507 33.7349 36.028C33.3898 36.2052 33.0944 36.4658 32.8755 36.7861C31.6954 38.5253 32.4194 40.4796 34.5893 40.7025C35.4411 40.7666 36.303 40.4766 36.695 39.6669C37.1183 39.1202 37.1248 38.4233 37.1629 37.7624C37.2171 37.182 36.8697 36.6813 36.4568 36.3074ZM36.5386 39.1623C36.167 39.8886 35.7731 40.2942 34.9163 40.3126C33.9918 40.3542 32.8909 39.8204 32.7299 38.8314C32.572 37.5924 33.4452 36.1261 34.7979 36.1633C34.9239 36.2605 35.1049 36.1847 35.2522 36.2093C35.3778 36.2431 35.5 36.2886 35.6171 36.3451C35.879 36.4073 36.1204 36.5357 36.3185 36.718C36.5165 36.9002 36.6644 37.1302 36.7481 37.386C36.7775 37.9221 36.7773 38.6772 36.5386 39.1623Z" fill="#002726"/>
<path d="M12.7327 33.743C12.4833 33.5592 12.303 33.2736 11.9953 33.1759C11.6276 33.061 11.2841 32.8542 10.8889 32.8377C10.4932 32.8393 10.1119 32.6847 9.71695 32.698C8.79459 32.4576 7.79364 32.8071 6.97973 33.2465C6.31726 33.6525 5.69454 34.5889 5.42569 35.312C5.18169 35.9887 5.09941 36.7132 5.18543 37.4274C5.27146 38.1416 5.5234 38.8258 5.92111 39.4252C6.89586 40.5001 8.4159 40.8823 9.82265 40.9092C10.9677 40.845 12.1391 40.4399 12.9569 39.6139C13.9611 38.4174 14.1927 36.6641 13.7184 35.1958C13.5674 34.6122 13.2191 34.0989 12.7327 33.743ZM12.101 39.8037C11.826 40.0099 11.5109 40.1561 11.1759 40.2329C10.6042 40.4656 9.98358 40.5524 9.36997 40.4857C8.27987 40.4443 6.52384 39.9112 6.04703 38.8436C5.11732 37.2303 5.52588 35.19 6.7966 33.8772C7.54557 33.255 8.50897 32.9517 9.47935 33.0328C9.52914 33.0725 9.58855 33.0985 9.65156 33.108C9.71458 33.1174 9.77898 33.1101 9.83827 33.0868C10.2519 33.1674 10.6712 33.2095 11.089 33.2639C11.3877 33.3469 11.6687 33.4836 11.9597 33.5884C12.293 33.8566 12.6112 34.1432 12.9128 34.4467C13.3894 35.0671 13.5119 35.8833 13.5737 36.6478C13.5438 37.8252 13.1617 39.16 12.101 39.8037Z" fill="#002726"/>
<path d="M40.4115 37.114C40.2178 36.0495 39.7943 35.04 39.1707 34.1558C38.5846 33.3307 37.758 32.7069 36.8039 32.3694C36.9371 31.8482 36.7862 30.623 36.8312 30.4116C36.9861 28.79 36.8691 27.1689 36.8583 25.5438C36.8526 24.9533 36.8535 24.363 36.8583 23.7724C36.867 23.7425 36.8677 23.7109 36.8603 23.6806C36.8529 23.6504 36.8378 23.6226 36.8163 23.6001C36.8171 23.548 36.8067 23.4964 36.7856 23.4488C36.7645 23.4012 36.7334 23.3587 36.6943 23.3243C36.4948 23.2613 36.2894 23.2193 36.0812 23.1991C35.4203 23.1037 34.7514 23.1315 34.0869 23.089C33.5448 23.0557 33.0021 23.047 32.4595 23.0474C32.4913 22.6953 32.4926 22.341 32.4632 21.9886C32.4593 21.3769 32.5119 20.7664 32.4765 20.1542C32.479 19.743 32.4536 19.3321 32.4002 18.9244C32.4043 18.3989 32.3756 17.8737 32.3145 17.3517C32.2716 17.2201 32.1558 17.2056 32.0358 17.2017C32.0344 17.1573 32.0294 17.1123 32.0319 17.07C32.0537 16.2483 32.0034 15.3926 32.1468 14.5826C32.2196 14.2609 32.6631 14.5267 32.6964 14.1738C32.6696 13.7119 32.8874 13.3771 32.235 13.3824C31.17 13.421 31.1904 14.4854 31.1812 15.2979C31.1927 15.6228 31.1845 15.9477 31.1812 16.2729C31.1932 16.5803 31.2334 16.8853 31.2192 17.192C31.2056 17.1964 31.1918 17.2012 31.178 17.206C30.9664 17.21 30.8501 17.2842 30.8453 17.5062C30.7738 17.9584 30.7764 18.4177 30.7479 18.8734C30.7175 19.2036 30.6854 19.5333 30.6582 19.8638C30.6164 20.7018 30.7214 21.5389 30.7116 22.3767C30.706 22.5311 30.7031 22.6855 30.6978 22.8399C30.6954 22.9105 30.6893 22.9809 30.6796 23.0509C29.664 23.0405 28.6465 23.1198 27.6329 23.0015C27.6186 22.9986 27.6042 22.9967 27.5897 22.9957C27.509 22.737 27.3139 22.407 27.2521 22.1972C26.9534 21.4826 26.6914 20.7372 26.3656 20.0179C25.1778 17.2605 24.0409 14.4762 22.9315 11.6859C22.9378 11.7049 22.9414 11.7247 22.942 11.7447C22.9373 11.6934 22.9161 11.6451 22.8816 11.6069C22.8652 11.5719 22.8379 11.5433 22.8039 11.5251C22.7698 11.507 22.7308 11.5004 22.6927 11.5062C22.3375 11.5379 21.9783 11.531 21.6212 11.5393C21.0697 11.5476 20.5164 11.583 19.9622 11.6181C19.9309 11.0377 19.8634 10.4692 19.8229 9.88736C19.7597 9.08311 19.7949 9.20145 19.0249 9.15572C18.7721 9.18652 18.4826 9.07323 18.2505 9.19134C18.032 9.42825 18.1416 9.96756 18.1236 10.2803C18.1269 10.7532 18.1466 11.2266 18.139 11.6992C18.1014 11.6992 18.0637 11.6992 18.026 11.6992C16.8063 11.7507 15.5965 11.9191 14.3839 12.0474C13.5357 12.0825 12.7028 12.2512 11.8599 12.3415C11.3314 12.3996 10.7997 12.4449 10.2744 12.5292C10.1531 12.532 10.0343 12.5641 9.92809 12.6227C9.81067 12.6246 9.68176 12.751 9.68429 13.0704C9.54641 14.3363 9.47012 15.6088 9.33961 16.877C9.34397 17.7614 9.23689 18.6422 9.16658 19.5234C9.01515 22.2191 8.93358 24.985 9.02549 27.685C8.94713 27.685 8.86901 27.685 8.79111 27.685C8.19849 27.6868 7.6215 27.8617 7.03646 27.9419C6.52909 28.1381 6.01943 28.3302 5.51183 28.529C4.97096 28.6858 4.46773 28.9512 4.03293 29.3091C3.22562 29.8098 2.50543 30.4389 1.90074 31.1715C1.20633 31.9553 0.907147 32.9719 0.55006 33.9331C0.320274 35.0177 -0.179512 36.1248 0.0663592 37.2475C0.117372 37.4952 0.0838231 37.9027 0.232035 38.1363C0.227791 38.1804 0.238308 38.2246 0.261933 38.2621C0.285558 38.2995 0.320953 38.328 0.362554 38.3432C0.554244 38.3608 0.747519 38.3485 0.93541 38.3066C1.33087 38.2554 1.72725 38.2147 2.12363 38.1727C2.38457 39.556 2.97299 40.8568 3.83968 41.9662C4.212 42.428 4.66708 42.8163 5.18163 43.1115C5.6929 43.3249 6.15339 43.6487 6.67317 43.8385C7.11643 43.964 7.52039 44.1997 7.96273 44.3261C8.47758 44.4255 8.99731 44.4978 9.51976 44.5426C11.1332 44.6241 12.7209 44.1133 13.984 43.1062C14.666 42.5597 15.3278 41.9896 15.7633 41.2162C16.1554 40.4752 16.4942 39.7073 16.7773 38.9183C16.9222 38.9544 17.0713 38.9714 17.2206 38.9689C17.2665 38.9709 17.3125 38.9718 17.3585 38.9718C17.6262 38.9718 17.8955 38.9429 18.165 38.9397C18.3259 38.9606 18.5221 38.9236 18.534 38.7283C18.5281 38.2264 18.557 37.7241 18.58 37.2216C18.7121 37.2257 18.8433 37.2395 18.975 37.2494C19.1262 37.2606 19.2772 37.2696 19.4281 37.2792C20.5552 37.3319 21.6828 37.199 22.8108 37.1963C23.3984 37.1322 23.9811 37.2678 24.5682 37.2312C25.855 37.1706 27.1418 37.2404 28.4286 37.1708C28.5166 37.1738 28.6046 37.174 28.6924 37.1726C28.6534 37.4445 28.6235 37.7241 28.5982 38.0157C28.6614 38.3218 29.0796 38.1897 29.3092 38.2149C29.6362 38.2062 29.9627 38.2379 30.2894 38.2248C30.2555 38.616 30.2479 39.0091 30.2665 39.4013C30.4946 41.5843 32.7794 42.7617 34.7753 42.8844C35.4557 42.9281 36.1095 42.6728 36.7402 42.4478C37.3665 42.0927 37.9166 41.6176 38.3591 41.0496C38.8061 40.2934 39.0524 39.4356 39.0748 38.5575C39.1891 38.5349 39.3053 38.5233 39.4218 38.5228C39.7284 38.5035 40.0586 38.6053 40.3518 38.4969C40.6135 38.3216 40.4586 37.4164 40.4115 37.114ZM31.1385 18.915C31.1647 18.4752 31.1642 18.0321 31.2288 17.5953C31.5321 17.4827 31.6548 17.5583 31.9517 17.5926C31.9977 18.0342 31.9956 18.4777 32.0057 18.9205C32.0625 19.3784 32.0896 19.8396 32.0868 20.301C32.1192 20.858 32.0638 21.4139 32.0694 21.9707C32.1012 22.3289 32.0989 22.6894 32.0625 23.0472C31.7371 23.0497 31.4117 23.0543 31.0863 23.0578C31.0981 22.8969 31.076 22.7131 31.0958 22.6026C31.1104 22.0721 31.0972 21.5413 31.056 21.0122C31.0282 20.3124 31.0558 19.6114 31.1385 18.9159V18.915ZM18.5203 9.53395C18.8116 9.54958 19.1028 9.54843 19.3934 9.56911C19.4596 10.2585 19.5272 10.9478 19.5683 11.6411C19.2236 11.6622 18.8789 11.6806 18.5343 11.6905C18.5359 11.6353 18.5343 11.5811 18.5343 11.5354C18.5389 10.8692 18.4929 10.2019 18.5203 9.53487V9.53395ZM16.6886 37.7241C16.4954 38.8618 15.9577 39.9029 15.4708 40.9361C15.0408 41.7376 14.3448 42.3083 13.6509 42.8695C12.5652 43.6916 11.2454 44.1453 9.88374 44.1646C9.19215 44.1466 8.505 44.0483 7.83612 43.8716C7.31473 43.6121 6.73314 43.4959 6.2329 43.1937C5.85697 42.975 5.44175 42.8286 5.07386 42.5976C4.21939 41.9332 3.5578 41.0527 3.15744 40.047C2.25553 38.3696 2.21118 36.2002 2.74888 34.3943C3.24913 33.3198 3.85898 32.2541 4.79834 31.502C5.80497 30.6545 7.01403 30.0823 8.30764 29.8413C8.85284 29.6693 9.42802 29.6135 9.99611 29.6775C10.088 29.8055 10.2581 29.7365 10.39 29.7441C10.6392 29.7605 10.8875 29.7903 11.1335 29.8333C11.3863 29.938 11.6595 29.961 11.9178 30.0458C12.1543 30.1641 12.399 30.2653 12.6499 30.3487C13.2066 30.5825 13.7269 30.8949 14.195 31.2763C14.3447 31.3759 14.501 31.4652 14.6628 31.5436C14.9889 31.8241 15.2506 32.1732 15.5535 32.4783C16.0746 33.0987 16.4016 33.5381 16.5678 34.3552C16.8538 35.4442 16.7465 36.611 16.6886 37.725V37.7241ZM18.1351 38.5472C17.8088 38.55 17.4828 38.5966 17.1562 38.5702C17.0982 38.5732 17.0399 38.5677 16.9834 38.5539C16.9552 38.5484 16.9271 38.5431 16.8996 38.5396C16.9471 38.382 16.9915 38.2234 17.031 38.0633C17.2027 36.623 17.256 35.1121 16.7992 33.7203C16.6257 33.1075 16.181 32.6426 15.795 32.1578C15.374 31.7074 14.9995 31.2198 14.4275 30.9587C13.8447 30.4804 13.1806 30.1106 12.467 29.8673C11.7397 29.4867 10.913 29.418 10.1177 29.2972C9.42353 29.2143 8.71967 29.2825 8.05442 29.4973C5.95141 29.9158 3.95043 31.2667 2.94052 33.1805C2.32442 34.1462 2.00899 35.2731 2.03425 36.4182C2.00121 36.8522 2.00929 37.2884 2.05837 37.7209C2.05263 37.7195 2.04757 37.7177 2.0416 37.7165L2.04505 37.7526L2.04781 37.7843C1.54779 37.8358 1.048 37.8914 0.549369 37.959C0.545003 37.9146 0.541097 37.8705 0.539259 37.8257V37.8234C0.464578 37.4665 0.449643 37.0927 0.382085 36.7324C0.420083 36.0483 0.547393 35.3722 0.760774 34.7213C1.04364 33.6472 1.37476 32.5383 2.03792 31.629C2.77324 30.6435 3.76867 29.9268 4.78364 29.257C5.14923 29.024 5.58145 28.9447 5.97117 28.7638C6.36526 28.6358 6.74348 28.4752 7.12746 28.3233C7.52384 28.2489 7.92435 28.1981 8.3189 28.1119C9.40049 28.0219 10.4888 28.0555 11.5628 28.2121C12.0334 28.3413 12.4987 28.4853 12.9806 28.5683C13.5628 28.762 14.1295 28.9964 14.7152 29.1855C15.1596 29.3548 15.442 29.7567 15.7663 30.0817C16.2685 30.4946 16.7146 30.9713 17.0933 31.4999C18.4711 33.7764 18.2514 36.0225 18.1351 38.5481V38.5472ZM27.2248 31.7945C27.1348 32.9986 27.1279 34.2074 27.2041 35.4125C27.236 35.7902 27.2027 36.1691 27.2041 36.5474C27.2096 36.6239 27.1935 36.7199 27.1954 36.8063C26.1613 36.8176 25.1273 36.8188 24.0933 36.841C22.8524 36.7137 21.6044 36.8776 20.3613 36.887C19.7733 36.9536 19.1853 36.8429 18.5986 36.8364C18.605 36.6703 18.6099 36.5042 18.6117 36.3383C18.7342 33.9749 18.0336 31.3703 16.1045 29.8638C15.6374 29.3388 15.1383 28.8204 14.4232 28.6676C13.9608 28.5419 13.5346 28.3098 13.0718 28.1873C12.7102 28.1205 12.3528 28.033 12.0012 27.9251C11.1662 27.6776 10.287 27.6802 9.41796 27.6848C9.39269 27.2204 9.38809 26.7557 9.3874 26.2904C9.36121 25.1989 9.38143 24.1074 9.43474 23.0183C9.42807 21.3523 9.53791 19.6933 9.6875 18.0344C9.77643 16.3462 9.90787 14.658 10.0961 12.9778C10.1219 12.9722 10.1463 12.961 10.1673 12.9449C10.4389 12.8989 10.7128 12.8636 10.9863 12.83C12.2781 12.7094 13.556 12.4833 14.851 12.3973C16.2579 12.2013 17.6752 12.0903 19.0954 12.0648C20.2593 11.9775 21.4259 11.9414 22.5944 11.9017C23.0523 12.9927 23.4473 14.109 23.9244 15.1934C25.0177 17.8841 26.1763 20.5317 27.2563 23.2331C27.2606 23.2466 27.2665 23.2596 27.274 23.2717C27.2859 24.1219 27.2719 24.9735 27.3146 25.8237C27.2937 27.813 27.3808 29.8075 27.2248 31.7945ZM28.7579 36.7772C28.3687 36.7885 27.9793 36.7966 27.5899 36.8015C27.5977 36.7163 27.6 36.6306 27.5968 36.5451C27.6324 35.8426 27.5722 35.1434 27.5692 34.4409C27.4642 33.1677 27.6485 31.8986 27.686 30.6265C27.7471 28.25 27.686 25.8736 27.6687 23.4969C27.6664 23.4643 27.666 23.4316 27.6657 23.3992C27.8873 23.4149 28.1085 23.4346 28.3307 23.4438C29.0548 23.4765 29.78 23.4725 30.5036 23.4319C31.4898 23.4778 32.4777 23.4114 33.4642 23.4535C34.449 23.5224 35.4449 23.4677 36.4185 23.652C36.4185 23.6591 36.4185 23.666 36.4185 23.6731C36.4199 23.7157 36.4361 23.7563 36.4645 23.788C36.4521 23.9675 36.4702 24.1502 36.4622 24.3299C36.4482 25.7612 36.4911 27.1921 36.5325 28.6225C36.5279 29.5187 36.3739 30.4148 36.4583 31.3122C36.4661 31.5564 36.4583 31.8009 36.4463 32.0447C36.4451 32.1203 36.4341 32.1953 36.4137 32.2681C35.5237 32.0941 34.6034 31.9388 33.7144 32.1821C32.264 32.3455 30.7414 32.8255 29.9117 34.1149C29.3118 34.8925 28.9152 35.8073 28.7577 36.7767L28.7579 36.7772ZM38.2449 40.4335C37.9958 41.059 37.4406 41.4659 36.9268 41.8646C36.7284 42.0306 36.4944 42.1486 36.243 42.2093C35.857 42.3568 35.4532 42.4528 35.0421 42.4947C32.8948 42.4908 30.3545 41.0755 30.6576 38.6318C30.7332 37.2301 31.1521 35.6866 32.4005 34.8929C32.795 34.6921 33.1868 34.4749 33.5984 34.3111C34.0828 34.2205 34.5727 34.1621 35.0648 34.1362C36.2211 34.366 36.8572 34.2817 37.7244 35.2882C37.9659 35.7227 38.0835 36.2231 38.349 36.6522C38.4838 37.058 38.5167 37.4881 38.6654 37.8953C38.7438 38.7633 38.599 39.6369 38.2446 40.4331L38.2449 40.4335ZM40.0907 38.1527C39.9191 38.1756 39.4092 38.0948 39.0719 38.1423C39.0663 38.0189 39.0565 37.8963 39.0424 37.7747C38.9359 37.4653 38.8603 37.1461 38.8168 36.8217C38.7352 36.4261 38.4655 36.1048 38.3439 35.7229C38.1583 35.1183 37.7418 34.6112 37.1849 34.3116C36.8154 34.0011 36.3057 33.9804 35.8546 33.8688C35.1239 33.7247 34.3711 33.7345 33.6443 33.8975C33.0966 34.0777 32.5731 34.3247 32.0857 34.6328C31.6132 35.0124 31.1162 35.4166 30.919 36.0115C30.6183 36.5789 30.4212 37.1955 30.337 37.8321C30.2977 37.8321 30.2589 37.8349 30.2221 37.8383C29.8209 37.8314 29.4195 37.8222 29.018 37.8252C29.0738 37.1058 29.2121 36.3951 29.4303 35.7073C29.8223 34.9175 30.2789 34.1259 30.9583 33.5473C31.9694 32.7449 33.3251 32.6362 34.5584 32.4443C35.3151 32.4557 36.0672 32.5645 36.7961 32.7681C37.3879 33.0313 37.9301 33.3944 38.3988 33.8414C39.4797 35.0177 40.0829 36.5548 40.0905 38.1522L40.0907 38.1527Z" fill="#002726"/>
<path d="M23.1322 26.0754C22.8259 26.1843 21.2434 25.8226 21.5359 26.4313C21.6241 26.551 21.7613 26.4844 21.8806 26.4745C22.3156 26.4474 22.7538 26.5191 23.1876 26.4646C23.2379 26.4558 23.2827 26.4277 23.3127 26.3864C23.3426 26.3451 23.3554 26.2937 23.3482 26.2432C23.341 26.1927 23.3144 26.1469 23.2741 26.1156C23.2338 26.0843 23.183 26.0699 23.1322 26.0754Z" fill="#002726"/>
<path d="M23.3461 22.4684C22.8954 20.9711 22.3662 19.5021 21.8044 18.043C21.4839 17.2063 21.153 16.3743 20.7743 15.5613C20.6555 15.3171 20.5542 15.0647 20.471 14.8062C20.4627 14.7828 20.4501 14.7612 20.4337 14.7426C20.4194 14.7043 20.3938 14.6713 20.3604 14.6478C20.3269 14.6244 20.2871 14.6117 20.2462 14.6114C19.5137 14.6102 18.7862 14.6309 18.0527 14.5884C17.1951 14.6033 16.339 14.6573 15.4812 14.6741C14.9685 14.6897 14.4575 14.7288 13.946 14.7626C13.7642 14.7761 13.3775 14.7653 13.343 14.956C13.2746 15.0784 13.2466 15.2192 13.2628 15.3584C13.2003 16.1304 13.1909 16.9059 13.2345 17.6792C13.2205 18.0432 13.1925 18.407 13.198 18.7716C13.1491 20.169 13.181 21.5679 13.2936 22.9616C13.3311 23.3049 13.3529 23.6493 13.3655 23.9956C13.3754 24.1155 13.34 24.2651 13.4381 24.3531C13.4316 24.3894 13.4353 24.4269 13.4488 24.4612C13.4622 24.4955 13.4849 24.5255 13.5144 24.5477C13.5438 24.57 13.5788 24.5836 13.6155 24.5871C13.6523 24.5907 13.6892 24.584 13.7224 24.5678C14.1286 24.6011 14.5344 24.5678 14.9402 24.5634C15.2898 24.5946 15.6409 24.5836 15.9908 24.6059C16.918 24.5907 17.8482 24.5776 18.7738 24.5174C19.5739 24.4189 20.34 24.36 21.1537 24.3182C21.949 24.261 22.7576 24.1847 23.5549 24.139C23.6018 24.1345 23.6452 24.112 23.6757 24.0761C23.7063 24.0403 23.7216 23.9939 23.7185 23.9469C23.7132 23.8036 23.6839 23.6623 23.6319 23.5287C23.5297 23.1776 23.4547 22.8186 23.3461 22.4684ZM22.8791 22.5723C22.561 22.2931 22.2231 22.0373 21.8681 21.8069C21.5379 21.5716 21.2279 21.3092 20.903 21.0663C20.8533 21.0281 20.8016 20.9921 20.7522 20.9537C20.8576 20.8001 20.9543 20.6407 21.0418 20.4762C21.1529 20.3013 21.2345 20.1092 21.283 19.9077C21.3027 19.8259 21.2995 19.7402 21.2736 19.6601C21.2477 19.58 21.2002 19.5087 21.1364 19.4538C21.0726 19.399 20.9948 19.3628 20.9118 19.3493C20.8287 19.3358 20.7435 19.3455 20.6656 19.3774C20.2657 19.677 19.9138 20.0359 19.6221 20.4417C19.4083 20.7169 19.2105 21.0043 19.0298 21.3023C18.7922 21.6991 18.6081 22.2444 19.2271 22.3735C19.6283 22.4278 19.9018 22.0374 20.1293 21.7651L20.1419 21.7497C20.1504 21.7556 20.1592 21.7616 20.1686 21.7671C20.6612 22.1463 21.1337 22.5505 21.6346 22.9197C22.0397 23.2065 22.4487 23.4901 22.8428 23.7929C21.6746 23.8901 20.5052 23.9538 19.3335 24.0592C18.1902 24.1795 17.0404 24.227 15.8911 24.2017C15.881 24.0974 15.871 23.9931 15.861 23.8887C15.8032 23.1979 15.7818 22.5045 15.7967 21.8115C15.79 21.4898 15.824 21.1701 15.8493 20.8505C15.8383 20.4891 15.8493 20.1232 15.8054 19.7645C15.4281 18.5451 14.6542 19.5134 14.5517 20.2813C14.3826 20.8919 14.4441 21.5341 14.3963 22.1603C14.3785 22.6588 14.4071 23.1579 14.4818 23.6511C14.5133 23.8207 14.4968 24.0078 14.5195 24.1824C14.3483 24.1893 14.1767 24.196 14.0059 24.1888C13.9253 24.1872 13.8432 24.1771 13.7617 24.1748V24.1734C13.7566 24.0668 13.7603 23.9597 13.7529 23.8517C13.7371 23.2341 13.6201 22.6256 13.6282 22.0066C13.5278 20.8091 13.5898 19.6083 13.5939 18.4083C13.6507 17.7459 13.6017 17.0855 13.6034 16.4228C13.5778 16.037 13.644 15.6721 13.6567 15.2842C13.6601 15.2513 13.6649 15.2152 13.6682 15.1803C13.9154 15.1548 14.1638 15.1438 14.4117 15.1256C15.1103 15.061 15.8123 15.0813 16.5108 15.0277C16.9897 15.0149 17.4796 15.0059 17.9612 14.9797C18.3443 14.9933 18.7267 15.0206 19.1102 15.0068C19.3889 14.9944 19.6676 15.0201 19.9459 15.0068C19.9981 15.0031 20.0608 15.0068 20.1247 15.0082C20.3391 15.6374 20.6626 16.2286 20.914 16.8504C21.4409 18.2013 21.9772 19.5515 22.4389 20.9252C22.6282 21.4997 22.8178 22.0755 22.9878 22.6562C22.9522 22.6281 22.9154 22.6003 22.8784 22.5723H22.8791ZM20.0273 21.268C19.8168 21.4978 19.626 21.8593 19.3202 21.9884C19.2965 21.9896 19.2729 21.9852 19.2512 21.9758C19.2295 21.9664 19.2103 21.952 19.195 21.934C19.3177 21.3935 20.0744 20.4668 20.4756 20.0555C20.5702 19.9916 20.7855 19.6878 20.8853 19.7524C20.9848 20.0005 20.2182 21.05 20.0273 21.268Z" fill="#002726"/>
<path d="M30.4543 29.7966C30.481 29.4163 30.4543 29.0346 30.4644 28.6543C30.4564 28.1258 30.5563 27.5637 30.5221 27.0295C30.5538 26.7747 30.512 26.3509 30.1544 26.552C29.5273 26.5497 29.8403 27.3971 29.7868 27.7873C29.7165 28.2768 29.6747 28.77 29.6615 29.2644C29.6737 29.5468 29.5873 29.9749 29.9309 30.0866C30.1276 30.1102 30.4773 30.0599 30.4543 29.7966Z" fill="#002726"/>
<path d="M31.9963 29.9983C32.2608 29.9592 32.676 30.0902 32.6204 29.6718C32.6939 28.8116 32.7117 27.9476 32.6737 27.0851C32.6737 26.8505 32.6618 26.3764 32.3084 26.4996C32.0097 26.5779 31.8362 26.694 31.8488 27.0281C31.8157 27.6866 31.7854 28.3461 31.8109 29.0056C31.8697 29.2703 31.634 29.9413 31.9963 29.9983Z" fill="#002726"/>
<path d="M34.0209 29.8429C34.5494 29.8889 34.5526 29.5768 34.5648 29.1536C34.6245 28.486 34.5717 27.8164 34.6142 27.148C34.5926 26.8897 34.7135 26.2254 34.2649 26.3706C34.1197 26.4092 33.9071 26.4435 33.8584 26.6075C33.8267 27.452 33.7796 28.3015 33.8168 29.1487C33.824 29.3801 33.693 29.7912 34.0209 29.8429Z" fill="#002726"/>
<path d="M38.4241 46.1973C37.4965 46.0837 36.5561 46.2507 35.7244 46.6768C35.2361 46.9668 34.8565 47.403 34.4449 47.7881C34.4415 47.7881 34.438 47.7881 34.4346 47.7901C34.2227 47.8543 34.023 47.9528 33.8174 48.0342C33.4713 48.1911 33.1034 48.2902 32.7473 48.4188C32.4874 48.5353 32.224 48.6445 31.9621 48.7566C32.2105 48.4486 32.4406 48.1264 32.6515 47.7915C32.7523 47.5328 32.8904 47.2874 32.9807 47.0259C33.0267 46.7961 32.8877 46.3891 32.6 46.5969C32.3838 46.7524 32.1786 46.9209 31.9779 47.0957C31.3283 47.6379 30.7794 48.2905 30.3566 49.0234C30.0903 49.1249 29.8178 49.2094 29.5408 49.2762C28.9795 49.4631 28.4011 49.5939 27.814 49.6668C27.9289 49.4618 28.0966 49.2902 28.2023 49.0804C28.308 48.8706 28.3717 48.6438 28.468 48.4285C28.5555 48.1913 28.7354 47.9521 28.6647 47.6883C28.6507 47.6557 28.6289 47.6271 28.601 47.6051C28.5731 47.5832 28.5402 47.5686 28.5052 47.5627C28.4702 47.5568 28.4343 47.5597 28.4008 47.5713C28.3672 47.5829 28.3372 47.6028 28.3133 47.6291C27.9312 47.9673 27.4266 48.161 27.1267 48.5877C27.0047 48.7412 26.4452 49.3665 26.293 49.7704C26.2782 49.7751 26.2636 49.7809 26.2496 49.7877C26.0238 49.8547 25.7947 49.9102 25.5632 49.954C25.0991 50.0257 24.5922 50.1 24.1199 50.1592C24.3625 49.8482 24.5589 49.5037 24.7029 49.1365C24.7604 48.8899 25.0345 48.3423 24.6698 48.238C24.4747 48.2196 24.3435 48.411 24.1962 48.5108C23.9152 48.705 23.6492 48.92 23.4005 49.1541C23.1157 49.4766 22.8551 49.8196 22.6208 50.1804C22.0176 50.3054 21.403 50.3571 20.7926 50.4308C21.0347 50.1806 21.2352 49.8933 21.3864 49.5797C21.4784 49.4579 21.5428 49.3176 21.5751 49.1684C21.6006 48.9271 21.7543 48.6677 21.641 48.4331C21.5183 48.2194 21.3193 48.3324 21.1814 48.459C20.9075 48.6397 20.6472 48.8389 20.3749 49.0218C20.0102 49.2286 19.7855 49.588 19.533 49.9097C19.3994 50.0385 19.2852 50.186 19.1938 50.3474C18.6843 50.4348 18.1676 50.4739 17.6508 50.4642C18.0257 50.0496 18.3446 49.5875 18.5991 49.0898C18.6543 48.9071 18.6999 48.7217 18.7356 48.5342C18.7604 48.4999 18.7742 48.4588 18.7752 48.4165C18.7762 48.3741 18.7643 48.3325 18.7411 48.297C18.718 48.2616 18.6846 48.234 18.6454 48.2179C18.6062 48.2018 18.5631 48.198 18.5217 48.207C18.2542 48.3274 18.0791 48.593 17.8275 48.7433C17.4853 48.9305 17.1908 49.1941 16.9669 49.5135C16.7831 49.7475 16.5455 49.9676 16.4844 50.2695C16.3945 50.2741 16.3061 50.295 16.2167 50.3072C15.9738 50.3286 15.7309 50.2946 15.4878 50.2941C15.126 50.3098 14.7636 50.3025 14.4028 50.2723C14.5176 50.1301 14.6376 49.9931 14.7458 49.8467C14.8263 49.6709 14.9328 49.5082 15.0618 49.3642C15.1379 49.226 15.1859 49.0741 15.2031 48.9172C15.2507 48.7387 15.2856 48.4604 15.0372 48.4326C14.9336 48.4414 14.8348 48.4805 14.7532 48.545C14.533 48.665 14.322 48.8011 14.122 48.9522C13.6735 49.2299 13.3047 49.6192 13.0516 50.082C12.6454 50.031 12.2347 50.0478 11.8285 49.9931C12.1988 49.6977 12.4656 49.2922 12.5904 48.8352C12.6398 48.667 12.5419 48.4446 12.339 48.5043C12.1819 48.5758 12.019 48.6335 11.8565 48.6911C11.2361 48.9531 10.6667 49.3223 10.1742 49.7817C9.5605 49.7362 8.95538 49.6105 8.37432 49.4078C8.63135 49.2 8.86789 48.968 9.08068 48.715C9.21723 48.5169 9.33581 48.307 9.43501 48.0877C9.46002 48.0457 9.46832 47.9958 9.45828 47.948C9.44823 47.9002 9.42057 47.8578 9.38078 47.8294C9.22614 47.7194 8.98762 47.9236 8.81413 47.9563C8.20062 48.1709 7.63332 48.4998 7.1422 48.9255C6.96665 48.8979 6.78764 48.8943 6.61163 48.8692C6.41716 48.8247 6.22537 48.7692 6.03716 48.7031C5.73802 48.649 5.44291 48.5746 5.15386 48.4804C4.78271 48.3659 4.40523 48.273 4.02332 48.2022C3.64669 48.0374 3.25394 47.9122 2.85141 47.8287C2.60209 47.7617 1.98994 47.4264 1.80358 47.6762C1.76852 47.757 1.74359 47.8419 1.72936 47.9289C1.69219 48.0116 1.6689 48.0999 1.66043 48.1902C1.64747 48.2261 1.64531 48.265 1.65422 48.3021C1.64008 48.3272 1.63163 48.3552 1.62946 48.3839C1.6273 48.4127 1.63147 48.4416 1.64168 48.4686C1.65189 48.4955 1.66789 48.5199 1.68856 48.54C1.70923 48.5602 1.73406 48.5755 1.7613 48.585C2.27161 48.8115 2.7971 49.0022 3.33396 49.1555C4.41994 49.5473 5.52665 49.8791 6.64908 50.1494C6.72195 50.3209 6.81839 50.4815 6.93563 50.6264C7.034 50.7738 7.14735 50.9106 7.27387 51.0347C7.74466 51.4652 8.30498 51.786 8.91454 51.9741C8.95357 51.9959 8.99856 52.0047 9.04293 51.9991C9.0873 51.9935 9.12872 51.9739 9.16111 51.9431C9.19351 51.9122 9.21518 51.8719 9.22295 51.8278C9.23073 51.7838 9.22419 51.7384 9.2043 51.6983C9.19003 51.6052 9.15755 51.5158 9.10871 51.4352C9.00853 51.171 8.86053 50.9274 8.67212 50.7167C9.17903 50.8895 9.67858 50.943 10.1807 51.1662C10.507 51.708 10.8785 52.2691 11.4495 52.5777C11.8072 52.7321 12.1759 52.8596 12.5525 52.9592C12.5823 52.9711 12.6145 52.9758 12.6465 52.9729C12.6785 52.97 12.7093 52.9597 12.7366 52.9427C12.7638 52.9258 12.7867 52.9026 12.8033 52.8752C12.82 52.8477 12.8299 52.8168 12.8324 52.7848C12.8169 52.6676 12.7674 52.5576 12.6899 52.4684C12.4545 52.0472 12.1563 51.6643 11.8055 51.333C12.2621 51.4047 12.7224 51.4507 13.1842 51.4709C13.3129 51.6556 13.4643 51.8236 13.6348 51.9706C13.8 52.1621 13.9961 52.3246 14.215 52.4511C14.4996 52.6056 14.7921 52.7452 15.0912 52.8693C15.261 52.927 15.4359 52.9709 15.6002 53.0412C15.6483 53.0515 15.6986 53.044 15.7416 53.02C15.7846 52.996 15.8175 52.9573 15.8341 52.9109C15.8842 52.7655 15.7422 52.6595 15.7102 52.5267C15.6015 52.3084 15.4535 52.1118 15.2736 51.947C15.177 51.8171 15.0703 51.695 14.9545 51.5818C15.4632 51.6646 15.9795 51.6901 16.4878 51.7758C16.7211 52.0368 16.8927 52.3502 17.1473 52.5913C17.6832 52.9877 18.3613 53.1318 19.0022 53.2641C19.0431 53.2758 19.0867 53.2745 19.1269 53.2602C19.167 53.246 19.2017 53.2196 19.2262 53.1847C19.2506 53.1498 19.2635 53.1081 19.2632 53.0655C19.2628 53.0229 19.2491 52.9815 19.2241 52.947C19.001 52.5541 18.7245 52.194 18.4026 51.8769C18.3351 51.8109 18.2632 51.7495 18.1876 51.6931C18.6846 51.7176 19.1876 51.7487 19.6812 51.7666C19.8944 52.0887 20.1457 52.3839 20.4296 52.6458C20.8223 52.9199 21.3191 52.9891 21.7807 53.0736C21.9721 53.1072 22.1636 53.0773 22.3552 53.0966C22.3902 53.0942 22.424 53.0827 22.4532 53.0632C22.4824 53.0437 22.506 53.0169 22.5216 52.9854C22.5372 52.954 22.5443 52.919 22.5422 52.8839C22.54 52.8489 22.5287 52.815 22.5094 52.7857C22.1545 52.3605 21.7583 51.9716 21.3264 51.6248C21.906 51.617 22.5114 51.6306 23.0958 51.606C23.2738 51.8201 23.4753 52.0136 23.6965 52.1827C24.2428 52.5471 24.892 52.7258 25.5478 52.6924C25.7363 52.6531 26.0127 52.7236 26.1611 52.595C26.4599 52.2069 25.1349 51.4628 24.8417 51.3105C25.4683 51.268 26.0913 51.1841 26.711 51.083C26.8489 51.2146 27.0881 51.3433 27.1924 51.4686C27.4872 51.6984 27.8199 51.8749 28.1754 51.9902C28.5023 52.1162 28.8402 52.2116 29.1847 52.2751C29.4282 52.2859 30.3106 52.257 29.9802 51.8385C29.8768 51.7496 29.7922 51.6416 29.6886 51.5527C29.275 51.2539 28.9029 50.8906 28.4369 50.6744C29.0932 50.5701 29.7401 50.4099 30.3979 50.3068C30.8777 50.2045 30.9235 50.1229 31.3532 50.4297C31.738 50.5864 32.1354 50.7104 32.5412 50.8003C32.8472 50.8233 34.4629 51.0398 34.2115 50.4439C33.9985 50.2707 33.7616 50.1292 33.5081 50.0239C33.1959 49.8393 32.8696 49.6795 32.5324 49.5459C33.0226 49.381 33.5113 49.2121 33.9858 49.0041C34.2088 48.9051 34.4387 48.8223 34.6736 48.7564C35.1908 48.8974 35.7385 48.8782 36.2446 48.7015C36.9634 48.4681 37.5723 47.9807 37.9574 47.3306C38.104 47.1323 38.2417 46.9278 38.3823 46.7251C38.4341 46.6627 38.4901 46.6039 38.5498 46.5491C38.5756 46.5207 38.5931 46.4858 38.6006 46.4482C38.6081 46.4106 38.6052 46.3716 38.5923 46.3355C38.5794 46.2994 38.557 46.2675 38.5274 46.2431C38.4977 46.2188 38.4621 46.2029 38.4241 46.1973ZM36.379 48.2359C35.7304 48.5307 35.2832 48.4726 34.6097 48.3568C33.952 48.5588 33.3188 48.8814 32.6565 49.0907C32.4267 49.1673 32.1956 49.2398 31.963 49.3081C31.9205 49.3138 31.8807 49.3319 31.8485 49.3602C31.8163 49.3885 31.7932 49.4256 31.7821 49.467C31.7709 49.5084 31.7722 49.5521 31.7859 49.5927C31.7995 49.6334 31.8248 49.669 31.8587 49.6953C32.1115 49.826 32.3957 49.8948 32.651 50.0269C32.955 50.1448 33.2222 50.3341 33.5189 50.4653C32.9124 50.4822 32.3086 50.3779 31.7429 50.1585C31.4527 50.0761 31.2373 49.8424 30.9274 49.8074C30.7463 49.7845 30.5776 49.8904 30.3989 49.9072C30.0716 49.9743 29.7419 50.0262 29.4124 50.0797C29.0516 50.1441 28.7 50.2606 28.3335 50.2902C28.1219 50.3341 27.8108 50.3086 27.6575 50.474C27.4826 50.8311 28.1591 50.9196 28.3652 51.0814C28.7478 51.3194 29.1127 51.5845 29.4572 51.8748C29.0895 51.9274 28.7416 51.7579 28.4002 51.6464C27.8404 51.5315 27.4243 51.1204 26.9778 50.7962C26.9537 50.7649 26.9213 50.741 26.8843 50.7273C26.8647 50.709 26.8413 50.6954 26.8158 50.6874C26.7902 50.6794 26.7632 50.6774 26.7368 50.6813C26.2866 50.7686 25.8284 50.7944 25.3785 50.8769C24.9899 50.8933 24.6026 50.9321 24.2185 50.9931C24.1751 50.9917 24.1323 51.0042 24.0965 51.0289C24.0606 51.0535 24.0336 51.089 24.0194 51.1301C24.0052 51.1712 24.0046 51.2158 24.0175 51.2573C24.0305 51.2988 24.0564 51.3351 24.0915 51.3608C24.6147 51.6473 25.1703 51.8914 25.6214 52.2914C25.0792 52.3358 24.5362 52.2176 24.0616 51.9518C23.7988 51.7802 23.5651 51.5679 23.369 51.3229C23.2226 51.1043 22.8904 51.2601 22.6666 51.2259C22.1408 51.2192 21.6254 51.2277 21.0971 51.2379C20.9381 51.23 20.7779 51.2215 20.6192 51.2273C20.3728 51.2925 20.4353 51.5743 20.6421 51.6499C21.1099 51.9357 21.5341 52.2872 21.9018 52.6938C21.4762 52.6556 21.0616 52.5375 20.6798 52.3457C20.4093 52.0974 20.1734 51.8138 19.9785 51.5026C19.9506 51.4511 19.9061 51.4104 19.8524 51.3871C19.7986 51.3638 19.7386 51.3593 19.6819 51.3741C19.5231 51.3693 19.365 51.3557 19.2062 51.3511C18.6759 51.3318 18.1607 51.2889 17.6285 51.2785C17.5873 51.2801 17.5477 51.2947 17.5152 51.3201C17.4879 51.3256 17.4622 51.3375 17.4403 51.3548C17.4184 51.3721 17.4009 51.3943 17.3893 51.4196C17.3772 51.4446 17.3703 51.4719 17.3693 51.4997C17.3682 51.5274 17.3728 51.5551 17.3829 51.581C17.3931 51.6069 17.4084 51.6304 17.4281 51.6501C17.4477 51.6698 17.4712 51.6852 17.4971 51.6954C17.6637 51.807 17.8302 51.9196 17.9906 52.04C18.2451 52.2621 18.4708 52.515 18.6625 52.793C18.2325 52.7046 17.8197 52.5468 17.4403 52.3259C17.1944 52.1177 17.0538 51.8153 16.8314 51.5846C16.6988 51.3362 16.3867 51.3711 16.1466 51.3295C15.6326 51.2836 15.1236 51.1956 14.6093 51.1623C14.4944 51.1446 14.3823 51.1174 14.2676 51.1032C14.2194 51.0968 14.1704 51.1078 14.1295 51.1343C14.0886 51.1607 14.0584 51.2009 14.0444 51.2475C14.0304 51.2942 14.0335 51.3443 14.0531 51.3889C14.0727 51.4335 14.1075 51.4696 14.1514 51.4908C14.3692 51.6152 14.5711 51.7655 14.7527 51.9385C14.9136 52.1326 15.0804 52.3188 15.2461 52.5077C14.9262 52.3768 14.6144 52.2267 14.3127 52.0582C14.1406 51.9238 13.9792 51.7761 13.8301 51.6165C13.7413 51.5367 13.658 51.451 13.5808 51.3599C13.5479 51.285 13.4976 51.2191 13.4342 51.1675C13.4118 51.1422 13.3835 51.1225 13.3519 51.1103C13.1949 51.0672 13.0322 51.0482 12.8694 51.0538C12.5641 51.0413 12.2599 51.0097 11.9585 50.9591C11.6897 50.907 11.4335 50.8838 11.1632 50.8212C11.1227 50.8196 11.0825 50.8299 11.0478 50.8509C11.013 50.8718 10.9852 50.9026 10.9678 50.9393C10.9504 50.9759 10.9442 51.0169 10.95 51.0571C10.9557 51.0973 10.9731 51.1349 11.0001 51.1652C11.4777 51.5175 11.891 51.9494 12.2221 52.4419C11.4114 52.2944 10.9445 51.6763 10.5446 51.0117C10.4883 50.7737 10.1126 50.7429 9.91871 50.6503C9.58965 50.5287 9.23624 50.4982 8.90765 50.3768C8.62647 50.2771 8.33789 50.1996 8.04457 50.145C8.00691 50.1536 7.97239 50.1726 7.94486 50.1997C7.91733 50.2268 7.89786 50.261 7.88864 50.2986C7.87942 50.3361 7.88081 50.3754 7.89264 50.4122C7.90447 50.449 7.92628 50.4818 7.95565 50.5069C8.19508 50.8323 8.54872 51.0701 8.68774 51.4628C8.1671 51.2781 7.70589 50.9565 7.35269 50.5317C7.24992 50.3982 7.1542 50.2593 7.06591 50.1158C7.04643 50.0565 7.01749 50.0007 6.9802 49.9506C6.97568 49.9207 6.96392 49.8924 6.94593 49.868C6.92795 49.8437 6.9043 49.8242 6.87703 49.8111C6.59577 49.7047 6.28855 49.6732 6.00086 49.5813C5.71317 49.4894 5.41743 49.417 5.1256 49.3338C4.62375 49.1643 4.10903 49.0351 3.61797 48.8348C3.08303 48.6774 2.55671 48.4921 2.04118 48.2796C2.06021 48.1839 2.08601 48.0897 2.11839 47.9976C2.51064 48.1093 2.88817 48.2626 3.2903 48.3423C3.47589 48.3963 3.65672 48.4655 3.83099 48.5491C4.15498 48.6505 4.49438 48.7008 4.82435 48.7803C5.221 48.9202 5.62745 49.0305 6.04038 49.1105C6.37515 49.2347 6.72806 49.303 7.08499 49.3127C7.37842 49.3637 7.57719 49.0535 7.79732 48.9092C8.11988 48.6826 8.47037 48.4986 8.84009 48.3618C8.63834 48.7049 8.2955 48.9244 8.01447 49.1964C7.84489 49.27 7.66451 49.3816 7.80583 49.5855C7.95427 49.7727 8.2068 49.7534 8.41591 49.8217C8.8269 49.9746 9.25515 50.0763 9.69099 50.1245C10.3604 50.1475 10.1634 50.3592 10.6547 49.8718C11.0933 49.5076 11.588 49.2171 12.1196 49.0115C11.9486 49.3207 11.7145 49.5906 11.4325 49.8035C11.3046 49.9214 11.0127 49.9384 11.0511 50.1668C11.0895 50.4166 11.5883 50.3316 11.7917 50.3821C12.0725 50.4099 12.3535 50.4364 12.6359 50.4368C12.7638 50.4418 12.8912 50.4534 13.0178 50.4717C13.0724 50.4957 13.1337 50.4997 13.1909 50.4828C13.2481 50.466 13.2975 50.4295 13.3303 50.3798C13.6332 49.7502 14.2015 49.3283 14.7886 48.9781C14.7803 49.1277 14.6603 49.2118 14.5818 49.3242C14.4593 49.5685 14.304 49.7949 14.1201 49.997C14.0403 50.0898 13.9529 50.1758 13.8589 50.2541C13.522 50.688 14.312 50.6583 14.5599 50.6746C14.8824 50.6988 15.206 50.7031 15.5289 50.6873C15.8688 50.7159 16.2107 50.7082 16.549 50.6643C16.5907 50.6688 16.6327 50.6598 16.6689 50.6386C16.8141 50.6264 16.8527 50.4547 16.8732 50.3238C17.0136 49.9947 17.3047 49.7493 17.5166 49.463C17.7151 49.2302 18.0109 49.1247 18.2383 48.9278C18.0516 49.3152 17.8107 49.6741 17.5228 49.9936C17.3964 50.1619 17.2599 50.3223 17.114 50.474C16.9141 50.7417 17.1979 50.8562 17.4357 50.8486C17.8139 50.8546 19.322 50.8847 19.5008 50.5933C19.5951 50.4302 19.711 50.2807 19.8455 50.1487C19.9833 49.986 20.0939 49.8015 20.2361 49.6431C20.5496 49.372 20.8819 49.1234 21.2304 48.8991C21.1955 49.1169 21.1097 49.3234 20.9799 49.5018C20.8877 49.686 20.7742 49.8587 20.6417 50.0163C20.4974 50.1707 20.3561 50.3277 20.2051 50.4759C20.1728 50.5043 20.1499 50.5418 20.1394 50.5835C20.1288 50.6251 20.1311 50.669 20.146 50.7093C20.2356 50.9821 21.144 50.7652 21.3915 50.7553C21.7887 50.7247 22.1836 50.6689 22.5737 50.5883C22.6682 50.5991 22.7634 50.5755 22.8418 50.5217C22.9201 50.4679 22.9764 50.3876 23.0002 50.2955C23.0999 50.1517 23.2242 50.026 23.3219 49.88C23.6047 49.4791 23.9629 49.137 24.3764 48.8729C24.2146 49.3336 23.9685 49.7601 23.6507 50.1307C23.4092 50.2668 23.3789 50.5365 23.6889 50.5864C23.9166 50.59 24.1442 50.5709 24.3681 50.5294C24.9173 50.4435 25.4736 50.3932 26.0148 50.2613C26.1716 50.2283 26.3253 50.1822 26.4743 50.1234C26.5803 50.0986 26.6536 49.9678 26.6945 49.861C26.7487 49.7384 26.8159 49.622 26.8948 49.5138C27.2395 49.048 27.5865 48.5604 28.1054 48.2766C28.0105 48.4857 27.9507 48.7091 27.8466 48.9145C27.6821 49.1735 27.4928 49.4161 27.3445 49.6856C27.1662 49.8421 27.2575 50.1346 27.51 50.0846C27.8612 50.0693 28.2106 50.0253 28.5546 49.9531C29.0371 49.8539 29.4992 49.6838 29.9774 49.5712C30.1305 49.5299 30.2761 49.4653 30.4257 49.4143C30.5133 49.3913 30.6116 49.3759 30.6604 49.2893C30.8514 48.9354 31.0797 48.6029 31.3414 48.2975C31.6783 47.883 32.0621 47.5089 32.4851 47.1828C32.2813 47.672 31.9983 48.1242 31.6475 48.5213C31.4827 48.7074 31.3292 48.9032 31.1879 49.1077C31.1385 49.3626 31.3899 49.3975 31.574 49.3194C32.0027 49.177 32.4219 49.0078 32.8293 48.8127C33.143 48.6842 33.4755 48.6059 33.7884 48.4749C34.0364 48.3782 34.2758 48.2564 34.5286 48.1739L34.5424 48.1695C34.5893 48.1694 34.6344 48.1512 34.6683 48.1187C35.0008 47.8003 35.3225 47.4696 35.6805 47.1782C36.36 46.6982 37.2201 46.5734 38.0326 46.5387C37.5769 47.1794 37.1539 47.9395 36.38 48.2359H36.379Z" fill="#002726"/>
<path d="M38.3816 7.07081C38.3701 7.02722 38.3438 6.98901 38.3071 6.96281C38.0465 6.77347 37.8377 6.52163 37.5612 6.35365C37.0899 6.07584 36.6487 5.73782 36.1706 5.4607C35.9744 5.35855 35.7843 5.24523 35.6011 5.12131C35.3254 4.99773 35.0585 4.85547 34.8022 4.69551C34.7596 4.59113 34.7411 4.47852 34.748 4.366C34.7045 4.15219 34.6308 3.94568 34.529 3.7527C34.1958 3.11032 33.7082 2.56082 33.11 2.15362C32.9926 2.07572 32.8855 1.97852 32.7614 1.91257C32.539 1.84364 32.4492 2.06079 32.5087 2.24577C32.5739 2.80165 32.73 3.34303 32.9708 3.84829C32.5642 3.62981 32.1439 3.43792 31.7125 3.27383C31.4318 2.4168 30.8441 1.69386 30.0624 1.24413C29.916 1.13755 29.764 1.03898 29.6069 0.948852C29.572 0.941522 29.5357 0.943473 29.5016 0.954509C29.4676 0.965545 29.4371 0.985282 29.4131 1.01176C29.3891 1.03824 29.3724 1.07055 29.3647 1.10546C29.3571 1.14038 29.3586 1.1767 29.3693 1.21081C29.5454 1.84565 29.8063 2.45386 30.1449 3.019C29.7853 2.89123 29.404 2.84298 29.0405 2.72832C28.8376 2.39009 28.6039 2.07133 28.3424 1.77608C27.9828 1.42684 27.5675 1.13996 27.1135 0.927253C26.9685 0.884513 26.8628 0.747559 26.7142 0.731474C26.3465 0.79007 26.6085 1.17221 26.7057 1.36408C26.8601 1.6628 27.0554 1.94451 27.2365 2.22853C27.3096 2.35323 27.3904 2.47333 27.4782 2.58815C27.1186 2.51737 26.7544 2.46866 26.3952 2.39053C26.2803 2.22554 26.199 2.03919 26.0735 1.8811C25.8647 1.63426 25.6326 1.40803 25.3805 1.20552C25.0838 0.923998 24.7288 0.711099 24.3407 0.581883C24.2645 0.538616 24.1756 0.523183 24.0893 0.538225C23.7906 0.664837 24.0714 1.04077 24.1291 1.25056C24.3382 1.63644 24.5898 1.99776 24.8791 2.3278C24.4955 2.29417 24.114 2.23947 23.7364 2.16396C23.3529 1.4939 22.7416 1.00791 22.149 0.53248C21.9295 0.375896 21.6899 0.249602 21.4367 0.157009C21.4032 0.150558 21.3686 0.152487 21.3361 0.162621C21.3035 0.172755 21.274 0.19078 21.2501 0.215093C21.2262 0.239407 21.2086 0.269254 21.1991 0.301977C21.1895 0.3347 21.1881 0.369284 21.1952 0.40265C21.2261 0.493968 21.2618 0.583629 21.302 0.671272C21.4805 1.15801 21.7539 1.60446 22.1063 1.98473C21.7263 1.93598 21.344 1.90684 20.961 1.89741C20.8725 1.75839 20.7062 1.62167 20.6421 1.51505C20.2348 0.978667 19.7154 0.537569 19.1202 0.222499C18.8982 0.15609 18.3389 -0.21938 18.275 0.184354C18.3003 0.324064 18.3421 0.460097 18.3727 0.599807C18.5113 0.855896 18.6754 1.09739 18.8624 1.32065C19.0042 1.55867 19.1888 1.7684 19.407 1.93923C19.0896 1.9305 18.7725 1.92016 18.4559 1.89718C18.0645 1.41123 17.5796 1.00874 17.0298 0.713552C16.5231 0.463285 15.99 0.270594 15.4404 0.139087C15.2655 0.0669337 15.0332 0.185043 15.1001 0.391851C15.2515 0.659347 15.4195 0.917132 15.6031 1.1637C15.756 1.34804 15.9278 1.51586 16.1157 1.66441C16.2699 1.85983 16.4578 2.02599 16.6707 2.155C16.1861 2.21061 15.6989 2.24531 15.2147 2.29931C15.1972 2.28994 15.1781 2.28372 15.1585 2.28092C14.9879 2.03895 14.7855 1.82114 14.5566 1.63339C14.1681 1.2956 13.6793 1.13245 13.2131 0.934146C12.308 0.644616 11.9989 0.873482 12.7397 1.61523C13.0355 1.98519 13.3951 2.29921 13.8016 2.54242C13.4413 2.55552 13.0881 2.63296 12.7303 2.6734C11.9281 1.73265 11.265 1.46472 10.0404 1.46334C9.90784 1.44749 9.72815 1.43738 9.67943 1.59524C9.62888 1.8117 9.87682 1.94497 9.99677 2.09089C10.3645 2.46763 10.7946 2.77804 11.2679 3.00843C10.8627 3.07054 10.4613 3.15555 10.0657 3.26303C9.742 3.07158 9.4015 2.91006 9.04844 2.78048C8.44808 2.58051 7.80929 2.52362 7.18304 2.61434C6.86961 2.82712 7.2761 3.05944 7.46384 3.16836C7.61527 3.26349 7.76417 3.36276 7.91881 3.45214C8.16904 3.59872 8.43457 3.71746 8.71065 3.80624C8.28583 3.88716 7.87324 4.02263 7.48314 4.20929C6.89029 3.91332 6.56399 3.75569 5.87693 3.85588C5.44036 3.87665 5.01051 3.97153 4.60576 4.13645C4.42951 4.17896 4.27211 4.37749 4.40929 4.54248C4.52406 4.62984 4.6554 4.69293 4.79533 4.72792C5.09598 4.86164 5.41374 4.95297 5.73952 4.99929C5.36106 5.22701 4.98927 5.46553 4.62827 5.71944C4.23877 5.76024 3.86078 5.87571 3.51496 6.05953C2.77229 6.52737 2.0703 7.16893 1.81937 8.03569C1.75963 8.18941 1.56224 8.3629 1.73044 8.51686C1.88716 8.63979 2.0896 8.50583 2.2601 8.47802C2.51678 8.42945 2.76609 8.34789 3.00185 8.23537C3.46538 8.01507 3.89845 7.7357 4.29026 7.40423C4.55673 7.13006 4.80316 6.83709 5.02764 6.5276C5.38872 6.30714 5.76613 6.11463 6.15658 5.95176C6.29009 5.88627 6.42106 5.81618 6.55135 5.74495C6.42751 5.9895 6.33812 6.25003 6.28572 6.5191C6.25884 6.77853 5.88566 7.39757 6.28733 7.49109C6.74024 7.3762 7.14673 6.62871 7.44177 6.27483C7.70479 5.953 7.90919 5.58744 8.04565 5.19484C8.41286 5.02715 8.79031 4.88287 9.17574 4.76284C9.0682 5.08454 8.91631 5.38878 8.81659 5.71278C8.74817 6.02667 8.70445 6.34544 8.68584 6.66616C8.62265 6.86676 8.74282 7.17537 8.99283 7.06346C9.24849 6.85408 9.48799 6.62571 9.7093 6.38031C10.0569 5.9738 10.3394 5.51583 10.5466 5.02273C10.6385 4.77446 10.7098 4.51908 10.7599 4.25915C10.9024 4.21664 11.0473 4.13943 11.1923 4.11048C11.3762 4.07509 11.5389 4.01236 11.7209 3.95997C11.6162 4.12838 11.5298 4.30738 11.4628 4.49399C11.3266 4.75708 11.2465 5.04557 11.2275 5.34121C11.2321 5.51999 11.1457 5.73874 11.2909 5.8819C11.6126 6.09928 11.9166 5.57606 12.0952 5.36649C12.2239 5.21851 12.3479 5.06777 12.4672 4.91105C12.7115 4.60429 12.7889 4.20492 12.9151 3.84186C13.3817 3.70399 13.8512 3.58588 14.3252 3.47558C14.161 3.93125 13.8958 4.3598 13.8197 4.84258C13.811 4.94552 13.808 5.04939 13.7942 5.15141C13.7666 5.23439 13.7634 5.32357 13.785 5.40831C13.8017 5.44052 13.8261 5.46803 13.8562 5.48829C13.8862 5.50856 13.9209 5.52093 13.957 5.52427C13.9931 5.52762 14.0295 5.52182 14.0627 5.50742C14.096 5.49301 14.1251 5.47047 14.1474 5.44186C14.3172 5.30455 14.476 5.15428 14.6226 4.9924C15.0344 4.57028 15.4852 4.1029 15.578 3.49695C16.1872 3.27643 16.8242 3.14194 17.4706 3.09735C17.2421 3.37916 17.0544 3.69166 16.9129 4.02569C16.7099 4.33522 16.5444 4.66775 16.4197 5.0163C16.3738 5.1413 16.354 5.27504 16.3035 5.39866C16.2853 5.42266 16.2724 5.45024 16.2657 5.47959C16.259 5.50894 16.2586 5.53938 16.2646 5.56889C16.2705 5.5984 16.2827 5.6263 16.3003 5.65075C16.3178 5.67521 16.3404 5.69564 16.3664 5.71071C16.4158 5.73175 16.471 5.735 16.5226 5.71992C16.5741 5.70484 16.6188 5.67235 16.6491 5.62799C16.8812 5.43579 17.1021 5.23041 17.3106 5.01285C17.738 4.52429 18.1364 4.01106 18.5037 3.47581C18.7335 3.00406 19.3357 3.08816 19.7753 3.12056C19.5412 3.50895 19.3451 3.91903 19.1898 4.34509C19.1134 4.57419 19.0679 4.81242 19.0542 5.05352C19.0348 5.08923 19.0262 5.12981 19.0294 5.17033C19.0326 5.21086 19.0474 5.24958 19.0722 5.28182C19.097 5.31405 19.1306 5.33841 19.1689 5.35193C19.2072 5.36545 19.2487 5.36755 19.2882 5.35799C19.7838 4.92859 20.2359 4.4514 20.6379 3.93332C20.8202 3.70944 20.9793 3.46761 21.1127 3.21156C21.1846 3.2173 21.2625 3.20351 21.3323 3.20305C21.7018 3.19157 22.0638 3.19639 22.4339 3.2111C22.2146 3.45849 22.024 3.73 21.8659 4.0204C21.728 4.36393 21.4983 4.68862 21.4511 5.06133C21.4511 5.09947 21.4611 5.13695 21.4803 5.16993C21.4994 5.20292 21.527 5.23023 21.5601 5.24909C21.5933 5.26794 21.6308 5.27766 21.669 5.27726C21.7071 5.27685 21.7445 5.26633 21.7772 5.24677C22.153 5.05442 22.4993 4.80937 22.8057 4.51904C23.157 4.23548 23.4491 3.88553 23.6651 3.48914C24.1686 3.49373 24.6734 3.47443 25.1755 3.49948C24.8344 3.79119 24.553 4.14615 24.3467 4.54478C24.2548 4.79203 23.8412 5.21621 24.2486 5.38005C24.3596 5.40303 24.4554 5.32398 24.5496 5.27733C24.7727 5.15348 25.0029 5.04272 25.2233 4.91427C25.7187 4.62861 26.143 4.23438 26.4642 3.76121C26.887 3.75385 27.3097 3.78144 27.728 3.8437C27.5563 4.03488 27.3486 4.19067 27.1889 4.3922C27.0197 4.60781 26.8734 4.84046 26.7523 5.08638C26.6259 5.30123 26.2555 5.73576 26.6808 5.84651C26.8588 5.80407 27.0307 5.73969 27.1928 5.65487C27.4212 5.56295 27.6417 5.45252 27.8521 5.32467C28.3874 5.03169 28.8542 4.62803 29.2214 4.14058C29.6492 4.15262 30.0725 4.23251 30.4753 4.37726C30.135 4.71758 28.7882 5.91361 28.8788 6.33987C28.936 6.52025 29.1455 6.49865 29.2655 6.39501C29.4155 6.32148 29.567 6.25109 29.7202 6.18384C30.4845 5.87087 31.2681 5.47449 31.7954 4.82374C32.1743 4.94575 32.5307 5.07374 32.9044 5.23092C32.6649 5.40165 32.434 5.58617 32.2102 5.77643C31.9274 6.08988 31.6943 6.4448 31.519 6.82885C31.5028 6.86399 31.4971 6.90303 31.5024 6.94134C31.5077 6.97966 31.5239 7.01564 31.5491 7.04504C31.5742 7.07444 31.6072 7.09602 31.6443 7.10722C31.6813 7.11843 31.7207 7.11879 31.758 7.10827C32.2494 6.98349 32.7294 6.81761 33.193 6.61239C33.4981 6.41823 33.7704 6.17686 33.9998 5.8973C34.2645 6.01747 34.5568 6.06412 34.8199 6.19073C35.1712 6.36468 35.5177 6.46257 35.8753 6.63721C36.1329 6.79806 36.4141 6.91824 36.6837 7.05864C37.0486 7.27532 37.3992 7.51062 37.7455 7.75558L37.7303 7.74156C37.7628 7.77355 37.8021 7.79782 37.8452 7.81256C38.1079 7.93182 38.4323 7.39895 38.425 7.17675C38.4226 7.13762 38.4073 7.10038 38.3816 7.07081ZM37.9075 7.38884C37.4943 7.08221 37.0561 6.81058 36.5977 6.57677C36.2896 6.43132 36.0058 6.23991 35.6841 6.12364C35.3066 5.9961 34.9575 5.79757 34.5774 5.67762C34.3838 5.63518 34.1987 5.56003 34.0303 5.45542C33.8136 5.40073 33.7178 5.64453 33.5937 5.77114C33.4896 5.87868 33.3747 5.9745 33.2672 6.07837C32.9365 6.37295 32.4908 6.46096 32.0847 6.60963C32.1912 6.42848 32.3134 6.25701 32.4499 6.09721C32.5932 5.94211 32.787 5.84743 32.9342 5.69554C33.0917 5.51378 33.6236 5.41567 33.4754 5.12108C33.2686 4.88486 32.9126 4.8366 32.6376 4.7031C32.368 4.58971 32.0894 4.49931 31.8046 4.43287C31.7991 4.43287 31.794 4.43471 31.7885 4.4354C31.7517 4.41765 31.71 4.41279 31.6701 4.42158C31.6302 4.43037 31.5944 4.45231 31.5684 4.48388C31.0946 5.11947 30.356 5.49701 29.6382 5.7955C29.9896 5.39485 30.3642 5.01513 30.76 4.65829C30.8995 4.53168 31.1941 4.39472 31.0279 4.17229C30.8354 4.01144 30.5438 4.01144 30.3108 3.917C30.0279 3.84806 29.0504 3.57232 28.9139 3.89954C28.4432 4.50857 27.8187 4.98108 27.1046 5.26837C27.2035 5.07232 27.3175 4.88425 27.4456 4.70586C27.6064 4.49009 27.8238 4.32809 28.0035 4.12886C28.1251 3.97789 28.432 3.94503 28.3976 3.70399C28.3452 3.48661 28.0989 3.5351 27.9228 3.4896C27.6933 3.43653 27.4591 3.40674 27.2236 3.40067C26.9854 3.36449 26.744 3.35501 26.5037 3.37241C26.1903 3.30577 26.0784 3.66814 25.9159 3.86346C25.5585 4.23169 25.1412 4.53658 24.6817 4.76514C24.8435 4.44055 25.0613 4.14706 25.3251 3.89816C25.4664 3.74811 25.6553 3.6516 25.8005 3.50959C25.819 3.48213 25.8308 3.4507 25.8349 3.41784C25.839 3.38498 25.8353 3.35162 25.8241 3.32045C25.813 3.28928 25.7946 3.26119 25.7705 3.23844C25.7465 3.21569 25.7174 3.19892 25.6856 3.1895C25.2196 3.05025 24.7286 3.11619 24.2502 3.09597C24.0413 3.11619 23.5516 3.04519 23.4048 3.15112C23.359 3.20039 23.3273 3.26101 23.3129 3.32668C23.2318 3.49465 23.0932 3.62701 22.9997 3.78832C22.6974 4.11807 22.3611 4.41499 21.9964 4.67415C22.1028 4.46251 22.195 4.24399 22.3039 4.0335C22.4151 3.85634 22.5688 3.71065 22.6819 3.53372C22.8135 3.33817 23.3294 3.1201 22.9806 2.87377C22.6036 2.81929 22.2225 2.79769 21.8418 2.8092C21.612 2.80369 21.3822 2.80598 21.1547 2.82115C21.1046 2.80821 21.0514 2.81539 21.0065 2.84114C20.9675 2.83781 20.9283 2.84598 20.8938 2.86464C20.8594 2.8833 20.8311 2.91164 20.8126 2.94615C20.7051 3.16497 20.5765 3.37277 20.4286 3.56658C20.146 3.93073 19.8438 4.27922 19.5232 4.61049C19.6727 4.12376 19.8931 3.66174 20.1774 3.23936C20.282 3.12814 20.4518 2.98889 20.3215 2.82942C20.2831 2.7947 20.2374 2.76907 20.1878 2.75443C20.1381 2.73979 20.0858 2.73652 20.0347 2.74486C19.7893 2.73291 19.5448 2.70327 19.2994 2.70396C18.985 2.68706 18.6738 2.77482 18.4145 2.95351C18.2376 3.16942 18.0736 3.39553 17.9232 3.63069C17.5951 4.05165 17.2711 4.4809 16.9048 4.86877C17.0099 4.63593 17.1319 4.41113 17.27 4.19619C17.3865 3.93392 17.527 3.68299 17.6898 3.44663C17.7757 3.34457 17.8709 3.25065 17.974 3.16606C18.0183 3.14244 18.0546 3.10616 18.0782 3.06184C18.1019 3.01751 18.1117 2.96716 18.1066 2.9172C18.0264 2.41719 15.9388 2.92984 15.5927 3.07989C14.8345 3.29956 15.686 3.45697 14.2159 4.85246C14.2947 4.55588 14.4045 4.26844 14.5435 3.9949C14.6484 3.75466 14.741 3.50924 14.8209 3.25958C14.8301 2.95925 14.4725 3.03784 14.2825 3.08471C13.7933 3.19685 13.3082 3.3145 12.8277 3.46179C12.5722 3.46869 12.5575 3.68698 12.4879 3.87909C12.4272 4.11718 12.3416 4.34823 12.2326 4.56844C12.0469 4.83821 11.8169 5.07397 11.6246 5.33777C11.6398 5.18847 11.6696 5.04101 11.7135 4.8975C11.8252 4.67254 11.8973 4.42988 12.0278 4.21411C12.1039 4.03327 12.4277 3.76994 12.3054 3.58197C12.1664 3.3554 11.5563 3.61115 11.3442 3.66998C11.0985 3.72491 10.8578 3.80024 10.6245 3.89517C10.5972 3.89751 10.5707 3.90605 10.5471 3.92015C10.5236 3.93424 10.5035 3.95352 10.4885 3.97651C10.3665 4.02385 10.3562 4.19803 10.3506 4.32579C10.3198 4.45604 10.2814 4.5844 10.2357 4.71022C10.0068 5.37096 9.61815 5.96488 9.10428 6.43913C9.10979 5.88374 9.36738 5.39315 9.55305 4.88371C9.60636 4.70333 9.83155 4.54776 9.75848 4.34923C9.64473 4.12404 9.4161 4.30672 9.2472 4.34601C8.7744 4.4664 8.31425 4.63192 7.87308 4.84028C7.59619 4.95862 7.63824 5.35155 7.44821 5.55882C7.20146 5.9457 6.93526 6.31981 6.65062 6.67972C6.72429 6.30731 6.86306 5.95081 7.06056 5.62661C7.1295 5.47541 7.3232 5.36856 7.30161 5.18841C7.29328 5.1422 7.26977 5.10009 7.23481 5.06875C7.19985 5.0374 7.15543 5.01862 7.10859 5.01538C7.07561 5.01305 7.04257 5.01892 7.01241 5.03247C6.98226 5.04602 6.95593 5.06683 6.93579 5.09305C6.61799 5.24585 6.31858 5.43382 6.00194 5.58823C5.77864 5.67896 5.56061 5.78214 5.34888 5.8973C5.13105 5.9994 4.92332 6.1218 4.72846 6.26289C4.50919 6.57198 4.2661 6.86347 4.00142 7.1347C3.48733 7.58167 2.87814 7.9056 2.22012 8.08187C2.3897 7.58831 2.70151 7.15594 3.11628 6.83919C3.37326 6.59549 3.67261 6.4008 3.99958 6.26472C4.24814 6.18584 4.50254 6.12668 4.7604 6.08779C5.04005 5.93383 5.28891 5.7222 5.5681 5.56503C5.69333 5.48805 5.81581 5.40647 5.94311 5.33317C6.13728 5.20403 6.66924 5.11005 6.67337 4.8412C6.65039 4.58843 6.34822 4.65737 6.1706 4.64818C5.7831 4.62713 5.40123 4.54597 5.03867 4.40759C5.21331 4.36164 5.38473 4.30143 5.56074 4.26168C5.83396 4.25571 6.10603 4.22422 6.37901 4.21572C6.68092 4.26499 6.97088 4.37053 7.23382 4.52685C7.54886 4.71344 7.59803 4.56109 7.88641 4.44436C8.18031 4.34509 8.48018 4.26352 8.78258 4.19297C8.96043 4.14564 9.13829 4.09991 9.31959 4.06774C9.35669 4.06241 9.39128 4.04586 9.41872 4.02031C9.44615 3.99477 9.46512 3.96145 9.47308 3.92481C9.49511 3.9039 9.51176 3.87797 9.52163 3.84925C9.53151 3.82053 9.53431 3.78985 9.5298 3.75981C9.52529 3.72977 9.5136 3.70127 9.49573 3.67671C9.47785 3.65215 9.45432 3.63226 9.42713 3.61874C8.87696 3.48289 8.35192 3.26036 7.87171 2.95948C8.3256 2.98609 8.7727 3.08235 9.19734 3.24488C9.4524 3.37654 9.69942 3.5259 9.95564 3.65229C10.154 3.65082 10.3508 3.61746 10.5386 3.55348C10.7621 3.49458 10.9884 3.44711 11.2167 3.41124C11.4005 3.36804 12.0062 3.36827 12.0977 3.25613C12.3018 2.94707 11.8008 2.85424 11.6108 2.73521C11.1349 2.52506 10.7003 2.23187 10.3272 1.86938C11.2378 1.86202 11.8585 2.24163 12.4242 2.92639C12.6081 3.17617 12.9199 3.02612 13.1747 3.01049C13.5582 2.94431 13.9477 2.92708 14.3335 2.88227C14.3682 2.87506 14.4004 2.85889 14.427 2.83535C14.4535 2.81182 14.4734 2.78174 14.4846 2.74813C14.4959 2.71452 14.4982 2.67854 14.4912 2.64378C14.4843 2.60902 14.4683 2.57668 14.445 2.55C14.1873 2.33215 13.9131 2.13463 13.6249 1.95922C13.3749 1.74989 13.1717 1.49161 12.9406 1.2632C13.492 1.45622 14.0635 1.67084 14.4801 2.09594C14.5759 2.20325 14.6895 2.29609 14.7752 2.41213C14.8246 2.54081 14.9156 2.70235 15.0663 2.66306C15.2779 2.74095 15.5137 2.64444 15.7327 2.63801C16.0275 2.61159 16.3235 2.59734 16.6169 2.55575C16.8697 2.48681 17.699 2.6757 17.4984 2.19085C17.2667 1.9953 16.9577 1.90384 16.7171 1.71611C16.3706 1.34845 15.9321 1.04467 15.6874 0.600266C16.4035 0.803706 17.0703 1.1518 17.6466 1.62305C17.7272 1.69451 17.8212 1.75081 17.897 1.8271C18.0554 2.01092 18.1838 2.30827 18.4653 2.29195C18.8559 2.32734 19.2514 2.31378 19.6423 2.34871C19.8615 2.36502 20.3399 2.55736 20.3151 2.1789C20.2861 2.04907 20.1395 2.00817 20.0455 1.93326C19.8467 1.79467 19.6565 1.64411 19.4759 1.48242C19.2199 1.16627 18.98 0.837493 18.7569 0.497323C19.3095 0.70413 19.7275 1.11154 20.1496 1.51505C20.2836 1.6759 20.3978 1.85329 20.5419 2.00748C20.5967 2.10717 20.6803 2.18804 20.7818 2.23956C20.7952 2.25272 20.8108 2.26358 20.8277 2.27173C20.8868 2.30689 20.9481 2.28575 21.0102 2.28621C21.2325 2.29026 21.4543 2.30791 21.6745 2.33906C21.888 2.36663 22.1031 2.37399 22.3156 2.40799C22.5034 2.45584 22.6945 2.48948 22.8873 2.50864C22.9168 2.50262 22.9445 2.49001 22.9684 2.47176C22.9923 2.45351 23.0117 2.43009 23.0253 2.40325C23.0388 2.37641 23.0461 2.34686 23.0466 2.3168C23.0471 2.28674 23.0408 2.25696 23.0282 2.22968C22.9716 2.1288 22.8558 2.08262 22.7685 2.01207C22.491 1.839 22.2582 1.6028 22.0893 1.32272C21.9446 1.14856 21.8307 0.951029 21.7524 0.738599C22.2964 1.11234 22.7857 1.56014 23.206 2.06906C23.3352 2.22692 23.3928 2.48451 23.6114 2.53805C24.0602 2.63369 24.5151 2.69811 24.9728 2.73084C25.1275 2.72671 25.2796 2.80874 25.4324 2.76646C25.4683 2.75457 25.5003 2.73306 25.5248 2.70427C25.5494 2.67548 25.5655 2.64051 25.5716 2.60316C25.5776 2.56582 25.5733 2.52754 25.5591 2.49248C25.5449 2.45742 25.5213 2.42693 25.491 2.40432C25.3717 2.31655 25.2684 2.2088 25.1859 2.08583C24.909 1.77012 24.6689 1.42399 24.4701 1.05409C24.7816 1.21893 25.0674 1.4285 25.3182 1.67612C25.4849 1.81452 25.6372 1.96942 25.7727 2.13845C25.9465 2.33492 26.0007 2.67569 26.2659 2.76945C26.8109 2.88756 27.3677 2.93972 27.9045 3.09574C27.9428 3.10431 27.9828 3.10127 28.0194 3.08701C28.0517 3.08997 28.0842 3.08415 28.1135 3.07016C28.1428 3.05616 28.1677 3.03452 28.1857 3.00751C28.3298 2.76991 27.9867 2.61342 27.8688 2.44637C27.6154 2.10925 27.3822 1.75736 27.1705 1.39257C27.6368 1.64075 28.0413 1.99061 28.3541 2.41627C28.4856 2.61158 28.6255 2.8007 28.7489 3.00084C28.8303 3.10241 28.9709 3.11574 29.0876 3.15273C29.5965 3.26236 30.0966 3.40944 30.5838 3.59277C30.6248 3.60325 30.668 3.60055 30.7074 3.58507C30.7468 3.56958 30.7803 3.54209 30.8032 3.5065C30.8261 3.4709 30.8372 3.42901 30.8349 3.38675C30.8326 3.34449 30.8171 3.30402 30.7906 3.27107C30.6717 3.13769 30.5702 2.98975 30.4886 2.8308C30.257 2.44419 30.0616 2.03705 29.9047 1.61454C30.3934 1.91923 30.8048 2.33293 31.1068 2.82322C31.2024 3.00707 31.2786 3.20036 31.3342 3.39998C31.3342 3.58059 31.53 3.62839 31.6672 3.68009C32.1778 3.86392 32.644 4.14127 33.1378 4.36324C33.2222 4.40509 33.3037 4.45261 33.3816 4.50548C33.4158 4.52302 33.4544 4.53026 33.4926 4.52632C33.5308 4.52239 33.5671 4.50745 33.597 4.48332C33.6268 4.45919 33.6491 4.4269 33.661 4.39038C33.6729 4.35385 33.674 4.31465 33.664 4.27753C33.3135 3.74013 33.0663 3.14202 32.9352 2.51393C33.3961 2.82342 33.7773 3.23769 34.0473 3.72283C34.2391 3.97351 34.3491 4.27704 34.3626 4.59234C34.4065 5.0333 34.742 5.10706 35.0701 5.30606C35.7148 5.628 36.3327 6.00106 36.9178 6.42167C37.3126 6.64566 37.6792 6.91622 38.0095 7.22753C37.9918 7.29 37.9563 7.34601 37.9075 7.38884Z" fill="#002726"/>
</svg>
