<svg width="85" height="105" viewBox="0 0 85 105" fill="none" xmlns="http://www.w3.org/2000/svg">
<mask id="path-1-inside-1_32170_1052" fill="white">
<path d="M0 0H85V105H0V0Z"/>
</mask>
<path d="M85 105V106H86V105H85ZM0 105H-1V106H0V105ZM85 0H84V105H85H86V0H85ZM85 105V104H0V105V106H85V105ZM0 105H1V0H0H-1V105H0Z" fill="#1A1A1A" mask="url(#path-1-inside-1_32170_1052)"/>
<g clip-path="url(#clip0_32170_1052)">
<path d="M56.9598 61.4587C56.174 60.3169 54.3372 59.3939 52.0913 59.2781C50.6452 59.2034 49.4385 59.457 48.4155 59.8934C47.7459 60.1328 47.1554 60.4508 46.6555 60.8073C45.6162 61.5475 44.835 62.4035 44.2166 63.3072C44.1445 63.3895 44.0701 63.4719 44.0004 63.5517C42.8309 64.8686 41.7916 66.2215 40.8407 67.5937C39.9665 66.6282 38.897 65.7336 37.3533 65.0269C35.0213 63.9598 31.306 63.0047 28.7253 64.3936C26.9466 65.35 26.7002 66.923 26.7072 68.2154C26.7165 69.6404 27.0885 71.0795 27.5953 72.4736C28.0208 73.6463 28.6811 74.7894 29.2135 75.9479C30.1016 77.8774 31.034 79.8083 32.5568 81.6195C33.7612 83.0522 35.7932 84.7938 38.8064 85.1465C41.7289 85.4889 44.0515 84.4501 45.672 83.2195C47.2414 82.0288 48.3062 80.6038 49.1037 79.184C51.0497 77.6818 52.368 76.029 53.2701 74.2539C55.8741 71.5841 57.7457 68.6698 56.9226 65.6152C56.904 65.5431 56.8784 65.4723 56.8529 65.4015C56.9482 65.1479 57.0389 64.893 57.1202 64.6382C57.4504 63.5929 57.655 62.473 56.9575 61.4574L56.9598 61.4587ZM37.9992 82.3976C38.4642 82.3513 42.264 81.235 40.6992 80.4044C40.8596 80.3349 39.7992 80.4044 38.6762 79.8508C38.3832 80.3747 38.1228 80.905 37.9043 81.438C37.902 81.447 37.8996 81.4547 37.895 81.4637C37.7067 81.2938 37.5207 81.1071 37.3068 80.8883C37.1556 80.7351 37.0161 80.5781 36.879 80.421L37.9992 82.3976Z" fill="#B37FEB"/>
<path d="M58.077 58.7452C56.8098 57.2096 54.085 56.5711 51.188 57.0886C48.684 57.5352 46.5544 58.5908 44.8432 59.6669C42.7925 60.9567 41.2302 62.4615 40.2025 64.0693C38.8098 62.7022 38.6773 60.9104 39.1865 59.412C40.1746 56.5029 43.4854 54.0532 45.8917 51.4697C47.6657 49.5672 48.8863 47.5565 49.3164 45.4686C51.2438 44.9318 52.3761 43.8274 53.1387 42.7371C55.1196 39.9129 56.0426 36.7862 56.2844 33.7702C56.5657 30.2637 55.759 26.7019 53.9176 23.3422C53.4689 22.5248 52.955 21.719 52.3784 20.9261C51.8507 20.2014 51.3647 19.3453 50.5301 18.7082C49.6001 18.0002 47.8215 17.7157 46.5567 18.3516C45.2989 18.9849 45.543 20.0598 46.9473 20.5348C47.2495 20.6364 47.5448 20.6879 47.8308 20.7021C47.9796 20.9145 48.1098 21.1295 48.2353 21.2942C48.7119 21.9237 49.1374 22.5673 49.528 23.2148C50.2581 24.4299 50.8463 25.6721 51.288 26.9298C52.1669 29.4296 52.411 31.9964 52.0901 34.5361C51.7739 37.0436 50.8742 39.5756 49.3002 41.9377C49.2885 41.9557 49.2723 41.975 49.2606 41.9944C48.97 40.7316 48.4376 39.4907 47.575 38.3077C46.6102 36.9857 45.3895 35.5813 43.4203 34.6236C41.4836 33.6814 38.8773 33.2913 36.4453 33.8641C33.8414 34.4782 32.9207 35.9263 33.6042 37.3938C34.2343 38.7505 35.3712 40.1382 36.5686 41.3688C37.7008 42.5311 39.1539 43.6304 41.0256 44.4581C42.2229 44.9885 43.6551 45.4545 45.1663 45.6681C45.0199 46.2577 44.799 46.8421 44.4991 47.4175C43.218 49.88 40.5466 52.0181 38.396 54.2592C36.2617 56.4835 34.6319 58.8598 34.8295 61.4175C34.8458 61.6325 34.8899 61.8436 34.9318 62.0547C34.7993 62.0174 34.6714 61.9762 34.5319 61.9427C29.754 60.7984 26.1945 63.1128 25.218 65.4852C24.1299 68.1305 24.4136 71.0255 25.2134 73.6811C26.0294 76.3895 27.7081 79.0296 30.0842 81.4393C32.4464 83.8349 36.3454 87.5601 42.1857 86.9268C43.0599 86.8328 43.5063 86.52 43.6272 86.1596C51.6786 81.2668 58.349 75.043 60.0881 68.4137C60.9413 65.1621 60.5717 61.7651 58.077 58.7427V58.7452ZM41.5905 41.5245C40.428 40.6569 39.5399 39.6632 38.8005 38.6668C38.3704 38.085 36.6034 36.3884 37.9752 35.9714C39.426 35.5311 40.9093 36.3575 41.6766 36.9458C42.9367 37.9138 43.8062 39.0607 44.4131 40.1999C44.9548 41.2156 45.2593 42.2634 45.3454 43.3151C43.8411 42.9546 42.5298 42.2273 41.5882 41.5245H41.5905ZM50.5905 76.7769C47.868 79.6243 44.5084 82.258 40.5815 84.6329C40.528 84.6651 40.4931 84.6986 40.4466 84.7321C39.133 84.6226 37.9357 83.813 37.2079 83.311C35.9873 82.4704 34.9202 81.5474 33.9599 80.6103C32.0093 78.7039 30.591 76.6508 29.7006 74.5165C28.8287 72.426 28.5148 70.2776 28.745 68.1369C28.8636 67.0312 29.0426 64.0796 31.8884 63.9212C33.6926 63.8208 35.1364 65.0733 35.9408 65.7929C37.2149 66.9321 38.1914 68.1395 38.9028 69.419C39.5608 70.6046 43.0739 70.4463 42.9483 69.1165C42.7112 66.6167 43.976 64.1864 46.5567 62.1294C47.7634 61.1665 49.3467 60.2075 51.1648 59.5948C51.7739 59.3901 52.8062 59.0555 53.5549 59.1945C54.457 59.3631 54.7871 60.2384 55.0615 60.6838C58.3722 66.0516 55.2033 71.9562 50.5929 76.7782L50.5905 76.7769Z" fill="#1A1A1A"/>
</g>
<defs>
<clipPath id="clip0_32170_1052">
<rect width="36" height="69" fill="white" transform="translate(24.5 18)"/>
</clipPath>
</defs>
</svg>
