<svg width="36" height="69" viewBox="0 0 36 69" fill="none" xmlns="http://www.w3.org/2000/svg">
<g clip-path="url(#clip0_32170_1053)">
<path d="M32.4598 43.4587C31.674 42.3169 29.8372 41.3939 27.5913 41.2781C26.1452 41.2034 24.9385 41.457 23.9155 41.8934C23.2459 42.1328 22.6554 42.4508 22.1555 42.8073C21.1162 43.5475 20.335 44.4035 19.7166 45.3072C19.6445 45.3895 19.5701 45.4719 19.5004 45.5517C18.3309 46.8686 17.2916 48.2215 16.3407 49.5937C15.4665 48.6282 14.397 47.7336 12.8533 47.0269C10.5213 45.9598 6.80598 45.0047 4.22526 46.3936C2.44665 47.35 2.2002 48.923 2.20717 50.2154C2.21647 51.6404 2.58847 53.0795 3.09531 54.4736C3.52079 55.6463 4.18108 56.7894 4.7135 57.9479C5.60164 59.8774 6.53396 61.8083 8.05682 63.6195C9.26116 65.0522 11.2932 66.7938 14.3064 67.1465C17.2289 67.4889 19.5515 66.4501 21.172 65.2195C22.7414 64.0288 23.8062 62.6038 24.6037 61.184C26.5497 59.6818 27.868 58.029 28.7701 56.2539C31.3741 53.5841 33.2457 50.6698 32.4226 47.6152C32.404 47.5431 32.3784 47.4723 32.3529 47.4015C32.4482 47.1479 32.5389 46.893 32.6202 46.6382C32.9504 45.5929 33.155 44.473 32.4575 43.4574L32.4598 43.4587ZM13.4992 64.3976C13.9642 64.3513 17.764 63.235 16.1992 62.4044C16.3596 62.3349 15.2992 62.4044 14.1762 61.8508C13.8832 62.3747 13.6228 62.905 13.4043 63.438C13.402 63.447 13.3996 63.4547 13.395 63.4637C13.2067 63.2938 13.0207 63.1071 12.8068 62.8883C12.6556 62.7351 12.5161 62.5781 12.379 62.421L13.4992 64.3976Z" fill="#B37FEB"/>
<path d="M33.577 40.7452C32.3098 39.2096 29.585 38.5711 26.688 39.0886C24.184 39.5352 22.0544 40.5908 20.3432 41.6669C18.2925 42.9567 16.7302 44.4615 15.7025 46.0693C14.3098 44.7022 14.1773 42.9104 14.6865 41.412C15.6746 38.5029 18.9854 36.0532 21.3917 33.4697C23.1657 31.5672 24.3863 29.5565 24.8164 27.4686C26.7438 26.9318 27.8761 25.8274 28.6387 24.7371C30.6196 21.9129 31.5426 18.7862 31.7844 15.7702C32.0657 12.2637 31.259 8.70193 29.4176 5.34223C28.9689 4.52483 28.455 3.71902 27.8784 2.92608C27.3507 2.20136 26.8647 1.34535 26.0301 0.708161C25.1001 0.000178127 23.3215 -0.284302 22.0567 0.351595C20.7989 0.984918 21.043 2.05976 22.4473 2.53476C22.7495 2.63645 23.0448 2.68794 23.3308 2.7021C23.4796 2.91449 23.6098 3.12946 23.7353 3.29423C24.2119 3.92369 24.6374 4.56731 25.028 5.21479C25.7581 6.42995 26.3463 7.67214 26.788 8.92977C27.6669 11.4296 27.911 13.9964 27.5901 16.5361C27.2739 19.0436 26.3742 21.5756 24.8002 23.9377C24.7885 23.9557 24.7723 23.975 24.7606 23.9944C24.47 22.7316 23.9376 21.4907 23.075 20.3077C22.1102 18.9857 20.8895 17.5813 18.9203 16.6236C16.9836 15.6814 14.3773 15.2913 11.9453 15.8641C9.34136 16.4782 8.42067 17.9263 9.10422 19.3938C9.73429 20.7505 10.8712 22.1382 12.0686 23.3688C13.2008 24.5311 14.6539 25.6304 16.5256 26.4581C17.7229 26.9885 19.1551 27.4545 20.6663 27.6681C20.5199 28.2577 20.299 28.8421 19.9991 29.4175C18.718 31.88 16.0466 34.0181 13.896 36.2592C11.7617 38.4835 10.1319 40.8598 10.3295 43.4175C10.3458 43.6325 10.3899 43.8436 10.4318 44.0547C10.2993 44.0174 10.1714 43.9762 10.0319 43.9427C5.25405 42.7984 1.6945 45.1128 0.718011 47.4852C-0.37008 50.1305 -0.0864322 53.0255 0.713361 55.6811C1.52943 58.3895 3.20807 61.0296 5.5842 63.4393C7.94638 65.8349 11.8454 69.5601 17.6857 68.9268C18.5599 68.8328 19.0063 68.52 19.1272 68.1596C27.1786 63.2668 33.849 57.043 35.5881 50.4137C36.4413 47.1621 36.0717 43.7651 33.577 40.7427V40.7452ZM17.0905 23.5245C15.928 22.6569 15.0399 21.6632 14.3005 20.6668C13.8704 20.085 12.1034 18.3884 13.4752 17.9714C14.926 17.5311 16.4093 18.3575 17.1766 18.9458C18.4367 19.9138 19.3062 21.0607 19.9131 22.1999C20.4548 23.2156 20.7593 24.2634 20.8454 25.3151C19.3411 24.9546 18.0298 24.2273 17.0882 23.5245H17.0905ZM26.0905 58.7769C23.368 61.6243 20.0084 64.258 16.0815 66.6329C16.028 66.6651 15.9931 66.6986 15.9466 66.7321C14.633 66.6226 13.4357 65.813 12.7079 65.311C11.4873 64.4704 10.4202 63.5474 9.45994 62.6103C7.50928 60.7039 6.09104 58.6508 5.20057 56.5165C4.32871 54.426 4.01483 52.2776 4.24501 50.1369C4.36358 49.0312 4.5426 46.0796 7.38838 45.9212C9.19257 45.8208 10.6364 47.0733 11.4408 47.7929C12.7149 48.9321 13.6914 50.1395 14.4028 51.419C15.0608 52.6046 18.5739 52.4463 18.4483 51.1165C18.2112 48.6167 19.476 46.1864 22.0567 44.1294C23.2634 43.1665 24.8467 42.2075 26.6648 41.5948C27.2739 41.3901 28.3062 41.0555 29.0549 41.1945C29.957 41.3631 30.2871 42.2384 30.5615 42.6838C33.8722 48.0516 30.7033 53.9562 26.0929 58.7782L26.0905 58.7769Z" fill="#1A1A1A"/>
</g>
<defs>
<clipPath id="clip0_32170_1053">
<rect width="36" height="69" fill="white"/>
</clipPath>
</defs>
</svg>
