<svg width="40" height="40" viewBox="0 0 40 40" fill="none" xmlns="http://www.w3.org/2000/svg">
<path d="M9.67441 1.4421C9.36157 0.231543 10.9342 -0.536875 11.6969 0.453835L21.6075 13.3261C21.8883 13.6908 22.3596 13.8527 22.8052 13.7375L38.5339 9.67279C39.7444 9.35995 40.5128 10.9326 39.5221 11.6953L26.6499 21.6059C26.2852 21.8866 26.1233 22.358 26.2384 22.8036L30.3032 38.5323C30.616 39.7428 29.0434 40.5112 28.2807 39.5205L18.3701 26.6483C18.0893 26.2836 17.618 26.1217 17.1724 26.2368L1.44372 30.3016C0.233166 30.6144 -0.535251 29.0418 0.455459 28.279L13.3277 18.3685C13.6924 18.0877 13.8543 17.6164 13.7391 17.1708L9.67441 1.4421Z" fill="#1A1A1A"/>
</svg>
