<svg width="41" height="40" viewBox="0 0 41 40" fill="none" xmlns="http://www.w3.org/2000/svg">
<path d="M4.84547 18.1298C4.64068 18.0639 4.78745 17.8193 4.81411 17.6775C4.93078 17.2564 5.04933 16.8356 5.19046 16.422C5.4078 15.8236 5.54391 15.1443 5.90504 14.6235C5.93071 14.6121 5.95916 14.6084 5.98688 14.613C6.01461 14.6176 6.04038 14.6302 6.06101 14.6493C6.08164 14.6683 6.09622 14.6931 6.10295 14.7203C6.10967 14.7476 6.10825 14.7763 6.09886 14.8027C5.7371 15.5506 5.51223 16.3552 5.26039 17.1435C5.19422 17.3661 5.13495 17.591 5.07222 17.8143C5.02706 17.9364 5.03176 18.1649 4.84547 18.1298Z" fill="#002726"/>
<path d="M7.10938 13.2462C7.20503 12.8814 7.42911 12.5584 7.61352 12.2319C7.95725 11.5655 8.4639 10.9944 8.94641 10.4244C9.06809 10.2876 9.28339 10.4833 9.15543 10.6177C8.71542 11.1412 8.24593 11.663 7.91977 12.2664C7.77582 12.533 7.6038 12.7839 7.4807 13.0624C7.41249 13.1701 7.41312 13.3679 7.25756 13.3829C7.21986 13.3841 7.1832 13.3704 7.15549 13.3449C7.12777 13.3193 7.11121 13.2838 7.10938 13.2462Z" fill="#002726"/>
<path d="M10.6843 9.16671C10.5351 8.99061 11.0242 8.64782 11.133 8.51359C11.5407 8.08059 11.9913 7.69012 12.4779 7.34818C12.9416 6.97251 13.4405 6.64256 13.9676 6.36295C14.2562 6.19045 14.5949 6.13432 14.8905 5.97562C15.4883 5.67397 16.1108 5.4239 16.7512 5.22811C17.1828 5.03373 17.6401 4.90259 18.1091 4.83875C18.2427 4.81319 18.3757 4.78591 18.5106 4.76458C18.5471 4.75942 18.5843 4.76866 18.6142 4.79035C18.6441 4.81204 18.6644 4.84449 18.6708 4.88085C18.6773 4.91722 18.6694 4.95467 18.6487 4.98531C18.6281 5.01595 18.5964 5.03739 18.5603 5.04511C18.3842 5.07334 18.21 5.11191 18.0342 5.14265C17.5638 5.18969 17.1375 5.38367 16.7013 5.55036C16.1732 5.70482 15.6607 5.90857 15.1707 6.15894C14.844 6.33848 14.4795 6.42457 14.1478 6.58828C13.8309 6.75168 13.5486 6.96321 13.2355 7.13163C12.628 7.54108 12.0592 8.00523 11.5363 8.5183C11.3535 8.70208 11.154 8.86846 10.9875 9.06713C10.9224 9.1689 10.7914 9.28855 10.6843 9.16671Z" fill="#002726"/>
<path d="M32.9031 5.42936C33.2037 5.39581 33.5131 5.25029 33.4579 4.89621C33.1455 4.85701 32.9651 5.15651 32.8664 5.40945C32.8795 5.41429 32.8919 5.421 32.9031 5.42936ZM36.3672 6.11008C36.715 6.05739 36.8125 5.589 36.8309 5.29466C36.8113 5.0709 36.5193 4.86908 36.3354 5.05459C36.2545 5.12499 36.2505 5.27835 36.1232 5.28416C35.9815 5.57802 35.92 6.0784 36.3672 6.11008ZM32.8703 6.40801C32.3438 6.0428 32.5025 5.22598 32.9008 4.81906C33.1498 4.5379 33.8217 4.47972 33.7475 5.00723C33.7184 5.49413 33.2743 5.71805 32.8321 5.71021C32.815 5.80858 32.8305 5.90983 32.876 5.99867C32.9215 6.08752 32.9947 6.15914 33.0845 6.20275C33.3013 6.21724 33.5152 6.14753 33.6818 6.00815C33.917 5.77074 34.0281 5.44442 34.2405 5.18897C34.4828 4.79601 34.9901 4.36008 35.3305 4.90232C35.4061 5.02777 35.2857 5.19744 35.1446 5.12452C35.0859 5.08861 35.0635 5.02009 35.0056 4.98167C34.539 5.02997 34.4436 5.88035 34.8254 6.09032C34.8909 6.1366 34.9705 6.15818 35.0504 6.15124C35.1302 6.14429 35.205 6.10926 35.2614 6.05237C35.4016 5.96747 35.5199 5.85069 35.6065 5.71152C35.6932 5.57235 35.7458 5.4147 35.76 5.25138C35.7843 5.09191 35.8855 4.79867 36.095 4.89558C36.5126 4.39379 37.2538 4.92412 37.1015 5.49805C37.0643 5.76872 36.9464 6.02192 36.7633 6.2247C36.4687 6.54068 35.8892 6.37446 35.7683 5.9724C35.5962 6.19634 35.3583 6.36083 35.0879 6.44283C34.9782 6.44411 34.8695 6.42196 34.769 6.37785C34.6685 6.33375 34.5785 6.26871 34.5052 6.18707C34.4318 6.10544 34.3767 6.00909 34.3436 5.90447C34.3105 5.79984 34.3 5.68935 34.313 5.58037C34.191 5.82602 34.0317 6.05126 33.8407 6.24807C33.5713 6.42621 33.1714 6.61547 32.8702 6.40911L32.8703 6.40801Z" fill="#002726"/>
<path d="M36.2616 7.71547C36.1155 7.67941 35.9778 7.79074 35.8312 7.82289C35.7269 7.8544 35.6203 7.87804 35.5124 7.89361C35.4506 7.77491 35.37 7.66699 35.2737 7.57403C34.9327 7.20882 34.4234 7.11301 33.9437 7.10987C33.7637 7.09278 33.5797 7.09294 33.4002 7.06926C33.2633 7.03586 33.0193 6.92045 33 7.14766C33.0047 7.18439 33.0157 7.22004 33.0325 7.25304C33.0539 7.32235 33.0599 7.39495 33.0762 7.46552C33.1464 7.7078 33.2394 7.94287 33.3541 8.16756C33.5846 8.41688 33.8546 8.66762 34.2076 8.7062C34.6192 8.74415 35.3191 8.65288 35.4498 8.19029C35.5885 8.17463 35.7257 8.14842 35.8604 8.11189C35.9935 8.07128 36.1229 8.02 36.2557 7.97844C36.2815 7.96781 36.3036 7.9499 36.3194 7.92689C36.3352 7.90389 36.3439 7.87679 36.3445 7.8489C36.3452 7.82102 36.3377 7.79355 36.3229 7.76985C36.3082 7.74616 36.2869 7.72726 36.2616 7.71547ZM34.4444 8.4299C34.0881 8.47428 33.8015 8.23937 33.5778 7.99083C33.5288 7.88263 33.484 7.77239 33.4435 7.66012C33.5791 7.77413 33.7225 7.87861 33.8726 7.9728C34.1536 8.07325 34.4428 8.14907 34.737 8.19939C34.8624 8.20927 34.9888 8.21366 35.1152 8.21162C34.9592 8.38505 34.6645 8.40638 34.4444 8.4299ZM35.1917 7.9245C34.9459 7.94357 34.6986 7.91645 34.4627 7.84453C34.3009 7.81852 34.1424 7.77461 33.9903 7.71359C33.8353 7.61104 33.6923 7.49045 33.5452 7.37614L33.5372 7.36782C34.1535 7.41487 34.8116 7.34979 35.1949 7.92434L35.1917 7.9245Z" fill="#002726"/>
<path d="M36.6062 3.21246C36.3885 2.92205 36.2714 2.88661 35.9678 2.72431C35.768 2.63174 35.5446 2.60279 35.3278 2.64139C35.111 2.67998 34.9114 2.78425 34.7558 2.94009C34.2824 2.9185 33.8123 3.02957 33.3986 3.26076C33.3703 3.28453 33.3523 3.31839 33.3484 3.35518C33.3446 3.39197 33.3552 3.42881 33.378 3.45793C33.4008 3.48704 33.4341 3.50614 33.4707 3.51119C33.5074 3.51624 33.5445 3.50685 33.5744 3.485C33.6324 3.44179 33.6967 3.40764 33.7649 3.3837C34.0374 3.29335 34.3209 3.24059 34.6076 3.22689C34.6484 3.29763 34.6982 3.36278 34.7558 3.42071C34.948 3.58752 35.1493 3.74358 35.3587 3.88816C35.4899 3.95744 35.6298 4.00875 35.7746 4.04073C35.8923 4.07886 36.0156 4.09694 36.1393 4.09421C36.2553 4.10036 36.3714 4.08538 36.482 4.04999C36.5815 4.04991 36.6784 4.01762 36.7581 3.95794C37.1406 3.92234 36.707 3.36567 36.6062 3.21246ZM35.9736 3.05456C36.1313 3.1189 36.2673 3.22695 36.3656 3.36598C36.1931 3.2697 36.009 3.19208 35.8279 3.11164C35.6266 3.04715 35.42 3.00091 35.2104 2.97349C35.3336 2.91932 35.4689 2.89831 35.6028 2.91253C35.7366 2.92675 35.8645 2.97571 35.9736 3.05456ZM36.4205 3.77196C36.3205 3.80457 36.2149 3.81663 36.1102 3.8074C35.9931 3.80567 35.8772 3.78327 35.7679 3.74123C35.598 3.70319 35.442 3.61916 35.3167 3.49833C35.1936 3.41888 35.077 3.32974 34.9681 3.23175C35.5063 3.27373 36.0239 3.45735 36.4682 3.76397C36.4521 3.76532 36.4361 3.76799 36.4205 3.77196Z" fill="#002726"/>
<path d="M29.5282 20.2586C29.5267 20.2471 29.5244 20.2357 29.5213 20.2245C29.5245 20.2022 29.5218 20.1795 29.5135 20.1585C29.4609 20.0558 29.4536 19.9351 29.4105 19.8269C29.2714 19.3878 29.1236 18.9526 28.9714 18.5184C28.7519 17.7981 28.5279 17.0758 28.3085 16.3545C28.1674 15.932 27.9775 15.5301 27.834 15.1117C27.8286 15.0942 27.8195 15.0781 27.8073 15.0643C27.7952 15.0505 27.7803 15.0394 27.7636 15.0318C27.7413 15.0148 27.7142 15.0052 27.6862 15.0045C27.158 14.9425 26.6117 14.9951 26.0798 14.9355C25.6073 14.8775 25.1336 14.9438 24.6596 14.9265C23.9116 14.9679 23.1647 15.0142 22.4172 15.052C22.3959 15.0487 22.3741 15.0497 22.3532 15.0551C22.2323 15.0611 22.1113 15.0668 21.9904 15.0722C21.0495 15.1629 20.1068 15.233 19.1649 15.3231C18.7816 15.4084 18.3913 15.4588 17.9989 15.4738C17.8669 15.4846 17.735 15.4981 17.6033 15.5125C17.5994 15.486 17.595 15.4599 17.5923 15.4332C17.5831 15.1823 17.536 14.9341 17.5316 14.6822C17.5197 14.6214 17.5242 14.5369 17.5159 14.4608C17.6219 14.4367 17.7293 14.4196 17.8376 14.4095C18.0039 14.3625 17.9387 14.1674 17.9462 14.0414C17.9559 13.8689 18.0403 13.5123 17.7629 13.5425C17.0951 13.5209 16.43 13.6333 15.7681 13.6642C15.5588 13.7484 15.6671 14.1347 15.6397 14.3175C15.6361 14.4155 15.5831 14.5361 15.6791 14.6068C15.7888 14.6639 16.0019 14.6211 16.2005 14.5819C16.184 14.9408 16.2356 15.2999 16.2475 15.6584C16.0068 15.6897 15.7647 15.7031 15.5227 15.7235C15.4173 15.7177 15.2806 15.7465 15.2543 15.8489C15.2497 15.8559 15.2456 15.8632 15.2422 15.8709C14.9206 16.5359 14.5406 17.1724 14.2386 17.8467C13.8555 18.7002 13.5205 19.5745 13.235 20.4654C13.2347 20.4706 13.2347 20.4759 13.235 20.4811C13.2346 20.4872 13.2346 20.4934 13.235 20.4996C13.2123 21.4767 13.2149 22.4545 13.2333 23.4319C13.249 23.9394 13.2893 24.4437 13.2554 24.9509C13.283 26.0025 13.3733 27.0522 13.4064 28.1028C13.4055 28.131 13.4139 28.1587 13.4304 28.1817C13.4468 28.2046 13.4704 28.2215 13.4974 28.2297C13.5005 28.234 13.5039 28.2381 13.5076 28.2421C13.5806 28.3133 13.688 28.2775 13.7795 28.2919C14.1266 28.3572 14.4694 28.2803 14.8155 28.251C15.3413 28.2763 15.8684 28.2599 16.3916 28.2019C16.9549 28.2262 17.5126 28.1314 18.0742 28.1078C18.4272 28.1072 18.7798 28.0866 19.1305 28.0462C19.5382 28.0525 19.9459 28.0569 20.3536 28.0453C21.2317 28.061 22.1081 28.0766 22.9863 28.0849C23.311 28.0849 23.6348 28.0583 23.9585 28.09C24.4259 28.1135 24.8953 28.0911 25.3619 28.1271C25.8278 28.1866 26.2921 28.0815 26.7575 28.061C27.3677 28.0923 27.9758 28.0153 28.583 27.9915C28.7384 27.9891 28.8891 27.9457 29.0437 27.9375C29.0659 27.9356 29.0873 27.9283 29.106 27.9162C29.1247 27.9041 29.1401 27.8876 29.1509 27.8681C29.1811 27.8489 29.2045 27.8206 29.2178 27.7874C29.231 27.7542 29.2335 27.7176 29.2248 27.6829C29.2852 27.0028 29.2561 26.3219 29.2988 25.6381C29.3631 24.8236 29.3531 24.0073 29.3681 23.1904C29.471 22.2471 29.5129 21.2981 29.4936 20.3494C29.5153 20.324 29.5276 20.2919 29.5282 20.2586ZM27.2918 15.2676C27.3898 15.2616 27.4881 15.2645 27.5855 15.2762C27.6537 15.4925 27.7635 15.688 27.8353 15.9046C28.2344 16.9238 28.4745 17.9948 28.845 19.0238C28.9704 19.3489 29.0584 19.686 29.1713 20.0155C29.1812 20.0454 29.1889 20.0759 29.1945 20.1069C29.1264 20.1155 29.0576 20.1168 28.9893 20.1107C28.7812 20.1107 28.5734 20.1217 28.3655 20.1286C28.2016 20.1323 28.0379 20.1286 27.874 20.1251C27.8182 19.6693 27.6833 19.2269 27.6253 18.7707C27.577 18.5456 27.5537 18.316 27.5218 18.0892C27.4379 17.7424 27.3707 17.3921 27.2988 17.0424C27.2609 16.68 27.1384 16.3342 27.0705 15.9772C27.0204 15.7297 26.9137 15.4986 26.8452 15.2566C26.9938 15.2621 27.1427 15.2662 27.2918 15.2676ZM25.5383 15.1934C25.8749 15.2066 26.2107 15.2273 26.5471 15.2435C26.6235 15.5511 26.7657 15.8393 26.816 16.1539C26.9672 16.7266 27.0578 17.3104 27.1806 17.8893C27.238 18.1249 27.2799 18.364 27.3061 18.605C27.3531 18.8314 27.3823 19.0605 27.4201 19.2882C27.4844 19.5647 27.5499 19.8386 27.5878 20.1193C27.4132 20.1174 27.2385 20.1193 27.0639 20.135C26.7775 20.1489 26.4911 20.1507 26.2048 20.1485C26.2048 20.1414 26.2035 20.1344 26.2027 20.1273C26.1221 19.5931 26.0616 19.0453 25.9694 18.5114C25.9236 18.0496 25.8413 17.5933 25.8113 17.1291C25.7213 16.4823 25.5777 15.8417 25.4479 15.2003C25.478 15.198 25.5081 15.1957 25.5383 15.1934ZM24.3475 15.2287C24.6174 15.2058 24.8879 15.213 25.1581 15.2094C25.1603 15.2386 25.1661 15.2675 25.1755 15.2952C25.3768 16.1441 25.5173 17.0063 25.596 17.8752C25.7093 18.6309 25.8129 19.3872 25.9148 20.1455C25.5147 20.1406 25.1151 20.1345 24.7143 20.1505C24.7143 20.1482 24.7143 20.1458 24.7143 20.1433C24.6295 19.5989 24.6055 19.0489 24.5468 18.5015C24.4791 17.8989 24.4229 17.2948 24.3698 16.6911C24.3047 16.2017 24.1868 15.7203 24.0811 15.2384C24.1697 15.2333 24.2585 15.2295 24.3475 15.2287ZM23.1774 15.3071C23.3831 15.2971 23.5881 15.2772 23.7934 15.2601C23.8031 15.3385 23.8346 15.4189 23.8479 15.4953C23.9263 15.8578 24.0047 16.2209 24.0689 16.5861C24.1484 17.3761 24.2205 18.1669 24.3053 18.9566C24.3309 19.3614 24.3704 19.7637 24.4308 20.1651C23.941 20.148 23.4507 20.1604 22.9624 20.2021L22.9423 20.201C22.9376 20.1777 22.9344 20.154 22.9329 20.1303C22.8967 19.6459 22.8777 19.1375 22.8055 18.6536C22.7673 18.0754 22.7009 17.4993 22.6778 16.9196C22.6577 16.6828 22.6251 16.4473 22.5803 16.214C22.545 15.9192 22.545 15.6222 22.5254 15.3261C22.7419 15.3159 22.9594 15.3084 23.1774 15.3063V15.3071ZM20.991 19.7762C21.0819 18.9067 21.1264 18.033 21.1244 17.1587C21.1268 16.5815 21.1582 16.0047 21.2185 15.4305C21.4953 15.3992 21.7722 15.3694 22.0504 15.3545C22.1138 15.3502 22.1772 15.3462 22.2406 15.3424C22.2588 15.6289 22.2615 15.9162 22.2917 16.2017C22.3298 16.4537 22.3797 16.7035 22.3951 16.959C22.429 17.5862 22.4747 18.2134 22.5469 18.8357C22.5966 19.2871 22.6104 19.7375 22.6582 20.1885C22.3994 20.1829 22.1405 20.1926 21.8828 20.2175C21.5834 20.2175 21.2841 20.2106 20.9849 20.2018C20.9834 20.1934 20.9813 20.1851 20.9785 20.177C20.9696 20.0431 20.9738 19.9087 20.991 19.7756V19.7762ZM19.6562 15.6438C19.6627 15.617 19.6719 15.5894 19.6794 15.5618C20.0934 15.5086 20.5105 15.4945 20.9253 15.4644C20.8905 15.8705 20.8505 16.2781 20.8505 16.6861C20.829 17.0781 20.8582 17.4717 20.8292 17.8642C20.8071 18.3566 20.7882 18.8495 20.7508 19.3407C20.7051 19.6221 20.6869 19.9072 20.6964 20.1921C20.4702 20.1849 20.2441 20.1776 20.0182 20.1734C19.6438 20.1828 19.273 20.2719 18.8979 20.2214C18.8651 20.2183 18.8323 20.2155 18.7996 20.2132C18.8393 20.0734 18.8707 19.9314 18.8937 19.7878C18.936 19.5432 18.9766 19.2984 19.0191 19.0536C19.0723 18.7469 19.1759 18.4518 19.2322 18.1457C19.3672 17.4794 19.4861 16.808 19.5705 16.1335C19.6004 15.97 19.6279 15.8066 19.6562 15.6432V15.6438ZM17.9702 15.8577C17.9829 15.8263 17.9924 15.7937 17.9986 15.7605C18.1208 15.7507 18.2431 15.7434 18.3657 15.7398C18.7082 15.7122 19.0415 15.627 19.3818 15.5859C19.2887 16.0012 19.2564 16.428 19.1751 16.8459C19.1035 17.3394 19.0108 17.8291 18.904 18.316C18.7822 18.7642 18.6884 19.2195 18.6232 19.6793C18.6021 19.8279 18.57 19.9746 18.527 20.1184C18.5061 20.1411 18.4928 20.1699 18.4889 20.2005C18.0467 20.194 17.6042 20.2288 17.1617 20.194C17.0952 20.194 17.0289 20.1952 16.9626 20.1987C17.0428 19.9103 17.1128 19.6185 17.1673 19.324C17.2225 19.04 17.3027 18.7874 17.3618 18.4929C17.4012 18.2441 17.4557 17.998 17.525 17.7559C17.6386 17.2843 17.7446 16.8114 17.8474 16.3374C17.8921 16.1784 17.9365 16.0186 17.9702 15.8571V15.8577ZM18.7579 20.1602C18.7534 20.1514 18.7482 20.143 18.7422 20.1351C18.7473 20.1414 18.7518 20.1481 18.7555 20.1552L18.7579 20.1602ZM15.9221 14.3373C15.924 14.307 15.9249 14.2766 15.9254 14.2463C15.9271 14.1467 15.922 14.0473 15.9237 13.9484C16.5051 13.8757 17.0902 13.8359 17.6762 13.8293C17.6655 13.9335 17.6608 14.0382 17.6621 14.143C17.5642 14.1543 17.4698 14.1848 17.3721 14.1963C17.2505 14.1855 17.128 14.1874 17.0068 14.2019C16.8099 14.2327 16.6116 14.253 16.4126 14.2629C16.247 14.2717 16.0876 14.3217 15.9221 14.3366V14.3373ZM17.3152 15.5447C17.0537 15.5761 16.7921 15.6074 16.5299 15.633C16.5174 15.2679 16.4634 14.903 16.4863 14.5377C16.4976 14.5377 16.5086 14.5377 16.5189 14.5377C16.757 14.5405 16.9894 14.4735 17.2262 14.4729C17.2531 14.7539 17.2614 15.0363 17.3013 15.3161C17.3093 15.3907 17.3036 15.4702 17.3152 15.5448V15.5447ZM16.4796 16.0898C16.4982 16.0314 16.5205 15.9745 16.5423 15.9173C16.6319 15.9082 16.7214 15.8991 16.8108 15.89C17.107 15.8586 17.4026 15.8185 17.6988 15.7873C17.4973 16.494 17.3831 17.2249 17.1813 17.9323C17.0664 18.5252 16.9248 19.1123 16.7951 19.702C16.7594 19.874 16.7133 20.0436 16.6571 20.2099C16.6547 20.2145 16.6525 20.2194 16.6503 20.2241C16.2991 20.277 15.9452 20.3108 15.5903 20.3254C15.3772 20.3296 15.1639 20.323 14.9515 20.3056C15.1024 19.9596 15.2321 19.6047 15.3397 19.2429C15.4218 19.0582 15.492 18.8685 15.55 18.6749C15.7526 18.231 15.8828 17.7581 16.0587 17.3033C16.2059 16.9013 16.3057 16.4827 16.4796 16.0899V16.0898ZM13.6628 20.0856C13.7967 19.6178 14.0037 19.1761 14.1731 18.7214C14.5173 17.8933 14.9074 17.0851 15.3416 16.3005C15.3934 16.2064 15.4446 16.1103 15.4895 16.0104C15.5679 16.0052 15.6463 15.9998 15.7258 15.9921C15.8933 15.9803 16.0603 15.9654 16.2276 15.9493C15.9248 16.7396 15.6846 17.5531 15.385 18.3455C15.2536 18.6199 15.1799 18.9158 15.054 19.1922C14.9656 19.4526 14.893 19.718 14.7874 19.9725C14.7573 20.0779 14.6738 20.1817 14.6477 20.2901C14.2932 20.2648 13.9371 20.2691 13.5833 20.3028C13.6125 20.2316 13.6399 20.1595 13.6628 20.0856ZM20.3272 24.1454L20.2393 24.1424C20.2484 24.0736 20.2601 24.0052 20.2656 23.9359C20.2676 23.9121 20.2698 23.8879 20.2716 23.8636C20.5395 23.8843 20.8088 23.8826 21.0765 23.8584C21.4133 23.8741 21.7493 23.8545 22.0862 23.8613C22.0816 23.8962 22.0793 23.9314 22.0782 23.9665C22.0771 23.9979 22.0761 24.0283 22.0758 24.059C21.6954 24.0933 21.3067 24.1183 20.9236 24.1198C20.7266 24.1507 20.5268 24.1593 20.3279 24.1456L20.3272 24.1454ZM21.6538 26.3408C21.6382 26.8211 21.6681 27.3033 21.6187 27.7815C21.5271 27.78 21.4356 27.7782 21.344 27.7763C21.0827 27.7828 20.8213 27.7735 20.5599 27.7669C20.5663 27.7105 20.5693 27.6537 20.5689 27.597C20.5811 27.381 20.5468 27.1662 20.5689 26.9504C20.5869 26.7117 20.5904 26.472 20.5794 26.2329C20.5988 25.6332 20.5991 25.0334 20.6021 24.4335C20.7357 24.4294 20.8691 24.4183 21.0015 24.4002C21.2295 24.4052 21.4563 24.3919 21.6832 24.375C21.6473 25.0273 21.6637 25.6872 21.6545 26.3412L21.6538 26.3408ZM29.0837 23.1153C29.0639 23.9964 29.0689 24.878 29.0053 25.758C28.9715 26.3864 28.9855 27.023 28.9406 27.6554C28.8251 27.6821 28.7076 27.6997 28.5892 27.708C28.2243 27.6997 27.8623 27.7737 27.4971 27.7748C27.2038 27.7942 26.9101 27.7654 26.6174 27.7859C26.3271 27.8028 26.0397 27.8486 25.7492 27.861C24.4683 27.7942 23.1854 27.8032 21.903 27.7861C21.9543 27.194 21.9283 26.5959 21.9389 26.0008C21.9401 25.5373 21.946 25.0737 21.9568 24.61C21.9568 24.5247 21.9656 24.4385 21.9665 24.353H21.974C22.5161 24.341 22.307 24.1561 22.3841 23.76C22.3877 23.7315 22.3841 23.7026 22.3734 23.6759C22.3628 23.6492 22.3456 23.6257 22.3234 23.6075C22.3012 23.5893 22.2747 23.577 22.2465 23.5718C22.2182 23.5667 22.1891 23.5688 22.1619 23.5779C22.0678 23.579 21.9737 23.5726 21.8796 23.5724C21.4331 23.5942 20.9858 23.5607 20.54 23.6011C20.4172 23.581 20.2923 23.576 20.1682 23.5864C20.1424 23.58 20.1154 23.5806 20.0899 23.5881C20.0644 23.5956 20.0414 23.6097 20.0231 23.629C20.0048 23.6482 19.992 23.672 19.9858 23.6978C19.9797 23.7237 19.9805 23.7507 19.9882 23.7761C20.0039 23.9988 19.8113 24.4512 20.1921 24.4255C20.2336 24.4286 20.275 24.4306 20.3166 24.4324C20.3103 24.746 20.3166 25.0584 20.3137 25.3714C20.3173 25.7237 20.2792 26.0761 20.3034 26.4281C20.3023 26.6675 20.2808 26.9064 20.2745 27.1455C20.2875 27.3511 20.2879 27.5573 20.2758 27.763C20.1268 27.7618 19.9779 27.763 19.8287 27.7723C19.5285 27.7574 19.2277 27.7611 18.928 27.7836C18.4889 27.8348 18.0304 27.8091 17.5884 27.8555C17.1562 27.9028 16.7216 27.9259 16.2869 27.9247C15.7824 27.9787 15.2746 27.9937 14.7678 27.9695C14.5555 27.9791 14.3471 28.0323 14.1345 28.0376C13.9962 28.0349 13.8317 28.0092 13.6833 28.0036C13.6567 27.3896 13.6274 26.7758 13.5954 26.1621C13.539 25.5628 13.5261 24.9601 13.557 24.3588C13.4889 23.1765 13.4864 21.9879 13.513 20.8041C13.5163 20.7367 13.5179 20.6692 13.5179 20.6018C13.688 20.5948 13.8574 20.5797 14.0264 20.5588C14.8509 20.5687 15.6787 20.6738 16.4981 20.5306C17.0695 20.4262 17.648 20.5306 18.223 20.4822C18.5724 20.4627 18.9189 20.5254 19.2675 20.5207C19.5004 20.5107 19.7304 20.4693 19.9633 20.459C20.5427 20.4632 21.1221 20.5004 21.7021 20.4999C22.1442 20.4903 22.5803 20.4569 23.0231 20.4834C23.4363 20.4431 23.8519 20.4326 24.2666 20.4521C24.7886 20.4373 25.3105 20.405 25.833 20.4347C26.5885 20.4618 27.3435 20.3751 28.099 20.4168C28.4538 20.4201 28.8083 20.3901 29.1632 20.3951C29.1763 20.3942 29.1904 20.3939 29.205 20.394C29.2233 21.3029 29.183 22.2121 29.0843 23.1158L29.0837 23.1153Z" fill="#002726"/>
<path d="M17.9687 24.8633C17.9557 24.7551 17.9347 24.5967 17.7942 24.5994C17.6546 24.6135 17.5144 24.6151 17.3741 24.6184C16.9024 24.6795 16.427 24.7125 15.9569 24.7909C15.8571 24.8238 15.7387 24.8001 15.6517 24.8625C15.536 24.9902 15.5996 25.1854 15.5984 25.341C15.5932 25.5404 15.6189 25.7393 15.6098 25.9386C15.5976 26.085 15.6446 26.2149 15.8137 26.2051C15.9473 26.2102 16.0812 26.2208 16.2151 26.2163C16.3406 26.2061 16.4649 26.1733 16.5915 26.1681C16.9986 26.1589 17.4049 26.1256 17.8082 26.0684C18.0076 26.0612 17.9769 25.8377 17.9858 25.6955C17.9833 25.4176 17.9833 25.1423 17.9687 24.8633ZM15.869 25.0974C16.1253 25.0541 16.3826 25.0166 16.641 24.9848C16.641 25.078 16.6619 25.1754 16.6678 25.2671L16.5952 25.2778C16.4665 25.2825 16.3381 25.295 16.2109 25.3152C16.1085 25.339 16.0043 25.3547 15.8995 25.3623C15.8935 25.3623 15.8874 25.3623 15.8814 25.3623C15.8775 25.274 15.8733 25.1858 15.869 25.0974ZM16.5546 25.8857C16.4011 25.9014 16.2498 25.9328 16.0961 25.9342C16.0547 25.9346 16.0133 25.9324 15.9722 25.9276C15.9465 25.9265 15.9208 25.926 15.8949 25.9251C15.8949 25.8343 15.8949 25.7435 15.8921 25.6525C16.0538 25.6456 16.2593 25.5875 16.3718 25.5757C16.4724 25.5708 16.5726 25.5621 16.6727 25.5508C16.676 25.6616 16.6816 25.7722 16.687 25.883C16.6426 25.8843 16.5985 25.8852 16.5546 25.8857ZM16.9283 25.0027C16.9302 24.9856 16.9322 24.9685 16.9341 24.9516C17.1842 24.9257 17.4348 24.9058 17.6854 24.8933C17.6884 24.971 17.6911 25.0498 17.6935 25.1296C17.5551 25.1431 17.4161 25.1526 17.2792 25.1787C17.1685 25.1932 17.058 25.2092 16.9476 25.2257C16.9429 25.1513 16.9364 25.0769 16.9283 25.0027ZM17.6967 25.7957C17.4555 25.8258 17.2134 25.8526 16.9703 25.8691C16.967 25.7719 16.9636 25.6748 16.9539 25.5779C16.9539 25.5566 16.9539 25.5352 16.9548 25.5138C17.2027 25.4778 17.45 25.4354 17.6992 25.4123C17.7011 25.5409 17.7011 25.6695 17.6973 25.7957H17.6967Z" fill="#002726"/>
<path d="M17.8437 21.7516C17.8307 21.6434 17.8097 21.4851 17.6692 21.4876C17.5296 21.5017 17.3894 21.5033 17.2491 21.5067C16.7774 21.5679 16.3021 21.6008 15.832 21.6792C15.7323 21.7121 15.6137 21.6885 15.5267 21.7509C15.411 21.8783 15.4746 22.0736 15.4734 22.2293C15.4682 22.4289 15.4941 22.6276 15.4848 22.8267C15.4728 22.9734 15.5198 23.103 15.6887 23.0933C15.7619 23.096 15.8351 23.1002 15.9082 23.1029C15.9687 23.1051 16.0294 23.1062 16.09 23.1044C16.2162 23.0943 16.3398 23.0615 16.4663 23.0563C16.8735 23.047 17.2797 23.0137 17.683 22.9566C17.8826 22.9494 17.8519 22.7259 17.8607 22.5837C17.8578 22.306 17.8594 22.0306 17.8437 21.7516ZM15.7442 21.9856C16.0003 21.9423 16.2576 21.9048 16.5162 21.8732C16.5162 21.9663 16.5369 22.0637 16.5428 22.1554L16.4702 22.1661C16.3415 22.1708 16.2132 22.1833 16.086 22.2036C15.9836 22.2273 15.8794 22.2431 15.7745 22.2506C15.7685 22.2506 15.7625 22.2506 15.7564 22.2506C15.753 22.1623 15.7487 22.0744 15.7445 21.9856H15.7442ZM16.4296 22.774C16.2763 22.7897 16.1248 22.8211 15.9711 22.8225C15.9298 22.8229 15.8884 22.8207 15.8474 22.8159H15.8388C15.8159 22.815 15.793 22.8145 15.7701 22.8137C15.7701 22.7228 15.7701 22.632 15.7671 22.541C15.9289 22.5341 16.1343 22.4761 16.2469 22.4642C16.3474 22.4595 16.4476 22.4506 16.5477 22.4394C16.5511 22.5501 16.5568 22.6608 16.562 22.7717C16.5181 22.7727 16.474 22.7735 16.4299 22.774H16.4296ZM16.8034 21.8911C16.8052 21.874 16.8074 21.8567 16.8091 21.8399C17.0592 21.8141 17.3098 21.794 17.5605 21.7814C17.5634 21.8598 17.5662 21.9383 17.5685 22.0179C17.4301 22.0312 17.2913 22.0408 17.1544 22.067C17.0437 22.0816 16.9331 22.0984 16.8226 22.114C16.8183 22.0395 16.8118 21.9646 16.8038 21.8911H16.8034ZM17.5718 22.684C17.3306 22.7141 17.0884 22.741 16.8453 22.7573C16.8422 22.6602 16.8387 22.5631 16.8289 22.4662C16.8289 22.4449 16.8296 22.4234 16.8299 22.4021C17.0777 22.3662 17.325 22.3245 17.5742 22.3006C17.5771 22.4292 17.5771 22.5578 17.5728 22.684H17.5718Z" fill="#002726"/>
<path d="M26.7969 21.5083C26.7838 21.4001 26.7628 21.2418 26.6223 21.2444C26.4828 21.2585 26.3426 21.2601 26.2022 21.2634C25.7305 21.3245 25.2551 21.3575 24.785 21.4359C24.6854 21.4688 24.5669 21.445 24.4798 21.5074C24.3641 21.635 24.4278 21.8303 24.4265 21.9858C24.4213 22.1854 24.4471 22.3841 24.438 22.5834C24.4257 22.7299 24.4729 22.8597 24.6418 22.85C24.7149 22.8527 24.7883 22.8569 24.8613 22.8596C24.9219 22.8618 24.9826 22.8629 25.0431 22.861C25.1693 22.8508 25.2929 22.818 25.4194 22.813C25.8266 22.8036 26.2329 22.7703 26.6361 22.7131C26.8357 22.706 26.8048 22.4824 26.8138 22.3402C26.8107 22.0628 26.8114 21.7873 26.7969 21.5083ZM24.6972 21.7424C24.9534 21.6992 25.2107 21.6616 25.4691 21.6299C25.4691 21.7232 25.49 21.8204 25.496 21.9121L25.4234 21.9226C25.2946 21.9274 25.1662 21.94 25.039 21.9603C24.9366 21.9841 24.8325 21.9999 24.7276 22.0073C24.7216 22.0073 24.7155 22.0073 24.7096 22.0073C24.7058 21.9191 24.7017 21.8308 24.6972 21.7424ZM25.3827 22.5307C25.2294 22.5464 25.0779 22.5778 24.9242 22.5792C24.8828 22.5797 24.8414 22.5775 24.8003 22.5726H24.7919L24.7232 22.5704C24.7232 22.4796 24.7232 22.3887 24.7202 22.2979C24.882 22.2908 25.0875 22.2328 25.2001 22.221C25.3006 22.2163 25.4008 22.2074 25.5008 22.1963C25.5041 22.307 25.5099 22.4177 25.5151 22.5284C25.4706 22.5295 25.4264 22.5303 25.3827 22.5307ZM25.7564 21.6479C25.7583 21.6306 25.7603 21.6136 25.7622 21.5968C26.0124 21.5707 26.2628 21.5512 26.5135 21.5383C26.5165 21.6167 26.5193 21.6951 26.5217 21.7746C26.3832 21.7881 26.2444 21.7976 26.1075 21.8238C25.9967 21.8384 25.8863 21.8543 25.7757 21.8709C25.771 21.7963 25.7646 21.722 25.7564 21.6479ZM26.5248 22.4409C26.2836 22.471 26.0415 22.4976 25.7984 22.5141C25.7953 22.4169 25.7919 22.3198 25.7828 22.2231C25.7828 22.2016 25.7828 22.1803 25.7837 22.1589C26.0316 22.123 26.2789 22.0805 26.5281 22.0573C26.5303 22.1861 26.5293 22.3145 26.5254 22.4409H26.5248Z" fill="#002726"/>
<path d="M26.9414 24.5244C26.9284 24.4162 26.9074 24.2579 26.7669 24.2605C26.6273 24.2746 26.4871 24.2762 26.3468 24.2795C25.8751 24.3407 25.3998 24.3736 24.9295 24.452C24.8299 24.4849 24.7114 24.4611 24.6244 24.5235C24.5086 24.6511 24.5723 24.8464 24.571 25.0019C24.5659 25.2015 24.5917 25.4002 24.5825 25.5995C24.5704 25.746 24.6175 25.8758 24.7863 25.8661C24.8596 25.8688 24.9328 25.873 25.0059 25.8757C25.0664 25.8779 25.1271 25.879 25.1876 25.8771C25.3139 25.8669 25.4374 25.8341 25.564 25.8291C25.9711 25.8198 26.3774 25.7864 26.7807 25.7292C26.9803 25.7222 26.9495 25.4985 26.9583 25.3563C26.9552 25.0789 26.956 24.8031 26.9414 24.5244ZM24.8417 24.7586C25.0979 24.7153 25.3553 24.6777 25.6138 24.646C25.6138 24.7393 25.6345 24.8367 25.6405 24.9282L25.5679 24.9387C25.4392 24.9435 25.3109 24.9561 25.1837 24.9764C25.0812 25.0002 24.9771 25.016 24.8721 25.0234C24.8662 25.0234 24.8602 25.0234 24.8541 25.0234C24.8503 24.9352 24.8462 24.8469 24.8417 24.7586ZM25.5273 25.5468C25.3739 25.5625 25.2224 25.5939 25.0688 25.5953C25.0274 25.5958 24.986 25.5936 24.9449 25.5887H24.9364C24.9135 25.5887 24.8906 25.5875 24.8677 25.5865C24.8677 25.4957 24.8677 25.4048 24.8647 25.314C25.0266 25.3069 25.232 25.2489 25.3446 25.2371C25.4451 25.2324 25.5453 25.2235 25.6453 25.2124C25.6486 25.3231 25.6544 25.4338 25.6596 25.5445C25.6151 25.5456 25.5713 25.5465 25.5273 25.5468ZM25.9011 24.664C25.9028 24.6468 25.9049 24.6297 25.9067 24.6129C26.1569 24.587 26.4074 24.5669 26.6582 24.5544C26.661 24.6328 26.6638 24.7112 26.6662 24.7907C26.5277 24.8042 26.3889 24.8138 26.252 24.8399C26.1412 24.8545 26.0308 24.8704 25.9202 24.887C25.9157 24.8123 25.9091 24.7382 25.9011 24.664ZM26.6695 25.457C26.4283 25.4871 26.186 25.5138 25.943 25.5302C25.9398 25.433 25.9364 25.3359 25.9273 25.2392C25.9273 25.2177 25.9273 25.1964 25.9284 25.175C26.1761 25.1391 26.4234 25.0966 26.6726 25.0736C26.6742 25.2022 26.6739 25.3306 26.6701 25.457H26.6695Z" fill="#002726"/>
<path d="M30.7072 27.7341C30.8354 27.7446 30.9642 27.7438 31.0922 27.7316C31.4113 27.7002 31.7248 27.6458 32.0408 27.5962C32.1226 27.056 32.1841 26.5121 32.2212 25.9668C32.0227 26.2828 31.8444 26.6109 31.6871 26.9493C31.6727 26.9749 31.6508 26.9954 31.6244 27.0082C31.5979 27.021 31.5682 27.0254 31.5392 27.0208C31.5102 27.0163 31.4832 27.0029 31.462 26.9826C31.4408 26.9622 31.4264 26.9359 31.4206 26.9071C31.4148 26.822 31.4141 26.7366 31.4182 26.6515C31.4447 26.2212 31.4471 25.7995 31.4549 25.3749C31.3197 25.7115 31.2067 26.0675 31.1049 26.4139C31.0612 26.5834 30.9569 27.0023 30.7304 26.7501C30.5714 26.2939 30.6345 25.7889 30.4345 25.3473C30.3518 26.1393 30.2969 26.9408 30.4596 27.7272C30.4725 27.7272 30.4855 27.7272 30.4984 27.7272C30.5678 27.7267 30.6376 27.7305 30.7072 27.7341ZM30.6224 28.0138C30.5956 28.0129 30.5639 28.0138 30.5299 28.0138C30.3503 28.0181 30.1046 28.0221 30.1822 27.7871C30.0472 27.0529 30.0301 26.3019 30.1316 25.5623C30.1297 25.3252 30.1722 25.0898 30.257 24.8684C30.3017 24.7301 30.4968 24.662 30.5696 24.8159C30.6201 24.9612 30.6508 25.1138 30.7047 25.2587C30.7966 25.4769 30.8523 25.7087 30.8697 25.9449C30.8728 25.9706 30.8791 26.0233 30.8924 26.1316C31.0442 25.6747 31.1692 25.1891 31.4272 24.7796C31.8863 24.4346 31.7058 25.728 31.726 25.9225C31.7232 26.0322 31.7231 26.1432 31.7223 26.2536C32.9283 24.0414 32.4235 26.7424 32.332 27.5803C32.3232 27.8178 32.1852 27.8898 31.9641 27.8901C31.6033 27.9694 31.2357 28.0139 30.8664 28.0229C30.7851 28.0233 30.7037 28.0203 30.6224 28.0138Z" fill="#002726"/>
<path d="M11.0815 28.2986C11.0878 28.3007 11.0939 28.3034 11.0998 28.3066C11.1066 28.3102 11.1131 28.3144 11.1193 28.3191C11.361 28.2579 11.6123 28.2442 11.8592 28.2787C12.0598 28.2572 12.2625 28.2671 12.46 28.3082C12.531 27.9688 12.5626 27.6224 12.5541 27.2759C12.4733 27.5288 12.4107 27.7888 12.3267 28.0398C12.3129 28.0642 12.2923 28.084 12.2675 28.0969C12.2426 28.1099 12.2146 28.1153 12.1867 28.1126C12.1588 28.11 12.1323 28.0993 12.1104 28.0819C12.0885 28.0645 12.072 28.0411 12.0631 28.0146C11.998 27.2649 12.0237 26.5023 11.8699 25.7616C11.7399 26.1556 11.638 26.5584 11.5652 26.967C11.508 27.1387 11.5878 27.6282 11.2814 27.4956C11.195 27.4263 11.2121 27.3 11.1782 27.2036C11.0757 26.7328 10.927 26.2733 10.7343 25.8316C10.7638 26.6638 10.8801 27.4906 11.0815 28.2986ZM10.8494 28.5126C10.6019 27.5993 10.4655 26.6593 10.4434 25.7133C10.4481 25.5754 10.3891 25.3962 10.5146 25.2972C10.9301 25.1367 11.2425 26.3734 11.3308 26.6709C11.3703 26.4659 11.8341 24.4277 12.1166 25.2621C12.1536 25.8934 12.2999 26.5128 12.2955 27.1493C12.3687 26.9757 12.4808 26.4166 12.7502 26.5955C12.8804 26.817 12.8079 27.1191 12.842 27.3696C12.8184 27.6491 12.8498 28.5391 12.5451 28.6241C12.4891 28.6262 12.4335 28.6146 12.383 28.5903C12.33 28.5644 12.2711 28.553 12.2122 28.5572C12.0654 28.5655 11.9195 28.5597 11.7731 28.554C11.672 28.55 11.571 28.546 11.4697 28.5468C11.3926 28.5492 11.3163 28.5631 11.2433 28.5879C11.171 28.611 11.0962 28.625 11.0205 28.6296C10.9827 28.6334 10.9448 28.6237 10.9135 28.6023C10.8821 28.5809 10.8593 28.5492 10.8491 28.5126H10.8494Z" fill="#002726"/>
<path d="M40.448 21.5321C40.3934 20.8892 40.3679 20.2433 40.2626 19.6056C40.1914 19.0603 40.1999 18.5044 40.0807 17.9664C39.8714 17.0616 39.6906 16.1514 39.3594 15.2807C39.2423 14.8908 39.1756 14.4851 39.0257 14.1047C38.7591 13.4915 38.4314 12.9129 38.1633 12.3028C38.0681 12.114 37.9336 11.9478 37.7689 11.8152C37.5255 11.5614 37.3106 11.2816 37.128 10.981C36.9869 10.8295 36.8367 10.6867 36.6905 10.5405C36.9458 10.4679 37.1928 10.3688 37.4275 10.2448C38.3135 9.89091 39.0498 9.24142 39.5115 8.40651C40.0624 7.30534 40.3088 6.07691 40.2252 4.84848C40.1966 4.13688 40.1759 3.40583 39.9159 2.73374C39.4934 1.71562 38.6853 0.906005 37.6679 0.481638C37.2616 0.313219 36.8378 0.190519 36.4043 0.1158C36.1051 0.0791064 35.8026 0.114232 35.5031 0.069698C35.2124 0.0309659 34.9193 0.062328 34.6275 0.0323773C34.4408 0.0595055 34.1477 -0.101538 34.0445 0.114703C33.5594 0.209348 33.091 0.37494 32.6542 0.606145C32.3479 0.707042 32.0587 0.853813 31.7965 1.04145C31.486 1.24734 31.1499 1.43347 30.9026 1.71871C30.4614 2.33509 30.0909 2.99918 29.7982 3.69844C29.6584 4.06603 29.5611 4.44842 29.5083 4.83814C29.2862 4.72947 29.0609 4.63977 28.9552 4.5943C28.6679 4.48751 28.3829 4.37116 28.0892 4.28366C27.6642 4.18016 27.2187 4.22344 26.793 4.13186C26.3777 3.98854 25.9841 3.78688 25.5361 3.76195C24.9202 3.68354 24.3022 3.57472 23.6797 3.60263C23.2122 3.61502 22.7481 3.56703 22.2812 3.56186C22.0921 3.55308 21.9027 3.55606 21.7134 3.55904C21.4648 3.56736 21.216 3.56249 20.9679 3.54445C19.209 3.27396 17.4311 3.59996 15.7586 4.14268C14.8398 4.32646 14.022 4.80254 13.1793 5.19017C12.1595 5.70832 11.1901 6.3205 10.284 7.01874C9.82753 7.3609 9.33185 7.65099 8.91411 8.04333C8.35775 8.563 7.89233 9.16939 7.37737 9.72841C6.86272 10.2772 6.53577 10.9575 6.12916 11.5835C5.28702 12.8574 4.57059 14.21 3.98996 15.6224C3.68481 16.5131 3.41164 17.4174 3.13205 18.3164C2.96128 19.0443 2.98277 19.7988 2.91346 20.5395C2.87331 21.2958 2.63543 22.0308 2.75085 22.7929C2.82408 23.6844 2.84321 24.584 2.98967 25.4673C3.048 25.7886 3.12217 26.1064 3.19525 26.4238C3.02458 26.4638 2.85605 26.5124 2.69032 26.5695C1.84868 26.8268 1.13478 27.3916 0.690675 28.1514C0.222754 29.0212 -0.0776945 30.0077 0.017646 31.003C0.0301908 31.3757 0.0571619 31.7678 0.268542 32.088C0.595648 32.5821 0.93718 33.0657 1.44462 33.3884C1.96303 33.8028 2.66774 33.9255 3.31583 33.9386C3.94731 33.9008 4.60842 33.9419 5.21731 33.7552C5.50036 33.636 5.77431 33.4963 6.03696 33.3371C6.1058 33.4519 6.17338 33.567 6.23861 33.683C6.43447 34.054 6.83559 34.2319 7.0719 34.5717C7.16502 34.6864 7.27339 34.7878 7.39399 34.8731C7.23436 35.1122 7.13553 35.3868 7.10609 35.6728C7.04431 36.0321 6.94536 36.3941 6.98064 36.7615C7.05575 37.1774 7.12067 37.6318 7.41077 37.9588C7.71608 38.3665 8.4603 38.7414 8.96507 38.7764C9.39276 38.8197 9.82478 38.7708 10.2319 38.6328C10.6391 38.4949 11.0118 38.2711 11.3251 37.9767C11.3797 37.9225 11.4301 37.8642 11.4759 37.8023C12.0006 38.0499 12.5459 38.2512 13.1056 38.404C14.2171 38.7909 15.3694 39.0487 16.5398 39.1723C17.1377 39.2932 17.7428 39.3746 18.3514 39.416C18.7458 39.4977 19.1479 39.5366 19.5507 39.5321C19.9209 39.5321 20.283 39.6222 20.652 39.6398C21.0962 39.6476 21.5403 39.6526 21.9838 39.6868C22.121 39.6899 22.2581 39.6913 22.3951 39.6912C23.2335 39.6912 24.0714 39.6382 24.907 39.5723C25.464 39.5051 26.0426 39.5117 26.5737 39.3131C27.016 39.136 27.4832 39.0373 27.9223 38.8517C28.3871 38.7745 28.8329 38.6092 29.2356 38.3646C29.532 38.1987 29.8376 38.0496 30.1509 37.9182C30.4534 37.8372 30.748 37.7293 31.0312 37.5958C32.4617 36.8214 33.9322 36.0157 35.1364 34.9118C35.771 34.259 36.4581 33.6553 37.0289 32.9424C37.4494 32.315 37.8122 31.6509 38.1131 30.9581C38.3013 30.5829 38.5489 30.24 38.7173 29.8542C39.0094 29.2481 39.2264 28.6101 39.5343 28.0109C39.8393 27.381 39.9128 26.6724 40.1433 26.0153C40.3655 25.1229 40.3183 24.1934 40.4423 23.2868C40.5173 22.7045 40.5192 22.115 40.448 21.5321ZM29.6496 5.68099C29.7907 4.89694 29.874 4.08796 30.253 3.37306C30.5633 2.8109 30.8297 2.18397 31.2939 1.73157C31.811 1.32174 32.388 0.993842 33.0047 0.759349C33.5369 0.468623 34.1298 0.377987 34.7225 0.321849C35.7841 0.359954 36.8771 0.340822 37.8357 0.873506C39.5449 1.8266 39.9445 3.1024 39.942 4.96358C40.0136 6.57873 39.5813 8.37044 38.2826 9.43408C37.7014 9.83239 37.0611 10.1368 36.3852 10.3361C35.7448 10.4653 35.0891 10.5016 34.4384 10.4438C33.4221 10.3304 32.3415 10.1929 31.506 9.55295C31.1322 9.29499 30.8835 8.91833 30.5929 8.57617C29.951 7.77127 29.4691 6.73083 29.6496 5.68099ZM6.01783 33.0086C5.67676 33.195 5.35922 33.432 4.97865 33.5344C4.37381 33.621 3.76304 33.6593 3.15212 33.649C2.65268 33.6176 2.11514 33.5174 1.69928 33.2239C1.17421 32.8597 0.743166 32.376 0.441661 31.8126C0.214443 31.1278 0.256625 30.35 0.40042 29.6494C0.598314 28.9957 0.821455 28.3471 1.28655 27.8284C1.88243 27.06 2.9271 26.6907 3.87031 26.6156C4.10402 26.5781 4.34324 26.5955 4.56906 26.6664C4.83485 26.6951 5.10111 26.6992 5.36879 26.707C5.76677 26.7618 6.03084 27.0885 6.30197 27.3521C6.92921 27.9369 7.24283 28.8051 7.29473 29.6485C7.3233 30.1136 7.28667 30.5804 7.1859 31.0353C7.07708 31.8183 6.73978 32.6106 6.01783 33.0086ZM11.3619 37.4575C10.9432 38.1571 10.0651 38.486 9.27901 38.5103C8.96612 38.5226 8.65536 38.454 8.37672 38.3111C8.13257 38.1675 7.85235 38.0648 7.675 37.8325C7.34491 37.4435 7.23906 36.8752 7.27372 36.3759C7.36639 35.8831 7.38458 35.3443 7.69507 34.9286C8.07321 34.5061 8.59234 34.236 9.15528 34.1687C9.23071 34.3191 9.38548 34.1955 9.50685 34.2096C10.1498 34.2927 10.9222 34.4135 11.3004 35.0187C11.4943 35.3942 11.6006 35.8086 11.6112 36.231C11.6219 36.6534 11.5366 37.0727 11.3619 37.4575ZM40.2085 22.8161C40.0914 23.6241 40.0903 24.4585 39.9809 25.2688C39.9365 25.6948 39.8409 26.114 39.6962 26.5171C39.5727 27.1545 39.3584 27.771 39.0599 28.3476C38.7297 29.1003 38.4501 29.8774 37.9991 30.5704C37.6053 31.3119 37.2934 32.1007 36.7942 32.7814C36.2748 33.4251 35.6571 33.9755 35.0805 34.5643C34.4235 35.2453 33.6151 35.7383 32.8269 36.2494C31.9675 36.739 31.1374 37.3314 30.1787 37.6078C29.6331 37.7822 29.1542 38.1096 28.6419 38.3571C28.3757 38.4497 28.1036 38.5248 27.8276 38.5819C27.6285 38.6476 27.439 38.74 27.2367 38.7966C26.8731 38.8725 26.5394 39.042 26.1814 39.1358C25.8127 39.2101 25.4344 39.2271 25.0613 39.2724C23.5518 39.4102 22.0341 39.4341 20.521 39.3439C20.0554 39.273 19.585 39.2376 19.114 39.2379C18.6917 39.1932 18.2754 39.1005 17.8493 39.0845C16.6295 38.9108 15.4031 38.7649 14.2093 38.4487C13.4723 38.2274 12.7332 38.0064 12.0139 37.7366C11.8838 37.68 11.7552 37.6207 11.6282 37.5588C11.7625 37.2755 11.8419 36.9694 11.8621 36.6566C11.9711 35.9477 11.8217 35.1356 11.3274 34.5949C10.9753 34.2789 10.539 34.0719 10.0715 33.999C9.84603 34.0177 9.64814 33.8914 9.42076 33.9277C9.00663 33.7909 8.52851 34.0048 8.16252 34.2051C7.94162 34.3138 7.74285 34.4627 7.57636 34.6441C7.54923 34.627 7.52211 34.6101 7.49451 34.5936C7.22103 34.3318 7.0015 34.0178 6.6827 33.8019C6.53828 33.6018 6.40232 33.3942 6.27092 33.1845C6.69762 32.901 7.03053 32.4971 7.22746 32.0241C7.72643 30.5437 7.81142 28.7529 6.7978 27.465C6.18514 26.8127 5.87184 26.3473 4.90212 26.4085C4.85053 26.3001 4.72806 26.3282 4.63853 26.3667C4.25284 26.299 3.85823 26.2998 3.4728 26.3689C3.13221 25.0047 3.08956 23.5943 3.00551 22.1959C3.03012 21.5865 3.2081 20.9915 3.21265 20.3779C3.2622 19.782 3.26408 19.1797 3.3657 18.5887C3.47546 18.0626 3.6801 17.5619 3.83268 17.0474C4.38151 15.0821 5.36063 13.2682 6.47634 11.5697C6.74699 11.162 6.95634 10.7163 7.25396 10.3273C7.78712 9.68142 8.34118 9.0522 8.91615 8.43959C9.48803 7.85391 10.2138 7.45812 10.8515 6.95272C11.7675 6.27861 12.7489 5.69812 13.7809 5.21997C14.3192 4.93864 14.8792 4.70084 15.4554 4.50883C15.9241 4.40889 16.3848 4.27472 16.8338 4.1074C17.7131 3.88892 18.6127 3.76243 19.5181 3.72996C20.0741 3.72494 20.6255 3.79394 21.1776 3.84412C21.3419 3.84537 21.5069 3.84412 21.6712 3.84286C22.0502 3.84004 22.4294 3.83706 22.8073 3.86638C23.0659 3.88643 23.3253 3.89229 23.5845 3.88395C23.8334 3.87628 24.0826 3.88125 24.331 3.89884C24.8825 3.96847 25.432 4.01269 25.9819 4.12685C26.3145 4.23222 26.6203 4.42792 26.9764 4.45364C27.4625 4.49159 27.9571 4.48406 28.4106 4.69575C28.7699 4.81519 29.1198 4.961 29.4576 5.132C29.4503 5.17026 29.4427 5.20852 29.4349 5.24678C29.1666 6.3305 29.4432 7.40621 30.0559 8.32026C30.4553 8.87239 30.8627 9.4529 31.4283 9.84696C32.4138 10.5452 33.6707 10.6624 34.8431 10.7627C35.355 10.7671 35.866 10.7198 36.3684 10.6216C36.5362 10.7968 36.715 10.962 36.8876 11.1339C37.0613 11.4139 37.2588 11.6785 37.4778 11.9247C37.6161 12.0446 37.7414 12.1786 37.8517 12.3246C38.1365 12.9204 38.4308 13.505 38.7163 14.1009C38.9163 14.5499 38.9748 15.0443 39.1344 15.5069C39.3618 16.1201 39.5353 16.7519 39.6526 17.3953C39.8178 17.9964 39.9139 18.6143 39.939 19.2371C40.0657 20.4247 40.2319 21.6196 40.2085 22.8161Z" fill="#002726"/>
<path d="M1.22635 29.1443C0.895634 29.0286 1.50343 28.2191 1.61837 28.0421C1.78301 27.8171 1.98772 27.6245 2.22225 27.4738C2.34725 27.3769 2.48218 27.2934 2.62478 27.225C2.65934 27.2116 2.69775 27.2122 2.73187 27.2266C2.766 27.2411 2.79315 27.2683 2.80757 27.3024C2.82198 27.3366 2.82254 27.375 2.80911 27.4095C2.79569 27.4441 2.76933 27.472 2.73564 27.4875C2.60666 27.5526 2.48407 27.6297 2.36949 27.7178C1.96304 27.9711 1.70211 28.3896 1.48116 28.8034C1.41311 28.9245 1.42785 29.1874 1.22635 29.1443Z" fill="#002726"/>
<path d="M1.01029 31.6372C0.824423 31.3418 0.748069 30.9904 0.794518 30.6445C0.82588 30.4582 0.764567 29.7591 1.05717 29.8193C1.21398 29.8651 1.1475 30.0376 1.1199 30.1507C1.06572 30.4783 1.05938 30.8121 1.10108 31.1416C1.13058 31.2675 1.18328 31.3868 1.25648 31.4934C1.27555 31.5261 1.28087 31.565 1.27127 31.6015C1.26166 31.6381 1.23793 31.6694 1.20528 31.6884C1.17264 31.7075 1.13375 31.7128 1.09718 31.7032C1.06061 31.6936 1.02936 31.6699 1.01029 31.6372Z" fill="#002726"/>
<path d="M8.40394 37.7818C7.74095 37.5835 7.62632 36.7843 7.65674 36.1901C7.66475 36.1633 7.68045 36.1393 7.7019 36.1212C7.72335 36.1032 7.74961 36.0918 7.77746 36.0884C7.80531 36.0851 7.83352 36.09 7.85863 36.1025C7.88374 36.115 7.90465 36.1345 7.91877 36.1588C7.94309 36.2376 7.95208 36.3203 7.94527 36.4025C7.92771 36.8044 8.03262 37.332 8.44801 37.4976C8.65092 37.5202 8.60388 37.8327 8.40394 37.7818Z" fill="#002726"/>
<path d="M9.35209 38.1844C9.32891 38.1858 9.30574 38.1816 9.28454 38.1721C9.26335 38.1626 9.24476 38.1482 9.23035 38.1299C9.21594 38.1117 9.20614 38.0903 9.20178 38.0675C9.19742 38.0447 9.19864 38.0212 9.20532 37.9989C9.26067 37.8137 9.68845 37.9519 9.87082 37.8609C10.0173 37.8062 10.1716 37.7683 10.3122 37.7002C10.419 37.6317 10.5649 37.465 10.6774 37.6162C10.806 37.8827 10.2384 38.0275 10.0602 38.0979C9.83271 38.1754 9.59159 38.2048 9.35209 38.1844Z" fill="#002726"/>
<path d="M31.2629 2.8736C31.0488 2.70268 31.5583 2.28353 31.6728 2.13926C32.0046 1.71446 32.534 1.56502 32.9879 1.3113C33.0996 1.2605 33.2889 1.25062 33.2989 1.41307C33.3048 1.53397 33.1891 1.55985 33.095 1.57459C32.9357 1.6486 32.7888 1.74708 32.6265 1.81561C32.2119 1.9605 31.9141 2.27035 31.6361 2.59715C31.5288 2.70127 31.4532 2.98619 31.2629 2.8736Z" fill="#002726"/>
<path d="M30.3066 6.33741C30.2283 5.86103 30.2625 5.37296 30.4065 4.91216C30.5067 4.59854 30.6075 4.03308 30.8934 3.8562C31.2274 3.87863 30.9592 4.16888 30.8992 4.32663C30.7137 4.77258 30.5952 5.2435 30.5476 5.72412C30.5409 5.91315 30.5541 6.10237 30.5869 6.28864C30.592 6.32518 30.5826 6.36224 30.5609 6.39202C30.5391 6.4218 30.5066 6.44198 30.4703 6.4483C30.434 6.45462 30.3966 6.44659 30.366 6.42591C30.3355 6.40522 30.3142 6.3735 30.3066 6.33741Z" fill="#002726"/>
</svg>
