<svg width="40" height="76" viewBox="0 0 40 76" fill="none" xmlns="http://www.w3.org/2000/svg">
<path d="M37.7524 57.3915C35.6315 56.2553 33.25 56.4334 30.8273 57.3963C27.8939 58.1626 24.8133 60.7213 22.1979 63.4589C21.2948 64.3223 20.429 65.2108 19.6165 66.088L19.4191 66.3008C18.9716 63.3051 18.6358 59.6014 18.622 55.2115C18.8284 55.2212 19.3673 55.2438 20.1854 55.2438C22.5645 55.2438 27.2546 55.0577 32.652 53.8496C36.622 52.9611 37.7387 50.777 37.4595 49.0308C37.1083 46.8289 34.442 44.7784 30.5837 45.1482C29.785 45.2259 29.0122 45.4136 28.2661 45.6782C24.8359 46.4373 21.956 49.6927 20.2412 52.1025C19.4871 53.0671 18.9352 53.8941 18.6236 54.3853C18.6455 50.6791 18.8988 46.5028 19.5024 41.8661C22.4471 42.0271 25.0439 41.7957 27.2651 41.3069C34.0875 40.2541 38.5099 37.3523 39.0714 34.4173C39.4056 32.6735 38.2671 31.2242 35.9479 30.4417C32.7556 29.3655 28.8447 30.9119 24.6368 34.9158C22.3015 37.1379 20.4654 39.5558 19.6635 40.6701C20.3222 35.9937 21.3345 30.8665 22.821 25.2976L23.071 25.3097C23.5671 25.334 24.055 25.3461 24.5373 25.3461C32.101 25.3461 37.9054 22.4379 38.5471 19.5846C38.717 18.8296 38.6466 17.4151 36.2675 16.4287C31.8817 14.6088 29.1643 17.9168 26.5352 21.1148C25.3983 22.4977 24.2225 23.9276 22.9416 24.8873L22.9278 24.897C23.2183 23.82 23.525 22.7276 23.8519 21.6173L23.8891 21.6238L23.8681 21.5631C24.7291 18.6427 25.7188 15.6098 26.8508 12.466C28.0671 11.9943 29.3675 11.1446 30.5335 10.1202C33.6514 8.1198 36.4448 4.92426 36.2603 2.60103C36.1866 1.6753 35.5902 0.489 33.1659 0.0973445C30.4914 -0.332343 28.3341 0.669457 27.0952 2.92471C26.6647 3.70883 26.3783 4.57548 26.2099 5.45428C25.4153 7.86732 25.6395 10.8217 26.5231 12.2524L26.4389 12.2217C25.3732 15.1761 24.4378 18.0293 23.6116 20.7879C23.453 20.2587 23.3 19.6469 23.1406 19.006C22.151 15.0304 20.6588 9.02692 14.2272 10.2553C11.4557 10.7869 11.0487 12.2289 11.0527 13.0422C11.0681 15.9917 16.1337 20.1859 23.3882 21.5307C21.9155 26.5397 20.8206 31.2161 20.0211 35.5591C19.7128 33.7125 18.6576 28.8621 15.7963 26.3293C14.6917 25.1795 13.4269 24.4059 12.0311 24.0441C8.89134 23.2293 4.14859 25.4578 3.28193 28.1541C2.92184 29.2724 2.96068 31.3974 7.26079 33.0595C13.7725 35.5753 17.2755 36.1288 18.8049 36.234C19.3268 36.3012 19.674 36.3141 19.8836 36.3117C19.5648 38.1073 19.2977 39.8414 19.076 41.5189L18.9951 41.6411L19.0598 41.6443C18.6091 45.0754 18.3485 48.2588 18.2312 51.1881L17.6469 50.8377C17.1104 50.5165 16.7066 50.107 16.3927 49.6409C15.0089 46.9632 16.0018 42.6947 13.9675 40.7081C13.571 40.1554 13.0329 39.6958 12.2884 39.3745C9.52171 38.1826 5.72331 38.9068 4.15992 40.9233C3.11605 42.269 3.2439 43.9182 4.52002 45.5666C8.0878 50.1782 17.1193 51.2294 17.5021 51.2722L18.2263 51.3532C18.1762 52.6754 18.1535 53.9483 18.1567 55.167L18.1478 55.1831H18.1575C18.1713 59.883 18.5524 63.8012 19.0452 66.919L18.6261 66.6213C18.6204 66.6172 18.4893 66.5193 18.2805 66.3275C17.5029 65.4786 15.9873 63.4443 15.0793 59.7155C14.5129 57.3882 13.0701 55.9058 11.2923 55.1532C11.0641 55.0148 10.8253 54.8862 10.5769 54.768C7.98503 53.5372 4.56776 53.5817 1.65948 54.8837C0.401975 55.4461 -0.183889 56.5199 0.05078 57.83C0.652828 61.1907 6.76718 66.2717 18.4756 67.0461L19.0719 67.0857C19.9896 72.7931 21.2722 75.7628 21.3078 75.8421L21.7358 75.6503C21.6994 75.5694 20.3723 72.4904 19.4628 66.5719L19.8472 66.4764C19.8755 66.4691 22.7433 65.7764 29.7025 65.5814C34.6621 65.4422 39.349 63.2194 39.9381 60.727C40.1444 59.8514 39.9341 58.5616 37.7541 57.3931L37.7524 57.3915ZM36.0887 16.8616C37.1698 17.3108 38.3941 18.1297 38.0899 19.4818C37.788 20.8251 36.0871 22.2469 33.5413 23.2843C32.9636 23.5198 32.3494 23.7237 31.7158 23.909C36.4868 22.0664 38.3108 18.6387 34.6993 16.9725C34.0398 16.6682 33.4248 16.5193 32.847 16.4951C33.8205 16.2839 34.8846 16.3616 36.0895 16.8616H36.0887ZM31.9569 0.465537C32.3113 0.465537 32.6892 0.495472 33.0922 0.561017C34.7972 0.836147 35.706 1.53449 35.7934 2.63825C35.9034 4.02927 34.5472 6.18095 32.5145 8.03241C34.5917 5.36689 35.2132 2.47155 31.6785 1.83875C29.8433 1.50941 28.4919 2.07423 27.5419 3.09464C28.2508 1.83309 29.5673 0.465537 31.9569 0.465537ZM4.88982 45.2785C3.74156 43.7944 3.61695 42.388 4.52973 41.2106C5.49511 39.9652 7.39269 39.2596 9.3186 39.2596C10.1011 39.2596 10.886 39.3834 11.6167 39.6278C7.9729 39.0031 3.85485 41.8224 6.56488 45.7138C7.71314 47.3622 9.55084 48.5339 11.4055 49.3569C8.9666 48.5104 6.39009 47.2181 4.88902 45.2777L4.88982 45.2785ZM0.509599 57.7459C0.312962 56.6494 0.788775 55.7844 1.84802 55.311C3.29003 54.6661 4.85907 54.3424 6.38119 54.3424C7.10785 54.3424 7.82238 54.4184 8.50859 54.5665C7.05526 54.5245 5.56066 54.8449 4.23518 55.5036C0.872123 57.1754 3.98433 63.2914 12.9293 65.8096C9.52495 65.0724 7.0763 63.9905 5.4595 63.068C2.67179 61.4779 0.821143 59.4881 0.509599 57.7459ZM36.9958 49.1036C37.241 50.6395 36.202 52.5727 32.5493 53.3908C29.5431 54.064 26.7659 54.4144 24.4855 54.5948C26.3151 54.4031 28.4514 54.0721 30.7536 53.5C36.7943 51.9973 35.443 46.3758 30.8702 45.5997C34.3166 45.3545 36.6859 47.1615 36.9958 49.1036ZM35.7982 30.8868C37.9013 31.5956 38.8999 32.8192 38.611 34.3291C38.2606 36.1555 35.905 38.3808 31.6438 39.8083C36.8178 37.2423 37.8762 33.0579 33.6433 31.4702C32.6431 31.0955 31.6179 31.0769 30.5974 31.3092C32.3243 30.5728 34.0997 30.3122 35.799 30.886L35.7982 30.8868ZM11.5229 13.0406C11.5156 11.5646 13.0377 10.9625 14.3163 10.7173C14.8633 10.6121 15.3715 10.5628 15.844 10.5628C16.8588 10.5628 17.7036 10.7999 18.4262 11.1932C17.6397 10.9439 16.7172 10.8962 15.6175 11.13C11.3295 12.0436 12.7529 16.0128 17.0506 18.883C13.6851 17.1335 11.5318 14.8273 11.5229 13.0406ZM7.43154 32.6209C4.51031 31.4921 3.19616 29.957 3.72942 28.2973C4.40754 26.1885 7.84018 24.3444 10.6222 24.3444C11.0746 24.3444 11.5107 24.3929 11.9145 24.4981C12.2973 24.5976 12.6598 24.7287 13.0061 24.8841C8.76672 24.1283 1.61255 29.9125 9.36877 33.2416C9.87291 33.4584 10.3568 33.6591 10.8197 33.8468C9.79118 33.5013 8.67124 33.1 7.43073 32.6209H7.43154ZM39.4793 60.6161C38.9986 62.6505 35.2512 64.5481 31.0983 65.0069C35.956 63.8627 39.3385 60.3475 35.2261 57.8988C34.5658 57.5056 33.8747 57.2863 33.1651 57.2045C33.6279 57.1236 34.0867 57.0702 34.5367 57.0702C35.5789 57.0702 36.5856 57.2976 37.5307 57.8042C38.5892 58.3714 39.786 59.3198 39.4793 60.6161Z" fill="#1A1A1A"/>
</svg>
