<svg width="41" height="56" viewBox="0 0 41 56" fill="none" xmlns="http://www.w3.org/2000/svg">
<path d="M36.0382 5.70125C35.5382 5.9775 35.0857 6.38249 34.6894 6.83061C34.8144 6.35874 34.9119 5.81624 34.9619 5.19374C35.2319 1.83499 35.4413 0.354996 35.4413 0.354996C35.4413 0.354996 33.2838 1.44124 32.8938 4.72687C32.5807 7.35999 32.8694 8.8975 32.9963 9.40562C31.9938 10.2531 31.0313 11.2175 30.1119 12.2819C30.4007 11.6263 30.6494 10.7613 30.7407 9.62563C31.0107 6.26625 31.22 4.78624 31.22 4.78624C31.22 4.78624 29.0619 5.87249 28.6719 9.15811C28.3394 11.9569 28.6863 13.5162 28.7963 13.9187C27.9082 15.0919 27.065 16.3569 26.2688 17.6987C26.5213 16.9 26.6969 15.6825 26.3463 14.0431C25.6663 10.86 25.4544 9.42062 25.4544 9.42062C25.4544 9.42062 23.6644 11.2719 24.2075 14.4356C24.67 17.1337 25.4457 18.425 25.6644 18.7475C24.935 20.0512 24.2482 21.4162 23.6069 22.8306C23.7294 22.0575 23.7213 20.8419 23.0313 19.3412C21.8138 16.6956 21.3519 15.4737 21.3519 15.4737C21.3519 15.4737 20.0425 17.5837 21.1288 20.2487C22.0163 22.4256 22.9313 23.3837 23.2369 23.6612C21.6213 27.3706 20.3088 31.3781 19.3325 35.4225C19.2607 34.7213 18.9369 33.515 17.66 32.3887C15.7075 30.6669 14.8982 29.8275 14.8982 29.8275C14.8982 29.8275 14.3632 32.2194 16.2013 34.015C17.685 35.4644 18.8175 35.8831 19.1994 35.9912C18.1663 40.415 17.5375 44.8612 17.3563 48.99C17.1219 48.39 16.7019 47.6987 15.95 47.0356C13.9975 45.3144 13.1882 44.475 13.1882 44.475C13.1882 44.475 12.6532 46.8669 14.4913 48.6625C15.7875 49.9287 16.8144 50.4075 17.3082 50.5806C17.2863 51.9494 17.3175 53.2744 17.4019 54.5456C15.2557 51.4181 13.4132 48.0887 11.8775 44.6819C12.19 44.2487 13.8725 42.8619 14.6375 41.2344C15.4657 39.4725 14.4825 37.3763 14.4825 37.3763C14.3288 38.0475 13.3175 39.1644 12.3332 40.6469C11.5719 41.7931 11.6719 43.6781 11.7663 44.4375C10.8132 42.3013 9.9788 40.1369 9.26192 37.9775C9.68192 37.5644 11.4532 36.4275 12.3607 34.9688C13.3682 33.3488 12.5632 31.1994 12.5632 31.1994C12.3438 31.835 11.2113 32.8056 10.0713 34.1356C9.25005 35.0931 9.13005 36.7587 9.13817 37.5887C8.48567 35.585 7.93067 33.5869 7.48005 31.62C7.96942 31.3144 9.97692 30.59 11.1463 29.3875C12.4407 28.0562 11.9675 25.865 11.9675 25.865C11.6394 26.4225 10.3213 27.1156 8.93817 28.1462C7.91317 28.9106 7.52442 30.5337 7.40942 31.295C6.9663 29.3156 6.62255 27.3694 6.38192 25.4831C7.02255 25.1444 8.83755 24.4394 9.9263 23.32C11.2207 21.9887 10.7475 19.7975 10.7475 19.7975C10.4194 20.355 9.1013 21.0481 7.71817 22.0788C6.89192 22.695 6.48067 23.8675 6.2913 24.6987C6.11255 23.1275 6.00442 21.6025 5.96755 20.1362C6.62192 19.7944 8.4163 19.0919 9.4963 17.9812C10.7907 16.65 10.3169 14.4587 10.3169 14.4587C9.98942 15.0162 8.6713 15.7094 7.28817 16.7406C6.5763 17.2712 6.17255 18.2156 5.95317 18.9987C5.95317 17.4531 6.03255 15.9819 6.19505 14.6062C6.82442 14.32 8.75067 13.7413 9.93505 12.6888C11.3157 11.4619 10.9544 9.27124 10.9544 9.27124C10.5932 9.79874 9.22317 10.3956 7.7688 11.3212C7.1013 11.7462 6.66442 12.5112 6.39005 13.2087C6.6488 11.6625 7.02005 10.2581 7.50317 9.02875L7.49442 9.02562C8.11817 8.36499 9.76505 6.9125 10.5694 5.23438C11.5532 3.18187 10.4163 0.724365 10.4163 0.724365C10.2313 1.50749 9.03755 2.80312 7.87317 4.52687C7.57505 4.96812 7.38817 5.505 7.2738 6.05875C7.13442 5.59 6.93255 5.06937 6.64567 4.495C5.09817 1.39937 4.49692 0 4.49692 0C4.49692 0 3.15442 1.80937 4.55567 4.88625C5.6863 7.36937 6.77005 8.62686 7.1463 9.01999C6.7038 10.1681 6.35692 11.3969 6.10067 12.6937C6.00817 11.9981 5.76942 11.1319 5.24692 10.0869C3.69942 6.99124 3.09817 5.59187 3.09817 5.59187C3.09817 5.59187 1.75567 7.40124 3.15692 10.4781C4.33942 13.0731 5.46755 14.3275 5.79192 14.6575C5.62192 16.0188 5.53755 17.4381 5.5338 18.9031C5.31567 18.1006 4.81567 16.9937 3.68692 15.7337C1.38692 13.1656 0.432548 11.9675 0.432548 11.9675C0.432548 11.9675 -0.175577 14.3137 1.9913 16.9175C3.78505 19.0737 5.1363 19.935 5.5488 20.1681C5.58755 21.5794 5.69442 23.0244 5.86755 24.4944C5.54317 23.7644 4.88817 22.7487 3.55567 21.7425C1.06192 19.8612 4.81911e-05 18.9544 4.81911e-05 18.9544C4.81911e-05 18.9544 -0.0418267 21.3444 2.34317 23.2919C4.23005 24.8325 5.5288 25.345 5.99067 25.4925C6.26067 27.4769 6.64442 29.4969 7.12505 31.5225C6.94005 31.105 6.2113 29.7694 4.1713 28.9356C1.73067 27.9381 0.665673 27.4162 0.665673 27.4162C0.665673 27.4162 1.2013 29.615 3.57255 30.7044C5.76817 31.7138 6.98692 31.6688 7.1563 31.6562C7.62317 33.6081 8.1813 35.5625 8.81755 37.495C8.3788 36.8987 7.44942 35.9531 5.71567 35.4506C3.06192 34.68 1.89505 34.2487 1.89505 34.2487C1.89505 34.2487 2.6913 36.5862 5.28317 37.4669C7.37505 38.1781 8.6063 38.1087 9.0038 38.0562C9.69192 40.0944 10.4663 42.1012 11.3107 44.0475C10.8369 43.4506 9.92005 42.6006 8.30817 42.1325C5.65442 41.3619 4.48692 40.9306 4.48692 40.9306C4.48692 40.9306 5.2838 43.2681 7.87567 44.1487C9.9938 44.8694 11.2294 44.7894 11.6107 44.7362C12.5194 46.7731 13.5044 48.735 14.5488 50.5862C14.0144 50.0725 13.1982 49.5062 11.9888 49.155C9.33505 48.3844 8.16817 47.9531 8.16817 47.9531C8.16817 47.9531 8.96442 50.2906 11.5563 51.1712C13.5757 51.8581 14.79 51.8175 15.2294 51.7663C15.9457 52.9731 16.6875 54.1225 17.4475 55.2094C17.4507 55.2444 17.4519 55.2806 17.455 55.3156L17.5175 55.3106C17.5563 55.3662 17.5944 55.4244 17.6332 55.4794L17.91 55.2825C17.8657 55.22 17.8244 55.1562 17.78 55.0938C17.6638 53.6425 17.6219 52.1131 17.6488 50.5281C17.67 50.5381 17.7013 50.5275 17.7494 50.475C17.9732 50.2294 20.5369 49.5419 22.24 48.195C23.9432 46.8481 24.1332 44.5194 24.1332 44.5194C23.635 45.0919 22.1019 45.7662 20.4007 46.7931C18.7157 47.81 17.8282 49.5744 17.6544 50.2556C17.7044 47.9325 17.9013 45.495 18.2407 43.0031C18.7625 42.7381 20.9838 42.16 22.5244 41.015C24.1994 39.7694 24.44 37.5206 24.44 37.5206C23.9457 38.0587 22.4513 38.6575 20.7863 39.5931C19.5269 40.3 18.6225 41.9612 18.2844 42.7006C18.5957 40.4881 19.0169 38.2387 19.5419 35.995C20.2244 35.79 22.3069 35.4587 23.8319 34.5487C25.59 33.5006 26.0182 31.2731 26.0182 31.2731C25.485 31.7537 23.96 32.1756 22.2375 32.9144C21.0832 33.41 20.1425 34.6881 19.6669 35.4612C20.1394 33.5075 20.6919 31.5638 21.3182 29.6575C21.9832 29.59 24.0869 29.7044 25.7207 29.1081C27.5819 28.4281 28.3263 26.2925 28.3263 26.2925C27.7382 26.6606 26.1957 26.7638 24.4163 27.1413C23.1519 27.41 21.9907 28.6062 21.4488 29.2631C22.0782 27.3831 22.78 25.5444 23.5525 23.7737C24.2988 23.7219 26.2957 23.8044 27.8644 23.2312C29.7257 22.5512 30.47 20.4156 30.47 20.4156C29.8819 20.7837 28.3394 20.8862 26.56 21.2637C25.4788 21.4937 24.4725 22.4025 23.8644 23.0725C24.5244 21.6094 25.2332 20.1987 25.9875 18.855C26.7144 18.7994 28.7375 18.89 30.3232 18.3106C32.1844 17.6306 32.9288 15.495 32.9288 15.495C32.3413 15.8631 30.7988 15.9663 29.0188 16.3438C28.0394 16.5519 27.1213 17.3181 26.5044 17.9581C27.3338 16.5537 28.215 15.2344 29.145 14.0163C29.8257 13.9988 31.89 14.2519 33.5307 13.7694C35.4132 13.2156 36.2569 11.125 36.2569 11.125C35.6544 11.4537 34.1169 11.4506 32.3301 11.7069C31.4813 11.8287 30.6588 12.3712 30.0344 12.9031C31.0732 11.6594 32.1657 10.5362 33.3144 9.57625L33.3 9.55937C34.2019 9.21562 36.4488 8.56499 38.0619 7.38187C40.03 5.93874 40.3263 3.3075 40.3263 3.3075C39.7444 3.93312 37.9925 4.62062 36.0388 5.70062L36.0382 5.70125Z" fill="#1A1A1A"/>
</svg>
