<svg width="40" height="77" viewBox="0 0 40 77" fill="none" xmlns="http://www.w3.org/2000/svg">
<path d="M39.7154 39.6324C38.1934 40.5678 34.1999 44.8052 32.7854 46.3281C34.409 42.8058 35.8686 39.7938 36.8431 37.8144L38.1196 35.2797C38.1196 35.2797 37.7386 28.2091 37.0028 26.6246C36.3077 25.1285 34.593 35.5686 35.7974 38.8887C34.192 42.1836 31.7693 47.2809 29.3907 52.7765C29.3456 51.2058 29.1494 45.9168 28.5247 44.5717C27.8252 43.0653 26.35 53.7007 27.6291 56.9478C25.9517 61.0298 24.4149 65.1326 23.3467 68.7148C23.1393 67.1667 22.3826 61.8481 21.6155 60.5204C20.9499 59.3672 20.4119 66.3857 20.9534 71.1246C20.9369 71.076 20.9222 71.0291 20.9057 70.9805C20.3026 67.6283 19.9555 63.6366 19.7906 59.3368C23.5471 55.3919 26.8412 37.3441 24.946 39.5977C23.3918 41.4469 20.6644 48.8923 19.676 51.6805C19.7038 46.2031 19.9381 40.5609 20.254 35.3326C24.4063 31.1526 29.4896 13.8857 27.3835 16.0256C25.6228 17.815 22.0589 25.1736 20.7703 27.901C21.4419 19.3301 22.177 13.149 22.1978 12.9789L22.1648 12.9746L22.1683 12.9503C22.1683 12.9503 17.4415 2.43118 15.3789 0.188004C13.3518 -2.01699 17.0441 15.8226 21.0089 19.7631C20.5464 24.5237 19.9659 31.3027 19.5884 38.5876C19.5788 38.7672 19.5702 38.9503 19.5615 39.1317C18.9645 37.6825 15.089 28.3809 13.1877 26.313C11.1988 24.1497 15.3754 41.2994 19.302 45.6617C19.0755 53.5523 19.171 62.0616 20.0882 68.7616C18.6182 65.019 16.4818 60.6237 14.1839 56.2614C15.109 52.9561 12.51 42.4283 11.9729 43.96C11.4939 45.3258 11.8575 50.5836 11.9798 52.1708C8.9461 46.6544 5.9115 41.5562 3.96336 38.3524C5.03419 35.3335 1.85036 24.8769 1.30106 26.4415C0.735274 28.0555 1.34532 35.1087 1.34532 35.1087L1.89807 35.881C2.84047 37.3979 5.16002 41.1675 7.89436 45.8855C6.30634 44.4147 1.89635 40.3874 0.284037 39.5239C-1.62766 38.5 6.59791 48.2077 10.3909 50.2652C12.1221 53.3535 13.8976 56.6406 15.5125 59.8471C13.9288 58.141 10.3241 54.3324 8.89577 53.4533C7.09775 52.3469 14.2924 62.4929 17.8216 64.6363C18.8881 66.9662 19.7984 69.166 20.4596 71.1072C20.8024 73.0068 21.2259 74.7145 21.7474 76.1524L21.9791 76.0691L22.3218 76.083C22.4242 73.4701 23.4274 69.6832 24.8809 65.458C28.1732 63.1749 34.2814 52.7218 32.604 53.9054C31.2712 54.8461 28.0665 58.8205 26.6711 60.589C27.9415 57.3166 29.3647 53.9558 30.7653 50.7945C34.3292 48.5843 41.5152 38.5225 39.7154 39.6298V39.6324ZM21.9192 75.21C21.9071 75.1718 21.8958 75.1302 21.8836 75.092L21.9314 75.0851C21.927 75.1276 21.9236 75.1684 21.9192 75.21ZM21.9617 74.8195C21.9574 74.8542 21.9522 74.8898 21.9487 74.9245C21.94 74.869 21.9305 74.8126 21.921 74.7562C21.9349 74.7761 21.9478 74.8004 21.9617 74.8195Z" fill="#1A1A1A"/>
</svg>
