<svg width="40" height="54" viewBox="0 0 40 54" fill="none" xmlns="http://www.w3.org/2000/svg">
<path d="M26.679 16.1267C26.7724 16.0999 36.0538 13.3768 39.9267 6.43941L40 6.30904L39.8508 6.31844C39.7608 6.32449 31.2717 6.95756 27.1723 14.78C27.3571 14.2767 27.5123 13.7854 27.6252 13.3156C27.6689 13.1618 28.1937 11.2801 28.5103 8.91182C29.5701 8.35672 34.1426 5.71699 36.6425 0.348124L36.8045 0L36.4409 0.124332C36.3784 0.145165 30.9706 2.04769 28.7193 6.67933C28.812 4.83729 28.6884 2.93545 28.0862 1.44018L27.7825 1.5618C28.4666 3.26003 28.5029 5.55099 28.3107 7.65311C28.1682 8.05162 28.0466 8.46627 27.9559 8.90107L28.1642 8.94475C27.8423 11.3197 27.3201 13.1927 27.3087 13.233C27.2885 13.3177 27.261 13.4057 27.2381 13.4917C27.0063 12.2888 25.8598 7.82246 21.1576 3.97373L20.8968 3.76069L20.8901 4.09738C20.8888 4.16391 20.8269 10.735 27.0701 14.0663C26.2953 16.4964 24.6481 19.3364 22.8592 21.9727C22.8397 21.999 22.8188 22.0232 22.7994 22.05L22.8041 22.0534C22.3504 22.7201 21.8894 23.3719 21.4311 24.0009L21.4049 23.882C21.8202 21.7402 22.8699 14.1826 19.2483 5.40651L19.1711 5.21766L19.0971 5.40784C19.0581 5.50864 15.2464 15.5676 21.0212 24.5601C19.46 26.6662 17.9829 28.4585 17.0743 29.5298C17.4722 28.3309 18.6569 23.8639 16.3626 18.6536L16.2323 18.3579L16.071 18.6381C16.0367 18.6979 12.692 24.6515 16.6489 29.9827L16.7551 29.9041C16.3902 30.3288 16.1684 30.5781 16.1536 30.5949C16.1314 30.6238 14.8626 32.2972 13.4998 35.0041C13.5992 34.2871 13.7538 32.7024 13.5737 30.5828C13.3452 27.8947 12.5159 23.7745 9.86139 19.415L9.77066 19.2658L9.71422 19.4305C9.68331 19.5205 6.71159 28.5143 13.2263 35.5586C12.5072 37.0511 11.7827 38.8159 11.2216 40.7702C10.8392 39.1573 9.50857 35.1547 5.25327 31.6574L4.9932 31.4437L4.98513 31.7797C4.98378 31.8456 4.91053 38.2998 10.9803 41.6687C10.8983 41.9912 10.8204 42.3172 10.7485 42.6485C10.3607 44.4468 9.75924 46.0429 9.08587 47.4273C8.94071 46.8399 8.50255 45.2949 7.49517 43.3366C6.30971 41.0322 4.07116 37.6707 0.14179 34.744L0 34.6385L0.0114193 34.8153C0.0174676 34.906 0.695553 43.8501 8.88829 47.8204C7.04693 51.4232 4.77546 53.4527 4.74388 53.481L4.9596 53.7276C4.9932 53.698 7.43066 51.524 9.32713 47.6746L9.45683 47.6632C9.55965 47.6538 19.8216 46.6672 25.2805 40.2923L25.3793 40.1768L25.2281 40.1579C25.1293 40.1472 15.2437 39.037 9.43063 47.469C10.0939 46.0866 10.6846 44.4986 11.0684 42.717C11.1571 42.3051 11.2552 41.8992 11.36 41.5006H11.3627C11.3627 41.5006 11.3627 41.4953 11.362 41.4939C11.6053 40.5686 11.8889 39.6835 12.1933 38.8448L12.1974 38.8885C12.2592 38.8824 18.4365 38.2426 23.6972 33.5089L24.0124 33.2253L23.5883 33.2239H23.5876C23.4721 33.2239 16.62 33.2736 12.5636 37.873C13.4628 35.6231 14.4836 33.7777 15.247 32.5378L15.2645 32.5364C15.4104 32.5237 29.9236 31.1278 37.6432 22.1139L37.742 21.9983L37.5908 21.9795C37.5558 21.9754 34.0129 21.5581 29.5035 22.632C26.0627 23.4512 21.4627 25.3101 17.5474 29.4773C18.8404 27.9424 21.0285 25.2422 23.0608 22.2577L23.0641 22.2893C23.126 22.2832 29.3033 21.6435 34.5639 16.909L34.8791 16.6254L34.4551 16.6241H34.4544C34.3469 16.6241 28.3597 16.6677 24.2644 20.4231C25.1656 18.9896 25.9821 17.5353 26.6098 16.1489L26.6797 16.1288L26.679 16.1267ZM36.1661 0.581317C33.8133 5.33057 29.8402 7.80902 28.5593 8.51331C28.5923 8.23979 28.6218 7.96156 28.6474 7.67931C30.2569 3.30573 34.8173 1.13776 36.1661 0.581317ZM21.2288 4.46028C25.7045 8.26331 26.7388 12.5838 26.9276 13.6147C21.9647 10.7901 21.3128 5.82719 21.2288 4.46028ZM16.1987 19.1038C18.3371 24.2503 17.0568 28.5876 16.7275 29.5318C13.6617 25.1206 15.6046 20.3377 16.1987 19.1038ZM5.32249 32.1446C9.79083 35.9564 10.813 40.2796 10.9998 41.3091C6.04425 38.4765 5.4038 33.5109 5.32249 32.1446ZM23.1333 33.5673C22.083 34.4705 21.0037 35.2077 19.9493 35.8179L20.0964 35.5545C20.0655 35.5377 19.3303 35.1325 18.2336 35.4604L18.327 35.7736C19.2329 35.5055 19.8511 35.7965 19.9224 35.8327C16.5004 37.8072 13.3593 38.3905 12.4373 38.5256C15.7712 34.3065 21.4902 33.6641 23.1333 33.566V33.5673ZM30.8153 19.2181L30.9632 18.9547C30.9323 18.9379 30.1978 18.534 29.1003 18.8613L29.1937 19.1744C30.1003 18.9056 30.7199 19.1973 30.7891 19.2336C27.3671 21.208 24.2261 21.7913 23.3034 21.9264C26.6373 17.7067 32.3563 17.0642 33.9994 16.9668C32.949 17.87 31.8691 18.6079 30.8147 19.2181H30.8153Z" fill="#1A1A1A"/>
<path d="M31.8659 5.8695L31.9089 5.54491C31.8713 5.53886 31.0084 5.43335 30.1562 6.1195L30.3619 6.37487C31.0991 5.78012 31.8578 5.86816 31.8666 5.8695H31.8659Z" fill="#1A1A1A"/>
<path d="M33.8119 3.95411L33.8542 3.62952C33.8179 3.62347 32.953 3.51864 32.1016 4.20478L32.3072 4.46016C33.0451 3.86474 33.8045 3.9521 33.8119 3.95411Z" fill="#1A1A1A"/>
<path d="M31.6984 3.83252L31.3846 3.92661C31.3913 3.95148 31.5526 4.5442 30.9531 5.21153L31.1971 5.42994C31.9255 4.61947 31.7078 3.86411 31.6984 3.83252Z" fill="#1A1A1A"/>
<path d="M29.0117 7.71684L29.2557 7.93525C29.9835 7.12344 29.7657 6.36874 29.7557 6.33716L29.4418 6.43125C29.4485 6.45612 29.6105 7.04884 29.0117 7.71684Z" fill="#1A1A1A"/>
<path d="M34.2822 1.96502L33.959 1.9126C33.9549 1.93813 33.8393 2.54969 32.9805 2.98114L33.1276 3.27346C34.1451 2.76205 34.2768 1.99728 34.2822 1.96502Z" fill="#1A1A1A"/>
<path d="M25.1958 11.2498C24.8994 10.4595 25.2912 9.94339 25.308 9.92189L25.052 9.71826C25.0305 9.74514 24.5251 10.3943 24.8894 11.3647L25.1958 11.2498Z" fill="#1A1A1A"/>
<path d="M24.0161 8.94679C23.7198 8.15581 24.1116 7.63968 24.1284 7.61818L23.8723 7.41455C23.8508 7.44143 23.3454 8.09062 23.7097 9.0617L24.0161 8.94679Z" fill="#1A1A1A"/>
<path d="M23.1226 9.17114L23.0742 9.49507C23.0816 9.49574 23.8222 9.61469 24.2785 10.3748L24.5587 10.2068C24.0238 9.31564 23.1589 9.17719 23.1226 9.17114Z" fill="#1A1A1A"/>
<path d="M24.875 12.0373C24.8824 12.038 25.623 12.1569 26.0786 12.917L26.3595 12.749C25.8253 11.8579 24.9603 11.7194 24.9234 11.7134L24.875 12.0373Z" fill="#1A1A1A"/>
<path d="M22.7982 7.86464L23.1241 7.83238C23.0246 6.81829 22.2787 6.4023 22.2471 6.3855L22.0898 6.67246C22.1154 6.68657 22.7162 7.02863 22.7982 7.86397V7.86464Z" fill="#1A1A1A"/>
<path d="M28.117 20.3068L28.2769 20.0212C28.2467 20.0044 27.5108 19.6012 26.4141 19.9278L26.5075 20.241C27.4658 19.9574 28.1103 20.3028 28.117 20.3068Z" fill="#1A1A1A"/>
<path d="M28.9215 18.4001L28.601 18.3342C28.5956 18.3598 28.4551 18.9686 27.5781 19.3752L27.7159 19.6722C28.7515 19.1917 28.9155 18.4323 28.9215 18.4001Z" fill="#1A1A1A"/>
<path d="M25.9606 20.0112L25.64 19.9453C25.6346 19.9708 25.4942 20.579 24.6172 20.9856L24.755 21.2827C25.7906 20.8022 25.9545 20.0434 25.9606 20.0112Z" fill="#1A1A1A"/>
<path d="M32.162 17.5964L31.8972 17.4036C31.8804 17.4257 31.4765 17.9567 30.4766 18.0501L30.5068 18.376C31.662 18.2671 32.1412 17.6233 32.1614 17.5964H32.162Z" fill="#1A1A1A"/>
<path d="M17.2498 36.908L17.4098 36.6224C17.3788 36.6056 16.6436 36.2004 15.5469 36.5283L15.6403 36.8415C16.5993 36.5572 17.2438 36.904 17.2498 36.908Z" fill="#1A1A1A"/>
<path d="M18.0543 35.0007L17.7338 34.9348C17.7284 34.9604 17.5879 35.5692 16.7109 35.9751L16.848 36.2722C17.8843 35.7923 18.0476 35.0329 18.0543 35.0007Z" fill="#1A1A1A"/>
<path d="M15.0934 36.6115L14.7728 36.5457C14.7675 36.5712 14.627 37.1801 13.75 37.5866L13.8878 37.8837C14.9234 37.4032 15.0873 36.6438 15.0934 36.6115Z" fill="#1A1A1A"/>
<path d="M21.2948 34.197L21.03 34.0042C21.0132 34.0263 20.6094 34.5566 19.6094 34.65L19.6396 34.9759C20.7955 34.8671 21.2747 34.2239 21.2941 34.197H21.2948Z" fill="#1A1A1A"/>
<path d="M16.9948 25.0601C16.9633 25.0782 16.2187 25.5063 16.1172 26.5204L16.4431 26.5533C16.5264 25.7139 17.1299 25.3605 17.1555 25.345L16.9948 25.0601Z" fill="#1A1A1A"/>
<path d="M16.4002 24.0279C16.4835 23.1886 17.087 22.8351 17.1125 22.8196L16.9519 22.5347C16.9203 22.5528 16.1757 22.9809 16.0742 23.995L16.4002 24.0279Z" fill="#1A1A1A"/>
<path d="M16.3275 25.3731C16.2361 24.3584 15.4935 23.9384 15.4626 23.9209L15.3047 24.2072C15.3107 24.2105 15.9263 24.5593 16.0022 25.402L16.3282 25.3731H16.3275Z" fill="#1A1A1A"/>
<path d="M15.975 26.8738L15.8164 27.1601C15.8419 27.1742 16.4394 27.5196 16.5147 28.3556L16.8406 28.3267C16.7492 27.3119 16.0073 26.8913 15.9757 26.8738H15.975Z" fill="#1A1A1A"/>
<path d="M15.7729 22.5842L16.0794 22.6991C16.4456 21.722 15.9409 21.0808 15.9194 21.054L15.6641 21.2589C15.6809 21.2804 16.0713 21.7885 15.7729 22.5842Z" fill="#1A1A1A"/>
<path d="M9.3512 37.4153L9.22016 37.3172L9.08979 37.2178C9.06896 37.2453 8.58106 37.9039 8.97084 38.8676L9.2746 38.7446C8.9574 37.9604 9.33507 37.4375 9.3512 37.4153Z" fill="#1A1A1A"/>
<path d="M8.0363 36.465C7.7191 35.6808 8.09679 35.1573 8.11292 35.1351L7.98188 35.037L7.85149 34.9375C7.83066 34.9651 7.34278 35.6243 7.73256 36.5873L8.03565 36.4644L8.0363 36.465Z" fill="#1A1A1A"/>
<path d="M7.1478 36.7083L7.10547 37.0335C7.11286 37.0342 7.8568 37.139 8.33327 37.8897L8.61014 37.715C8.05235 36.8359 7.18476 36.7136 7.1478 36.7083Z" fill="#1A1A1A"/>
<path d="M9.01889 39.2144L8.97656 39.5396C8.98395 39.5403 9.7279 39.6445 10.2044 40.3958L10.4812 40.2211C9.92345 39.3414 9.05585 39.2197 9.01889 39.2144Z" fill="#1A1A1A"/>
<path d="M6.19674 33.9409L6.04688 34.2319C6.05292 34.2346 6.68127 34.5686 6.78678 35.4093L7.11204 35.369C6.98569 34.3589 6.22967 33.9577 6.19741 33.9409H6.19674Z" fill="#1A1A1A"/>
</svg>
