<svg width="41" height="62" viewBox="0 0 41 62" fill="none" xmlns="http://www.w3.org/2000/svg">
<path d="M37.8229 14.5716C37.2229 13.6664 36.4303 12.9152 35.8234 12.0131C35.1844 11.188 34.2174 10.7375 33.3546 10.1939C32.2131 9.38492 31.0712 8.49038 29.7559 7.98889C28.8053 7.71009 27.8824 7.36732 26.9478 7.042C26.0379 6.83949 25.1262 6.65956 24.2224 6.42626C22.9998 6.264 21.7611 6.2632 20.5382 6.42387C20.5406 6.29866 20.5423 6.17312 20.542 6.04757C20.6152 5.42362 20.659 4.79795 20.6809 4.17092C20.8139 4.10175 20.9547 4.04858 21.1003 4.01253C21.6942 4.39999 22.3111 4.75104 22.9475 5.06375C23.5043 5.43127 24.1378 5.66658 24.7995 5.75167C27.4195 5.92271 29.823 5.47288 31.9761 3.8887C33.0179 3.14824 33.9354 2.2469 34.6942 1.21841C35.0705 0.897882 35.2706 0.263664 34.6655 0.0772301C34.3122 0.043871 33.9567 0.0390663 33.6026 0.0628628C32.4235 0.196617 31.2423 0.0529417 30.0631 0.15454C28.3666 0.337767 26.6958 0.710216 25.0821 1.26494C23.6453 1.85263 22.1645 2.5279 20.697 3.12757C20.697 2.82654 20.6924 2.52528 20.6833 2.22379C20.5868 1.61044 20.8341 -0.516281 19.6912 0.116227C18.7957 0.110069 19.1196 1.36756 19.0283 1.95526C19.0177 2.1174 19.0088 2.27989 19.0006 2.44204C18.6993 2.91357 18.3213 3.33142 17.8823 3.67832C16.5875 4.22325 15.1778 4.47913 13.8194 4.82771C12.0759 5.3646 10.3665 6.00637 8.70051 6.74953C7.7461 7.16823 6.69248 7.38751 5.85712 8.04122C3.94615 9.46469 2.38702 11.3074 1.29958 13.4276C0.946206 14.1956 0.499448 14.9171 0.163524 15.6929C-0.0619072 16.0788 -0.123138 16.6894 0.435139 16.7797C1.72136 16.7687 2.85365 16.7643 3.93053 16.6815C3.90966 16.7205 3.89016 16.7598 3.87237 16.7995C3.65481 17.1674 3.49122 17.5646 3.38661 17.979C2.03979 21.6332 1.24351 25.4673 1.02386 29.3556C0.422822 34.3596 0.637992 39.461 2.02445 44.3237C2.66025 47.103 3.72625 49.7659 5.18391 52.2162C6.0049 53.4067 7.16285 54.2889 8.0697 55.4051C9.88274 57.4682 12.5995 58.1103 15.185 58.583C16.0676 58.6857 16.9669 58.5977 17.8265 58.8783C19.629 59.9603 18.0198 60.5397 21.3045 61.0795C22.4802 61.174 23.6785 60.5839 24.6388 59.9507C25.065 59.662 25.2408 59.1605 25.5863 58.7948C25.9634 58.3932 26.4084 58.0614 26.9009 57.8147C28.0496 57.3016 29.3472 57.3047 30.5225 56.873C31.5488 56.4844 32.5107 55.9494 33.5182 55.517C34.5119 54.9652 35.2398 54.0245 35.9921 53.1908C36.642 52.3462 37.3867 51.5615 37.9146 50.63C39.2562 47.5636 39.5224 44.0808 39.7834 40.774C40.2428 36.3423 40.472 31.899 40.4963 27.4441C40.5168 23.0866 40.5459 18.2123 37.8229 14.5716ZM28.9757 1.92105C28.2094 2.10543 27.5109 2.46838 26.7395 2.649C25.6031 2.83167 24.415 2.88846 23.2643 3.11012C23.9642 2.78994 24.6579 2.45401 25.3807 2.1865C26.592 1.77293 27.8358 1.46191 29.0991 1.25673C30.581 0.959115 32.0886 1.18831 33.5828 1.03472C31.7178 3.47376 28.6568 5.02544 25.5641 4.78701C24.6907 4.90331 23.9392 4.52223 23.2017 4.109C23.2814 4.09279 23.3621 4.08137 23.4432 4.07479C25.1457 3.70945 26.9355 3.83226 28.5402 3.06839C28.8289 2.92506 29.2158 2.94182 29.4371 2.6921C29.4929 2.61454 29.5247 2.52236 29.5287 2.42691C29.5327 2.33147 29.5087 2.23694 29.4597 2.15498C29.4106 2.07301 29.3387 2.00719 29.2527 1.96562C29.1667 1.92406 29.0704 1.90856 28.9757 1.92105ZM17.83 4.83866C17.8403 4.80738 17.8469 4.77501 17.8498 4.74219C18.2603 4.6011 18.6342 4.37043 18.9445 4.06692C18.927 4.59339 18.9065 5.1195 18.8661 5.6446C18.8593 5.92921 18.8496 6.21428 18.8371 6.4998C18.5738 6.54076 18.314 6.6016 18.0598 6.68179C17.7886 6.73311 17.5204 6.79468 17.2539 6.86344C17.5159 6.21042 17.709 5.53181 17.83 4.83866ZM1.18669 15.7897C2.16059 13.8532 3.10234 11.8414 4.72757 10.3506C5.57833 9.50943 6.45201 8.60395 7.6079 8.20303C8.59993 7.89276 9.5191 7.41282 10.4769 7.02045C11.3397 6.70539 12.2154 6.42763 13.0706 6.09307C13.9077 5.80534 14.7621 5.57044 15.6287 5.38975C13.8656 7.01156 12.2496 8.81057 10.2019 10.0828C9.19242 10.7137 8.11847 11.235 6.9983 11.6379C6.58541 11.7829 5.83865 11.9276 6.06682 12.5273C6.10552 12.5984 6.15928 12.6602 6.22435 12.7084C6.28942 12.7567 6.36423 12.7901 6.44356 12.8064C6.52289 12.8226 6.60481 12.8214 6.68361 12.8028C6.76241 12.7841 6.83619 12.7485 6.89979 12.6983C7.45788 12.5099 8.00594 12.293 8.54178 12.0484C11.7833 10.7847 14.0431 8.09732 16.5892 5.84814C16.0723 7.3011 15.3054 8.6525 14.3229 9.84125C13.1226 11.1895 11.7948 12.4185 10.3579 13.5111C8.67852 14.5761 6.80673 15.3016 4.84833 15.6467C3.63599 15.8013 2.40689 15.7343 1.18669 15.7897ZM39.497 28.2579C39.4676 31.5203 39.3992 34.7827 39.0469 38.0294C38.7763 41.0664 38.6412 44.124 37.9984 47.1189C37.7381 48.309 37.4887 49.5548 36.8032 50.5831C35.7403 51.9768 34.6713 53.4087 33.3088 54.5263C32.3216 55.0052 31.3247 55.4769 30.3204 55.9169C29.4672 56.2333 28.5593 56.3209 27.6822 56.5415C26.9618 56.6929 26.2809 56.9932 25.6834 57.4233C25.0859 57.8533 24.5848 58.4036 24.2125 59.0387C23.8758 59.337 23.4823 59.5642 23.0556 59.7068C22.7054 59.9168 22.3134 60.0475 21.9073 60.0896C21.5011 60.1317 21.0906 60.0841 20.7048 59.9503C18.5607 59.6 20.3203 57.5924 15.642 57.6618C13.0631 57.2513 10.3182 56.6274 8.57085 54.5147C7.73823 53.4645 6.62373 52.6705 5.89202 51.5321C2.38432 45.1823 1.12135 37.623 1.9078 30.4387C2.04279 27.1742 2.5757 23.9385 3.49471 20.8032C3.81497 19.6615 4.19299 18.5368 4.62734 17.4334C4.63589 17.4146 4.64547 17.3965 4.65505 17.3787C4.69389 17.3262 4.7291 17.2711 4.76041 17.2138C4.82195 17.1337 4.87107 17.0448 4.90614 16.95C4.9384 16.8945 4.97513 16.8416 5.01594 16.792C5.09223 16.6983 5.18699 16.6251 5.26224 16.5307C6.78204 16.2921 8.24965 15.7946 9.6012 15.0597C11.2004 14.2958 12.5325 13.0756 13.7602 11.8161C14.9384 10.719 15.9341 9.44118 16.71 8.03062C16.7763 8.01536 16.8412 7.99453 16.9039 7.96836C17.3337 7.83448 17.7705 7.72462 18.2124 7.63928C18.3995 7.5907 18.5863 7.53973 18.7741 7.498C18.7577 7.68751 18.7399 7.87668 18.7173 8.06551C18.6756 8.6556 18.17 9.88914 19.135 9.91548C19.9964 9.89496 20.4414 9.91104 20.4199 8.893C20.4397 8.42401 20.4705 7.9557 20.4961 7.48705C20.5382 7.46292 20.5774 7.43399 20.6128 7.40085C22.7819 7.01258 24.9572 7.53289 27.0467 8.09117C28.0018 8.52629 29.0454 8.70691 30.0036 9.13144C30.6094 9.50225 31.2009 9.89633 31.8122 10.2583C32.782 11.1104 34.0357 11.5544 34.946 12.4756C36.2117 14.198 37.8496 15.7339 38.4828 17.8343C39.5887 21.1881 39.6106 24.7639 39.497 28.2579Z" fill="#002726"/>
<path d="M35.496 26.1195C34.5337 25.4788 33.7825 27.7669 34.7804 28.0748C35.7126 28.2924 36.0567 26.6394 35.496 26.1195Z" fill="#002726"/>
<path d="M29.771 32.4024C29.1826 32.3866 28.9972 33.2887 29.5103 33.5442C30.3111 33.9205 30.6857 32.3699 29.771 32.4024Z" fill="#002726"/>
<path d="M35.9837 34.3374C35.1244 33.9707 34.8681 35.5446 35.6395 35.7225C36.3254 35.8422 36.5262 34.6138 35.9837 34.3374Z" fill="#002726"/>
<path d="M34.1358 41.3435C33.2122 41.039 33.3354 42.3578 33.7123 42.797C33.7955 42.8644 33.8982 42.9032 34.0052 42.9074C34.1121 42.9117 34.2176 42.8813 34.3059 42.8207C34.3942 42.7601 34.4604 42.6726 34.4949 42.5712C34.5294 42.4698 34.5301 42.3601 34.4971 42.2582C34.7263 41.8802 34.4717 41.5299 34.1358 41.3435Z" fill="#002726"/>
<path d="M20.5763 49.9767C20.0003 50.1047 19.9979 51.0806 20.525 51.2787C21.529 51.5209 21.527 49.8868 20.5763 49.9767Z" fill="#002726"/>
<path d="M8.68336 38.5086C8.33751 38.8506 8.45758 39.6877 8.92658 39.8748C9.68428 40.0845 9.97095 38.8667 9.57653 38.3943C9.5158 38.3314 9.44121 38.2835 9.35869 38.2544C9.27617 38.2254 9.18802 38.2161 9.10125 38.2272C9.01449 38.2383 8.93153 38.2695 8.85897 38.3184C8.78641 38.3672 8.72628 38.4323 8.68336 38.5086Z" fill="#002726"/>
<path d="M9.09739 45.5171C9.039 45.479 8.97313 45.4538 8.90421 45.4432C8.83529 45.4326 8.7649 45.4368 8.69776 45.4557C8.63062 45.4745 8.56827 45.5074 8.51489 45.5523C8.46152 45.5972 8.41834 45.6529 8.38826 45.7158C8.30766 45.754 8.23865 45.8128 8.18828 45.8864C8.13791 45.96 8.108 46.0456 8.10159 46.1345C8.09998 46.2968 8.16073 46.4534 8.27131 46.5722C8.38189 46.6909 8.53384 46.7626 8.69579 46.7725C9.32898 46.8057 9.61804 45.8612 9.09739 45.5171Z" fill="#002726"/>
<path d="M14.6837 42.5163C14.0382 41.9635 13.4912 42.8974 14.1251 43.3811C14.775 44.0482 15.6128 42.753 14.6837 42.5163Z" fill="#002726"/>
<path d="M11.7244 49.0541C11.5962 49.0489 11.4708 49.0924 11.3734 49.1759C11.3018 49.2398 11.2507 49.3234 11.2265 49.4163C11.2024 49.5092 11.2063 49.6071 11.2379 49.6978C11.2694 49.7884 11.3271 49.8677 11.4036 49.9255C11.4802 49.9834 11.5722 50.0173 11.668 50.0229C11.7961 50.0282 11.9216 49.9847 12.0189 49.9011C12.0906 49.8373 12.1417 49.7536 12.1658 49.6608C12.1899 49.5679 12.186 49.4699 12.1545 49.3793C12.123 49.2886 12.0653 49.2094 11.9887 49.1515C11.9122 49.0936 11.8202 49.0598 11.7244 49.0541Z" fill="#002726"/>
<path d="M16.9288 49.5236C16.7753 49.5207 16.6239 49.5605 16.4916 49.6383C16.3592 49.7162 16.251 49.8292 16.179 49.9649C16.1124 50.1512 16.0961 50.3518 16.1317 50.5464C16.1673 50.7411 16.2536 50.9229 16.3818 51.0736C16.7968 51.4119 17.3003 50.9737 17.3171 50.5166C17.4153 50.1328 17.4553 49.5636 16.9288 49.5236Z" fill="#002726"/>
<path d="M6.14575 40.301C5.57413 40.1167 5.01312 40.8826 5.41165 41.3495C5.47149 41.412 5.54567 41.459 5.62777 41.4864C5.70986 41.5138 5.79739 41.5207 5.88277 41.5066C5.96815 41.4925 6.04882 41.4578 6.11777 41.4056C6.18672 41.3533 6.24188 41.2849 6.27848 41.2065C6.36551 41.1584 6.4358 41.0849 6.47996 40.9958C6.52412 40.9067 6.54005 40.8062 6.52562 40.7078C6.5112 40.6094 6.46711 40.5178 6.39923 40.4451C6.33136 40.3724 6.24293 40.3222 6.14575 40.301Z" fill="#002726"/>
</svg>
