<svg width="80" height="53" viewBox="0 0 80 53" fill="none" xmlns="http://www.w3.org/2000/svg">
<path d="M13.0744 45.5476H14.0091C14.2201 45.478 14.357 45.3574 14.2248 45.0281C13.9766 44.4042 13.1927 44.7126 12.6407 44.6987C11.059 44.6593 9.47489 44.6547 7.89314 44.6338C5.67126 44.6059 3.89701 43.5576 2.3686 42.0802C0.914411 40.6771 0.605946 38.2441 1.55685 36.6392C1.93026 36.0107 2.26192 35.7069 3.09222 36.2032C6.33226 38.1375 9.74161 38.0772 13.2043 36.8201C14.2225 36.4513 14.9971 35.8414 14.9855 34.6841C14.9739 33.5267 14.1668 32.9307 13.1718 32.5387C9.66971 31.1564 6.31603 31.4718 3.14092 33.4687C2.36164 33.9604 1.91634 34.0068 1.48496 33.0466C0.670886 31.2283 1.16953 29.519 1.76559 27.819C1.95113 27.2902 2.45905 27.1394 2.99017 27.5244C5.16102 29.0923 7.62874 29.519 10.2263 29.3242C11.5901 29.2221 12.9445 29.0018 14.0648 28.0787C15.3496 27.0188 15.3033 25.5275 13.9001 24.6346C12.098 23.4889 10.0478 23.2848 8.01838 23.4518C6.23021 23.6002 4.49075 24.1823 2.99713 25.2608C2.41731 25.6783 2.14131 25.495 1.82821 24.95C0.759019 23.083 0.803086 21.2044 1.74935 19.3281C1.9952 18.8433 2.3686 18.6068 2.9693 19.0034C5.98901 20.9956 9.23137 21.3412 12.6639 20.2535C13.6844 19.9311 14.8974 18.8549 14.9693 18.0687C15.0597 17.0807 14.3384 16.0695 13.0535 15.6079C12.2302 15.3134 11.3512 15.1116 10.4815 15.0119C7.92097 14.7196 5.48804 15.1278 3.27776 16.538C2.84869 16.8116 2.31758 17.1224 1.96737 16.5472C1.51279 15.8051 1.06516 15.042 1.02342 14.1074C0.881941 10.9972 3.67436 8.7127 6.51316 8.03779C8.72344 7.51363 10.9616 7.65278 13.1927 7.6064C13.5754 7.59712 14.2016 7.78962 14.2317 7.20284C14.2619 6.65549 13.6751 6.66245 13.2507 6.66709C10.4536 6.69956 7.65889 6.52097 4.93373 7.51363C1.12083 8.90752 -1.49764 13.1889 1.05125 17.0946C1.4177 17.6559 1.38755 18.1151 1.05125 18.6903C-0.331045 21.0536 -0.402943 23.4262 1.19968 25.7316C1.57773 26.2766 1.58005 26.6616 1.17417 27.2415C-0.31481 29.3752 -0.305533 31.6296 0.912092 33.8839C1.31333 34.6261 1.17649 35.192 0.770616 35.9063C-0.57457 38.2673 -0.0921583 41.5097 1.70065 43.0265C3.46331 44.5178 5.46021 45.7378 7.95576 45.5986C7.99751 45.5986 8.03694 45.6032 8.07868 45.6148C8.07868 45.6009 8.07868 45.5916 8.07868 45.5916C8.6214 45.5986 9.16179 45.6241 9.7045 45.6519C9.77872 45.6496 9.85293 45.6473 9.92715 45.6427C10.0315 45.6357 10.1359 45.6334 10.2379 45.6264C10.8688 45.536 11.4996 45.4734 12.1235 45.5777C12.4389 45.5777 12.752 45.5824 13.0675 45.5893C13.0675 45.5592 13.0698 45.5429 13.0721 45.5429L13.0744 45.5476ZM3.74626 34.3014C5.98205 32.9585 8.35468 32.3091 10.9685 32.9887C11.5089 33.1278 11.706 33.3644 11.3976 33.8769C11.1193 34.3385 11.0126 34.8951 11.2863 35.3103C11.9333 36.2867 11.1517 36.449 10.5696 36.6114C10.0246 36.7621 9.42619 36.7134 9.00408 36.7436C7.05124 36.7204 5.3628 36.3261 3.79728 35.4053C3.14324 35.0203 3.17108 34.6493 3.74626 34.3037V34.3014ZM4.24259 25.6713C5.74548 24.7529 7.40841 24.5766 9.1154 24.6346C9.42387 24.6346 9.73001 24.6299 10.0385 24.6346C11.5112 24.6555 11.4973 24.6531 11.2144 26.0262C11.1541 26.3138 11.1146 26.7103 11.2607 26.9191C11.9635 27.9187 11.168 28.2063 10.5232 28.2921C8.30365 28.5843 6.16759 28.1715 4.21707 27.0722C3.24065 26.5225 3.30328 26.2442 4.24259 25.669V25.6713ZM4.13126 17.2569C6.87961 15.8004 9.75784 15.5152 12.701 16.589C13.2716 16.7977 14.023 17.1131 13.9094 17.9458C13.798 18.7622 13.0953 19.1309 12.4065 19.3629C11.3744 19.7131 10.2774 19.6806 9.10149 19.7409C7.48031 19.6249 5.7362 19.6945 4.20548 18.6532C3.38445 18.0942 3.2824 17.7069 4.12894 17.2569H4.13126Z" fill="#060D1E"/>
<path d="M19.9398 2.77077V2.30898H20.9442V0.531065H21.9255V2.30898H23.3225V2.77077H21.9255V6.60367C21.9255 6.69603 21.9294 6.80379 21.9371 6.92693C21.9448 7.04238 21.9679 7.15398 22.0063 7.26173C22.0448 7.36179 22.1025 7.44645 22.1795 7.51572C22.2642 7.58499 22.3796 7.61962 22.5259 7.61962C22.7106 7.61962 22.8645 7.55036 22.9877 7.41182C23.1108 7.27328 23.2109 7.12319 23.2878 6.96157L23.8304 7.51572C23.4533 7.89285 23.0261 8.08142 22.5489 8.08142C22.3488 8.08142 22.1526 8.04679 21.9602 7.97752C21.7677 7.90825 21.5946 7.80434 21.4406 7.6658C21.2944 7.51957 21.1751 7.33485 21.0827 7.11165C20.9904 6.88845 20.9442 6.62676 20.9442 6.3266V2.77077H19.9398Z" fill="#001100"/>
<path d="M24.8464 0H25.8277V3.09403H25.8739L26.0009 2.9324C26.2626 2.63993 26.5396 2.44367 26.8321 2.34361C27.1323 2.23586 27.417 2.18198 27.6864 2.18198C27.8865 2.18198 28.0943 2.20892 28.3098 2.2628C28.533 2.31667 28.737 2.42058 28.9217 2.57451C29.1064 2.72844 29.2604 2.94395 29.3835 3.22102C29.5067 3.4904 29.5682 3.8406 29.5682 4.27161V8.08142H28.5869V4.53714C28.5869 4.30624 28.5715 4.08304 28.5407 3.86754C28.5177 3.65203 28.4638 3.46347 28.3791 3.30184C28.2945 3.14021 28.1713 3.01322 28.0097 2.92086C27.8557 2.8208 27.6479 2.77077 27.3863 2.77077C27.0168 2.77077 26.7282 2.84774 26.5204 3.00167C26.3126 3.14791 26.1548 3.32493 26.047 3.53274C25.947 3.74054 25.8854 3.95605 25.8623 4.17925C25.8392 4.40245 25.8277 4.59102 25.8277 4.74495V8.08142H24.8464V0Z" fill="#001100"/>
<path d="M36.5452 5.44919H32.1582C32.1582 5.91868 32.2274 6.30351 32.366 6.60367C32.5045 6.90384 32.6777 7.13859 32.8855 7.30791C33.0933 7.47724 33.3165 7.59653 33.5551 7.6658C33.8014 7.72738 34.0323 7.75816 34.2478 7.75816C34.4402 7.75816 34.6134 7.73892 34.7673 7.70044C34.9289 7.65426 35.0829 7.59269 35.2291 7.51572C35.3753 7.43875 35.5177 7.34255 35.6563 7.2271C35.8025 7.11165 35.9564 6.98466 36.1181 6.84612L36.4875 7.21555C36.1796 7.53881 35.8179 7.78895 35.4023 7.96597C34.9867 8.1353 34.5326 8.21996 34.04 8.21996C33.532 8.21996 33.0895 8.1353 32.7123 7.96597C32.3429 7.78895 32.035 7.55805 31.7887 7.27328C31.5501 6.98081 31.3693 6.6537 31.2461 6.29196C31.1307 5.92253 31.073 5.54539 31.073 5.16056C31.073 4.69877 31.1422 4.287 31.2808 3.92526C31.4193 3.55582 31.6117 3.24411 31.858 2.99013C32.1043 2.72844 32.3929 2.53218 32.7239 2.40134C33.0548 2.2628 33.4166 2.19353 33.8091 2.19353C34.1785 2.19353 34.5287 2.2551 34.8597 2.37825C35.1906 2.50139 35.4792 2.68611 35.7255 2.9324C35.9795 3.17869 36.1796 3.4904 36.3259 3.86754C36.4721 4.24467 36.5452 4.69107 36.5452 5.20674V5.44919ZM32.1582 4.98739H35.5408C35.5408 4.24082 35.3869 3.65588 35.079 3.23257C34.7789 2.80156 34.3555 2.58605 33.8091 2.58605C33.5243 2.58605 33.278 2.65532 33.0702 2.79386C32.8624 2.9247 32.6892 3.10173 32.5507 3.32493C32.4199 3.54813 32.3198 3.80596 32.2505 4.09843C32.189 4.38321 32.1582 4.67953 32.1582 4.98739Z" fill="#001100"/>
<path d="M21.6221 23.7231H19.9398V13.8275H21.6221V15.4306H21.7012C21.8596 15.0479 22.0575 14.7379 22.295 14.5004C22.5457 14.2629 22.8095 14.0782 23.0866 13.9462C23.3637 13.8143 23.6408 13.7285 23.9178 13.6889C24.1949 13.6362 24.4324 13.6098 24.6303 13.6098C25.0657 13.6098 25.4352 13.6691 25.7386 13.7879C26.0553 13.9066 26.3258 14.0584 26.5501 14.2431C26.7744 14.4278 26.9591 14.6323 27.1042 14.8566C27.2494 15.0677 27.3615 15.2788 27.4407 15.4899H27.5792C27.7771 15.0809 28.008 14.7511 28.2719 14.5004C28.549 14.2497 28.8327 14.0584 29.1229 13.9264C29.4132 13.7945 29.6903 13.7087 29.9542 13.6691C30.2181 13.6296 30.4489 13.6098 30.6469 13.6098C31.333 13.6098 31.8805 13.7219 32.2895 13.9462C32.7117 14.1573 33.0284 14.4278 33.2395 14.7577C33.4638 15.0743 33.6089 15.424 33.6749 15.8066C33.7409 16.176 33.7739 16.5125 33.7739 16.816V23.7231H32.0916V17.3899C32.0916 16.9413 32.0652 16.5455 32.0125 16.2024C31.9729 15.8594 31.8805 15.5691 31.7354 15.3316C31.6034 15.0941 31.4121 14.916 31.1614 14.7972C30.9107 14.6785 30.5809 14.6191 30.1719 14.6191C29.6177 14.6191 29.1757 14.7445 28.8459 14.9952C28.5292 15.2458 28.2851 15.5493 28.1136 15.9056C27.9421 16.2618 27.8299 16.6444 27.7771 17.0534C27.7244 17.4493 27.698 17.7923 27.698 18.0826V23.7231H26.0157V17.3899C26.0157 17.1524 26.0025 16.8753 25.9761 16.5587C25.9629 16.242 25.897 15.9385 25.7782 15.6483C25.6595 15.358 25.4748 15.1139 25.2241 14.916C24.9866 14.7181 24.6435 14.6191 24.1949 14.6191C23.5748 14.6191 23.0932 14.7577 22.7502 15.0347C22.4071 15.2986 22.1498 15.6219 21.9783 16.0045C21.82 16.3739 21.721 16.7566 21.6814 17.1524C21.6418 17.535 21.6221 17.8451 21.6221 18.0826V23.7231Z" fill="#001100"/>
<path d="M45.7352 19.2107H38.2145C38.2145 20.0155 38.3333 20.6752 38.5708 21.1898C38.8083 21.7044 39.1051 22.1068 39.4614 22.3971C39.8176 22.6873 40.2002 22.8919 40.6093 23.0106C41.0315 23.1162 41.4273 23.1689 41.7967 23.1689C42.1266 23.1689 42.4235 23.136 42.6873 23.07C42.9644 22.9908 43.2283 22.8853 43.479 22.7533C43.7297 22.6214 43.9738 22.4564 44.2113 22.2585C44.462 22.0606 44.7258 21.8429 45.0029 21.6054L45.6362 22.2387C45.1085 22.7929 44.4883 23.2217 43.7759 23.5252C43.0634 23.8154 42.2849 23.9606 41.4405 23.9606C40.5697 23.9606 39.811 23.8154 39.1645 23.5252C38.5312 23.2217 38.0034 22.8259 37.5812 22.3377C37.1722 21.8363 36.8621 21.2756 36.651 20.6554C36.4531 20.0221 36.3542 19.3756 36.3542 18.7159C36.3542 17.9243 36.4729 17.2184 36.7104 16.5982C36.9479 15.9649 37.2777 15.4306 37.7 14.9952C38.1222 14.5466 38.617 14.2101 39.1843 13.9858C39.7516 13.7483 40.3718 13.6296 41.0447 13.6296C41.678 13.6296 42.2783 13.7351 42.8457 13.9462C43.413 14.1573 43.9078 14.474 44.33 14.8962C44.7654 15.3184 45.1085 15.8528 45.3592 16.4993C45.6099 17.1458 45.7352 17.9111 45.7352 18.7951V19.2107ZM38.2145 18.419H44.0134C44.0134 17.1392 43.7495 16.1365 43.2217 15.4108C42.7071 14.6719 41.9815 14.3025 41.0447 14.3025C40.5565 14.3025 40.1343 14.4212 39.778 14.6587C39.4218 14.883 39.1249 15.1865 38.8874 15.5691C38.6631 15.9517 38.4916 16.3937 38.3729 16.8951C38.2673 17.3833 38.2145 17.8913 38.2145 18.419Z" fill="#001100"/>
<path d="M56.5851 23.7231H54.9029V17.2118C54.9029 17.0798 54.8897 16.8687 54.8633 16.5785C54.8369 16.2882 54.7511 15.9979 54.606 15.7076C54.4741 15.4174 54.2564 15.1667 53.9529 14.9556C53.6494 14.7313 53.2206 14.6191 52.6665 14.6191C52.3234 14.6191 51.987 14.6785 51.6571 14.7972C51.3404 14.916 51.0568 15.1007 50.8061 15.3514C50.5554 15.6021 50.3575 15.9122 50.2123 16.2816C50.0672 16.651 49.9946 17.093 49.9946 17.6076V23.7231H48.3124V13.8275H49.9946V15.0941H50.0738L50.3905 14.7775C50.8523 14.3157 51.3207 14.0056 51.7956 13.8473C52.2706 13.6757 52.6994 13.5966 53.0821 13.6098C53.9529 13.6098 54.6258 13.7615 55.1008 14.065C55.5758 14.3552 55.9188 14.7049 56.1299 15.1139C56.3542 15.5097 56.4862 15.9187 56.5257 16.341C56.5653 16.75 56.5851 17.0732 56.5851 17.3107V23.7231Z" fill="#001100"/>
<path d="M58.8226 14.6191V13.8275H60.5445V10.7796H62.2267V13.8275H64.6214V14.6191H62.2267V21.1898C62.2267 21.3481 62.2333 21.5329 62.2465 21.744C62.2597 21.9419 62.2993 22.1332 62.3652 22.3179C62.4312 22.4894 62.5302 22.6346 62.6621 22.7533C62.8073 22.8721 63.0052 22.9314 63.2558 22.9314C63.5725 22.9314 63.8364 22.8127 64.0475 22.5752C64.2586 22.3377 64.4301 22.0804 64.5621 21.8033L65.4923 22.7533C64.8457 23.3998 64.1135 23.7231 63.2954 23.7231C62.9524 23.7231 62.6159 23.6637 62.2861 23.545C61.9562 23.4262 61.6594 23.2481 61.3955 23.0106C61.1448 22.7599 60.9403 22.4433 60.7819 22.0606C60.6236 21.678 60.5445 21.2294 60.5445 20.7148V14.6191H58.8226Z" fill="#001100"/>
<path d="M70.8755 13.6098C71.8386 13.6098 72.5841 13.7483 73.1119 14.0254C73.6396 14.2893 74.0223 14.6389 74.2598 15.0743C74.5105 15.5097 74.6556 16.0111 74.6952 16.5785C74.7348 17.1458 74.7546 17.7263 74.7546 18.3201V23.7231H73.1515V22.7533C72.7688 23.1228 72.2807 23.4196 71.6869 23.6439C71.0932 23.855 70.4994 23.9606 69.9057 23.9606C69.3384 23.9606 68.837 23.8616 68.4016 23.6637C67.9662 23.4658 67.6033 23.2085 67.313 22.8919C67.0228 22.5752 66.8051 22.219 66.6599 21.8231C66.5148 21.4273 66.4422 21.0249 66.4422 20.6159C66.4422 20.1937 66.5214 19.7714 66.6797 19.3492C66.8381 18.927 67.0756 18.551 67.3922 18.2211C67.7089 17.8781 68.0981 17.601 68.5599 17.3899C69.0217 17.1788 69.5495 17.0732 70.1432 17.0732C70.7369 17.0732 71.2977 17.192 71.8255 17.4295C72.3664 17.6538 72.8084 17.977 73.1515 18.3992V17.5482C73.1515 16.4663 72.9865 15.6615 72.6567 15.1337C72.34 14.6059 71.7529 14.342 70.8953 14.342C70.5258 14.342 70.2026 14.3882 69.9255 14.4806C69.6484 14.5729 69.3977 14.7049 69.1734 14.8764C68.9623 15.0347 68.7644 15.2392 68.5797 15.4899C68.395 15.7274 68.2103 15.9979 68.0255 16.3014L66.9964 15.2722C67.1811 15.0743 67.3724 14.8764 67.5703 14.6785C67.7814 14.4806 68.0321 14.3025 68.3224 14.1441C68.6259 13.9858 68.9821 13.8605 69.3911 13.7681C69.8001 13.6625 70.2949 13.6098 70.8755 13.6098ZM73.1515 19.8044C73.0855 19.6461 72.9865 19.4614 72.8546 19.2503C72.7358 19.0392 72.5775 18.8347 72.3796 18.6367C72.1817 18.4388 71.9442 18.2739 71.6671 18.142C71.39 17.9968 71.0602 17.9243 70.6776 17.9243C70.2949 17.9243 69.9453 18.0034 69.6286 18.1618C69.312 18.3069 69.0415 18.5048 68.8172 18.7555C68.6061 18.993 68.4412 19.2767 68.3224 19.6065C68.2037 19.9364 68.1443 20.2794 68.1443 20.6357C68.1443 21.0579 68.2169 21.4273 68.362 21.744C68.5203 22.0474 68.7182 22.3113 68.9557 22.5356C69.1932 22.7467 69.4571 22.9051 69.7474 23.0106C70.0376 23.1162 70.3147 23.1689 70.5786 23.1689C70.8293 23.1689 71.08 23.1228 71.3307 23.0304C71.5946 22.938 71.8386 22.8127 72.0629 22.6544C72.3004 22.4828 72.5116 22.2849 72.6963 22.0606C72.881 21.8363 73.0327 21.5922 73.1515 21.3284V19.8044Z" fill="#001100"/>
<path d="M80 9.86923V23.7231H78.3177V9.86923H80Z" fill="#001100"/>
<path d="M19.9398 25.6099H21.6221V30.9139H21.7012L21.9189 30.6368C22.3675 30.1354 22.8425 29.799 23.3439 29.6275C23.8585 29.4428 24.3467 29.3504 24.8084 29.3504C25.1515 29.3504 25.5077 29.3966 25.8772 29.4889C26.2598 29.5813 26.6094 29.7594 26.9261 30.0233C27.2428 30.2872 27.5067 30.6566 27.7178 31.1316C27.9289 31.5934 28.0344 32.1937 28.0344 32.9326V39.4637H26.3522V33.3878C26.3522 32.992 26.3258 32.6094 26.273 32.2399C26.2334 31.8705 26.1411 31.5472 25.9959 31.2701C25.8508 30.9931 25.6397 30.7754 25.3626 30.617C25.0987 30.4455 24.7425 30.3597 24.2939 30.3597C23.6606 30.3597 23.1658 30.4917 22.8095 30.7556C22.4533 31.0063 22.1828 31.3097 21.9981 31.666C21.8266 32.0222 21.721 32.3917 21.6814 32.7743C21.6418 33.1569 21.6221 33.4802 21.6221 33.744V39.4637H19.9398V25.6099Z" fill="#001100"/>
<path d="M39.995 34.9513H32.4743C32.4743 35.7562 32.593 36.4159 32.8305 36.9304C33.068 37.445 33.3649 37.8474 33.7211 38.1377C34.0774 38.428 34.46 38.6325 34.869 38.7512C35.2913 38.8568 35.6871 38.9096 36.0565 38.9096C36.3864 38.9096 36.6832 38.8766 36.9471 38.8106C37.2242 38.7314 37.4881 38.6259 37.7388 38.4939C37.9895 38.362 38.2335 38.1971 38.471 37.9992C38.7217 37.8013 38.9856 37.5835 39.2627 37.3461L39.896 37.9794C39.3682 38.5335 38.7481 38.9623 38.0356 39.2658C37.3232 39.5561 36.5447 39.7012 35.7003 39.7012C34.8295 39.7012 34.0708 39.5561 33.4243 39.2658C32.791 38.9623 32.2632 38.5665 31.841 38.0783C31.432 37.577 31.1219 37.0162 30.9108 36.3961C30.7129 35.7628 30.6139 35.1162 30.6139 34.4565C30.6139 33.6649 30.7327 32.959 30.9702 32.3389C31.2077 31.7056 31.5375 31.1712 31.9597 30.7358C32.3819 30.2872 32.8767 29.9507 33.4441 29.7264C34.0114 29.4889 34.6315 29.3702 35.3044 29.3702C35.9378 29.3702 36.5381 29.4757 37.1054 29.6868C37.6728 29.898 38.1676 30.2146 38.5898 30.6368C39.0252 31.059 39.3682 31.5934 39.6189 32.2399C39.8696 32.8864 39.995 33.6517 39.995 34.5357V34.9513ZM32.4743 34.1597H38.2731C38.2731 32.8798 38.0092 31.8771 37.4815 31.1514C36.9669 30.4125 36.2412 30.0431 35.3044 30.0431C34.8163 30.0431 34.3941 30.1618 34.0378 30.3993C33.6816 30.6236 33.3847 30.9271 33.1472 31.3097C32.9229 31.6924 32.7514 32.1344 32.6326 32.6357C32.5271 33.1239 32.4743 33.6319 32.4743 34.1597Z" fill="#001100"/>
<path d="M46.2137 29.3504C47.1769 29.3504 47.9224 29.4889 48.4502 29.766C48.9779 30.0299 49.3605 30.3795 49.598 30.8149C49.8487 31.2504 49.9939 31.7517 50.0335 32.3191C50.073 32.8864 50.0928 33.467 50.0928 34.0607V39.4637H48.4897V38.4939C48.1071 38.8634 47.6189 39.1603 47.0252 39.3846C46.4314 39.5957 45.8377 39.7012 45.244 39.7012C44.6766 39.7012 44.1752 39.6023 43.7398 39.4043C43.3044 39.2064 42.9416 38.9491 42.6513 38.6325C42.3611 38.3158 42.1433 37.9596 41.9982 37.5638C41.8531 37.1679 41.7805 36.7655 41.7805 36.3565C41.7805 35.9343 41.8597 35.5121 42.018 35.0899C42.1763 34.6676 42.4138 34.2916 42.7305 33.9618C43.0471 33.6187 43.4364 33.3416 43.8982 33.1305C44.36 32.9194 44.8877 32.8139 45.4815 32.8139C46.0752 32.8139 46.636 32.9326 47.1637 33.1701C47.7047 33.3944 48.1467 33.7177 48.4897 34.1399V33.2889C48.4897 32.2069 48.3248 31.4021 47.995 30.8743C47.6783 30.3466 47.0912 30.0827 46.2335 30.0827C45.8641 30.0827 45.5408 30.1289 45.2638 30.2212C44.9867 30.3136 44.736 30.4455 44.5117 30.617C44.3006 30.7754 44.1027 30.9799 43.918 31.2306C43.7332 31.4681 43.5485 31.7385 43.3638 32.042L42.3347 31.0129C42.5194 30.8149 42.7107 30.617 42.9086 30.4191C43.1197 30.2212 43.3704 30.0431 43.6607 29.8848C43.9641 29.7264 44.3204 29.6011 44.7294 29.5087C45.1384 29.4032 45.6332 29.3504 46.2137 29.3504ZM48.4897 35.5451C48.4238 35.3867 48.3248 35.202 48.1929 34.9909C48.0741 34.7798 47.9158 34.5753 47.7179 34.3774C47.52 34.1795 47.2825 34.0145 47.0054 33.8826C46.7283 33.7375 46.3985 33.6649 46.0158 33.6649C45.6332 33.6649 45.2836 33.7441 44.9669 33.9024C44.6502 34.0475 44.3798 34.2454 44.1555 34.4961C43.9443 34.7336 43.7794 35.0173 43.6607 35.3471C43.5419 35.677 43.4826 36.02 43.4826 36.3763C43.4826 36.7985 43.5551 37.1679 43.7003 37.4846C43.8586 37.7881 44.0565 38.0519 44.294 38.2762C44.5315 38.4873 44.7954 38.6457 45.0856 38.7512C45.3759 38.8568 45.653 38.9096 45.9169 38.9096C46.1676 38.9096 46.4183 38.8634 46.6689 38.771C46.9328 38.6787 47.1769 38.5533 47.4012 38.395C47.6387 38.2235 47.8498 38.0256 48.0345 37.8013C48.2193 37.577 48.371 37.3329 48.4897 37.069V35.5451Z" fill="#001100"/>
<path d="M55.3383 25.6099V39.4637H53.656V25.6099H55.3383Z" fill="#001100"/>
<path d="M57.9142 30.3597V29.5681H59.6361V26.5203H61.3183V29.5681H63.7131V30.3597H61.3183V36.9304C61.3183 37.0888 61.3249 37.2735 61.3381 37.4846C61.3513 37.6825 61.3909 37.8738 61.4569 38.0585C61.5228 38.2301 61.6218 38.3752 61.7537 38.4939C61.8989 38.6127 62.0968 38.6721 62.3475 38.6721C62.6641 38.6721 62.928 38.5533 63.1391 38.3158C63.3502 38.0783 63.5217 37.821 63.6537 37.544L64.5839 38.4939C63.9374 39.1405 63.2051 39.4637 62.387 39.4637C62.044 39.4637 61.7075 39.4043 61.3777 39.2856C61.0478 39.1668 60.751 38.9887 60.4871 38.7512C60.2364 38.5005 60.0319 38.1839 59.8736 37.8013C59.7152 37.4186 59.6361 36.97 59.6361 36.4554V30.3597H57.9142Z" fill="#001100"/>
<path d="M66.3255 25.6099H68.0078V30.9139H68.0869L68.3046 30.6368C68.7532 30.1354 69.2282 29.799 69.7296 29.6275C70.2442 29.4428 70.7323 29.3504 71.1941 29.3504C71.5372 29.3504 71.8934 29.3966 72.2629 29.4889C72.6455 29.5813 72.9951 29.7594 73.3118 30.0233C73.6285 30.2872 73.8923 30.6566 74.1035 31.1316C74.3146 31.5934 74.4201 32.1937 74.4201 32.9326V39.4637H72.7379V33.3878C72.7379 32.992 72.7115 32.6094 72.6587 32.2399C72.6191 31.8705 72.5268 31.5472 72.3816 31.2701C72.2365 30.9931 72.0254 30.7754 71.7483 30.617C71.4844 30.4455 71.1282 30.3597 70.6796 30.3597C70.0462 30.3597 69.5515 30.4917 69.1952 30.7556C68.839 31.0063 68.5685 31.3097 68.3838 31.666C68.2123 32.0222 68.1067 32.3917 68.0671 32.7743C68.0275 33.1569 68.0078 33.4802 68.0078 33.744V39.4637H66.3255V25.6099Z" fill="#001100"/>
<path d="M19.9398 52.3181V43.6595H20.9211V44.5946H20.9673C21.2521 43.8865 21.8524 43.5325 22.7683 43.5325C23.1531 43.5325 23.5072 43.6056 23.8304 43.7518C24.1537 43.8904 24.4308 44.0943 24.6617 44.3637C24.9003 44.6254 25.085 44.9409 25.2158 45.3104C25.3467 45.6798 25.4121 46.0954 25.4121 46.5572C25.4121 47.0113 25.3467 47.4269 25.2158 47.8041C25.085 48.1735 24.9003 48.4891 24.6617 48.7508C24.4308 49.0124 24.1537 49.2164 23.8304 49.3626C23.5072 49.5012 23.1531 49.5704 22.7683 49.5704C22.5836 49.5704 22.3989 49.5512 22.2141 49.5127C22.0371 49.4742 21.8678 49.4127 21.7062 49.328C21.5445 49.2433 21.3983 49.1317 21.2675 48.9932C21.1443 48.8547 21.0443 48.6853 20.9673 48.4852H20.9211V52.3181H19.9398ZM20.9211 45.9684V46.9728C20.9211 47.2884 20.9634 47.5693 21.0481 47.8156C21.1405 48.0619 21.2598 48.2736 21.406 48.4506C21.5522 48.6199 21.7216 48.7508 21.914 48.8431C22.1064 48.9278 22.3104 48.9701 22.5259 48.9701C22.7645 48.9701 22.9915 48.9278 23.207 48.8431C23.4225 48.7508 23.6111 48.6084 23.7727 48.416C23.942 48.2158 24.0729 47.9619 24.1652 47.654C24.2653 47.3461 24.3153 46.9728 24.3153 46.5341C24.3153 46.1031 24.2653 45.7337 24.1652 45.4258C24.0729 45.118 23.9459 44.8678 23.7843 44.6754C23.6226 44.483 23.4302 44.3445 23.207 44.2598C22.9915 44.1674 22.7645 44.1213 22.5259 44.1213C22.3027 44.1213 22.091 44.1713 21.8909 44.2713C21.6985 44.3637 21.5292 44.4945 21.3829 44.6639C21.2367 44.8255 21.1212 45.0218 21.0366 45.2527C20.9596 45.4759 20.9211 45.7144 20.9211 45.9684Z" fill="#001100"/>
<path d="M32.5412 46.5572C32.5412 46.9574 32.472 47.3423 32.3334 47.7117C32.1949 48.0735 31.9948 48.3929 31.7331 48.6699C31.4791 48.947 31.1674 49.1664 30.7979 49.328C30.4362 49.4896 30.0283 49.5704 29.5742 49.5704C29.1124 49.5704 28.6929 49.4896 28.3158 49.328C27.9464 49.1587 27.6308 48.9355 27.3691 48.6584C27.1151 48.3813 26.915 48.0619 26.7688 47.7002C26.6302 47.3307 26.561 46.9497 26.561 46.5572C26.561 46.157 26.6302 45.776 26.7688 45.4143C26.915 45.0448 27.1151 44.7216 27.3691 44.4445C27.6308 44.1674 27.9464 43.9481 28.3158 43.7865C28.6929 43.6171 29.1124 43.5325 29.5742 43.5325C30.0283 43.5325 30.4362 43.6171 30.7979 43.7865C31.1674 43.9481 31.4791 44.1674 31.7331 44.4445C31.9948 44.7216 32.1949 45.0448 32.3334 45.4143C32.472 45.776 32.5412 46.157 32.5412 46.5572ZM31.4445 46.5572C31.4445 46.0185 31.3867 45.5836 31.2713 45.2527C31.1558 44.914 31.0058 44.6523 30.821 44.4676C30.6363 44.2829 30.4324 44.1597 30.2092 44.0982C29.986 44.0289 29.7705 43.9943 29.5626 43.9943C29.3548 43.9943 29.1393 44.0289 28.9161 44.0982C28.6929 44.1597 28.4851 44.2829 28.2927 44.4676C28.108 44.6523 27.9541 44.914 27.8309 45.2527C27.7155 45.5836 27.6577 46.0185 27.6577 46.5572C27.6577 47.0883 27.7155 47.5231 27.8309 47.8618C27.9541 48.1927 28.108 48.4506 28.2927 48.6353C28.4851 48.82 28.6929 48.947 28.9161 49.0163C29.1393 49.0779 29.3548 49.1086 29.5626 49.1086C29.7705 49.1086 29.986 49.0779 30.2092 49.0163C30.4324 48.947 30.6363 48.82 30.821 48.6353C31.0058 48.4506 31.1558 48.1927 31.2713 47.8618C31.3867 47.5231 31.4445 47.0883 31.4445 46.5572Z" fill="#001100"/>
<path d="M34.044 43.6595H35.0253V44.583H35.0945C35.2331 44.2367 35.4101 43.975 35.6256 43.798C35.8411 43.621 36.1105 43.5325 36.4337 43.5325C36.4722 43.5325 36.53 43.5402 36.6069 43.5556C36.6916 43.5633 36.7801 43.5863 36.8725 43.6248C36.9725 43.6556 37.0687 43.7018 37.1611 43.7634C37.2611 43.8249 37.3458 43.9019 37.4151 43.9943L37.0225 44.71C36.9533 44.61 36.8417 44.5022 36.6877 44.3868C36.5415 44.2713 36.3799 44.2136 36.2028 44.2136C36.072 44.2136 35.9373 44.2444 35.7988 44.306C35.6602 44.3675 35.5332 44.4676 35.4178 44.6061C35.3023 44.7447 35.2061 44.9255 35.1292 45.1487C35.0599 45.3643 35.0253 45.6298 35.0253 45.9453V49.4319H34.044V43.6595Z" fill="#001100"/>
<path d="M37.875 44.1213V43.6595H38.8794V41.8815H39.8607V43.6595H41.2576V44.1213H39.8607V47.9542C39.8607 48.0465 39.8645 48.1543 39.8722 48.2774C39.8799 48.3929 39.903 48.5045 39.9415 48.6122C39.98 48.7123 40.0377 48.7969 40.1147 48.8662C40.1993 48.9355 40.3148 48.9701 40.461 48.9701C40.6457 48.9701 40.7997 48.9008 40.9228 48.7623C41.046 48.6238 41.146 48.4737 41.223 48.312L41.7656 48.8662C41.3885 49.2433 40.9613 49.4319 40.4841 49.4319C40.284 49.4319 40.0877 49.3973 39.8953 49.328C39.7029 49.2587 39.5297 49.1548 39.3758 49.0163C39.2296 48.8701 39.1103 48.6853 39.0179 48.4621C38.9255 48.2389 38.8794 47.9772 38.8794 47.6771V44.1213H37.875Z" fill="#001100"/>
<path d="M44.9058 43.5325C45.4676 43.5325 45.9025 43.6133 46.2104 43.7749C46.5182 43.9288 46.7414 44.1328 46.88 44.3868C47.0262 44.6408 47.1109 44.9332 47.134 45.2642C47.157 45.5952 47.1686 45.9338 47.1686 46.2801V49.4319H46.2335V48.8662C46.0103 49.0817 45.7255 49.2549 45.3791 49.3857C45.0328 49.5089 44.6864 49.5704 44.3401 49.5704C44.0091 49.5704 43.7167 49.5127 43.4627 49.3973C43.2087 49.2818 42.997 49.1317 42.8277 48.947C42.6584 48.7623 42.5314 48.5545 42.4467 48.3236C42.3621 48.0927 42.3197 47.8579 42.3197 47.6194C42.3197 47.3731 42.3659 47.1268 42.4583 46.8805C42.5506 46.6342 42.6892 46.4148 42.8739 46.2224C43.0586 46.0223 43.2857 45.8607 43.555 45.7375C43.8244 45.6144 44.1323 45.5528 44.4786 45.5528C44.825 45.5528 45.1521 45.6221 45.4599 45.7606C45.7755 45.8915 46.0333 46.08 46.2335 46.3263V45.8299C46.2335 45.1988 46.1372 44.7293 45.9448 44.4214C45.7601 44.1136 45.4176 43.9596 44.9173 43.9596C44.7018 43.9596 44.5133 43.9866 44.3516 44.0404C44.19 44.0943 44.0438 44.1713 43.9129 44.2713C43.7898 44.3637 43.6743 44.483 43.5666 44.6292C43.4588 44.7678 43.3511 44.9255 43.2433 45.1026L42.643 44.5022C42.7508 44.3868 42.8624 44.2713 42.9778 44.1559C43.1009 44.0404 43.2472 43.9365 43.4165 43.8442C43.5935 43.7518 43.8013 43.6787 44.0399 43.6248C44.2785 43.5633 44.5671 43.5325 44.9058 43.5325ZM46.2335 47.146C46.195 47.0537 46.1372 46.9459 46.0603 46.8228C45.991 46.6996 45.8987 46.5803 45.7832 46.4649C45.6678 46.3494 45.5292 46.2532 45.3676 46.1762C45.206 46.0916 45.0135 46.0493 44.7903 46.0493C44.5671 46.0493 44.3632 46.0954 44.1785 46.1878C43.9938 46.2725 43.836 46.3879 43.7051 46.5341C43.582 46.6727 43.4858 46.8382 43.4165 47.0306C43.3472 47.223 43.3126 47.4231 43.3126 47.6309C43.3126 47.8772 43.3549 48.0927 43.4396 48.2774C43.532 48.4544 43.6474 48.6084 43.7859 48.7392C43.9245 48.8624 44.0784 48.9547 44.2477 49.0163C44.4171 49.0779 44.5787 49.1086 44.7326 49.1086C44.8789 49.1086 45.0251 49.0817 45.1713 49.0278C45.3253 48.974 45.4676 48.9008 45.5985 48.8085C45.737 48.7084 45.8602 48.593 45.9679 48.4621C46.0757 48.3313 46.1642 48.1889 46.2335 48.035V47.146Z" fill="#001100"/>
<path d="M50.2284 41.3505V49.4319H49.2471V41.3505H50.2284Z" fill="#001100"/>
</svg>
