<svg width="36" height="30" viewBox="0 0 36 30" fill="none" xmlns="http://www.w3.org/2000/svg">
<path d="M26.6502 25.6823C26.5745 26.0968 26.4049 26.4886 26.1545 26.8277C25.0301 28.3363 22.6907 28.2092 20.9683 27.4472C19.2459 26.6852 17.6989 25.4428 15.8401 25.1381C14.5949 24.9338 13.3265 25.1736 12.0731 25.3182C10.8198 25.4628 9.48973 25.4994 8.36257 24.9331C4.00235 22.7431 10.2254 18.674 12.1182 17.0565C13.5413 15.8403 14.4019 14.7624 15.8023 13.0133C16.5625 12.0638 17.7748 11.3868 18.9919 11.4231C20.4805 11.4674 21.6125 12.8231 22.1367 14.2152C22.6608 15.6073 22.7909 17.1319 23.403 18.4875C24.0455 19.9106 25.1765 21.0552 25.9509 22.4114C26.5109 23.3925 26.8556 24.6099 26.6502 25.6823Z" fill="#1A1A1A"/>
<path d="M24.0132 12.4418C23.4721 12.3452 22.9656 12.1091 22.5438 11.7567C20.2047 9.75042 21.8252 5.45511 24.3687 4.46378C25.6118 3.97925 27.1455 4.2143 28.0859 5.16093C28.683 5.7622 29.0087 6.58423 29.201 7.40957C29.4412 8.44159 29.4823 9.58138 28.9659 10.5064C28.4312 11.4641 27.3841 12.0328 26.3252 12.3182C25.5806 12.519 24.7641 12.5885 24.0132 12.4418Z" fill="#1A1A1A"/>
<path d="M26.0625 17.1217C26.3235 15.9052 26.9751 14.8076 27.9177 13.9966C28.6699 13.3646 29.6846 12.9959 30.6491 13.182C31.6228 13.3696 32.4392 14.1082 32.861 15.0065C33.2829 15.9049 33.3425 16.9427 33.1792 17.9217C33.02 18.8774 32.6451 19.8118 32.0064 20.5399C31.3677 21.2679 30.4497 21.7723 29.4825 21.8087C28.2425 21.8549 27.0348 21.1002 26.4335 20.0134C25.9419 19.1247 25.8576 18.1037 26.0625 17.1217Z" fill="#1A1A1A"/>
<path d="M5.98925 9.08666C6.61098 9.18226 7.20066 9.50649 7.69168 9.9122C8.58816 10.6528 9.24458 11.6988 9.44497 12.8445C9.64535 13.9903 9.36866 15.2262 8.63853 16.1307C8.11009 16.7853 7.33017 17.2626 6.4903 17.3107C5.89742 17.3446 5.31021 17.1682 4.76994 16.9218C3.84766 16.5005 3.00638 15.8475 2.50476 14.9661C1.5592 13.3051 2.29679 11.4361 3.49394 10.1218C4.00209 9.564 4.68359 9.12657 5.43573 9.06581C5.62041 9.05119 5.80618 9.05819 5.98925 9.08666Z" fill="#1A1A1A"/>
<path d="M11.872 6.62305C12.1293 5.15336 13.0192 3.70681 14.1241 2.94787C15.0776 2.2933 16.4118 2.10711 17.3922 2.72013C18.1881 3.2178 18.627 4.14071 18.8174 5.06037C19.0737 6.29835 18.9383 7.63809 18.3133 8.73658C17.6883 9.83506 16.5467 10.6577 15.2889 10.7702C14.031 10.8826 12.7041 10.2184 12.149 9.0827C11.7871 8.34256 11.7223 7.4789 11.872 6.62305Z" fill="#1A1A1A"/>
</svg>
