<svg width="40" height="39" viewBox="0 0 40 39" fill="none" xmlns="http://www.w3.org/2000/svg">
<path d="M22.9277 32.819C22.6756 33.1584 22.3493 33.4358 21.9737 33.63C20.2936 34.4893 18.2478 33.3384 17.0384 31.8895C15.8291 30.4406 14.9905 28.637 13.4555 27.5393C12.4273 26.8037 11.1811 26.4574 9.99062 26.0322C8.80017 25.607 7.58876 25.0505 6.82733 24.0415C3.8816 20.1387 11.28 19.2346 13.699 18.6178C15.5177 18.1541 16.7696 17.5654 18.8045 16.612C19.9092 16.0944 21.299 16.0225 22.3766 16.5944C23.6945 17.2939 24.1099 19.0154 23.9628 20.5004C23.8158 21.9853 23.2559 23.4148 23.204 24.9059C23.1495 26.4712 23.6577 28.0023 23.7515 29.5658C23.8191 30.6967 23.5884 31.945 22.9277 32.819Z" fill="#1A1A1A"/>
<path d="M26.431 19.8019C25.9872 19.4752 25.6364 19.0382 25.4133 18.5344C24.1994 15.6934 27.5617 12.5502 30.2889 12.7869C31.6217 12.9025 32.8968 13.7939 33.3228 15.062C33.5932 15.8674 33.5215 16.7509 33.3285 17.5782C33.0868 18.6125 32.6183 19.6555 31.7436 20.2581C30.838 20.8821 29.6441 20.929 28.5652 20.716C27.8064 20.5664 27.0413 20.2668 26.431 19.8019Z" fill="#1A1A1A"/>
<path d="M26.1589 24.892C26.9331 23.9144 28.0059 23.2171 29.2136 22.9064C30.1705 22.672 31.247 22.7909 32.0322 23.386C32.8251 23.9866 33.2322 25.0125 33.2135 26.0071C33.1948 27.0016 32.7884 27.9607 32.2074 28.7682C31.6405 29.5565 30.889 30.23 29.9915 30.6009C29.0941 30.9719 28.0446 31.0179 27.1582 30.6215C26.022 30.1129 25.27 28.8989 25.2108 27.6554C25.1625 26.6386 25.5393 25.6835 26.1589 24.892Z" fill="#1A1A1A"/>
<path d="M11.7804 8.73065C12.2972 9.09231 12.6837 9.64531 12.9454 10.2278C13.4233 11.2911 13.5498 12.5226 13.2219 13.6416C12.894 14.7605 12.0971 15.749 11.0393 16.2384C10.2737 16.5926 9.36056 16.6758 8.58388 16.3466C8.03561 16.1142 7.5857 15.6952 7.20908 15.2341C6.56645 14.4463 6.0994 13.4862 6.03914 12.4713C5.92531 10.5587 7.41757 9.20543 9.07708 8.55478C9.78148 8.27859 10.5884 8.18753 11.2918 8.46645C11.4644 8.53521 11.6284 8.62388 11.7804 8.73065Z" fill="#1A1A1A"/>
<path d="M18.1401 9.17171C19.0232 7.965 20.4651 7.05977 21.7957 6.86787C22.9438 6.7026 24.2267 7.12715 24.8371 8.11308C25.3325 8.91341 25.3183 9.93758 25.0819 10.8486C24.7637 12.0749 24.048 13.2189 22.9986 13.9288C21.9493 14.6388 20.5575 14.8717 19.3759 14.4147C18.1944 13.9577 17.2949 12.7721 17.2989 11.5051C17.3014 10.6794 17.626 9.87445 18.1401 9.17171Z" fill="#1A1A1A"/>
</svg>
