<svg width="40" height="39" viewBox="0 0 40 39" fill="none" xmlns="http://www.w3.org/2000/svg">
<path d="M23.1163 32.6971C22.869 33.0401 22.5467 33.3221 22.1739 33.5216C20.5062 34.4047 18.4443 33.2829 17.2145 31.8513C15.9846 30.4197 15.1206 28.6283 13.5702 27.5525C12.5316 26.8316 11.2806 26.503 10.0842 26.0947C8.88787 25.6865 7.66868 25.1473 6.89301 24.1492C3.89219 20.2887 11.277 19.2796 13.687 18.6286C15.4989 18.1391 16.7423 17.5327 18.7635 16.5506C19.8607 16.0174 21.2494 15.9257 22.3349 16.4822C23.6626 17.163 24.1024 18.8784 23.9765 20.3652C23.8505 21.8521 23.3109 23.2894 23.2802 24.781C23.248 26.3469 23.7779 27.8707 23.8938 29.4327C23.9775 30.5625 23.7645 31.8138 23.1163 32.6971Z" fill="#1A1A1A"/>
<path d="M26.438 19.6297C25.9896 19.3094 25.6327 18.8775 25.4024 18.3768C24.1483 15.5533 27.4656 12.3628 30.1958 12.5607C31.5302 12.6574 32.8178 13.5307 33.2618 14.7926C33.5435 15.594 33.4844 16.4784 33.3031 17.3084C33.0762 18.3461 32.6225 19.3956 31.7565 20.0105C30.8598 20.6473 29.6667 20.7112 28.5849 20.5135C27.8241 20.3747 27.0548 20.086 26.438 19.6297Z" fill="#1A1A1A"/>
<path d="M26.2402 24.7234C27.0004 23.735 28.0632 23.0225 29.2663 22.6947C30.2198 22.4468 31.2978 22.5503 32.0914 23.1342C32.8927 23.7235 33.3143 24.7436 33.3098 25.7383C33.3052 26.733 32.9124 27.6978 32.343 28.5134C31.7873 29.3097 31.0455 29.9937 30.1534 30.3774C29.2613 30.761 28.2126 30.822 27.3206 30.4382C26.1774 29.9458 25.4083 28.7425 25.3314 27.5C25.2687 26.484 25.6318 25.5237 26.2402 24.7234Z" fill="#1A1A1A"/>
<path d="M11.6309 8.76904C12.1527 9.12332 12.5471 9.67078 12.817 10.2495C13.3099 11.3059 13.4539 12.5355 13.1419 13.659C12.83 14.7825 12.0471 15.7821 10.9964 16.2865C10.2359 16.6515 9.32411 16.7477 8.54284 16.4296C7.99134 16.2049 7.53554 15.7924 7.15241 15.3366C6.49868 14.5581 6.01804 13.6047 5.94338 12.5908C5.80242 10.68 7.27531 9.30568 8.9254 8.63155C9.6258 8.3454 10.4313 8.2429 11.1386 8.51179C11.3122 8.5781 11.4774 8.66444 11.6309 8.76904Z" fill="#1A1A1A"/>
<path d="M17.9944 9.11924C18.8601 7.90013 20.2891 6.97453 21.6168 6.76376C22.7624 6.58221 24.0512 6.98851 24.6755 7.96567C25.1822 8.75888 25.1826 9.78315 24.9591 10.6974C24.6584 11.9281 23.9589 13.0821 22.9198 13.8069C21.8807 14.5317 20.4924 14.7843 19.3044 14.3441C18.1165 13.904 17.2004 12.7313 17.1864 11.4644C17.1771 10.6387 17.4903 9.82921 17.9944 9.11924Z" fill="#1A1A1A"/>
</svg>
