<svg width="40" height="40" viewBox="0 0 40 40" fill="none" xmlns="http://www.w3.org/2000/svg">
<path d="M21.4027 33.4986C21.1174 33.8107 20.7645 34.0534 20.3711 34.2084C18.6123 34.8923 16.6943 33.5391 15.6386 31.9746C14.5829 30.4101 13.9323 28.5305 12.517 27.2822C11.569 26.4458 10.3644 25.9744 9.22344 25.4303C8.08245 24.8861 6.93395 24.2093 6.27916 23.1279C3.74589 18.9456 11.1979 18.7989 13.6671 18.4315C15.5236 18.1553 16.8289 17.697 18.9502 16.9556C20.1019 16.5531 21.4918 16.6229 22.5056 17.3015C23.7455 18.1316 23.9835 19.8865 23.6861 21.3488C23.3887 22.8111 22.6862 24.1763 22.4828 25.6544C22.2694 27.2061 22.6191 28.7811 22.5533 30.3461C22.5054 31.478 22.1489 32.6963 21.4027 33.4986Z" fill="#1A1A1A"/>
<path d="M26.211 20.907C25.8027 20.5368 25.4982 20.0665 25.3275 19.5425C24.409 16.5926 28.0738 13.8079 30.7628 14.3209C32.077 14.5716 33.2547 15.5881 33.5495 16.893C33.7365 17.7217 33.5753 18.5933 33.2991 19.3967C32.9534 20.4011 32.3812 21.391 31.4497 21.9015C30.4852 22.4301 29.2928 22.3553 28.2411 22.0336C27.5015 21.8075 26.7708 21.4316 26.211 20.907Z" fill="#1A1A1A"/>
<path d="M25.4212 25.9414C26.2908 25.0477 27.4291 24.4631 28.6621 24.2769C29.638 24.1412 30.6968 24.369 31.4174 25.0409C32.1451 25.7191 32.4457 26.7811 32.3259 27.7686C32.2061 28.7561 31.7041 29.6689 31.044 30.413C30.3998 31.1396 29.5836 31.733 28.653 32.0107C27.7225 32.2884 26.6737 32.2275 25.8322 31.7429C24.7537 31.1213 24.1291 29.8371 24.1967 28.594C24.2522 27.5776 24.7241 26.6658 25.4212 25.9414Z" fill="#1A1A1A"/>
<path d="M12.7595 8.39831C13.2368 8.81069 13.5651 9.40016 13.7662 10.0063C14.1333 11.1127 14.1339 12.3507 13.6938 13.4305C13.2538 14.5103 12.3603 15.4125 11.2582 15.7918C10.4605 16.0662 9.54367 16.0561 8.80449 15.6496C8.28272 15.3626 7.87777 14.9 7.55002 14.4029C6.99088 13.5538 6.62394 12.5511 6.66727 11.5353C6.74865 9.62107 8.37092 8.42666 10.0881 7.94825C10.8169 7.74518 11.629 7.73671 12.3003 8.08575C12.465 8.17172 12.6191 8.27662 12.7595 8.39831Z" fill="#1A1A1A"/>
<path d="M19.043 9.48667C20.0442 8.37608 21.5709 7.62229 22.9141 7.56679C24.0731 7.51921 25.3062 8.07212 25.8131 9.11504C26.2245 9.96164 26.1062 10.9791 25.7783 11.8613C25.3369 13.0488 24.5085 14.1141 23.3923 14.7135C22.2761 15.313 20.8678 15.4031 19.7389 14.8282C18.6099 14.2533 17.8357 12.9824 17.9686 11.7224C18.0551 10.9012 18.46 10.1334 19.043 9.48667Z" fill="#1A1A1A"/>
</svg>
