<svg width="34" height="27" viewBox="0 0 34 27" fill="none" xmlns="http://www.w3.org/2000/svg">
<path d="M26.7331 23.0142C26.7055 23.435 26.582 23.844 26.3721 24.2099C25.4281 25.8387 23.0886 25.9806 21.2895 25.4205C19.4904 24.8605 17.8103 23.8026 15.9282 23.7129C14.6673 23.6526 13.4343 24.0364 12.2054 24.3239C10.9765 24.6115 9.65898 24.8004 8.47382 24.3666C3.8893 22.6893 9.60597 17.93 11.3012 16.1048C12.5757 14.7325 13.3071 13.5621 14.4978 11.6625C15.1442 10.6313 16.2712 9.81929 17.4848 9.71575C18.9692 9.58916 20.2499 10.8072 20.9306 12.1311C21.6114 13.455 21.9158 14.9559 22.6798 16.2335C23.4817 17.5747 24.7372 18.5829 25.6625 19.8425C26.3317 20.7536 26.8141 21.9244 26.7331 23.0142Z" fill="#1A1A1A"/>
<path d="M22.6146 10.1657C22.0658 10.1319 21.5352 9.95533 21.0755 9.65352C18.5203 7.92809 19.6383 3.47245 22.0527 2.19484C23.2327 1.5704 24.7841 1.62781 25.8276 2.46068C26.4901 2.98972 26.9081 3.76938 27.1939 4.56765C27.5511 5.56586 27.7227 6.69406 27.3155 7.67282C26.8939 8.68626 25.9184 9.3718 24.8986 9.77714C24.1815 10.0624 23.3779 10.2252 22.6146 10.1657Z" fill="#1A1A1A"/>
<path d="M25.1685 14.589C25.2886 13.3499 25.8104 12.1842 26.6545 11.2698C27.3298 10.5551 28.2963 10.072 29.2763 10.1461C30.2658 10.2206 31.162 10.8608 31.6844 11.7051C32.2068 12.5495 32.385 13.574 32.3349 14.5659C32.2863 15.534 32.0207 16.5058 31.4692 17.3028C30.9177 18.0998 30.063 18.7067 29.1057 18.854C27.8783 19.0425 26.5912 18.4313 25.8689 17.4203C25.2783 16.5936 25.0774 15.5885 25.1685 14.589Z" fill="#1A1A1A"/>
<path d="M4.30872 8.87274C4.93768 8.89633 5.56102 9.15086 6.09564 9.4977C7.0717 10.1308 7.84419 11.095 8.17482 12.2109C8.50545 13.3267 8.37222 14.5869 7.75025 15.5699C7.30008 16.2813 6.57961 16.8454 5.7503 16.9897C5.16487 17.0915 4.56095 16.9837 3.99564 16.8008C3.03056 16.488 2.11943 15.9356 1.51969 15.1171C0.389242 13.5748 0.907974 11.6323 1.94716 10.1884C2.38825 9.57555 3.01547 9.06244 3.75612 8.91562C3.93803 8.87988 4.12348 8.86549 4.30872 8.87274Z" fill="#1A1A1A"/>
<path d="M9.88335 5.7658C9.97062 4.27555 10.6895 2.73555 11.7008 1.85423C12.5736 1.09405 13.8785 0.755602 14.9235 1.25213C15.7717 1.65525 16.3138 2.52203 16.6086 3.41416C17.0053 4.61507 17.0243 5.96217 16.5289 7.12578C16.0335 8.28938 14.993 9.23823 13.7555 9.4946C12.518 9.75097 11.1228 9.24344 10.4407 8.17852C9.99605 7.48453 9.83262 6.63362 9.88335 5.7658Z" fill="#1A1A1A"/>
</svg>
