<svg width="124" height="149" viewBox="0 0 124 149" fill="none" xmlns="http://www.w3.org/2000/svg">
<rect x="45.3235" y="4.12704" width="79" height="79" transform="rotate(16.6985 45.3235 4.12704)" fill="white" stroke="#1A1A1A"/>
<rect x="15.3253" y="15.3485" width="106" height="120" transform="rotate(7.06845 15.3253 15.3485)" fill="white" stroke="#1A1A1A"/>
<path d="M46.5494 49.0199L44.9517 48.8218L44.6416 51.3227L43.3713 51.1651L44.2708 43.9107L47.1389 44.2663C48.5977 44.4472 49.4224 45.5168 49.2464 46.936C49.0729 48.3352 47.9983 49.1996 46.5494 49.0199ZM46.7505 45.3669L45.4008 45.1995L45.092 47.6905L46.4218 47.8554C47.2951 47.9637 47.8194 47.5551 47.9178 46.7611C48.0162 45.9672 47.594 45.4715 46.7505 45.3669ZM50.7515 52.0803L49.5507 51.9314L50.4662 44.5479L51.667 44.6968L50.7515 52.0803ZM53.4644 52.5477C52.4224 52.4184 51.8623 51.7343 51.9767 50.8114C52.0887 49.9083 52.8138 49.4239 53.986 49.4785L55.4683 49.5515L55.4818 49.4423C55.5643 48.7774 55.2006 48.4602 54.5853 48.3839C53.8707 48.2953 53.4369 48.5438 53.3729 49.0599L52.3408 48.9319C52.4724 47.87 53.4319 47.2836 54.7617 47.4485C56.0816 47.6122 56.8068 48.4276 56.6382 49.7872L56.269 52.7644L55.2072 52.6328L55.2077 51.8972C54.9365 52.3775 54.2285 52.6424 53.4644 52.5477ZM53.9745 51.6839C54.7188 51.7762 55.2506 51.3886 55.3441 50.6344L55.3761 50.3764L54.3441 50.329C53.5812 50.305 53.2627 50.5174 53.2135 50.9144C53.1581 51.3609 53.4287 51.6162 53.9745 51.6839ZM56.6142 55.1148L56.7397 54.1025L57.4642 54.1923C57.9405 54.2514 58.2518 54.1792 58.5316 53.6294L58.716 53.2795L57.3749 47.9237L58.6551 48.0825L59.4724 51.8114L61.2453 48.4036L62.4957 48.5587L59.3508 54.255C58.8704 55.1225 58.3076 55.4356 57.5038 55.3359C57.1663 55.2941 56.8736 55.2175 56.6142 55.1148ZM63.6969 53.6855L62.5755 53.5464L63.491 46.163L64.7017 46.3131L64.3055 49.5086C64.6908 49.0022 65.3863 48.7559 66.1306 48.8482C67.5299 49.0217 68.248 50.2192 68.0561 51.7673C67.869 53.2758 66.8169 54.2033 65.4077 54.0286C64.6733 53.9375 64.0887 53.5325 63.871 52.9312L63.6969 53.6855ZM64.1025 51.2267C63.993 52.1099 64.4638 52.783 65.2974 52.8863C66.1509 52.9922 66.7333 52.4396 66.8416 51.5663C66.9499 50.693 66.5213 50.005 65.6678 49.8992C64.8342 49.7959 64.2121 50.3435 64.1025 51.2267ZM68.7372 51.8115C68.9267 50.2832 70.1587 49.3678 71.6771 49.5561C73.1955 49.7444 74.1666 50.9329 73.9771 52.4612C73.7876 53.9895 72.5556 54.9048 71.0372 54.7166C69.5188 54.5283 68.5477 53.3398 68.7372 51.8115ZM69.9479 51.9616C69.8372 52.8547 70.3377 53.5315 71.1713 53.6348C72.005 53.7382 72.6556 53.2042 72.7664 52.3111C72.8771 51.4179 72.3766 50.7412 71.543 50.6378C70.7094 50.5344 70.0587 51.0684 69.9479 51.9616ZM74.649 52.5445C74.8385 51.0162 76.0705 50.1009 77.5889 50.2891C79.1072 50.4774 80.0784 51.6659 79.8888 53.1942C79.6993 54.7225 78.4673 55.6379 76.949 55.4496C75.4306 55.2613 74.4595 54.0728 74.649 52.5445ZM75.8597 52.6946C75.749 53.5878 76.2495 54.2645 77.0831 54.3679C77.9167 54.4713 78.5674 53.9373 78.6781 53.0441C78.7889 52.1509 78.2883 51.4742 77.4547 51.3708C76.6211 51.2675 75.9705 51.8015 75.8597 52.6946ZM81.764 55.9257L80.5632 55.7768L81.4787 48.3934L82.6795 48.5423L82.1172 53.0776L84.2773 51.2595L85.7957 51.4478L83.6888 53.1616L85.1481 56.3454L83.7587 56.1731L82.7345 53.9501L81.9277 54.6058L81.764 55.9257Z" fill="black"/>
<path d="M60.4653 118.127C60.4484 117.782 58.8196 83.3923 60.4665 71.1686L60.8234 71.2161C59.1809 83.408 60.8084 117.764 60.8246 118.11L60.4653 118.127L60.4653 118.127Z" fill="#1A1A1A"/>
<path d="M62.9884 75.122L59.7422 84.8239L60.0836 84.9381L63.3298 75.2362L62.9884 75.122Z" fill="#1A1A1A"/>
<path d="M63.047 72.1692L59.8008 81.8712L60.1422 81.9854L63.3884 72.2834L63.047 72.1692Z" fill="#1A1A1A"/>
<path d="M55.8956 79.9527L55.5859 80.1349L59.7665 87.2379L60.0762 87.0556L55.8956 79.9527Z" fill="#1A1A1A"/>
<path d="M55.8956 81.5727L55.5859 81.7549L59.7665 88.8578L60.0762 88.6755L55.8956 81.5727Z" fill="#1A1A1A"/>
<path d="M65.5912 83.4665L59.7734 89.7337L60.0368 89.9782L65.8546 83.711L65.5912 83.4665Z" fill="#1A1A1A"/>
<path d="M65.5912 84.9739L59.7734 91.2411L60.0368 91.4856L65.8546 85.2184L65.5912 84.9739Z" fill="#1A1A1A"/>
<path d="M59.9958 100.43L55.6133 96.0442L55.8676 95.7898L60.017 99.9429L65.6077 95.2361L65.8389 95.5111L59.9958 100.43Z" fill="#1A1A1A"/>
<path d="M59.9958 99.1498L55.6133 94.763L55.8676 94.5086L60.017 98.6623L65.6077 93.9548L65.8389 94.2305L59.9958 99.1498Z" fill="#1A1A1A"/>
<path d="M59.9926 105.188C52.2707 95.2692 50.5495 91.8967 50.187 89.4223C50.0826 88.7105 50.187 88.2773 50.5076 88.0979C51.1057 87.7617 52.1545 88.6161 52.272 88.7148C52.2888 88.7298 53.6676 89.9261 54.7182 89.7229C55.0888 89.6517 55.3701 89.4161 55.5795 89.0036C56.3345 87.5161 52.6838 84.188 50.2682 81.9855C49.5963 81.373 49.0163 80.8442 48.5732 80.4017C47.2701 79.0998 46.7151 77.8142 47.1582 77.1255C47.6463 76.3667 49.1195 76.4429 51.5363 77.3504C54.0057 78.2773 54.9801 78.0329 55.3626 77.6642C55.8576 77.1879 55.5713 76.3036 55.5688 76.2955C55.5501 76.2017 54.3676 69.4411 54.6207 64.7392C54.7382 62.5729 55.107 61.4517 55.7495 61.3117C56.4251 61.168 57.0832 62.1261 57.5195 62.9579C57.8545 63.5954 58.2188 64.8561 58.6057 66.1911C59.1588 68.1029 59.9951 70.9929 60.6513 71.0129C60.6532 71.0129 60.6551 71.0129 60.657 71.0129C61.1532 71.0129 61.6688 69.0623 62.1245 67.3404C62.6488 65.3567 63.2432 63.108 64.162 61.6273C65.027 60.233 65.7482 59.6336 66.3682 59.7867C67.1507 59.9842 67.3476 61.3211 67.3951 62.0998C67.5238 64.2067 65.2782 74.8867 64.1894 78.8098C63.5394 81.1511 63.8413 81.7873 64.0013 81.9523C64.1195 82.0742 64.2538 82.0448 64.2688 82.0423C66.1313 81.6711 68.0826 78.2792 69.5076 75.8023C70.6776 73.7692 71.2157 72.8811 71.692 73.0279C72.0438 73.1404 72.212 73.7454 71.9595 76.4104C71.3026 83.3536 67.0713 87.8367 64.2707 90.8029C63.2395 91.8961 62.4245 92.7592 62.0863 93.4354C61.5313 94.5467 61.6451 94.9498 61.762 95.0917C61.9257 95.2898 62.3145 95.2479 62.4813 95.2098C63.1076 94.6929 67.372 91.2342 68.6082 91.7536C68.9145 91.8829 69.1138 92.0961 69.2007 92.3867C69.437 93.1761 68.7182 94.2629 68.6876 94.3092C60.6913 104.714 60.3895 104.714 60.2757 104.714L60.2757 104.534L60.2063 104.371C60.6301 104.102 65.3357 98.0811 68.3951 94.0998C68.5707 93.8354 69.0113 93.0098 68.8557 92.4898C68.8001 92.3048 68.6732 92.1717 68.4682 92.0848C67.6701 91.7548 64.4945 94.0086 62.6801 95.5123L62.6145 95.5467C62.5832 95.5555 61.8476 95.7579 61.4851 95.3211C61.1732 94.9448 61.2651 94.2754 61.7651 93.2748C62.127 92.5511 62.9576 91.6711 64.0095 90.5567C66.7757 87.6261 70.9563 83.1973 71.6013 76.3767C71.8482 73.7692 71.6463 73.4154 71.5782 73.3692C71.3157 73.3798 70.4857 74.8223 69.8195 75.9817C68.3601 78.5186 66.3613 81.9923 64.3501 82.3923C64.2388 82.4255 63.9688 82.4273 63.7526 82.2129C63.2945 81.7573 63.3245 80.5798 63.8426 78.7136C64.9263 74.8086 67.1632 64.1979 67.0363 62.1211C66.9682 60.9967 66.6782 60.2354 66.2807 60.1354C66.0307 60.0748 65.4651 60.2079 64.4682 61.8173C63.5782 63.2523 62.9907 65.4736 62.4726 67.4323C61.8688 69.7173 61.4307 71.3729 60.6576 71.3729L60.6407 71.3729C59.787 71.3461 59.1438 69.3436 58.2607 66.2911C57.8795 64.9748 57.5195 63.7311 57.202 63.1255C56.6901 62.1505 56.1601 61.5973 55.827 61.6636C55.6201 61.7086 55.1245 62.1004 54.9807 64.7598C54.7288 69.4198 55.9051 76.1404 55.917 76.2073C55.9251 76.2261 56.272 77.2873 55.6145 77.923C54.9495 78.5648 53.5351 78.4861 51.4107 77.688C48.3682 76.5461 47.6351 77.0511 47.4613 77.3217C47.1238 77.8454 47.6863 79.0079 48.8282 80.1486C49.2657 80.5854 49.8426 81.1117 50.5113 81.7211C53.3038 84.2673 56.7795 87.4361 55.9007 89.1679C55.6413 89.6792 55.2663 89.9855 54.7857 90.078C53.5595 90.3148 52.0995 89.0442 52.0376 88.9892C51.6426 88.6598 50.9576 88.2598 50.6832 88.4136C50.5157 88.5073 50.4657 88.8473 50.5426 89.3717C50.8963 91.7867 52.6026 95.1123 60.2763 104.968L59.9926 105.189L59.9926 105.188Z" fill="#1A1A1A"/>
<path d="M54.8931 90.5949L54.625 90.8342L59.7868 96.6176L60.0549 96.3783L54.8931 90.5949Z" fill="#1A1A1A"/>
</svg>
