<svg width="42" height="42" viewBox="0 0 42 42" fill="none" xmlns="http://www.w3.org/2000/svg">
<path d="M27.0407 0.551523C27.695 -0.513965 29.3397 0.0846747 29.156 1.32143L26.7693 17.3906C26.7017 17.8458 26.9123 18.2975 27.3045 18.5383L41.1483 27.039C42.2138 27.6933 41.6152 29.338 40.3784 29.1543L24.3093 26.7676C23.854 26.7 23.4023 26.9106 23.1615 27.3028L14.6608 41.1466C14.0066 42.2121 12.3618 41.6135 12.5455 40.3767L14.9322 24.3076C14.9999 23.8523 14.7892 23.4007 14.397 23.1598L0.55319 14.6591C-0.512297 14.0049 0.0863421 12.3601 1.3231 12.5438L17.3922 14.9306C17.8475 14.9982 18.2992 14.7876 18.54 14.3954L27.0407 0.551523Z" fill="#1C1B19"/>
</svg>
