<svg width="41" height="49" viewBox="0 0 41 49" fill="none" xmlns="http://www.w3.org/2000/svg">
<path d="M36.2109 31.8317C38.2166 29.0975 39.7304 25.9376 40.2696 22.5695C40.544 20.8666 40.5345 19.1352 40.4399 17.4133C40.3642 15.9658 40.2034 14.5183 39.9196 13.0897C39.4087 10.4975 38.4531 7.94302 36.807 5.84271C32.6915 0.58247 25.2174 -0.439305 18.9638 0.147269C15.6525 0.459477 12.3506 1.37718 9.55967 3.21259C7.00524 4.88716 5.009 7.33753 3.95885 10.2136C3.38174 11.7841 3.07898 13.4398 2.98438 15.1144C2.88031 17.1295 2.74785 19.1258 2.1802 21.0747C1.94368 21.8789 1.63147 22.6547 1.25304 23.3926C0.855682 24.1684 0.193423 24.8874 0.0420494 25.7578C-0.118785 26.6377 0.183963 27.5838 0.91245 28.1136C1.42334 28.492 1.97207 28.5204 2.5681 28.5015C2.93707 28.492 3.29658 28.4826 3.66556 28.4731C3.63718 29.2867 3.07899 29.9679 2.77624 30.7153C2.48295 31.4627 2.63433 32.1344 3.18306 32.6169C2.81408 33.459 2.90869 34.4429 3.81694 34.8686C3.95885 35.8336 3.59933 36.8081 3.71286 37.7826C3.82639 38.7665 4.31836 39.6937 5.18876 40.2046C6.08754 40.7344 7.11877 40.7627 8.13109 40.6871C9.17178 40.6114 10.2125 40.4695 11.2437 40.3181C11.8114 40.2424 12.3696 40.1573 12.9372 40.0626C12.8899 40.9236 12.8237 41.7845 12.7291 42.6455C12.5304 44.5376 12.2749 46.4771 11.6884 48.2936C11.6221 48.5017 11.6221 48.8045 11.8208 48.9464C12.0006 49.0694 12.2371 48.9748 12.3033 48.7666C13.2589 45.8243 13.5522 42.5982 13.6751 39.5139C13.6846 39.3436 13.5427 39.003 13.3156 39.0409C11.4708 39.3436 9.59752 39.6558 7.72427 39.7504C6.61735 39.8072 5.32121 39.6085 4.71572 38.5489C4.42243 38.0286 4.36567 37.4041 4.43189 36.8176C4.51704 36.0607 4.63057 35.3606 4.51704 34.5943C4.48865 34.405 4.46027 34.1875 4.29944 34.0645C4.0913 33.9036 3.73179 33.9131 3.67502 33.5914C3.62772 33.336 3.83585 32.9859 3.97777 32.7872C4.11022 32.598 4.1386 32.1817 3.90208 32.0398C3.64664 31.8979 3.31551 31.7182 3.34389 31.3965C3.36281 31.0843 3.62772 30.7342 3.76963 30.4693C4.21429 29.6368 4.49812 28.8042 4.34674 27.8487C4.31836 27.6878 4.17644 27.4986 3.99669 27.4986C2.92761 27.527 0.80838 27.9244 0.723233 26.2971C0.69485 25.7389 1.03544 25.3132 1.31927 24.859C1.56525 24.4617 1.79231 24.0549 2.00045 23.6386C2.41673 22.7966 2.73839 21.9073 2.97492 20.999C3.25874 19.9299 3.4385 18.8325 3.55203 17.7255C3.66556 16.6376 3.6561 15.5496 3.76017 14.4616C3.921 12.6734 4.38458 10.9137 5.1793 9.29592C8.66089 2.2192 17.2987 0.468936 24.4795 1.05551C27.9611 1.33934 31.5373 2.24758 34.3188 4.46142C36.5799 6.25898 38.0463 8.81342 38.8316 11.5665C39.2479 13.0235 39.5033 14.5278 39.6452 16.0321C39.8155 17.8202 39.9101 19.665 39.7114 21.4531C39.2952 25.2091 37.6017 28.7001 35.3027 31.6614C34.6215 32.5413 33.893 33.3833 33.0983 34.1496C32.9469 34.2915 32.7766 34.4334 32.6347 34.5848C32.4171 34.8119 32.436 35.0295 32.4739 35.3133C32.8618 38.284 33.9971 41.2547 35.6527 43.7429C36.2677 44.6606 36.9678 45.5026 37.753 46.2784C37.9233 46.4487 38.1599 46.269 38.2355 46.0987C38.3396 45.8716 38.2734 45.6162 38.1031 45.4459C36.1825 43.5348 34.8391 41.1033 33.9971 38.5395C33.7227 37.6974 33.4957 36.8365 33.3254 35.9661C33.2781 35.7201 33.2308 35.4741 33.2024 35.2281C34.3093 34.2726 35.3121 33.0522 36.2109 31.8317Z" fill="black"/>
<path d="M34.4614 17.2618C34.433 16.3252 34.1208 15.4643 33.6288 14.7169C33.6099 14.6222 33.5815 14.5276 33.5436 14.4425C33.9978 14.3384 34.414 14.1019 34.7546 13.6572C35.9656 12.0584 35.2466 9.73098 33.3071 9.17279C31.8123 8.74705 30.4594 9.37147 29.5512 10.45C29.3619 9.7499 29.0214 9.08764 28.5105 8.51999C28.4632 8.47268 28.4253 8.42538 28.378 8.37808C28.6618 7.37522 28.5956 6.20208 27.9807 5.33168C26.817 3.68549 24.2815 3.86524 22.8718 5.07623C22.7961 5.14246 22.7299 5.20869 22.6542 5.28437C22.3609 5.15192 22.0676 5.04785 21.7743 5.00055C21.2634 4.90594 20.7809 5.16138 20.4214 5.53982C18.9645 4.88702 17.1196 5.18977 15.9181 6.26831C15.1044 6.98733 14.6692 8.0091 14.5841 9.06872C14.1583 9.5323 13.8083 10.0905 13.5812 10.6865C12.796 12.7585 13.5623 15.2183 15.322 16.5617C16.0221 17.101 16.8925 17.4416 17.7913 17.5646C17.8197 17.6781 17.8575 17.7916 17.8954 17.8957C18.3968 19.3338 19.6456 20.2515 21.0648 20.4501C21.7838 21.8503 23.2408 22.6829 24.8207 22.5883C25.9655 22.5221 27.0724 22.0206 27.8198 21.1881C28.747 21.453 29.7025 21.6611 30.6675 21.6044C32.9854 21.4814 34.537 19.5419 34.4614 17.2618ZM32.9287 15.6346C32.6732 16.3536 31.7366 16.5996 31.0554 16.5144C30.1472 16.4103 29.5228 15.6629 29.2484 14.8398C29.1916 14.6695 29.1538 14.4993 29.1254 14.3195C29.1254 14.3195 29.1254 14.31 29.1349 14.31C30.0337 14.1492 30.9892 14.2533 31.888 14.4141C32.0488 14.4425 32.2097 14.4614 32.3705 14.4803C32.5976 14.6979 32.8057 14.9345 32.9854 15.1899C33.0044 15.3318 32.9855 15.4832 32.9287 15.6346ZM28.7848 18.2647C28.7659 18.2741 28.747 18.2836 28.7186 18.2931C28.6429 17.9052 28.4726 17.5362 28.1983 17.2334C27.8577 16.8455 27.413 16.628 26.9305 16.5996C27.4792 16.3157 27.9807 15.9089 28.3875 15.4359C28.4821 15.521 28.5767 15.6062 28.6618 15.7008C28.7375 15.7859 28.8227 15.89 28.8889 15.9941C28.9457 16.1076 29.0119 16.2117 29.0876 16.3252C29.466 16.9969 29.5985 17.8862 28.7848 18.2647ZM27.4225 20.0906C26.6088 19.8446 25.5871 19.5419 25.1235 18.7661C25.1046 18.7377 25.0951 18.7093 25.0762 18.6904C25.3316 18.4066 25.6627 18.066 26.0128 17.8295C26.3629 18.6431 27.1197 19.2675 27.9996 19.3338C27.9239 19.6176 27.782 19.9014 27.6117 20.1568C27.5549 20.1285 27.4887 20.1095 27.4225 20.0906ZM21.5094 19.5419C21.2445 18.8796 21.1594 18.1322 21.3013 17.3943C21.3391 17.1861 21.3959 16.9875 21.4716 16.7982C21.604 16.7131 21.7365 16.6185 21.8595 16.5144C22.1528 16.2684 22.4082 15.9657 22.5974 15.6346C22.9948 16.2874 23.657 16.7604 24.4139 16.9402C24.2436 17.4132 24.1679 17.9241 24.2342 18.416C23.657 19.0121 22.9853 19.4094 22.1433 19.523C21.9162 19.5419 21.7081 19.5514 21.5094 19.5419ZM20.9418 16.0698C20.166 16.4955 19.2577 16.6847 18.359 16.6563C18.2833 15.8049 18.5387 14.925 19.1064 14.2817C19.7686 13.5437 20.9607 13.099 21.8027 13.8275C22.0392 14.0357 22.1528 14.2627 22.1622 14.4898C21.7081 14.8588 21.3202 15.3223 21.0364 15.8711C21.008 15.9373 20.9796 15.9941 20.9512 16.0603C20.9512 16.0698 20.9512 16.0698 20.9418 16.0698ZM20.762 6.79811C20.9796 6.96841 21.2634 7.23331 21.4337 7.5266C21.377 7.78204 21.3486 8.02803 21.3391 8.27401C21.2824 8.30239 21.2161 8.32131 21.1499 8.33077C20.762 8.38754 20.5728 8.11317 20.4877 7.77258C20.4025 7.44145 20.4309 7.01571 20.5728 6.6562C20.639 6.7035 20.7053 6.75081 20.762 6.79811ZM22.7583 6.41968C23.061 6.58997 23.3543 6.77919 23.6192 6.99679C23.5057 7.01571 23.4016 7.04409 23.2881 7.08194C22.9286 7.18601 22.569 7.34684 22.2379 7.56444C22.2285 7.53606 22.219 7.50768 22.2095 7.47929C22.3325 7.0914 22.5217 6.73188 22.7583 6.41968ZM26.3345 12.3422C27.063 12.3706 27.7914 12.4462 28.5105 12.5882C28.4632 12.8247 28.4253 13.0707 28.4064 13.3261C28.1131 13.4775 27.8387 13.6478 27.5644 13.8275C26.1169 13.1937 24.3477 13.2504 22.9475 13.9694C22.9948 13.7045 23.1178 13.4491 23.3354 13.222C23.4962 13.0423 23.6854 12.9004 23.8841 12.7868C24.1112 12.7111 24.3193 12.6165 24.5369 12.5125C25.114 12.3422 25.7479 12.3233 26.3345 12.3422ZM23.7138 15.6346C23.4394 15.4359 23.2313 15.1899 23.0988 14.9155C23.9125 14.4519 24.8964 14.2627 25.8709 14.3668C26.1074 14.3952 26.3345 14.433 26.571 14.4898C25.9277 14.9345 25.3222 15.4264 24.8775 16.0508C24.4518 16.013 24.0544 15.8805 23.7138 15.6346ZM24.5085 7.82935C24.622 7.98072 24.7167 8.14156 24.745 8.32131C24.8207 8.68083 24.272 8.9268 23.9409 9.04979C23.4489 9.15386 22.692 9.30524 22.2663 8.90788C22.1906 8.84166 22.1433 8.75651 22.1055 8.6619C22.7677 8.11317 23.6287 7.85773 24.5085 7.82935ZM20.8755 12.1151C21.0364 12.3138 21.2351 12.4746 21.4527 12.6071C21.1878 12.5219 20.8945 12.4936 20.6106 12.5125C20.7147 12.3895 20.8093 12.257 20.8755 12.1151ZM22.4177 13.2315C22.2852 13.0801 22.1338 12.9477 21.9635 12.8436C22.1528 12.9098 22.3514 12.9477 22.5596 12.9666C22.5123 13.0517 22.465 13.1369 22.4177 13.2315ZM27.6117 17.8389C27.7914 17.9998 27.905 18.1795 27.9807 18.3593C27.4603 18.2836 26.9589 17.9619 26.7034 17.5267C27.0062 17.4889 27.3089 17.5646 27.6117 17.8389ZM27.6495 14.9061C27.6779 14.925 27.7063 14.9345 27.7347 14.9534C27.5171 15.171 27.2711 15.3697 26.9967 15.5305C27.1859 15.294 27.413 15.0764 27.6495 14.9061ZM24.3571 11.6042C24.1301 11.6705 23.9125 11.7651 23.6949 11.8786C22.8529 12.1435 21.7081 12.0867 21.2445 11.2258C21.2256 11.1879 21.2067 11.1501 21.1972 11.1123C21.2351 10.7906 21.2161 10.4595 21.1499 10.1283C21.2256 9.82559 21.377 9.54176 21.5473 9.28632C21.6513 9.49446 21.8027 9.67422 22.0014 9.81613C22.569 10.2135 23.3259 10.1283 23.9693 9.99588C23.9976 9.99588 24.0355 9.98642 24.0639 9.97696C24.0922 9.9675 24.1301 9.95804 24.149 9.93912C24.7356 9.7026 25.2938 9.33362 25.4262 8.68082C25.483 8.40646 25.4641 8.14155 25.3789 7.88611C25.6911 7.93341 26.0033 8.0091 26.2872 8.12263C26.694 8.27401 27.0819 8.48215 27.4225 8.72813C27.1859 9.17279 26.8643 9.57961 26.5142 9.93912C25.9182 10.5541 25.1613 11.1974 24.3571 11.6042ZM20.3836 10.1567C20.3268 10.5068 20.3457 10.8757 20.4403 11.2353C20.4025 11.3677 20.3552 11.5002 20.2795 11.6232C19.1442 13.5626 16.3533 12.4935 15.5869 10.819C15.3883 10.3932 15.2936 9.93912 15.2747 9.49446C15.7194 9.08764 16.2586 8.78489 16.8547 8.62406C17.8008 8.36861 18.9171 8.50106 19.6835 9.1444C20.0051 9.41877 20.2511 9.76882 20.3836 10.1567ZM25.1802 17.0253C25.3411 17.0253 25.5019 17.0158 25.6533 16.9969C25.3978 17.1767 25.1708 17.3943 24.9437 17.6213C24.991 17.4132 25.0762 17.2145 25.1802 17.0253ZM31.3203 10.1567C32.7773 9.62691 35.0952 10.4878 34.5749 12.3611C34.3573 13.1558 33.7423 13.5532 32.9854 13.5815C32.5976 13.1747 32.0867 12.8814 31.5379 12.7395C31.2257 12.5503 30.8946 12.38 30.554 12.2381C30.2796 12.1246 30.0053 12.03 29.7309 11.9354C29.7309 11.7934 29.7309 11.6515 29.7215 11.5002C30.0999 10.8852 30.6392 10.4027 31.3203 10.1567ZM28.9835 11.2826C28.9173 11.415 28.8511 11.5475 28.7943 11.6799C28.1131 11.538 27.413 11.4529 26.7224 11.4056C26.5331 11.3961 26.3439 11.3866 26.1453 11.3866C26.1642 11.3677 26.1831 11.3582 26.202 11.3393C26.9116 10.7433 27.5738 10.0621 28.009 9.24848C28.5294 9.80667 28.8794 10.5068 28.9835 11.2826ZM23.8652 5.46413C25.4357 4.67888 27.7914 5.12354 27.8198 7.22385C27.8198 7.44145 27.8009 7.64959 27.7536 7.84827C26.8927 7.23331 25.833 6.89272 24.7734 6.8738C24.4139 6.46698 23.9409 6.05071 23.4394 5.71958C23.5719 5.62497 23.7138 5.53982 23.8652 5.46413ZM21.5378 5.91825C21.6986 5.91825 21.8784 5.96556 22.0487 6.04124C21.9352 6.21154 21.8406 6.40075 21.7554 6.58997C21.6419 6.4386 21.5094 6.29669 21.3864 6.1737C21.3202 6.10747 21.2445 6.0507 21.1783 5.99394C21.2824 5.94663 21.4054 5.91825 21.5378 5.91825ZM17.1101 6.50483C17.8575 6.15477 18.7374 6.04124 19.5416 6.23046C19.6646 6.25884 19.7781 6.29669 19.9011 6.33453C19.6929 6.86434 19.6362 7.55498 19.7875 8.14155C19.4375 7.91449 19.0496 7.7442 18.6333 7.65905C17.498 7.41307 16.3911 7.68743 15.4829 8.29293C15.7572 7.5266 16.306 6.88326 17.1101 6.50483ZM13.988 12.7206C13.9029 11.8408 14.1583 10.9704 14.6314 10.2608C14.7354 10.8095 14.9341 11.3488 15.2274 11.8313C15.9464 12.995 17.3372 13.7045 18.6333 13.591C17.9427 14.3857 17.6021 15.5021 17.6399 16.5901C15.7572 16.2306 14.1867 14.6696 13.988 12.7206ZM18.6049 17.6119C19.2861 17.6119 19.9673 17.4889 20.6012 17.2429C20.4782 17.9525 20.4971 18.6999 20.6769 19.4C19.7497 19.1351 18.9834 18.5012 18.6049 17.6119ZM24.1395 21.6138C23.2691 21.5098 22.5596 21.0746 22.0582 20.4691C22.2568 20.4501 22.4461 20.4218 22.6447 20.3744C23.4016 20.1947 23.9787 19.7879 24.5085 19.2864C24.5085 19.2959 24.518 19.2959 24.518 19.3054C25.0099 20.1947 25.975 20.611 26.9021 20.9137C26.1074 21.4814 25.1046 21.7274 24.1395 21.6138ZM30.5635 20.6583C29.8255 20.6772 29.097 20.5447 28.3875 20.365C28.4821 20.1947 28.5578 20.0055 28.6145 19.8163C28.6713 19.627 28.7186 19.4378 28.747 19.2486C29.7593 18.9648 30.1094 18.0944 30.0621 17.1767C30.2418 17.2713 30.4499 17.347 30.6675 17.4037C31.519 17.6119 32.484 17.3943 33.099 16.7604C33.2693 16.5806 33.4112 16.382 33.5058 16.1644C33.5909 16.3914 33.6572 16.6279 33.695 16.8739C33.8369 17.7443 33.6572 18.6715 33.1463 19.4C32.5503 20.242 31.5758 20.6394 30.5635 20.6583Z" fill="black"/>
</svg>
